<?xml version="1.0" encoding="UTF-8" standalone="no"?>
<!-- Created with Inkscape (http://www.inkscape.org/) -->

<svg
   inkscape:version="1.1 (c68e22c387, 2021-05-23)"
   sodipodi:docname="fonts-positive.svg"
   id="SVGRoot"
   version="1.1"
   viewBox="0 0 1500 250"
   height="250"
   width="1500"
   xmlns:inkscape="http://www.inkscape.org/namespaces/inkscape"
   xmlns:sodipodi="http://sodipodi.sourceforge.net/DTD/sodipodi-0.dtd"
   xmlns="http://www.w3.org/2000/svg"
   xmlns:svg="http://www.w3.org/2000/svg">
  <sodipodi:namedview
     id="namedview32418"
     pagecolor="#505050"
     bordercolor="#eeeeee"
     borderopacity="1"
     inkscape:pageshadow="0"
     inkscape:pageopacity="0"
     inkscape:pagecheckerboard="0"
     inkscape:document-units="px"
     showgrid="false"
     inkscape:zoom="0.82542931"
     inkscape:cx="664.5027"
     inkscape:cy="32.104506"
     inkscape:current-layer="layer1"
     inkscape:snap-bbox="true"
     inkscape:bbox-paths="true"
     inkscape:object-paths="true"
     inkscape:snap-bbox-midpoints="true"
     inkscape:snap-bbox-edge-midpoints="true"
     inkscape:window-width="1920"
     inkscape:window-height="989"
     inkscape:window-x="-9"
     inkscape:window-y="-9"
     inkscape:window-maximized="1" />
  <defs
     id="defs32413">
    <filter
       style="color-interpolation-filters:sRGB"
       inkscape:label="Greyscale"
       id="filter439502"
       x="-0.014759365"
       y="-0.011013929"
       width="1.0273222"
       height="1.0239658">
      <feColorMatrix
         values="0.21 0.72 0.072 0 0 0.21 0.72 0.072 0 0 0.21 0.72 0.072 0 0 0 0 0 1 0 "
         id="feColorMatrix439500" />
    </filter>
    <filter
       style="color-interpolation-filters:sRGB"
       inkscape:label="Greyscale"
       id="filter439506"
       x="-0.012198776"
       y="-0.0133698"
       width="1.0250034"
       height="1.0260875">
      <feColorMatrix
         values="0.21 0.72 0.072 0 0 0.21 0.72 0.072 0 0 0.21 0.72 0.072 0 0 0 0 0 1 0 "
         id="feColorMatrix439504" />
    </filter>
    <filter
       style="color-interpolation-filters:sRGB"
       inkscape:label="Greyscale"
       id="filter439510"
       x="-0.0097815869"
       y="-0.016557066"
       width="1.0227838"
       height="1.0289789">
      <feColorMatrix
         values="0.21 0.72 0.072 0 0 0.21 0.72 0.072 0 0 0.21 0.72 0.072 0 0 0 0 0 1 0 "
         id="feColorMatrix439508" />
    </filter>
    <filter
       style="color-interpolation-filters:sRGB"
       inkscape:label="Greyscale"
       id="filter439514"
       x="-0.0097927544"
       y="-0.012482116"
       width="1.0228409"
       height="1.0290717">
      <feColorMatrix
         values="0.21 0.72 0.072 0 0 0.21 0.72 0.072 0 0 0.21 0.72 0.072 0 0 0 0 0 1 0 "
         id="feColorMatrix439512" />
    </filter>
    <filter
       style="color-interpolation-filters:sRGB"
       inkscape:label="Greyscale"
       id="filter439518"
       x="-0.012221048"
       y="-0.012739026"
       width="1.0250626"
       height="1.0261874">
      <feColorMatrix
         values="0.21 0.72 0.072 0 0 0.21 0.72 0.072 0 0 0.21 0.72 0.072 0 0 0 0 0 1 0 "
         id="feColorMatrix439516" />
    </filter>
    <filter
       style="color-interpolation-filters:sRGB"
       inkscape:label="Greyscale"
       id="filter439522"
       x="-0.01483388"
       y="-0.012948699"
       width="1.0274705"
       height="1.024031">
      <feColorMatrix
         values="0.21 0.72 0.072 0 0 0.21 0.72 0.072 0 0 0.21 0.72 0.072 0 0 0 0 0 1 0 "
         id="feColorMatrix439520" />
    </filter>
    <filter
       style="color-interpolation-filters:sRGB"
       inkscape:label="Greyscale"
       id="filter439526"
       x="-0.014561634"
       y="-0.012651609"
       width="1.0290953"
       height="1.0230787">
      <feColorMatrix
         values="0.21 0.72 0.072 0 0 0.21 0.72 0.072 0 0 0.21 0.72 0.072 0 0 0 0 0 1 0 "
         id="feColorMatrix439524" />
    </filter>
    <filter
       style="color-interpolation-filters:sRGB"
       inkscape:label="Greyscale"
       id="filter439530"
       x="-0.012623959"
       y="-0.012938922"
       width="1.0274804"
       height="1.0239927">
      <feColorMatrix
         values="0.21 0.72 0.072 0 0 0.21 0.72 0.072 0 0 0.21 0.72 0.072 0 0 0 0 0 1 0 "
         id="feColorMatrix439528" />
    </filter>
    <filter
       style="color-interpolation-filters:sRGB"
       inkscape:label="Greyscale"
       id="filter439534"
       x="-0.012860469"
       y="-0.012725824"
       width="1.0251007"
       height="1.0261182">
      <feColorMatrix
         values="0.21 0.72 0.072 0 0 0.21 0.72 0.072 0 0 0.21 0.72 0.072 0 0 0 0 0 1 0 "
         id="feColorMatrix439532" />
    </filter>
    <filter
       style="color-interpolation-filters:sRGB"
       inkscape:label="Greyscale"
       id="filter439538"
       x="-0.012994008"
       y="-0.012420811"
       width="1.0228411"
       height="1.0289242">
      <feColorMatrix
         values="0.21 0.72 0.072 0 0 0.21 0.72 0.072 0 0 0.21 0.72 0.072 0 0 0 0 0 1 0 "
         id="feColorMatrix439536" />
    </filter>
    <filter
       style="color-interpolation-filters:sRGB"
       inkscape:label="Greyscale"
       id="filter439542"
       x="-0.012992011"
       y="-0.016474618"
       width="1.022725"
       height="1.0288349">
      <feColorMatrix
         values="0.21 0.72 0.072 0 0 0.21 0.72 0.072 0 0 0.21 0.72 0.072 0 0 0 0 0 1 0 "
         id="feColorMatrix439540" />
    </filter>
    <filter
       style="color-interpolation-filters:sRGB"
       inkscape:label="Greyscale"
       id="filter439546"
       x="-0.012777513"
       y="-0.013337689"
       width="1.0248979"
       height="1.0260091">
      <feColorMatrix
         values="0.21 0.72 0.072 0 0 0.21 0.72 0.072 0 0 0.21 0.72 0.072 0 0 0 0 0 1 0 "
         id="feColorMatrix439544" />
    </filter>
    <filter
       style="color-interpolation-filters:sRGB"
       inkscape:label="Greyscale"
       id="filter439550"
       x="-0.012523829"
       y="-0.010999327"
       width="1.0271902"
       height="1.023912">
      <feColorMatrix
         values="0.21 0.72 0.072 0 0 0.21 0.72 0.072 0 0 0.21 0.72 0.072 0 0 0 0 0 1 0 "
         id="feColorMatrix439548" />
    </filter>
    <filter
       style="color-interpolation-filters:sRGB"
       inkscape:label="Greyscale"
       id="filter439554"
       x="-0.014368828"
       y="-0.01043784"
       width="1.0288149"
       height="1.0230671">
      <feColorMatrix
         values="0.21 0.72 0.072 0 0 0.21 0.72 0.072 0 0 0.21 0.72 0.072 0 0 0 0 0 1 0 "
         id="feColorMatrix439552" />
    </filter>
    <filter
       style="color-interpolation-filters:sRGB"
       inkscape:label="Greyscale"
       id="filter503175"
       x="-0.0018665642"
       y="-0.013065955"
       width="1.0037332"
       height="1.0261319">
      <feColorMatrix
         values="0.618044 0.72381 -0.110563 -0.322094 0 0.618044 0.72381 -0.110563 -0.322094 0 0.618044 0.72381 -0.110563 -0.322094 0 0 0 0 1 0 "
         id="feColorMatrix503173" />
    </filter>
    <filter
       style="color-interpolation-filters:sRGB"
       inkscape:label="Greyscale"
       id="filter504073"
       x="-0.014368799"
       y="-0.010437819"
       width="1.0288149"
       height="1.0230671">
      <feColorMatrix
         values="0.618044 0.72381 -0.110563 -0.12 0 0.618044 0.72381 -0.110563 -0.12 0 0.618044 0.72381 -0.110563 -0.12 0 0 0 0 1 0 "
         id="feColorMatrix504071" />
    </filter>
    <filter
       style="color-interpolation-filters:sRGB"
       inkscape:label="Greyscale"
       id="filter504077"
       x="-0.012523803"
       y="-0.010999305"
       width="1.0271901"
       height="1.023912">
      <feColorMatrix
         values="0.618044 0.72381 -0.110563 -0.12 0 0.618044 0.72381 -0.110563 -0.12 0 0.618044 0.72381 -0.110563 -0.12 0 0 0 0 1 0 "
         id="feColorMatrix504075" />
    </filter>
    <filter
       style="color-interpolation-filters:sRGB"
       inkscape:label="Greyscale"
       id="filter504081"
       x="-0.012777488"
       y="-0.013337663"
       width="1.0248978"
       height="1.0260091">
      <feColorMatrix
         values="0.618044 0.72381 -0.110563 -0.12 0 0.618044 0.72381 -0.110563 -0.12 0 0.618044 0.72381 -0.110563 -0.12 0 0 0 0 1 0 "
         id="feColorMatrix504079" />
    </filter>
    <filter
       style="color-interpolation-filters:sRGB"
       inkscape:label="Greyscale"
       id="filter504085"
       x="-0.012991986"
       y="-0.016474584"
       width="1.022725"
       height="1.0288349">
      <feColorMatrix
         values="0.618044 0.72381 -0.110563 -0.12 0 0.618044 0.72381 -0.110563 -0.12 0 0.618044 0.72381 -0.110563 -0.12 0 0 0 0 1 0 "
         id="feColorMatrix504083" />
    </filter>
    <filter
       style="color-interpolation-filters:sRGB"
       inkscape:label="Greyscale"
       id="filter504089"
       x="-0.012993982"
       y="-0.012420786"
       width="1.022841"
       height="1.0289241">
      <feColorMatrix
         values="0.618044 0.72381 -0.110563 -0.12 0 0.618044 0.72381 -0.110563 -0.12 0 0.618044 0.72381 -0.110563 -0.12 0 0 0 0 1 0 "
         id="feColorMatrix504087" />
    </filter>
    <filter
       style="color-interpolation-filters:sRGB"
       inkscape:label="Greyscale"
       id="filter504093"
       x="-0.012860442"
       y="-0.012725798"
       width="1.0251006"
       height="1.026118">
      <feColorMatrix
         values="0.618044 0.72381 -0.110563 -0.12 0 0.618044 0.72381 -0.110563 -0.12 0 0.618044 0.72381 -0.110563 -0.12 0 0 0 0 1 0 "
         id="feColorMatrix504091" />
    </filter>
    <filter
       style="color-interpolation-filters:sRGB"
       inkscape:label="Greyscale"
       id="filter504097"
       x="-0.012623934"
       y="-0.012938895"
       width="1.0274802"
       height="1.0239927">
      <feColorMatrix
         values="0.618044 0.72381 -0.110563 -0.12 0 0.618044 0.72381 -0.110563 -0.12 0 0.618044 0.72381 -0.110563 -0.12 0 0 0 0 1 0 "
         id="feColorMatrix504095" />
    </filter>
    <filter
       style="color-interpolation-filters:sRGB"
       inkscape:label="Greyscale"
       id="filter504101"
       x="-0.014561605"
       y="-0.012651581"
       width="1.0290952"
       height="1.0230787">
      <feColorMatrix
         values="0.618044 0.72381 -0.110563 -0.12 0 0.618044 0.72381 -0.110563 -0.12 0 0.618044 0.72381 -0.110563 -0.12 0 0 0 0 1 0 "
         id="feColorMatrix504099" />
    </filter>
    <filter
       style="color-interpolation-filters:sRGB"
       inkscape:label="Greyscale"
       id="filter504105"
       x="-0.014833851"
       y="-0.012948672"
       width="1.0274704"
       height="1.024031">
      <feColorMatrix
         values="0.618044 0.72381 -0.110563 -0.12 0 0.618044 0.72381 -0.110563 -0.12 0 0.618044 0.72381 -0.110563 -0.12 0 0 0 0 1 0 "
         id="feColorMatrix504103" />
    </filter>
    <filter
       style="color-interpolation-filters:sRGB"
       inkscape:label="Greyscale"
       id="filter504109"
       x="-0.012221023"
       y="-0.012739001"
       width="1.0250626"
       height="1.0261873">
      <feColorMatrix
         values="0.618044 0.72381 -0.110563 -0.12 0 0.618044 0.72381 -0.110563 -0.12 0 0.618044 0.72381 -0.110563 -0.12 0 0 0 0 1 0 "
         id="feColorMatrix504107" />
    </filter>
    <filter
       style="color-interpolation-filters:sRGB"
       inkscape:label="Greyscale"
       id="filter504113"
       x="-0.0097927349"
       y="-0.012482092"
       width="1.0228407"
       height="1.0290716">
      <feColorMatrix
         values="0.618044 0.72381 -0.110563 -0.12 0 0.618044 0.72381 -0.110563 -0.12 0 0.618044 0.72381 -0.110563 -0.12 0 0 0 0 1 0 "
         id="feColorMatrix504111" />
    </filter>
    <filter
       style="color-interpolation-filters:sRGB"
       inkscape:label="Greyscale"
       id="filter504117"
       x="-0.0097815385"
       y="-0.016557053"
       width="1.0227836"
       height="1.0289789">
      <feColorMatrix
         values="0.618044 0.72381 -0.110563 -0.12 0 0.618044 0.72381 -0.110563 -0.12 0 0.618044 0.72381 -0.110563 -0.12 0 0 0 0 1 0 "
         id="feColorMatrix504115" />
    </filter>
    <filter
       style="color-interpolation-filters:sRGB"
       inkscape:label="Greyscale"
       id="filter504121"
       x="-0.012198751"
       y="-0.013369773"
       width="1.0250033"
       height="1.0260874">
      <feColorMatrix
         values="0.618044 0.72381 -0.110563 -0.12 0 0.618044 0.72381 -0.110563 -0.12 0 0.618044 0.72381 -0.110563 -0.12 0 0 0 0 1 0 "
         id="feColorMatrix504119" />
    </filter>
    <filter
       style="color-interpolation-filters:sRGB"
       inkscape:label="Greyscale"
       id="filter504125"
       x="-0.014759335"
       y="-0.011013906"
       width="1.0273222"
       height="1.0239657">
      <feColorMatrix
         values="0.618044 0.72381 -0.110563 -0.12 0 0.618044 0.72381 -0.110563 -0.12 0 0.618044 0.72381 -0.110563 -0.12 0 0 0 0 1 0 "
         id="feColorMatrix504123" />
    </filter>
    <filter
       style="color-interpolation-filters:sRGB"
       inkscape:label="Greyscale"
       id="filter504245"
       x="-0.0018665642"
       y="-0.013065955"
       width="1.0037332"
       height="1.0261319">
      <feColorMatrix
         values="0.618044 0.72381 -0.110563 -0.12 0 0.618044 0.72381 -0.110563 -0.12 0 0.618044 0.72381 -0.110563 -0.12 0 0 0 0 1 0 "
         id="feColorMatrix504243" />
    </filter>
    <filter
       style="color-interpolation-filters:sRGB"
       inkscape:label="Greyscale"
       id="filter504249"
       x="-0.01766916"
       y="-0.01766916"
       width="1.0353383"
       height="1.0353383">
      <feColorMatrix
         values="0.618044 0.72381 -0.110563 -0.12 0 0.618044 0.72381 -0.110563 -0.12 0 0.618044 0.72381 -0.110563 -0.12 0 0 0 0 1 0 "
         id="feColorMatrix504247" />
    </filter>
    <filter
       style="color-interpolation-filters:sRGB"
       inkscape:label="Greyscale"
       id="filter504253"
       x="-0.01766916"
       y="-0.01766916"
       width="1.0353383"
       height="1.0353383">
      <feColorMatrix
         values="0.618044 0.72381 -0.110563 -0.12 0 0.618044 0.72381 -0.110563 -0.12 0 0.618044 0.72381 -0.110563 -0.12 0 0 0 0 1 0 "
         id="feColorMatrix504251" />
    </filter>
    <filter
       style="color-interpolation-filters:sRGB"
       inkscape:label="Greyscale"
       id="filter504257"
       x="-0.01766916"
       y="-0.01766916"
       width="1.0353383"
       height="1.0353383">
      <feColorMatrix
         values="0.618044 0.72381 -0.110563 -0.12 0 0.618044 0.72381 -0.110563 -0.12 0 0.618044 0.72381 -0.110563 -0.12 0 0 0 0 1 0 "
         id="feColorMatrix504255" />
    </filter>
    <filter
       style="color-interpolation-filters:sRGB"
       inkscape:label="Greyscale"
       id="filter504261"
       x="-0.01766916"
       y="-0.01766916"
       width="1.0353383"
       height="1.0353383">
      <feColorMatrix
         values="0.618044 0.72381 -0.110563 -0.12 0 0.618044 0.72381 -0.110563 -0.12 0 0.618044 0.72381 -0.110563 -0.12 0 0 0 0 1 0 "
         id="feColorMatrix504259" />
    </filter>
    <filter
       style="color-interpolation-filters:sRGB"
       inkscape:label="Greyscale"
       id="filter504265"
       x="-0.01766916"
       y="-0.01766916"
       width="1.0353383"
       height="1.0353383">
      <feColorMatrix
         values="0.618044 0.72381 -0.110563 -0.12 0 0.618044 0.72381 -0.110563 -0.12 0 0.618044 0.72381 -0.110563 -0.12 0 0 0 0 1 0 "
         id="feColorMatrix504263" />
    </filter>
    <filter
       style="color-interpolation-filters:sRGB"
       inkscape:label="Greyscale"
       id="filter504269"
       x="-0.01766916"
       y="-0.01766916"
       width="1.0353383"
       height="1.0353383">
      <feColorMatrix
         values="0.618044 0.72381 -0.110563 -0.12 0 0.618044 0.72381 -0.110563 -0.12 0 0.618044 0.72381 -0.110563 -0.12 0 0 0 0 1 0 "
         id="feColorMatrix504267" />
    </filter>
    <filter
       style="color-interpolation-filters:sRGB"
       inkscape:label="Greyscale"
       id="filter504273"
       x="-0.01766916"
       y="-0.01766916"
       width="1.0353383"
       height="1.0353383">
      <feColorMatrix
         values="0.618044 0.72381 -0.110563 -0.12 0 0.618044 0.72381 -0.110563 -0.12 0 0.618044 0.72381 -0.110563 -0.12 0 0 0 0 1 0 "
         id="feColorMatrix504271" />
    </filter>
    <rect
       x="301.8735"
       y="54.922695"
       width="315.38217"
       height="392.1662"
       id="rect142869" />
    <rect
       x="580.67041"
       y="168.2337"
       width="148.4621"
       height="227.98207"
       id="rect128629" />
    <rect
       x="580.67041"
       y="168.2337"
       width="148.4621"
       height="227.98207"
       id="rect625543" />
    <rect
       x="580.67041"
       y="168.2337"
       width="148.4621"
       height="227.98207"
       id="rect625549" />
    <rect
       x="580.67041"
       y="168.2337"
       width="148.4621"
       height="227.98207"
       id="rect630971" />
    <rect
       x="580.67041"
       y="168.2337"
       width="148.4621"
       height="227.98207"
       id="rect637555" />
    <rect
       x="580.67041"
       y="168.2337"
       width="148.4621"
       height="227.98207"
       id="rect642415" />
    <rect
       x="580.67041"
       y="168.2337"
       width="148.4621"
       height="227.98207"
       id="rect647017" />
    <rect
       x="580.67041"
       y="168.2337"
       width="148.4621"
       height="227.98207"
       id="rect651637" />
    <rect
       x="580.67041"
       y="168.2337"
       width="148.4621"
       height="227.98207"
       id="rect656769" />
    <rect
       x="580.67041"
       y="168.2337"
       width="148.4621"
       height="227.98207"
       id="rect662965" />
    <rect
       x="580.67041"
       y="168.2337"
       width="148.4621"
       height="227.98207"
       id="rect669437" />
    <rect
       x="580.67041"
       y="168.2337"
       width="148.4621"
       height="227.98207"
       id="rect678811" />
    <rect
       x="580.67041"
       y="168.2337"
       width="148.4621"
       height="227.98207"
       id="rect689501" />
    <rect
       x="580.67041"
       y="168.2337"
       width="148.4621"
       height="227.98207"
       id="rect697375" />
    <rect
       x="580.67041"
       y="168.2337"
       width="148.4621"
       height="227.98207"
       id="rect704877" />
    <rect
       x="580.67041"
       y="168.2337"
       width="148.4621"
       height="227.98207"
       id="rect710993" />
    <rect
       x="580.67041"
       y="168.2337"
       width="148.4621"
       height="227.98207"
       id="rect745823" />
    <rect
       x="580.67041"
       y="168.2337"
       width="148.4621"
       height="227.98207"
       id="rect751192" />
    <rect
       x="580.67041"
       y="168.2337"
       width="148.4621"
       height="227.98207"
       id="rect757148" />
    <rect
       x="580.67041"
       y="168.2337"
       width="148.4621"
       height="227.98207"
       id="rect760568" />
    <rect
       x="580.67041"
       y="168.2337"
       width="148.4621"
       height="227.98207"
       id="rect764806" />
    <rect
       x="580.67041"
       y="168.2337"
       width="148.4621"
       height="227.98207"
       id="rect768602" />
    <rect
       x="580.67041"
       y="168.2337"
       width="148.4621"
       height="227.98207"
       id="rect770588" />
    <rect
       x="580.67041"
       y="168.2337"
       width="148.4621"
       height="227.98207"
       id="rect774595" />
    <rect
       x="580.67041"
       y="168.2337"
       width="148.4621"
       height="227.98207"
       id="rect783037" />
    <rect
       x="580.67041"
       y="168.2337"
       width="148.4621"
       height="227.98207"
       id="rect788527" />
    <rect
       x="580.67041"
       y="168.2337"
       width="148.4621"
       height="227.98207"
       id="rect799827" />
    <rect
       x="580.67041"
       y="168.2337"
       width="148.4621"
       height="227.98207"
       id="rect805629" />
    <rect
       x="580.67041"
       y="168.2337"
       width="148.4621"
       height="227.98207"
       id="rect811239" />
    <rect
       x="580.67041"
       y="168.2337"
       width="148.4621"
       height="227.98207"
       id="rect69704" />
    <rect
       x="580.67041"
       y="168.2337"
       width="148.4621"
       height="227.98207"
       id="rect69706" />
    <rect
       x="580.67041"
       y="168.2337"
       width="148.4621"
       height="227.98207"
       id="rect69708" />
    <rect
       x="580.67041"
       y="168.2337"
       width="148.4621"
       height="227.98207"
       id="rect69710" />
    <rect
       x="580.67041"
       y="168.2337"
       width="148.4621"
       height="227.98207"
       id="rect69712" />
    <rect
       x="580.67041"
       y="168.2337"
       width="148.4621"
       height="227.98207"
       id="rect69714" />
    <rect
       x="580.67041"
       y="168.2337"
       width="148.4621"
       height="227.98207"
       id="rect69716" />
    <rect
       x="580.67041"
       y="168.2337"
       width="148.4621"
       height="227.98207"
       id="rect69718" />
    <rect
       x="580.67041"
       y="168.2337"
       width="148.4621"
       height="227.98207"
       id="rect69720" />
    <rect
       x="580.67041"
       y="168.2337"
       width="148.4621"
       height="227.98207"
       id="rect69722" />
    <rect
       x="580.67041"
       y="168.2337"
       width="148.4621"
       height="227.98207"
       id="rect69724" />
    <rect
       x="580.67041"
       y="168.2337"
       width="148.4621"
       height="227.98207"
       id="rect69726" />
    <rect
       x="580.67041"
       y="168.2337"
       width="148.4621"
       height="227.98207"
       id="rect69728" />
    <rect
       x="580.67041"
       y="168.2337"
       width="148.4621"
       height="227.98207"
       id="rect69730" />
    <rect
       x="580.67041"
       y="168.2337"
       width="148.4621"
       height="227.98207"
       id="rect69732" />
    <rect
       x="580.67041"
       y="168.2337"
       width="148.4621"
       height="227.98207"
       id="rect69734" />
    <rect
       x="580.67041"
       y="168.2337"
       width="148.4621"
       height="227.98207"
       id="rect69736" />
    <rect
       x="580.67041"
       y="168.2337"
       width="148.4621"
       height="227.98207"
       id="rect69738" />
    <rect
       x="580.67041"
       y="168.2337"
       width="148.4621"
       height="227.98207"
       id="rect69740" />
    <rect
       x="580.67041"
       y="168.2337"
       width="148.4621"
       height="227.98207"
       id="rect69742" />
    <rect
       x="580.67041"
       y="168.2337"
       width="148.4621"
       height="227.98207"
       id="rect69744" />
    <rect
       x="580.67041"
       y="168.2337"
       width="148.4621"
       height="227.98207"
       id="rect69746" />
    <rect
       x="580.67041"
       y="168.2337"
       width="148.4621"
       height="227.98207"
       id="rect69748" />
    <rect
       x="580.67041"
       y="168.2337"
       width="148.4621"
       height="227.98207"
       id="rect69750" />
    <rect
       x="580.67041"
       y="168.2337"
       width="148.4621"
       height="227.98207"
       id="rect69752" />
    <rect
       x="580.67041"
       y="168.2337"
       width="148.4621"
       height="227.98207"
       id="rect69754" />
    <rect
       x="580.67041"
       y="168.2337"
       width="148.4621"
       height="227.98207"
       id="rect69756" />
    <rect
       x="580.67041"
       y="168.2337"
       width="148.4621"
       height="227.98207"
       id="rect69758" />
    <rect
       x="580.67041"
       y="168.2337"
       width="148.4621"
       height="227.98207"
       id="rect70246" />
    <rect
       x="580.67041"
       y="168.2337"
       width="148.4621"
       height="227.98207"
       id="rect92519" />
    <rect
       x="580.67041"
       y="168.2337"
       width="148.4621"
       height="227.98207"
       id="rect92521" />
    <rect
       x="580.67041"
       y="168.2337"
       width="148.4621"
       height="227.98207"
       id="rect139275" />
    <rect
       x="580.67041"
       y="168.2337"
       width="148.4621"
       height="227.98207"
       id="rect139277" />
    <rect
       x="580.67041"
       y="168.2337"
       width="148.4621"
       height="227.98207"
       id="rect161517" />
    <rect
       x="580.67041"
       y="168.2337"
       width="148.4621"
       height="227.98207"
       id="rect161519" />
    <rect
       x="580.67041"
       y="168.2337"
       width="148.4621"
       height="227.98207"
       id="rect564459" />
    <rect
       x="580.67041"
       y="168.2337"
       width="148.4621"
       height="227.98207"
       id="rect564461" />
    <rect
       x="580.67041"
       y="168.2337"
       width="148.4621"
       height="227.98207"
       id="rect665715" />
    <rect
       x="580.67041"
       y="168.2337"
       width="148.4621"
       height="227.98207"
       id="rect665717" />
  </defs>
  <g
     inkscape:label="Vrstva 1"
     inkscape:groupmode="layer"
     id="layer1">
    <g
       id="g400843"
       transform="translate(421.89518,-291.60087)">
      <rect
         style="fill:#8080ff;fill-opacity:1;fill-rule:evenodd;stroke-width:0.258267"
         id="rect45522"
         width="6.3157067"
         height="20.832041"
         x="-1062.1268"
         y="486.24539"
         inkscape:export-xdpi="96.534714"
         inkscape:export-ydpi="96.534714"
         transform="scale(-1,1)"
         inkscape:export-filename="C:\Users\dansa\Documents\Krita-Malba\ellipse45540.png" />
      <rect
         style="fill:#fe8081;fill-opacity:1;fill-rule:evenodd;stroke-width:0.258267"
         id="rect45524"
         width="6.3157067"
         height="20.832041"
         x="-1055.8112"
         y="486.24539"
         inkscape:export-xdpi="96.534714"
         inkscape:export-ydpi="96.534714"
         transform="scale(-1,1)"
         inkscape:export-filename="C:\Users\dansa\Documents\Krita-Malba\ellipse45540.png" />
      <rect
         style="fill:#ffd42a;fill-rule:evenodd;stroke-width:0.258267"
         id="rect45526"
         width="6.3157067"
         height="20.832041"
         x="-1049.4954"
         y="486.24539"
         inkscape:export-xdpi="96.534714"
         inkscape:export-ydpi="96.534714"
         transform="scale(-1,1)"
         inkscape:export-filename="C:\Users\dansa\Documents\Krita-Malba\ellipse45540.png" />
      <path
         id="path45528"
         style="fill:#ffb380;fill-rule:evenodd;stroke-width:0.258267"
         d="m 1062.1269,507.07744 h -18.9471 l 8.7686,13.97104 h 1.41 z"
         sodipodi:nodetypes="ccccc"
         inkscape:export-xdpi="96.534714"
         inkscape:export-ydpi="96.534714"
         inkscape:export-filename="C:\Users\dansa\Documents\Krita-Malba\ellipse45540.png" />
      <path
         id="path45530"
         style="fill:#f4e3d7;fill-rule:evenodd;stroke-width:0.258267"
         d="m 1062.1269,507.07744 h -6.3156 l -3.3174,14.09288 0.8645,-0.12184 z"
         sodipodi:nodetypes="ccccc"
         inkscape:export-xdpi="96.534714"
         inkscape:export-ydpi="96.534714"
         inkscape:export-filename="C:\Users\dansa\Documents\Krita-Malba\ellipse45540.png" />
      <path
         id="path45532"
         style="fill:#d38d5f;fill-rule:evenodd;stroke-width:0.258267"
         d="m 1043.1799,507.07744 h 6.3157 l 3.3173,14.09288 -0.8644,-0.12184 z"
         sodipodi:nodetypes="ccccc"
         inkscape:export-xdpi="96.534714"
         inkscape:export-ydpi="96.534714"
         inkscape:export-filename="C:\Users\dansa\Documents\Krita-Malba\ellipse45540.png" />
      <path
         id="path45534"
         style="fill:#333333;fill-rule:evenodd;stroke-width:0.258267"
         d="m 1056.4724,516.12331 -7.7017,-0.1075 3.5196,5.53665 0.7035,-0.0131 z"
         sodipodi:nodetypes="ccccc"
         inkscape:export-xdpi="96.534714"
         inkscape:export-ydpi="96.534714"
         inkscape:export-filename="C:\Users\dansa\Documents\Krita-Malba\ellipse45540.png" />
      <ellipse
         style="fill:#8080ff;fill-opacity:1;fill-rule:evenodd;stroke-width:0.258267"
         id="ellipse45536"
         cx="-1052.6215"
         cy="525.61383"
         rx="9.5167303"
         ry="1.9033457"
         inkscape:export-xdpi="96.534714"
         inkscape:export-ydpi="96.534714"
         transform="scale(-1,1)"
         inkscape:export-filename="C:\Users\dansa\Documents\Krita-Malba\ellipse45540.png" />
      <ellipse
         style="fill:#f4e3d7;fill-opacity:1;fill-rule:evenodd;stroke:#000000;stroke-width:0.258267"
         id="ellipse45538"
         cx="-1052.6215"
         cy="486.1275"
         rx="9.5167303"
         ry="1.9033457"
         inkscape:export-xdpi="96.534714"
         inkscape:export-ydpi="96.534714"
         transform="scale(-1,1)"
         inkscape:export-filename="C:\Users\dansa\Documents\Krita-Malba\ellipse45540.png" />
      <ellipse
         style="fill:#333333;fill-opacity:1;fill-rule:evenodd;stroke:#000000;stroke-width:0.258263"
         id="ellipse45540"
         cx="-1052.6215"
         cy="486.12732"
         rx="3.7002831"
         ry="0.74005651"
         inkscape:export-xdpi="96.534714"
         inkscape:export-ydpi="96.534714"
         transform="scale(-1,1)"
         inkscape:export-filename="C:\Users\dansa\Documents\Krita-Malba\ellipse45540.png" />
    </g>
    <g
       id="g28848"
       transform="translate(34.808292)">
      <rect
         style="fill:none;fill-opacity:1;stroke-width:3;stroke-linecap:round;paint-order:stroke fill markers;stop-color:#000000"
         id="rect23731"
         width="470.14859"
         height="242.17488"
         x="-1.7321277"
         y="7.6352324"
         rx="2.9615157"
         ry="2.9615157" />
      <text
         xml:space="preserve"
         style="font-style:normal;font-variant:normal;font-weight:normal;font-stretch:normal;font-size:281.927px;line-height:1.25;font-family:'Libre Baskerville';-inkscape-font-specification:'Libre Baskerville, Normal';font-variant-ligatures:normal;font-variant-caps:normal;font-variant-numeric:normal;font-variant-east-asian:normal;letter-spacing:0px;word-spacing:0px;fill:#003f3f;fill-opacity:1;stroke-width:0.999997"
         x="21.051161"
         y="217.52975"
         id="text51170"><tspan
           sodipodi:role="line"
           id="tspan51168"
           x="21.051161"
           y="217.52975"
           style="font-style:normal;font-variant:normal;font-weight:normal;font-stretch:normal;font-size:281.927px;font-family:'Libre Baskerville';-inkscape-font-specification:'Libre Baskerville, Normal';font-variant-ligatures:normal;font-variant-caps:normal;font-variant-numeric:normal;font-variant-east-asian:normal;fill:#003f3f;fill-opacity:1;stroke-width:0.999997">etc</tspan></text>
      <path
         id="rect23813"
         style="fill:#003f3f;fill-opacity:1;stroke-width:3;stroke-linecap:round;paint-order:stroke fill markers;stop-color:#000000"
         d="m 471.21356,7.6347656 c -1.55006,0 -2.7974,1.2491805 -2.7974,2.7992394 V 247.01309 c 0,1.55006 1.24734,2.79739 2.7974,2.79739 h 464.55378 c 1.55006,0 2.7974,-1.24733 2.7974,-2.79739 V 10.434005 c 0,-1.5500589 -1.24734,-2.7992394 -2.7974,-2.7992394 z M 700.38951,37.095975 h 8.1763 V 72.61882 h 37.77772 v 13.250717 h -37.77772 v 85.706183 c 0,6.57828 0.28126,12.12222 0.84512,16.63304 0.7518,4.51084 1.88056,8.17657 3.38418,10.99583 1.5036,2.63132 3.47618,4.51137 5.91955,5.63908 2.44337,1.1277 5.54471,1.69024 9.30373,1.69024 4.69878,0 8.64579,-0.93818 11.84095,-2.81769 3.38312,-2.06747 6.67136,-5.45192 9.86653,-10.1507 l 7.04885,5.35675 c -2.63132,6.95419 -7.23523,12.31123 -13.81352,16.07025 -6.39034,3.57107 -14.37871,5.35676 -23.96422,5.35676 -12.40477,0 -21.89756,-2.9126 -28.47584,-8.73909 -6.39035,-6.01444 -9.58421,-14.56719 -9.58421,-25.65631 V 85.869537 h -16.91538 v -10.43118 c 9.9614,-5.826487 17.76104,-11.653536 23.39957,-17.480022 5.63854,-5.826487 9.96117,-12.780459 12.96839,-20.86236 z M 582.26236,65.2895 c 18.23126,0 32.32794,4.981395 42.28936,14.942808 9.96141,9.773462 14.94096,23.868302 14.94096,42.287522 0,2.63132 -0.56254,4.2301 -1.69024,4.79395 -0.93976,0.56385 -3.28982,0.84512 -7.04885,0.84512 h -92.75317 c -0.3759,1.50361 -0.65902,3.38367 -0.84697,5.63908 -0.18795,2.06746 -0.28233,4.41567 -0.28232,7.04699 0,9.77347 1.12876,18.70186 3.38419,26.78376 2.44336,7.89395 5.82597,14.66102 10.14885,20.29956 4.51083,5.63853 9.77349,10.0537 15.78793,13.24887 6.20239,3.00722 13.06199,4.51163 20.58003,4.51163 7.89396,0 15.22541,-1.69131 21.99166,-5.07443 6.76624,-3.57107 13.72021,-9.30375 20.86236,-17.1977 l 8.73909,7.89397 c -15.97585,19.35897 -35.80522,29.03865 -59.48706,29.03865 -11.08912,0 -21.14444,-1.78569 -30.1661,-5.35676 -9.02166,-3.75902 -16.82128,-8.92732 -23.39958,-15.50561 -6.39034,-6.76624 -11.36989,-14.75461 -14.94096,-23.96422 -3.57107,-9.39756 -5.35676,-19.73414 -5.35676,-31.01121 1e-5,-11.46503 1.87822,-22.08473 5.63724,-31.85819 3.75902,-9.77346 9.02168,-18.137468 15.78793,-25.091662 6.95419,-6.954193 15.1313,-12.405602 24.52886,-16.352577 9.58552,-3.946975 20.01648,-5.919551 31.29355,-5.919551 z m 269.23995,0 c 7.33009,0 14.00095,0.656911 20.01538,1.972569 6.01444,1.127707 11.18458,2.82086 15.50746,5.076274 4.51083,2.067462 7.98782,4.698795 10.43118,7.893965 2.44336,3.007219 3.66466,6.295462 3.66466,9.866535 0,3.759023 -1.2213,6.671626 -3.66466,8.739086 -2.44336,2.067461 -5.82783,3.101861 -10.1507,3.101861 -3.38313,0 -6.20135,-0.65875 -8.45677,-1.974414 -2.25541,-1.503606 -5.16801,-4.697483 -8.73908,-9.584211 -3.75903,-4.322877 -7.42476,-7.32985 -10.99583,-9.021411 -3.38312,-1.879512 -7.80013,-2.819537 -13.25071,-2.819537 -13.34455,0 -23.49423,5.168293 -30.44843,15.505608 -6.76624,10.337315 -10.14885,25.560925 -10.14885,45.671695 0,21.6144 3.75826,38.06114 11.2763,49.33822 7.706,11.08911 18.89008,16.63305 33.55028,16.63305 7.89395,0 15.31793,-1.50441 22.27213,-4.51163 6.95419,-3.19517 14.00253,-8.26909 21.14468,-15.22328 l 8.45676,8.17628 c -6.76624,8.26985 -15.50589,14.75381 -26.2191,19.4526 -10.71323,4.51082 -22.2711,6.76652 -34.67588,6.76652 -9.96141,0 -19.17108,-1.78569 -27.62888,-5.35676 -8.26985,-3.75902 -15.41257,-8.92732 -21.42701,-15.50561 -6.01444,-6.76624 -10.71272,-14.84898 -14.09584,-24.24654 -3.19517,-9.39755 -4.79395,-19.82852 -4.79395,-31.29353 0,-12.02888 1.88005,-22.83548 5.63907,-32.42099 3.75903,-9.77347 9.02169,-18.043102 15.78794,-24.809345 6.95419,-6.954193 15.22383,-12.216858 24.80933,-15.787931 9.77347,-3.759023 20.48754,-5.639074 32.14052,-5.639074 z M 577.75073,78.82254 c -20.29873,0 -32.89101,12.122265 -37.77774,36.36797 h 51.87542 c 3.75903,0 6.766,-0.0944 9.02141,-0.28232 2.25541,-0.18795 3.94673,-0.56359 5.07443,-1.12745 1.12771,-0.56385 1.87899,-1.31513 2.25489,-2.25489 0.3759,-1.12771 0.56465,-2.53775 0.56465,-4.22931 0,-8.64575 -2.82008,-15.505353 -8.45862,-20.580035 -5.45058,-5.262633 -12.96894,-7.893965 -22.55444,-7.893965 z" />
      <text
         xml:space="preserve"
         style="font-style:normal;font-variant:normal;font-weight:normal;font-stretch:normal;font-size:281.927px;line-height:1.25;font-family:'Libre Baskerville';-inkscape-font-specification:'Libre Baskerville, Normal';font-variant-ligatures:normal;font-variant-caps:normal;font-variant-numeric:normal;font-variant-east-asian:normal;letter-spacing:0px;word-spacing:0px;fill:#003f3f;fill-opacity:1;stroke-width:0.999997"
         x="961.34839"
         y="217.52975"
         id="text23945"><tspan
           sodipodi:role="line"
           id="tspan23943"
           x="961.34839"
           y="217.52975"
           style="font-style:normal;font-variant:normal;font-weight:normal;font-stretch:normal;font-size:281.927px;font-family:'Libre Baskerville';-inkscape-font-specification:'Libre Baskerville, Normal';font-variant-ligatures:normal;font-variant-caps:normal;font-variant-numeric:normal;font-variant-east-asian:normal;fill:#003f3f;fill-opacity:1;stroke-width:0.999997">etc</tspan></text>
      <path
         style="fill:none;stroke:#008080;stroke-width:3;stroke-linecap:butt;stroke-linejoin:miter;stroke-miterlimit:4;stroke-dasharray:none;stroke-opacity:1"
         d="m 975.1628,219.20502 h 396.9525"
         id="path23947" />
      <path
         style="fill:none;stroke:#008080;stroke-width:3;stroke-linecap:butt;stroke-linejoin:miter;stroke-miterlimit:4;stroke-dasharray:none;stroke-opacity:1"
         d="m 975.1628,38.513767 h 396.9525"
         id="path23949" />
      <path
         style="fill:none;stroke:#008080;stroke-width:3;stroke-linecap:butt;stroke-linejoin:miter;stroke-miterlimit:4;stroke-dasharray:none;stroke-opacity:1"
         d="m 975.1628,63.077691 h 396.9525"
         id="path23951" />
      <path
         style="fill:none;stroke:#008080;stroke-width:3;stroke-linecap:butt;stroke-linejoin:miter;stroke-miterlimit:4;stroke-dasharray:none;stroke-opacity:1"
         d="M 1123.3708,37.096619 V 217.78787"
         id="path23953" />
      <path
         style="fill:none;stroke:#008080;stroke-width:3;stroke-linecap:butt;stroke-linejoin:miter;stroke-miterlimit:4;stroke-dasharray:none;stroke-opacity:1"
         d="M 1233.8257,37.096619 V 217.78787"
         id="path23955" />
    </g>
  </g>
</svg>
