<?xml version="1.0" encoding="UTF-8" standalone="no"?>
<!-- Created with Inkscape (http://www.inkscape.org/) -->

<svg
   width="1500"
   height="500"
   viewBox="0 0 1500 500"
   version="1.1"
   id="SVGRoot"
   sodipodi:docname="fonts-family.svg"
   inkscape:version="1.1 (c68e22c387, 2021-05-23)"
   xmlns:inkscape="http://www.inkscape.org/namespaces/inkscape"
   xmlns:sodipodi="http://sodipodi.sourceforge.net/DTD/sodipodi-0.dtd"
   xmlns="http://www.w3.org/2000/svg"
   xmlns:svg="http://www.w3.org/2000/svg">
  <sodipodi:namedview
     id="namedview32418"
     pagecolor="#505050"
     bordercolor="#eeeeee"
     borderopacity="1"
     inkscape:pageshadow="0"
     inkscape:pageopacity="0"
     inkscape:pagecheckerboard="0"
     inkscape:document-units="px"
     showgrid="false"
     inkscape:zoom="0.69933823"
     inkscape:cx="815.77122"
     inkscape:cy="143.70729"
     inkscape:current-layer="layer1"
     inkscape:snap-bbox="true"
     inkscape:bbox-paths="true"
     inkscape:object-paths="true"
     inkscape:snap-bbox-midpoints="true"
     inkscape:snap-bbox-edge-midpoints="true"
     inkscape:window-width="1920"
     inkscape:window-height="989"
     inkscape:window-x="-9"
     inkscape:window-y="-9"
     inkscape:window-maximized="1"
     showguides="true"
     inkscape:guide-bbox="true">
    <sodipodi:guide
       position="768.44241,563.69983"
       orientation="0,-1"
       id="guide15586" />
    <sodipodi:guide
       position="378.92966,803.14373"
       orientation="0,-1"
       id="guide19861" />
  </sodipodi:namedview>
  <defs
     id="defs32413">
    <marker
       style="overflow:visible"
       id="TriangleInL"
       refX="0.0"
       refY="0.0"
       orient="auto"
       inkscape:stockid="TriangleInL"
       inkscape:isstock="true">
      <path
         transform="scale(-0.8)"
         style="fill-rule:evenodd;fill:context-stroke;stroke:context-stroke;stroke-width:1.0pt"
         d="M 5.77,0.0 L -2.88,5.0 L -2.88,-5.0 L 5.77,0.0 z "
         id="path36322" />
    </marker>
    <filter
       style="color-interpolation-filters:sRGB"
       inkscape:label="Greyscale"
       id="filter439502"
       x="-0.014759365"
       y="-0.011013929"
       width="1.0273222"
       height="1.0239658">
      <feColorMatrix
         values="0.21 0.72 0.072 0 0 0.21 0.72 0.072 0 0 0.21 0.72 0.072 0 0 0 0 0 1 0 "
         id="feColorMatrix439500" />
    </filter>
    <filter
       style="color-interpolation-filters:sRGB"
       inkscape:label="Greyscale"
       id="filter439506"
       x="-0.012198776"
       y="-0.0133698"
       width="1.0250034"
       height="1.0260875">
      <feColorMatrix
         values="0.21 0.72 0.072 0 0 0.21 0.72 0.072 0 0 0.21 0.72 0.072 0 0 0 0 0 1 0 "
         id="feColorMatrix439504" />
    </filter>
    <filter
       style="color-interpolation-filters:sRGB"
       inkscape:label="Greyscale"
       id="filter439510"
       x="-0.0097815869"
       y="-0.016557066"
       width="1.0227838"
       height="1.0289789">
      <feColorMatrix
         values="0.21 0.72 0.072 0 0 0.21 0.72 0.072 0 0 0.21 0.72 0.072 0 0 0 0 0 1 0 "
         id="feColorMatrix439508" />
    </filter>
    <filter
       style="color-interpolation-filters:sRGB"
       inkscape:label="Greyscale"
       id="filter439514"
       x="-0.0097927544"
       y="-0.012482116"
       width="1.0228409"
       height="1.0290717">
      <feColorMatrix
         values="0.21 0.72 0.072 0 0 0.21 0.72 0.072 0 0 0.21 0.72 0.072 0 0 0 0 0 1 0 "
         id="feColorMatrix439512" />
    </filter>
    <filter
       style="color-interpolation-filters:sRGB"
       inkscape:label="Greyscale"
       id="filter439518"
       x="-0.012221048"
       y="-0.012739026"
       width="1.0250626"
       height="1.0261874">
      <feColorMatrix
         values="0.21 0.72 0.072 0 0 0.21 0.72 0.072 0 0 0.21 0.72 0.072 0 0 0 0 0 1 0 "
         id="feColorMatrix439516" />
    </filter>
    <filter
       style="color-interpolation-filters:sRGB"
       inkscape:label="Greyscale"
       id="filter439522"
       x="-0.01483388"
       y="-0.012948699"
       width="1.0274705"
       height="1.024031">
      <feColorMatrix
         values="0.21 0.72 0.072 0 0 0.21 0.72 0.072 0 0 0.21 0.72 0.072 0 0 0 0 0 1 0 "
         id="feColorMatrix439520" />
    </filter>
    <filter
       style="color-interpolation-filters:sRGB"
       inkscape:label="Greyscale"
       id="filter439526"
       x="-0.014561634"
       y="-0.012651609"
       width="1.0290953"
       height="1.0230787">
      <feColorMatrix
         values="0.21 0.72 0.072 0 0 0.21 0.72 0.072 0 0 0.21 0.72 0.072 0 0 0 0 0 1 0 "
         id="feColorMatrix439524" />
    </filter>
    <filter
       style="color-interpolation-filters:sRGB"
       inkscape:label="Greyscale"
       id="filter439530"
       x="-0.012623959"
       y="-0.012938922"
       width="1.0274804"
       height="1.0239927">
      <feColorMatrix
         values="0.21 0.72 0.072 0 0 0.21 0.72 0.072 0 0 0.21 0.72 0.072 0 0 0 0 0 1 0 "
         id="feColorMatrix439528" />
    </filter>
    <filter
       style="color-interpolation-filters:sRGB"
       inkscape:label="Greyscale"
       id="filter439534"
       x="-0.012860469"
       y="-0.012725824"
       width="1.0251007"
       height="1.0261182">
      <feColorMatrix
         values="0.21 0.72 0.072 0 0 0.21 0.72 0.072 0 0 0.21 0.72 0.072 0 0 0 0 0 1 0 "
         id="feColorMatrix439532" />
    </filter>
    <filter
       style="color-interpolation-filters:sRGB"
       inkscape:label="Greyscale"
       id="filter439538"
       x="-0.012994008"
       y="-0.012420811"
       width="1.0228411"
       height="1.0289242">
      <feColorMatrix
         values="0.21 0.72 0.072 0 0 0.21 0.72 0.072 0 0 0.21 0.72 0.072 0 0 0 0 0 1 0 "
         id="feColorMatrix439536" />
    </filter>
    <filter
       style="color-interpolation-filters:sRGB"
       inkscape:label="Greyscale"
       id="filter439542"
       x="-0.012992011"
       y="-0.016474618"
       width="1.022725"
       height="1.0288349">
      <feColorMatrix
         values="0.21 0.72 0.072 0 0 0.21 0.72 0.072 0 0 0.21 0.72 0.072 0 0 0 0 0 1 0 "
         id="feColorMatrix439540" />
    </filter>
    <filter
       style="color-interpolation-filters:sRGB"
       inkscape:label="Greyscale"
       id="filter439546"
       x="-0.012777513"
       y="-0.013337689"
       width="1.0248979"
       height="1.0260091">
      <feColorMatrix
         values="0.21 0.72 0.072 0 0 0.21 0.72 0.072 0 0 0.21 0.72 0.072 0 0 0 0 0 1 0 "
         id="feColorMatrix439544" />
    </filter>
    <filter
       style="color-interpolation-filters:sRGB"
       inkscape:label="Greyscale"
       id="filter439550"
       x="-0.012523829"
       y="-0.010999327"
       width="1.0271902"
       height="1.023912">
      <feColorMatrix
         values="0.21 0.72 0.072 0 0 0.21 0.72 0.072 0 0 0.21 0.72 0.072 0 0 0 0 0 1 0 "
         id="feColorMatrix439548" />
    </filter>
    <filter
       style="color-interpolation-filters:sRGB"
       inkscape:label="Greyscale"
       id="filter439554"
       x="-0.014368828"
       y="-0.01043784"
       width="1.0288149"
       height="1.0230671">
      <feColorMatrix
         values="0.21 0.72 0.072 0 0 0.21 0.72 0.072 0 0 0.21 0.72 0.072 0 0 0 0 0 1 0 "
         id="feColorMatrix439552" />
    </filter>
    <filter
       style="color-interpolation-filters:sRGB"
       inkscape:label="Greyscale"
       id="filter503175"
       x="-0.0018665642"
       y="-0.013065955"
       width="1.0037332"
       height="1.0261319">
      <feColorMatrix
         values="0.618044 0.72381 -0.110563 -0.322094 0 0.618044 0.72381 -0.110563 -0.322094 0 0.618044 0.72381 -0.110563 -0.322094 0 0 0 0 1 0 "
         id="feColorMatrix503173" />
    </filter>
    <filter
       style="color-interpolation-filters:sRGB"
       inkscape:label="Greyscale"
       id="filter504073"
       x="-0.014368799"
       y="-0.010437819"
       width="1.0288149"
       height="1.0230671">
      <feColorMatrix
         values="0.618044 0.72381 -0.110563 -0.12 0 0.618044 0.72381 -0.110563 -0.12 0 0.618044 0.72381 -0.110563 -0.12 0 0 0 0 1 0 "
         id="feColorMatrix504071" />
    </filter>
    <filter
       style="color-interpolation-filters:sRGB"
       inkscape:label="Greyscale"
       id="filter504077"
       x="-0.012523803"
       y="-0.010999305"
       width="1.0271901"
       height="1.023912">
      <feColorMatrix
         values="0.618044 0.72381 -0.110563 -0.12 0 0.618044 0.72381 -0.110563 -0.12 0 0.618044 0.72381 -0.110563 -0.12 0 0 0 0 1 0 "
         id="feColorMatrix504075" />
    </filter>
    <filter
       style="color-interpolation-filters:sRGB"
       inkscape:label="Greyscale"
       id="filter504081"
       x="-0.012777488"
       y="-0.013337663"
       width="1.0248978"
       height="1.0260091">
      <feColorMatrix
         values="0.618044 0.72381 -0.110563 -0.12 0 0.618044 0.72381 -0.110563 -0.12 0 0.618044 0.72381 -0.110563 -0.12 0 0 0 0 1 0 "
         id="feColorMatrix504079" />
    </filter>
    <filter
       style="color-interpolation-filters:sRGB"
       inkscape:label="Greyscale"
       id="filter504085"
       x="-0.012991986"
       y="-0.016474584"
       width="1.022725"
       height="1.0288349">
      <feColorMatrix
         values="0.618044 0.72381 -0.110563 -0.12 0 0.618044 0.72381 -0.110563 -0.12 0 0.618044 0.72381 -0.110563 -0.12 0 0 0 0 1 0 "
         id="feColorMatrix504083" />
    </filter>
    <filter
       style="color-interpolation-filters:sRGB"
       inkscape:label="Greyscale"
       id="filter504089"
       x="-0.012993982"
       y="-0.012420786"
       width="1.022841"
       height="1.0289241">
      <feColorMatrix
         values="0.618044 0.72381 -0.110563 -0.12 0 0.618044 0.72381 -0.110563 -0.12 0 0.618044 0.72381 -0.110563 -0.12 0 0 0 0 1 0 "
         id="feColorMatrix504087" />
    </filter>
    <filter
       style="color-interpolation-filters:sRGB"
       inkscape:label="Greyscale"
       id="filter504093"
       x="-0.012860442"
       y="-0.012725798"
       width="1.0251006"
       height="1.026118">
      <feColorMatrix
         values="0.618044 0.72381 -0.110563 -0.12 0 0.618044 0.72381 -0.110563 -0.12 0 0.618044 0.72381 -0.110563 -0.12 0 0 0 0 1 0 "
         id="feColorMatrix504091" />
    </filter>
    <filter
       style="color-interpolation-filters:sRGB"
       inkscape:label="Greyscale"
       id="filter504097"
       x="-0.012623934"
       y="-0.012938895"
       width="1.0274802"
       height="1.0239927">
      <feColorMatrix
         values="0.618044 0.72381 -0.110563 -0.12 0 0.618044 0.72381 -0.110563 -0.12 0 0.618044 0.72381 -0.110563 -0.12 0 0 0 0 1 0 "
         id="feColorMatrix504095" />
    </filter>
    <filter
       style="color-interpolation-filters:sRGB"
       inkscape:label="Greyscale"
       id="filter504101"
       x="-0.014561605"
       y="-0.012651581"
       width="1.0290952"
       height="1.0230787">
      <feColorMatrix
         values="0.618044 0.72381 -0.110563 -0.12 0 0.618044 0.72381 -0.110563 -0.12 0 0.618044 0.72381 -0.110563 -0.12 0 0 0 0 1 0 "
         id="feColorMatrix504099" />
    </filter>
    <filter
       style="color-interpolation-filters:sRGB"
       inkscape:label="Greyscale"
       id="filter504105"
       x="-0.014833851"
       y="-0.012948672"
       width="1.0274704"
       height="1.024031">
      <feColorMatrix
         values="0.618044 0.72381 -0.110563 -0.12 0 0.618044 0.72381 -0.110563 -0.12 0 0.618044 0.72381 -0.110563 -0.12 0 0 0 0 1 0 "
         id="feColorMatrix504103" />
    </filter>
    <filter
       style="color-interpolation-filters:sRGB"
       inkscape:label="Greyscale"
       id="filter504109"
       x="-0.012221023"
       y="-0.012739001"
       width="1.0250626"
       height="1.0261873">
      <feColorMatrix
         values="0.618044 0.72381 -0.110563 -0.12 0 0.618044 0.72381 -0.110563 -0.12 0 0.618044 0.72381 -0.110563 -0.12 0 0 0 0 1 0 "
         id="feColorMatrix504107" />
    </filter>
    <filter
       style="color-interpolation-filters:sRGB"
       inkscape:label="Greyscale"
       id="filter504113"
       x="-0.0097927349"
       y="-0.012482092"
       width="1.0228407"
       height="1.0290716">
      <feColorMatrix
         values="0.618044 0.72381 -0.110563 -0.12 0 0.618044 0.72381 -0.110563 -0.12 0 0.618044 0.72381 -0.110563 -0.12 0 0 0 0 1 0 "
         id="feColorMatrix504111" />
    </filter>
    <filter
       style="color-interpolation-filters:sRGB"
       inkscape:label="Greyscale"
       id="filter504117"
       x="-0.0097815385"
       y="-0.016557053"
       width="1.0227836"
       height="1.0289789">
      <feColorMatrix
         values="0.618044 0.72381 -0.110563 -0.12 0 0.618044 0.72381 -0.110563 -0.12 0 0.618044 0.72381 -0.110563 -0.12 0 0 0 0 1 0 "
         id="feColorMatrix504115" />
    </filter>
    <filter
       style="color-interpolation-filters:sRGB"
       inkscape:label="Greyscale"
       id="filter504121"
       x="-0.012198751"
       y="-0.013369773"
       width="1.0250033"
       height="1.0260874">
      <feColorMatrix
         values="0.618044 0.72381 -0.110563 -0.12 0 0.618044 0.72381 -0.110563 -0.12 0 0.618044 0.72381 -0.110563 -0.12 0 0 0 0 1 0 "
         id="feColorMatrix504119" />
    </filter>
    <filter
       style="color-interpolation-filters:sRGB"
       inkscape:label="Greyscale"
       id="filter504125"
       x="-0.014759335"
       y="-0.011013906"
       width="1.0273222"
       height="1.0239657">
      <feColorMatrix
         values="0.618044 0.72381 -0.110563 -0.12 0 0.618044 0.72381 -0.110563 -0.12 0 0.618044 0.72381 -0.110563 -0.12 0 0 0 0 1 0 "
         id="feColorMatrix504123" />
    </filter>
    <filter
       style="color-interpolation-filters:sRGB"
       inkscape:label="Greyscale"
       id="filter504245"
       x="-0.0018665642"
       y="-0.013065955"
       width="1.0037332"
       height="1.0261319">
      <feColorMatrix
         values="0.618044 0.72381 -0.110563 -0.12 0 0.618044 0.72381 -0.110563 -0.12 0 0.618044 0.72381 -0.110563 -0.12 0 0 0 0 1 0 "
         id="feColorMatrix504243" />
    </filter>
    <filter
       style="color-interpolation-filters:sRGB"
       inkscape:label="Greyscale"
       id="filter504249"
       x="-0.01766916"
       y="-0.01766916"
       width="1.0353383"
       height="1.0353383">
      <feColorMatrix
         values="0.618044 0.72381 -0.110563 -0.12 0 0.618044 0.72381 -0.110563 -0.12 0 0.618044 0.72381 -0.110563 -0.12 0 0 0 0 1 0 "
         id="feColorMatrix504247" />
    </filter>
    <filter
       style="color-interpolation-filters:sRGB"
       inkscape:label="Greyscale"
       id="filter504253"
       x="-0.01766916"
       y="-0.01766916"
       width="1.0353383"
       height="1.0353383">
      <feColorMatrix
         values="0.618044 0.72381 -0.110563 -0.12 0 0.618044 0.72381 -0.110563 -0.12 0 0.618044 0.72381 -0.110563 -0.12 0 0 0 0 1 0 "
         id="feColorMatrix504251" />
    </filter>
    <filter
       style="color-interpolation-filters:sRGB"
       inkscape:label="Greyscale"
       id="filter504257"
       x="-0.01766916"
       y="-0.01766916"
       width="1.0353383"
       height="1.0353383">
      <feColorMatrix
         values="0.618044 0.72381 -0.110563 -0.12 0 0.618044 0.72381 -0.110563 -0.12 0 0.618044 0.72381 -0.110563 -0.12 0 0 0 0 1 0 "
         id="feColorMatrix504255" />
    </filter>
    <filter
       style="color-interpolation-filters:sRGB"
       inkscape:label="Greyscale"
       id="filter504261"
       x="-0.01766916"
       y="-0.01766916"
       width="1.0353383"
       height="1.0353383">
      <feColorMatrix
         values="0.618044 0.72381 -0.110563 -0.12 0 0.618044 0.72381 -0.110563 -0.12 0 0.618044 0.72381 -0.110563 -0.12 0 0 0 0 1 0 "
         id="feColorMatrix504259" />
    </filter>
    <filter
       style="color-interpolation-filters:sRGB"
       inkscape:label="Greyscale"
       id="filter504265"
       x="-0.01766916"
       y="-0.01766916"
       width="1.0353383"
       height="1.0353383">
      <feColorMatrix
         values="0.618044 0.72381 -0.110563 -0.12 0 0.618044 0.72381 -0.110563 -0.12 0 0.618044 0.72381 -0.110563 -0.12 0 0 0 0 1 0 "
         id="feColorMatrix504263" />
    </filter>
    <filter
       style="color-interpolation-filters:sRGB"
       inkscape:label="Greyscale"
       id="filter504269"
       x="-0.01766916"
       y="-0.01766916"
       width="1.0353383"
       height="1.0353383">
      <feColorMatrix
         values="0.618044 0.72381 -0.110563 -0.12 0 0.618044 0.72381 -0.110563 -0.12 0 0.618044 0.72381 -0.110563 -0.12 0 0 0 0 1 0 "
         id="feColorMatrix504267" />
    </filter>
    <filter
       style="color-interpolation-filters:sRGB"
       inkscape:label="Greyscale"
       id="filter504273"
       x="-0.01766916"
       y="-0.01766916"
       width="1.0353383"
       height="1.0353383">
      <feColorMatrix
         values="0.618044 0.72381 -0.110563 -0.12 0 0.618044 0.72381 -0.110563 -0.12 0 0.618044 0.72381 -0.110563 -0.12 0 0 0 0 1 0 "
         id="feColorMatrix504271" />
    </filter>
    <rect
       x="301.8735"
       y="54.922695"
       width="315.38217"
       height="392.1662"
       id="rect142869" />
    <rect
       x="580.67041"
       y="168.2337"
       width="148.4621"
       height="227.98207"
       id="rect128629" />
    <rect
       x="580.67041"
       y="168.2337"
       width="148.4621"
       height="227.98207"
       id="rect625543" />
    <rect
       x="580.67041"
       y="168.2337"
       width="148.4621"
       height="227.98207"
       id="rect625549" />
    <rect
       x="580.67041"
       y="168.2337"
       width="148.4621"
       height="227.98207"
       id="rect630971" />
    <rect
       x="580.67041"
       y="168.2337"
       width="148.4621"
       height="227.98207"
       id="rect637555" />
    <rect
       x="580.67041"
       y="168.2337"
       width="148.4621"
       height="227.98207"
       id="rect642415" />
    <rect
       x="580.67041"
       y="168.2337"
       width="148.4621"
       height="227.98207"
       id="rect647017" />
    <rect
       x="580.67041"
       y="168.2337"
       width="148.4621"
       height="227.98207"
       id="rect651637" />
    <rect
       x="580.67041"
       y="168.2337"
       width="148.4621"
       height="227.98207"
       id="rect656769" />
    <rect
       x="580.67041"
       y="168.2337"
       width="148.4621"
       height="227.98207"
       id="rect662965" />
    <rect
       x="580.67041"
       y="168.2337"
       width="148.4621"
       height="227.98207"
       id="rect669437" />
    <rect
       x="580.67041"
       y="168.2337"
       width="148.4621"
       height="227.98207"
       id="rect678811" />
    <rect
       x="580.67041"
       y="168.2337"
       width="148.4621"
       height="227.98207"
       id="rect689501" />
    <rect
       x="580.67041"
       y="168.2337"
       width="148.4621"
       height="227.98207"
       id="rect697375" />
    <rect
       x="580.67041"
       y="168.2337"
       width="148.4621"
       height="227.98207"
       id="rect704877" />
    <rect
       x="580.67041"
       y="168.2337"
       width="148.4621"
       height="227.98207"
       id="rect710993" />
    <rect
       x="580.67041"
       y="168.2337"
       width="148.4621"
       height="227.98207"
       id="rect745823" />
    <rect
       x="580.67041"
       y="168.2337"
       width="148.4621"
       height="227.98207"
       id="rect751192" />
    <rect
       x="580.67041"
       y="168.2337"
       width="148.4621"
       height="227.98207"
       id="rect757148" />
    <rect
       x="580.67041"
       y="168.2337"
       width="148.4621"
       height="227.98207"
       id="rect760568" />
    <rect
       x="580.67041"
       y="168.2337"
       width="148.4621"
       height="227.98207"
       id="rect764806" />
    <rect
       x="580.67041"
       y="168.2337"
       width="148.4621"
       height="227.98207"
       id="rect768602" />
    <rect
       x="580.67041"
       y="168.2337"
       width="148.4621"
       height="227.98207"
       id="rect770588" />
    <rect
       x="580.67041"
       y="168.2337"
       width="148.4621"
       height="227.98207"
       id="rect774595" />
    <rect
       x="580.67041"
       y="168.2337"
       width="148.4621"
       height="227.98207"
       id="rect783037" />
    <rect
       x="580.67041"
       y="168.2337"
       width="148.4621"
       height="227.98207"
       id="rect788527" />
    <rect
       x="580.67041"
       y="168.2337"
       width="148.4621"
       height="227.98207"
       id="rect799827" />
    <rect
       x="580.67041"
       y="168.2337"
       width="148.4621"
       height="227.98207"
       id="rect805629" />
    <rect
       x="580.67041"
       y="168.2337"
       width="148.4621"
       height="227.98207"
       id="rect811239" />
    <rect
       x="580.67041"
       y="168.2337"
       width="148.4621"
       height="227.98207"
       id="rect69704" />
    <rect
       x="580.67041"
       y="168.2337"
       width="148.4621"
       height="227.98207"
       id="rect69706" />
    <rect
       x="580.67041"
       y="168.2337"
       width="148.4621"
       height="227.98207"
       id="rect69708" />
    <rect
       x="580.67041"
       y="168.2337"
       width="148.4621"
       height="227.98207"
       id="rect69710" />
    <rect
       x="580.67041"
       y="168.2337"
       width="148.4621"
       height="227.98207"
       id="rect69712" />
    <rect
       x="580.67041"
       y="168.2337"
       width="148.4621"
       height="227.98207"
       id="rect69714" />
    <rect
       x="580.67041"
       y="168.2337"
       width="148.4621"
       height="227.98207"
       id="rect69716" />
    <rect
       x="580.67041"
       y="168.2337"
       width="148.4621"
       height="227.98207"
       id="rect69718" />
    <rect
       x="580.67041"
       y="168.2337"
       width="148.4621"
       height="227.98207"
       id="rect69720" />
    <rect
       x="580.67041"
       y="168.2337"
       width="148.4621"
       height="227.98207"
       id="rect69722" />
    <rect
       x="580.67041"
       y="168.2337"
       width="148.4621"
       height="227.98207"
       id="rect69724" />
    <rect
       x="580.67041"
       y="168.2337"
       width="148.4621"
       height="227.98207"
       id="rect69726" />
    <rect
       x="580.67041"
       y="168.2337"
       width="148.4621"
       height="227.98207"
       id="rect69728" />
    <rect
       x="580.67041"
       y="168.2337"
       width="148.4621"
       height="227.98207"
       id="rect69730" />
    <rect
       x="580.67041"
       y="168.2337"
       width="148.4621"
       height="227.98207"
       id="rect69732" />
    <rect
       x="580.67041"
       y="168.2337"
       width="148.4621"
       height="227.98207"
       id="rect69734" />
    <rect
       x="580.67041"
       y="168.2337"
       width="148.4621"
       height="227.98207"
       id="rect69736" />
    <rect
       x="580.67041"
       y="168.2337"
       width="148.4621"
       height="227.98207"
       id="rect69738" />
    <rect
       x="580.67041"
       y="168.2337"
       width="148.4621"
       height="227.98207"
       id="rect69740" />
    <rect
       x="580.67041"
       y="168.2337"
       width="148.4621"
       height="227.98207"
       id="rect69742" />
    <rect
       x="580.67041"
       y="168.2337"
       width="148.4621"
       height="227.98207"
       id="rect69744" />
    <rect
       x="580.67041"
       y="168.2337"
       width="148.4621"
       height="227.98207"
       id="rect69746" />
    <rect
       x="580.67041"
       y="168.2337"
       width="148.4621"
       height="227.98207"
       id="rect69748" />
    <rect
       x="580.67041"
       y="168.2337"
       width="148.4621"
       height="227.98207"
       id="rect69750" />
    <rect
       x="580.67041"
       y="168.2337"
       width="148.4621"
       height="227.98207"
       id="rect69752" />
    <rect
       x="580.67041"
       y="168.2337"
       width="148.4621"
       height="227.98207"
       id="rect69754" />
    <rect
       x="580.67041"
       y="168.2337"
       width="148.4621"
       height="227.98207"
       id="rect69756" />
    <rect
       x="580.67041"
       y="168.2337"
       width="148.4621"
       height="227.98207"
       id="rect69758" />
    <rect
       x="580.67041"
       y="168.2337"
       width="148.4621"
       height="227.98207"
       id="rect70246" />
    <rect
       x="580.67041"
       y="168.2337"
       width="148.4621"
       height="227.98207"
       id="rect92519" />
    <rect
       x="580.67041"
       y="168.2337"
       width="148.4621"
       height="227.98207"
       id="rect92521" />
    <rect
       x="580.67041"
       y="168.2337"
       width="148.4621"
       height="227.98207"
       id="rect139275" />
    <rect
       x="580.67041"
       y="168.2337"
       width="148.4621"
       height="227.98207"
       id="rect139277" />
    <rect
       x="580.67041"
       y="168.2337"
       width="148.4621"
       height="227.98207"
       id="rect161517" />
    <rect
       x="580.67041"
       y="168.2337"
       width="148.4621"
       height="227.98207"
       id="rect161519" />
    <rect
       x="580.67041"
       y="168.2337"
       width="148.4621"
       height="227.98207"
       id="rect564459" />
    <rect
       x="580.67041"
       y="168.2337"
       width="148.4621"
       height="227.98207"
       id="rect564461" />
    <rect
       x="580.67041"
       y="168.2337"
       width="148.4621"
       height="227.98207"
       id="rect665715" />
    <rect
       x="580.67041"
       y="168.2337"
       width="148.4621"
       height="227.98207"
       id="rect665717" />
  </defs>
  <g
     inkscape:label="Vrstva 1"
     inkscape:groupmode="layer"
     id="layer1">
    <g
       id="g400843"
       transform="translate(417.90701,-49.780313)"
       sodipodi:insensitive="true">
      <rect
         style="fill:#8080ff;fill-opacity:1;fill-rule:evenodd;stroke-width:0.258267"
         id="rect45522"
         width="6.3157067"
         height="20.832041"
         x="-1062.1268"
         y="486.24539"
         inkscape:export-xdpi="96.534714"
         inkscape:export-ydpi="96.534714"
         transform="scale(-1,1)"
         inkscape:export-filename="C:\Users\dansa\Documents\Krita-Malba\ellipse45540.png" />
      <rect
         style="fill:#fe8081;fill-opacity:1;fill-rule:evenodd;stroke-width:0.258267"
         id="rect45524"
         width="6.3157067"
         height="20.832041"
         x="-1055.8112"
         y="486.24539"
         inkscape:export-xdpi="96.534714"
         inkscape:export-ydpi="96.534714"
         transform="scale(-1,1)"
         inkscape:export-filename="C:\Users\dansa\Documents\Krita-Malba\ellipse45540.png" />
      <rect
         style="fill:#ffd42a;fill-rule:evenodd;stroke-width:0.258267"
         id="rect45526"
         width="6.3157067"
         height="20.832041"
         x="-1049.4954"
         y="486.24539"
         inkscape:export-xdpi="96.534714"
         inkscape:export-ydpi="96.534714"
         transform="scale(-1,1)"
         inkscape:export-filename="C:\Users\dansa\Documents\Krita-Malba\ellipse45540.png" />
      <path
         id="path45528"
         style="fill:#ffb380;fill-rule:evenodd;stroke-width:0.258267"
         d="m 1062.1269,507.07744 h -18.9471 l 8.7686,13.97104 h 1.41 z"
         sodipodi:nodetypes="ccccc"
         inkscape:export-xdpi="96.534714"
         inkscape:export-ydpi="96.534714"
         inkscape:export-filename="C:\Users\dansa\Documents\Krita-Malba\ellipse45540.png" />
      <path
         id="path45530"
         style="fill:#f4e3d7;fill-rule:evenodd;stroke-width:0.258267"
         d="m 1062.1269,507.07744 h -6.3156 l -3.3174,14.09288 0.8645,-0.12184 z"
         sodipodi:nodetypes="ccccc"
         inkscape:export-xdpi="96.534714"
         inkscape:export-ydpi="96.534714"
         inkscape:export-filename="C:\Users\dansa\Documents\Krita-Malba\ellipse45540.png" />
      <path
         id="path45532"
         style="fill:#d38d5f;fill-rule:evenodd;stroke-width:0.258267"
         d="m 1043.1799,507.07744 h 6.3157 l 3.3173,14.09288 -0.8644,-0.12184 z"
         sodipodi:nodetypes="ccccc"
         inkscape:export-xdpi="96.534714"
         inkscape:export-ydpi="96.534714"
         inkscape:export-filename="C:\Users\dansa\Documents\Krita-Malba\ellipse45540.png" />
      <path
         id="path45534"
         style="fill:#333333;fill-rule:evenodd;stroke-width:0.258267"
         d="m 1056.4724,516.12331 -7.7017,-0.1075 3.5196,5.53665 0.7035,-0.0131 z"
         sodipodi:nodetypes="ccccc"
         inkscape:export-xdpi="96.534714"
         inkscape:export-ydpi="96.534714"
         inkscape:export-filename="C:\Users\dansa\Documents\Krita-Malba\ellipse45540.png" />
      <ellipse
         style="fill:#8080ff;fill-opacity:1;fill-rule:evenodd;stroke-width:0.258267"
         id="ellipse45536"
         cx="-1052.6215"
         cy="525.61383"
         rx="9.5167303"
         ry="1.9033457"
         inkscape:export-xdpi="96.534714"
         inkscape:export-ydpi="96.534714"
         transform="scale(-1,1)"
         inkscape:export-filename="C:\Users\dansa\Documents\Krita-Malba\ellipse45540.png" />
      <ellipse
         style="fill:#f4e3d7;fill-opacity:1;fill-rule:evenodd;stroke:#000000;stroke-width:0.258267"
         id="ellipse45538"
         cx="-1052.6215"
         cy="486.1275"
         rx="9.5167303"
         ry="1.9033457"
         inkscape:export-xdpi="96.534714"
         inkscape:export-ydpi="96.534714"
         transform="scale(-1,1)"
         inkscape:export-filename="C:\Users\dansa\Documents\Krita-Malba\ellipse45540.png" />
      <ellipse
         style="fill:#333333;fill-opacity:1;fill-rule:evenodd;stroke:#000000;stroke-width:0.258263"
         id="ellipse45540"
         cx="-1052.6215"
         cy="486.12732"
         rx="3.7002831"
         ry="0.74005651"
         inkscape:export-xdpi="96.534714"
         inkscape:export-ydpi="96.534714"
         transform="scale(-1,1)"
         inkscape:export-filename="C:\Users\dansa\Documents\Krita-Malba\ellipse45540.png" />
    </g>
    <text
       xml:space="preserve"
       style="font-size:58.8517px;line-height:1.25;font-family:sans-serif;letter-spacing:0px;word-spacing:0px;stroke-width:1"
       x="69.790741"
       y="159.89157"
       id="text35772"><tspan
         sodipodi:role="line"
         x="69.790741"
         y="159.89157"
         id="tspan35770"
         style="stroke-width:1" /></text>
    <g
       aria-label="Montserrat"
       id="text14509"
       style="font-size:106.667px;line-height:1.25;font-family:Montserrat;-inkscape-font-specification:'Montserrat, Normal';letter-spacing:0px;word-spacing:0px;fill:#008080;stroke-width:0.999999">
      <path
         d="M 93.234076,64.532151 V 139.19905 H 85.660719 V 79.465531 L 56.327294,129.70569 H 52.593949 L 23.260524,79.785532 V 139.19905 H 15.687167 V 64.532151 h 6.506687 L 54.620622,119.89232 86.727389,64.532151 Z"
         id="path19210" />
      <path
         d="m 138.88754,139.73239 q -8.10669,0 -14.61338,-3.62668 -6.50668,-3.73335 -10.24003,-10.24003 -3.73334,-6.50669 -3.73334,-14.72005 0,-8.21336 3.73334,-14.720046 3.73335,-6.506687 10.24003,-10.133365 6.50669,-3.626678 14.61338,-3.626678 8.10669,0 14.61338,3.626678 6.50669,3.626678 10.13336,10.133365 3.73335,6.506686 3.73335,14.720046 0,8.21336 -3.73335,14.72005 -3.62667,6.50668 -10.13336,10.24003 -6.50669,3.62668 -14.61338,3.62668 z m 0,-6.72003 q 5.97335,0 10.6667,-2.66667 4.80002,-2.77334 7.46669,-7.78669 2.66668,-5.01335 2.66668,-11.41337 0,-6.40002 -2.66668,-11.413369 -2.66667,-5.013349 -7.46669,-7.680024 -4.69335,-2.773342 -10.6667,-2.773342 -5.97335,0 -10.77337,2.773342 -4.69334,2.666675 -7.46669,7.680024 -2.66667,5.013349 -2.66667,11.413369 0,6.40002 2.66667,11.41337 2.77335,5.01335 7.46669,7.78669 4.80002,2.66667 10.77337,2.66667 z"
         id="path19212" />
      <path
         d="m 211.42099,82.665541 q 10.56003,0 16.74672,6.186686 6.29335,6.080019 6.29335,17.813393 v 32.53343 h -7.57336 v -31.78677 q 0,-8.746689 -4.37334,-13.33337 -4.37335,-4.586681 -12.48004,-4.586681 -9.0667,0 -14.40005,5.440017 -5.22668,5.333354 -5.22668,14.826714 v 29.44009 h -7.57336 V 83.092209 h 7.25336 v 10.346699 q 3.09334,-5.120016 8.53336,-7.893358 5.54668,-2.880009 12.80004,-2.880009 z"
         id="path19214" />
      <path
         d="m 284.59434,135.78571 q -2.13334,1.92 -5.33335,2.98667 -3.09334,0.96001 -6.50669,0.96001 -7.89336,0 -12.16004,-4.26668 -4.26668,-4.26668 -4.26668,-12.05338 V 89.492229 h -10.02669 v -6.40002 h 10.02669 V 70.825504 h 7.57336 v 12.266705 h 17.06672 v 6.40002 h -17.06672 v 33.493441 q 0,5.01335 2.45334,7.68002 2.56001,2.56001 7.25336,2.56001 2.34667,0 4.48001,-0.74667 2.24001,-0.74667 3.84001,-2.13334 z"
         id="path19216" />
      <path
         d="m 313.39424,139.73239 q -6.82669,0 -13.12004,-1.92001 -6.18669,-2.02667 -9.7067,-5.01335 l 3.41334,-5.97335 q 3.52001,2.77334 8.85336,4.58668 5.33335,1.70667 11.09337,1.70667 7.68003,0 11.3067,-2.34667 3.73335,-2.45334 3.73335,-6.82669 0,-3.09334 -2.02667,-4.80002 -2.02668,-1.81333 -5.12002,-2.66667 -3.09334,-0.96 -8.21336,-1.81334 -6.82669,-1.28 -10.9867,-2.56001 -4.16001,-1.38667 -7.14669,-4.58668 -2.88001,-3.20001 -2.88001,-8.853359 0,-7.040022 5.86669,-11.520036 5.86668,-4.480014 16.32005,-4.480014 5.44002,0 10.88003,1.493338 5.44002,1.386671 8.96003,3.733345 l -3.30668,6.080019 q -6.93335,-4.800015 -16.53338,-4.800015 -7.25336,0 -10.9867,2.560008 -3.62668,2.560008 -3.62668,6.720021 0,3.200013 2.02667,5.120013 2.13334,1.92001 5.22669,2.88001 3.09334,0.85334 8.53336,1.81334 6.72002,1.28 10.77336,2.56001 4.05335,1.28 6.93336,4.37335 2.88001,3.09334 2.88001,8.53336 0,7.36002 -6.18669,11.73337 -6.08002,4.26668 -16.96005,4.26668 z"
         id="path19218" />
      <path
         d="M 399.36768,113.4923 H 352.4342 q 0.64,8.7467 6.72002,14.18671 6.08002,5.33335 15.36005,5.33335 5.22668,0 9.60003,-1.81333 4.37335,-1.92001 7.57336,-5.54669 l 4.26668,4.90668 q -3.73335,4.48002 -9.3867,6.82669 -5.54668,2.34668 -12.2667,2.34668 -8.64003,0 -15.36005,-3.62668 -6.61336,-3.73335 -10.3467,-10.24003 -3.73335,-6.50669 -3.73335,-14.72005 0,-8.21336 3.52001,-14.720046 3.62668,-6.506687 9.81337,-10.133365 6.29335,-3.626678 14.08004,-3.626678 7.78669,0 13.97338,3.626678 6.18669,3.626678 9.7067,10.133365 3.52001,6.400016 3.52001,14.720046 z M 372.27426,89.172228 q -8.10669,0 -13.65337,5.226683 -5.44002,5.120016 -6.18669,13.440039 h 39.78679 q -0.74667,-8.320023 -6.29335,-13.440039 -5.44002,-5.226683 -13.65338,-5.226683 z"
         id="path19220" />
      <path
         d="m 422.19422,94.07891 q 2.66667,-5.653351 7.89335,-8.53336 5.33335,-2.880009 13.12005,-2.880009 v 7.360023 l -1.81334,-0.106667 q -8.85336,0 -13.86671,5.440017 -5.01335,5.440016 -5.01335,15.253376 v 28.58676 h -7.57336 V 83.092209 h 7.25336 z"
         id="path19222" />
      <path
         d="m 464.11411,94.07891 q 2.66667,-5.653351 7.89336,-8.53336 5.33335,-2.880009 13.12004,-2.880009 v 7.360023 l -1.81334,-0.106667 q -8.85336,0 -13.86671,5.440017 -5.01335,5.440016 -5.01335,15.253376 v 28.58676 h -7.57336 V 83.092209 h 7.25336 z"
         id="path19224" />
      <path
         d="m 518.30077,82.665541 q 10.9867,0 16.85339,5.546684 5.86668,5.440017 5.86668,16.213385 v 34.77344 h -7.25335 v -8.74669 q -2.56001,4.37334 -7.57336,6.82668 -4.90668,2.45335 -11.73337,2.45335 -9.38669,0 -14.93338,-4.48002 -5.54668,-4.48001 -5.54668,-11.84004 0,-7.14668 5.12001,-11.52003 5.22669,-4.37335 16.53339,-4.37335 h 17.81339 v -3.41334 q 0,-7.253358 -4.05335,-10.986703 -4.05334,-3.840012 -11.84004,-3.840012 -5.33335,0 -10.24003,1.813339 -4.90668,1.706672 -8.42669,4.800015 l -3.41334,-5.653351 q 4.26668,-3.626678 10.24003,-5.546684 5.97335,-2.026673 12.5867,-2.026673 z m -2.66667,51.093489 q 6.40002,0 10.9867,-2.88001 4.58668,-2.98667 6.82669,-8.53336 v -9.17336 h -17.60006 q -14.40004,0 -14.40004,10.0267 0,4.90668 3.73334,7.78669 3.73335,2.77334 10.45337,2.77334 z"
         id="path19226" />
      <path
         d="m 591.15412,135.78571 q -2.13334,1.92 -5.33335,2.98667 -3.09334,0.96001 -6.50668,0.96001 -7.89336,0 -12.16004,-4.26668 -4.26668,-4.26668 -4.26668,-12.05338 V 89.492229 h -10.0267 v -6.40002 h 10.0267 V 70.825504 h 7.57336 v 12.266705 h 17.06672 v 6.40002 h -17.06672 v 33.493441 q 0,5.01335 2.45334,7.68002 2.56,2.56001 7.25335,2.56001 2.34668,0 4.48002,-0.74667 2.24,-0.74667 3.84001,-2.13334 z"
         id="path19228" />
    </g>
    <g
       aria-label="Montserrat"
       id="text15472"
       style="font-weight:900;font-size:106.667px;line-height:1.25;font-family:Montserrat;-inkscape-font-specification:'Montserrat,  weight=250';letter-spacing:0px;word-spacing:0px;fill:#008080;stroke-width:0.999999">
      <path
         d="M 76.274023,292.24136 76.060689,258.21459 59.847305,285.52134 H 48.753937 L 32.540553,259.38793 v 32.85343 H 9.6071482 v -74.6669 H 30.300546 l 24.320076,39.78679 23.680074,-39.78679 h 20.693398 l 0.213334,74.6669 z"
         id="path19249" />
      <path
         d="m 141.4474,293.30803 q -9.70669,0 -17.49338,-3.84001 -7.68003,-3.94668 -12.05337,-10.77337 -4.37335,-6.93335 -4.37335,-15.68004 0,-8.7467 4.37335,-15.57339 4.37334,-6.93335 12.05337,-10.77336 7.78669,-3.84002 17.49338,-3.84002 9.81337,0 17.49339,3.84002 7.78669,3.84001 12.05337,10.77336 4.37335,6.82669 4.37335,15.57339 0,8.74669 -4.37335,15.68004 -4.26668,6.82669 -12.05337,10.77337 -7.68002,3.84001 -17.49339,3.84001 z m 0,-18.77339 q 4.16002,0 6.82669,-2.98667 2.66668,-3.09335 2.66668,-8.53336 0,-5.44002 -2.66668,-8.4267 -2.66667,-2.98667 -6.82669,-2.98667 -4.16001,0 -6.82668,2.98667 -2.66668,2.98668 -2.66668,8.4267 0,5.44001 2.66668,8.53336 2.66667,2.98667 6.82668,2.98667 z"
         id="path19251" />
      <path
         d="m 223.47428,232.82784 q 10.77336,0 17.28005,6.50669 6.61335,6.50669 6.61335,19.62673 v 33.2801 h -24.10674 v -29.12009 q 0,-10.0267 -7.14669,-10.0267 -4.05334,0 -6.61335,2.88001 -2.45334,2.77335 -2.45334,8.85336 v 27.41342 h -24.10674 v -58.34685 h 22.9334 v 5.76002 q 3.41335,-3.41334 7.89336,-5.12001 4.48001,-1.70668 9.7067,-1.70668 z"
         id="path19253" />
      <path
         d="m 300.80782,290.21469 q -5.44002,3.09334 -14.82671,3.09334 -12.26671,0 -18.88006,-5.86668 -6.61336,-5.97335 -6.61336,-17.81339 v -14.93338 h -8.00002 v -17.60006 h 8.00002 v -16.32005 h 24.10675 v 16.32005 h 11.9467 v 17.60006 h -11.9467 v 14.72005 q 0,2.66667 1.38667,4.16001 1.38667,1.49334 3.62668,1.49334 3.09334,0 5.44001,-1.60001 z"
         id="path19255" />
      <path
         d="m 329.71447,293.30803 q -7.46669,0 -14.72005,-1.6 -7.25335,-1.60001 -11.73337,-4.16001 l 6.61336,-15.89339 q 4.05334,2.45334 9.60003,3.84001 5.54668,1.38668 10.77336,1.38668 4.16002,0 5.76002,-0.64001 1.70667,-0.74667 1.70667,-2.13334 0,-1.38667 -2.13334,-1.92 -2.02667,-0.53334 -6.72002,-1.06667 -7.14669,-0.85334 -12.16003,-2.13334 -5.01335,-1.38667 -8.85337,-5.22669 -3.73334,-3.84001 -3.73334,-10.9867 0,-5.65335 3.41334,-10.13336 3.41335,-4.48002 10.13337,-7.14669 6.82669,-2.66668 16.32005,-2.66668 6.61335,0 12.90671,1.28001 6.40002,1.17334 10.88003,3.52001 l -6.61335,15.89338 q -7.68003,-4.26668 -16.85339,-4.26668 -7.89336,0 -7.89336,2.77334 0,1.38668 2.13334,2.02668 2.13334,0.53333 6.72002,1.06667 7.14669,0.85333 12.05337,2.24 5.01335,1.38668 8.7467,5.22669 3.84001,3.84001 3.84001,10.9867 0,5.44002 -3.41334,9.92003 -3.41335,4.48001 -10.24004,7.14669 -6.82668,2.66667 -16.53338,2.66667 z"
         id="path19257" />
      <path
         d="m 429.23465,263.01461 q 0,0.53333 -0.32,5.65335 h -40.53346 q 1.28,3.30667 4.26668,5.12001 2.98667,1.70667 7.46669,1.70667 3.84001,0 6.40002,-0.96 2.66667,-0.96 5.76002,-3.30668 l 12.5867,12.69338 q -8.53336,9.38669 -25.49341,9.38669 -10.56003,0 -18.56006,-3.84001 -8.00002,-3.94668 -12.37337,-10.88003 -4.37335,-6.93336 -4.37335,-15.57338 0,-8.7467 4.26668,-15.57339 4.37335,-6.93335 11.84004,-10.77336 7.57336,-3.84002 16.96005,-3.84002 8.85336,0 16.10672,3.52002 7.36002,3.52001 11.6267,10.34669 4.37335,6.82669 4.37335,16.32006 z m -31.89343,-13.76005 q -3.73335,0 -6.18669,2.02668 -2.45334,2.02667 -3.20001,5.76001 h 18.77339 q -0.74667,-3.62667 -3.20001,-5.65335 -2.45334,-2.13334 -6.18668,-2.13334 z"
         id="path19259" />
      <path
         d="m 459.74139,240.18787 q 6.40002,-7.36003 18.88006,-7.36003 v 21.3334 q -2.88001,-0.42666 -5.33335,-0.42666 -12.37337,0 -12.37337,12.5867 v 25.92008 h -24.10674 v -58.34685 h 22.9334 z"
         id="path19261" />
      <path
         d="m 508.38147,240.18787 q 6.40002,-7.36003 18.88006,-7.36003 v 21.3334 q -2.88001,-0.42666 -5.33335,-0.42666 -12.37337,0 -12.37337,12.5867 v 25.92008 h -24.10675 v -58.34685 h 22.93341 z"
         id="path19263" />
      <path
         d="m 559.68811,232.82784 q 15.36005,0 23.46674,6.93336 8.10669,6.82669 8.10669,21.12007 v 31.36009 h -22.40007 v -7.68002 q -4.16001,8.74669 -16.53339,8.74669 -6.93335,0 -11.84003,-2.34667 -4.80002,-2.45334 -7.36002,-6.50669 -2.45335,-4.16001 -2.45335,-9.28003 0,-8.64002 6.61336,-13.12004 6.61335,-4.48001 20.05339,-4.48001 h 9.7067 q -1.17334,-6.82669 -10.9867,-6.82669 -3.94668,0 -8.00002,1.28 -4.05335,1.17334 -6.93336,3.30668 l -7.68002,-15.89338 q 5.01335,-3.09334 12.05337,-4.80002 7.14669,-1.81334 14.18671,-1.81334 z m -0.10667,45.97348 q 2.56001,0 4.58668,-1.38667 2.02667,-1.38667 2.98668,-4.16001 v -4.05335 h -5.97335 q -7.36003,0 -7.36003,4.90668 0,2.02668 1.49334,3.41335 1.60001,1.28 4.26668,1.28 z"
         id="path19265" />
      <path
         d="m 644.70171,290.21469 q -5.44002,3.09334 -14.82671,3.09334 -12.26671,0 -18.88006,-5.86668 -6.61335,-5.97335 -6.61335,-17.81339 v -14.93338 h -8.00003 v -17.60006 h 8.00003 v -16.32005 h 24.10674 v 16.32005 h 11.9467 v 17.60006 h -11.9467 v 14.72005 q 0,2.66667 1.38667,4.16001 1.38667,1.49334 3.62668,1.49334 3.09334,0 5.44001,-1.60001 z"
         id="path19267" />
    </g>
    <g
       aria-label="Montserrat"
       id="text15494"
       style="font-weight:600;font-size:106.667px;line-height:1.25;font-family:Montserrat;-inkscape-font-specification:'Montserrat, Semi-Bold';letter-spacing:0px;word-spacing:0px;fill:#008080;stroke-width:0.999999">
      <path
         d="m 82.140708,445.81702 -0.106667,-49.49349 -24.53341,40.96013 h -6.186686 l -24.53341,-40.32013 v 48.85349 H 13.553827 v -74.6669 h 11.413369 l 29.653426,49.49348 29.120091,-49.49348 h 11.413369 l 0.106667,74.6669 z"
         id="path19288" />
      <path
         d="m 139.74088,446.56369 q -8.64003,0 -15.57338,-3.73335 -6.93336,-3.73334 -10.88004,-10.3467 -3.84001,-6.72002 -3.84001,-15.14671 0,-8.4267 3.84001,-15.04005 3.94668,-6.61335 10.88004,-10.3467 6.93335,-3.73334 15.57338,-3.73334 8.74669,0 15.68005,3.73334 6.93335,3.73335 10.77336,10.3467 3.94668,6.61335 3.94668,15.04005 0,8.42669 -3.94668,15.14671 -3.84001,6.61336 -10.77336,10.3467 -6.93336,3.73335 -15.68005,3.73335 z m 0,-11.41337 q 7.36002,0 12.16003,-4.90669 4.80002,-4.90668 4.80002,-12.9067 0,-8.00003 -4.80002,-12.90671 -4.80001,-4.90668 -12.16003,-4.90668 -7.36003,0 -12.16004,4.90668 -4.69335,4.90668 -4.69335,12.90671 0,8.00002 4.69335,12.9067 4.80001,4.90669 12.16004,4.90669 z"
         id="path19290" />
      <path
         d="m 215.26095,388.21684 q 10.77336,0 17.28005,6.29335 6.50669,6.29335 6.50669,18.66672 v 32.64011 h -13.33338 v -30.93343 q 0,-7.46669 -3.52001,-11.20004 -3.52001,-3.84001 -10.0267,-3.84001 -7.36002,0 -11.6267,4.48001 -4.26668,4.37335 -4.26668,12.69338 v 28.80009 h -13.33337 v -56.96018 h 12.69337 v 7.36002 q 3.30668,-3.94668 8.32002,-5.97335 5.01335,-2.02667 11.30671,-2.02667 z"
         id="path19292" />
      <path
         d="m 290.2478,442.72367 q -2.34667,1.92001 -5.76002,2.88001 -3.30667,0.96001 -7.04002,0.96001 -9.38669,0 -14.50671,-4.90669 -5.12002,-4.90668 -5.12002,-14.29337 v -27.41342 h -9.38669 v -10.6667 h 9.38669 v -13.01338 h 13.33338 v 13.01338 h 15.25338 v 10.6667 h -15.25338 v 27.09341 q 0,4.16002 2.02667,6.40002 2.02667,2.13334 5.86669,2.13334 4.48001,0 7.46669,-2.34667 z"
         id="path19294" />
      <path
         d="m 318.83454,446.56369 q -6.93335,0 -13.54671,-1.81334 -6.61335,-1.81334 -10.56003,-4.58668 l 5.12002,-10.13337 q 3.84001,2.56001 9.17336,4.16001 5.44001,1.49334 10.6667,1.49334 11.9467,0 11.9467,-6.29335 0,-2.98668 -3.09334,-4.16001 -2.98668,-1.17334 -9.7067,-2.24001 -7.04002,-1.06667 -11.52004,-2.45334 -4.37334,-1.38667 -7.68002,-4.80002 -3.20001,-3.52001 -3.20001,-9.70669 0,-8.1067 6.72002,-12.90671 6.82669,-4.90668 18.34673,-4.90668 5.86668,0 11.73337,1.38667 5.86668,1.28 9.60003,3.52001 l -5.12002,10.13336 q -7.25336,-4.26668 -16.32005,-4.26668 -5.86669,0 -8.96003,1.81334 -2.98668,1.70667 -2.98668,4.58668 0,3.20001 3.20001,4.58668 3.30668,1.28001 10.13337,2.45335 6.82669,1.06667 11.20003,2.45334 4.37335,1.38667 7.46669,4.69334 3.20001,3.30668 3.20001,9.3867 0,8.00003 -6.93335,12.80004 -6.93336,4.80002 -18.88006,4.80002 z"
         id="path19296" />
      <path
         d="m 409.71476,417.65693 q 0,1.38667 -0.21333,3.94668 h -44.69348 q 1.17334,6.29335 6.08002,10.0267 5.01335,3.62667 12.37338,3.62667 9.38669,0 15.46671,-6.18668 l 7.14669,8.21336 q -3.84001,4.58668 -9.7067,6.93335 -5.86668,2.34668 -13.22671,2.34668 -9.38669,0 -16.53338,-3.73335 -7.14669,-3.73334 -11.09337,-10.3467 -3.84001,-6.72002 -3.84001,-15.14671 0,-8.32003 3.73334,-14.93338 3.84002,-6.72002 10.56004,-10.45337 6.72002,-3.73334 15.14671,-3.73334 8.32003,0 14.82671,3.73334 6.61336,3.62668 10.24004,10.3467 3.73334,6.61335 3.73334,15.36005 z m -28.80009,-18.77339 q -6.40002,0 -10.88003,3.84001 -4.37335,3.73334 -5.33335,10.0267 h 32.3201 q -0.85334,-6.18669 -5.22668,-10.0267 -4.37335,-3.84001 -10.88004,-3.84001 z"
         id="path19298" />
      <path
         d="m 435.20813,397.17686 q 5.76002,-8.96002 20.26673,-8.96002 v 12.69337 q -1.70667,-0.32 -3.09334,-0.32 -7.78669,0 -12.16004,4.58668 -4.37335,4.48001 -4.37335,13.01337 v 27.62676 h -13.33337 v -56.96018 h 12.69337 z"
         id="path19300" />
      <path
         d="m 479.47464,397.17686 q 5.76002,-8.96002 20.26673,-8.96002 v 12.69337 q -1.70667,-0.32 -3.09334,-0.32 -7.78669,0 -12.16004,4.58668 -4.37335,4.48001 -4.37335,13.01337 v 27.62676 h -13.33337 v -56.96018 h 12.69337 z"
         id="path19302" />
      <path
         d="m 532.48781,388.21684 q 12.58671,0 19.20006,6.08002 6.72002,5.97335 6.72002,18.13339 v 33.38677 h -12.58671 v -6.93336 q -2.45334,3.73335 -7.04002,5.76002 -4.48001,1.92001 -10.88003,1.92001 -6.40002,0 -11.20004,-2.13334 -4.80001,-2.24001 -7.46669,-6.08002 -2.56,-3.94668 -2.56,-8.85336 0,-7.68003 5.65335,-12.26671 5.76001,-4.69335 18.02672,-4.69335 h 14.72005 v -0.85333 q 0,-5.97336 -3.62668,-9.17337 -3.52001,-3.20001 -10.56004,-3.20001 -4.80001,0 -9.49336,1.49334 -4.58668,1.49334 -7.78669,4.16002 l -5.22668,-9.7067 q 4.48001,-3.41335 10.77336,-5.22668 6.29336,-1.81334 13.33338,-1.81334 z m -1.81334,48.64015 q 5.01335,0 8.85336,-2.24001 3.94668,-2.34667 5.54669,-6.61335 v -6.61336 h -13.76005 q -11.52003,0 -11.52003,7.57336 0,3.62668 2.88001,5.76002 2.88,2.13334 8.00002,2.13334 z"
         id="path19304" />
      <path
         d="m 609.71455,442.72367 q -2.34667,1.92001 -5.76002,2.88001 -3.30667,0.96001 -7.04002,0.96001 -9.38669,0 -14.50671,-4.90669 -5.12002,-4.90668 -5.12002,-14.29337 v -27.41342 h -9.38669 v -10.6667 h 9.38669 v -13.01338 h 13.33338 v 13.01338 h 15.25338 v 10.6667 h -15.25338 v 27.09341 q 0,4.16002 2.02667,6.40002 2.02668,2.13334 5.86669,2.13334 4.48001,0 7.46669,-2.34667 z"
         id="path19306" />
    </g>
    <g
       aria-label="Merriweather"
       id="text126571"
       style="font-style:italic;font-weight:300;font-size:106.667px;line-height:1.25;font-family:Merriweather;-inkscape-font-specification:'Merriweather, Light Italic';letter-spacing:0px;word-spacing:0px;fill:#008080;stroke-width:0.999999">
      <path
         d="m 759.66141,122.12588 q 3.09334,-7.89336 12.9067,-28.373425 9.49337,-20.373397 11.94671,-26.346749 h 20.26673 l -0.53334,4.26668 -9.38669,1.06667 -2.02668,68.906884 8.85336,1.28 -0.32,3.73335 h -27.09341 l 0.42666,-3.73335 9.7067,-1.17334 2.13334,-48.000145 1.49334,-21.866735 -8.10669,19.306727 -25.49342,55.680173 -4.69334,0.74667 -9.28003,-55.146839 -3.52001,-20.586731 -4.37335,21.013399 -11.41337,48.746821 10.3467,1.28 -0.32,3.73335 h -26.24008 l 0.42666,-3.73335 8.96003,-1.28 17.28006,-68.906884 -9.81337,-1.06667 0.53334,-4.26668 h 21.54673 l 9.0667,54.506834 1.49333,11.41337 z"
         id="path19413" />
      <path
         d="m 852.78156,136.84592 q -2.77335,3.84001 -8.85336,7.36003 -5.97336,3.52001 -13.01338,3.52001 -7.04002,0 -11.6267,-3.20001 -4.58668,-3.20001 -6.82669,-8.32003 -2.13334,-5.22668 -2.13334,-11.3067 0,-10.0267 4.05335,-18.98673 4.05334,-8.960025 10.9867,-14.400042 7.04002,-5.440017 15.57338,-5.440017 7.25336,0 10.9867,3.626678 3.73335,3.626678 3.73335,9.386696 0,7.573355 -6.40002,12.800035 -6.40002,5.12002 -15.04005,7.7867 -8.64003,2.56 -14.93338,2.66667 -0.10667,0.74667 -0.10667,2.45334 0,6.82669 3.20001,11.84004 3.20001,5.01335 9.81337,5.01335 4.58668,0 9.49336,-2.13334 4.90668,-2.13334 9.06669,-6.29336 z M 839.02151,91.08578 q -5.44001,0 -9.70669,4.160013 -4.26668,4.160013 -6.82669,10.346697 -2.45334,6.08002 -2.98668,11.94671 6.08002,-0.21334 12.48004,-2.34668 6.50669,-2.24001 10.88004,-6.18668 4.37334,-3.94668 4.37334,-9.173366 -0.10666,-4.26668 -2.24,-6.506687 -2.13334,-2.240007 -5.97336,-2.240007 z"
         id="path19415" />
      <path
         d="m 881.36831,101.11248 q 1.38667,-3.200012 4.37335,-6.613356 2.98667,-3.520011 7.04002,-5.866685 4.16001,-2.453341 8.74669,-2.453341 2.56001,0 3.41335,0.640002 l -1.92001,9.280029 q -1.49334,-0.853336 -4.90668,-0.853336 -4.90668,0 -9.92003,3.733345 -5.01335,3.733342 -7.78669,10.453362 l -4.58668,37.22679 h -8.32003 l 6.72002,-51.840165 -5.44002,-2.453341 0.74667,-3.840012 11.20004,-2.240007 2.02667,0.960003 -0.74667,9.493363 z"
         id="path19417" />
      <path
         d="m 924.88835,101.11248 q 1.38667,-3.200012 4.37334,-6.613356 2.98668,-3.520011 7.04002,-5.866685 4.16002,-2.453341 8.7467,-2.453341 2.56001,0 3.41334,0.640002 l -1.92,9.280029 q -1.49334,-0.853336 -4.90669,-0.853336 -4.90668,0 -9.92003,3.733345 -5.01335,3.733342 -7.78669,10.453362 l -4.58668,37.22679 h -8.32002 l 6.72002,-51.840165 -5.44002,-2.453341 0.74667,-3.840012 11.20003,-2.240007 2.02668,0.960003 -0.74667,9.493363 z"
         id="path19419" />
      <path
         d="m 965.1017,138.23259 q -0.10666,0.42667 -0.10666,1.28001 0,1.17333 0.42666,1.81334 0.53334,0.64 1.17334,0.64 2.13334,0 5.54668,-3.52001 l 1.38668,2.34667 q -1.38668,2.13334 -4.48002,4.58668 -3.09334,2.34668 -6.82669,2.34668 -2.88001,0 -4.58668,-1.49334 -1.6,-1.49334 -1.38667,-4.80002 0.21334,-2.77334 1.38667,-11.20003 1.28001,-8.42669 1.92001,-12.69337 l 3.41334,-23.360077 -6.93335,-2.240007 0.64,-3.413344 13.54671,-2.240007 2.13334,1.06667 z m 4.26668,-64.320197 q -1.92,0 -3.41334,-1.386671 -1.38667,-1.493338 -1.38667,-3.733345 0,-2.773342 1.92,-4.800015 2.02668,-2.026673 4.26668,-2.026673 2.24001,0 3.52001,1.386671 1.38668,1.386671 1.38668,3.626678 0,2.880009 -1.92001,4.906682 -1.81334,2.026673 -4.37335,2.026673 z"
         id="path19421" />
      <path
         d="m 989.84839,95.885795 q -0.42667,-1.920006 -0.96,-2.666675 -0.53334,-0.853336 -1.60001,-0.853336 -0.96,-0.106667 -1.81334,0.426668 -0.74667,0.533335 -2.13334,1.600005 l -1.17334,-2.773342 q 0.85334,-1.493338 3.62668,-3.413344 2.77334,-2.026673 5.97335,-2.026673 3.41335,0 4.80002,1.706672 1.38667,1.706672 1.92001,5.440017 l 4.05338,36.693443 1.0666,10.0267 4.0534,-9.17336 18.88,-44.266804 h 7.4667 l 3.9467,43.520134 0.8533,9.92003 6.8267,-9.81336 q 3.7334,-5.22668 7.7867,-14.40005 4.0534,-9.28003 4.3734,-16.853382 0.1066,-1.813339 -0.4267,-3.413344 -0.4267,-1.600005 -0.5333,-1.920006 -0.64,-1.920006 -0.64,-2.773342 0,-2.240007 1.0666,-3.413344 1.0667,-1.280004 2.9867,-1.280004 5.5467,0 5.5467,10.346699 0,6.506683 -4.3734,15.893383 -4.3733,9.3867 -10.56,18.45339 l -10.4534,16.21338 -7.7866,0.53334 -1.9201,-17.81339 -2.4533,-24.53341 -0.5333,-6.933354 -2.24,7.040024 -12.3734,25.81341 -7.4667,15.89338 -7.25335,0.64001 -2.98668,-18.02673 z"
         id="path19423" />
      <path
         d="m 1116.2488,136.84592 q -2.7734,3.84001 -8.8534,7.36003 -5.9733,3.52001 -13.0134,3.52001 -7.04,0 -11.6267,-3.20001 -4.5866,-3.20001 -6.8267,-8.32003 -2.1333,-5.22668 -2.1333,-11.3067 0,-10.0267 4.0534,-18.98673 4.0533,-8.960025 10.9867,-14.400042 7.04,-5.440017 15.5733,-5.440017 7.2534,0 10.9867,3.626678 3.7334,3.626678 3.7334,9.386696 0,7.573355 -6.4,12.800035 -6.4001,5.12002 -15.0401,7.7867 -8.64,2.56 -14.9334,2.66667 -0.1066,0.74667 -0.1066,2.45334 0,6.82669 3.2,11.84004 3.2,5.01335 9.8133,5.01335 4.5867,0 9.4934,-2.13334 4.9067,-2.13334 9.0667,-6.29336 z m -13.7601,-45.76014 q -5.44,0 -9.7067,4.160013 -4.2666,4.160013 -6.8267,10.346697 -2.4533,6.08002 -2.9866,11.94671 6.08,-0.21334 12.48,-2.34668 6.5067,-2.24001 10.88,-6.18668 4.3734,-3.94668 4.3734,-9.173366 -0.1067,-4.26668 -2.24,-6.506687 -2.1334,-2.240007 -5.9734,-2.240007 z"
         id="path19425" />
      <path
         d="m 1171.3956,137.48592 q -0.1067,0.53334 -0.1067,1.28001 0,1.70667 0.64,2.45334 0.7467,0.74667 1.4934,0.74667 1.0666,0 2.0266,-0.64 1.0667,-0.74667 2.6667,-2.34668 l 1.4933,2.34668 q -0.4266,0.85333 -2.0266,2.45334 -1.4934,1.49334 -3.7334,2.77334 -2.24,1.17334 -4.6933,1.17334 -6.6134,0 -6.1867,-7.04003 l 0.64,-4.37334 q -3.6267,4.69335 -8.5334,8.10669 -4.8,3.30668 -10.0267,3.30668 -8.4267,0 -12.5867,-6.08002 -4.0533,-6.08002 -4.0533,-16.42672 0,-8.64003 4.0533,-17.70672 4.0534,-9.173364 11.6267,-15.253383 7.6801,-6.186686 17.8134,-6.186686 2.24,0 5.2267,0.533335 2.9867,0.533335 5.3334,1.280004 l 5.8666,-1.706672 z m -2.3467,-43.840132 q -3.4133,-2.346674 -8.32,-2.346674 -7.36,0 -12.6934,5.120016 -5.3333,5.01335 -8.1067,12.69337 -2.7733,7.68003 -2.7733,15.14672 0,8.21336 2.3467,12.80004 2.4533,4.48001 7.36,4.48001 4.8,0 9.4933,-3.73334 4.8001,-3.84002 8.0001,-8.4267 z"
         id="path19427" />
      <path
         d="m 1202.7556,128.63256 q -0.7466,6.29336 -0.7466,8.00003 0,2.77334 1.0666,3.94668 1.1734,1.06667 4.0534,1.06667 2.1333,0 5.44,-1.49334 3.3067,-1.49334 5.12,-2.98668 l 0.8533,3.30668 q -2.0266,2.45334 -6.8266,4.90668 -4.8001,2.34668 -9.0667,2.34668 -9.1734,0 -9.1734,-8.7467 0,-2.77334 0.5333,-6.72002 l 5.0134,-38.933453 h -6.5067 l 0.96,-3.733345 6.5067,-2.026673 q 2.24,-2.880009 5.9733,-14.613379 h 4.1601 l -1.92,14.506712 h 14.72 l -0.8533,5.866685 h -14.5068 z"
         id="path19429" />
      <path
         d="m 1243.7156,101.21914 q 4.5867,-6.506682 10.7734,-10.773362 6.2933,-4.373347 12.5867,-4.373347 5.8667,0 8.8533,3.626678 3.0934,3.520011 3.0934,11.840041 0,4.69334 -2.24,15.89338 -0.1067,0.64 -0.2134,1.38667 -0.1066,0.74667 -0.32,1.49334 -0.4266,1.81334 -0.5333,3.20001 -2.0267,9.92003 -2.3467,14.82671 -0.1066,1.81334 0.32,2.77334 0.4267,0.96001 1.28,0.96001 1.0667,0 2.24,-0.64001 1.1734,-0.74667 3.3067,-2.56 l 1.28,2.34667 q -0.5333,0.96 -2.1333,2.56001 -1.6,1.49334 -4.0534,2.77334 -2.4533,1.17334 -5.12,1.17334 -5.8667,0 -5.8667,-5.76002 0,-2.77334 0.8534,-7.46669 0.8533,-4.80002 0.96,-5.65335 0.1066,-0.32 1.0666,-5.97335 1.3867,-7.04003 2.1334,-11.73337 0.7466,-4.80002 0.7466,-9.0667 0,-5.120015 -1.7066,-7.146688 -1.6,-2.026673 -5.2267,-2.026673 -4.8,0 -10.6667,4.480014 -5.8667,4.373347 -9.92,10.666697 l -5.2267,38.61346 h -8.1067 l 10.3467,-78.826916 -5.9734,-1.706672 0.64,-3.626678 12.2667,-1.813339 2.1334,1.280004 z"
         id="path19431" />
      <path
         d="m 1335.1291,136.84592 q -2.7734,3.84001 -8.8534,7.36003 -5.9734,3.52001 -13.0134,3.52001 -7.04,0 -11.6267,-3.20001 -4.5867,-3.20001 -6.8267,-8.32003 -2.1333,-5.22668 -2.1333,-11.3067 0,-10.0267 4.0533,-18.98673 4.0534,-8.960025 10.9867,-14.400042 7.0401,-5.440017 15.5734,-5.440017 7.2534,0 10.9867,3.626678 3.7334,3.626678 3.7334,9.386696 0,7.573355 -6.4001,12.800035 -6.4,5.12002 -15.04,7.7867 -8.64,2.56 -14.9334,2.66667 -0.1067,0.74667 -0.1067,2.45334 0,6.82669 3.2001,11.84004 3.2,5.01335 9.8133,5.01335 4.5867,0 9.4934,-2.13334 4.9067,-2.13334 9.0667,-6.29336 z M 1321.369,91.08578 q -5.44,0 -9.7067,4.160013 -4.2667,4.160013 -6.8267,10.346697 -2.4533,6.08002 -2.9867,11.94671 6.0801,-0.21334 12.4801,-2.34668 6.5067,-2.24001 10.88,-6.18668 4.3734,-3.94668 4.3734,-9.173366 -0.1067,-4.26668 -2.24,-6.506687 -2.1334,-2.240007 -5.9734,-2.240007 z"
         id="path19433" />
      <path
         d="m 1363.7158,101.11248 q 1.3867,-3.200012 4.3734,-6.613356 2.9866,-3.520011 7.04,-5.866685 4.16,-2.453341 8.7467,-2.453341 2.56,0 3.4133,0.640002 l -1.92,9.280029 q -1.4933,-0.853336 -4.9067,-0.853336 -4.9066,0 -9.92,3.733345 -5.0133,3.733342 -7.7867,10.453362 l -4.5867,37.22679 h -8.32 l 6.72,-51.840165 -5.44,-2.453341 0.7467,-3.840012 11.2,-2.240007 2.0267,0.960003 -0.7467,9.493363 z"
         id="path19435" />
    </g>
    <g
       aria-label="Merriweather"
       id="text17623"
       style="font-weight:900;font-size:106.667px;line-height:1.25;font-family:Merriweather;-inkscape-font-specification:'Merriweather, Heavy';letter-spacing:0px;word-spacing:0px;fill:#008080;stroke-width:0.999999">
      <path
         d="m 724.35463,222.82339 -11.3067,-1.49334 v -7.46669 h 36.26678 l 11.3067,44.58681 2.56001,11.84004 2.13334,-11.84004 11.20003,-44.58681 h 36.05345 v 7.46669 l -11.62671,1.49334 8.53336,62.08019 8.21336,1.17334 v 7.04002 h -35.94677 v -7.04002 l 9.06669,-1.17334 -4.48001,-45.97347 -1.92001,-18.77339 -3.73334,17.06672 -13.97338,52.80016 h -13.97338 l -14.93338,-51.30683 -4.90668,-18.66672 -1.28,18.88006 -3.94668,45.97347 10.88003,1.17334 v 7.04002 h -30.82676 v -7.04002 l 8.85336,-1.06667 z"
         id="path19370" />
      <path
         d="m 849.90153,294.29028 q -14.61338,0 -21.6534,-8.21336 -7.04002,-8.32002 -7.04002,-22.6134 0,-9.7067 3.62667,-16.74672 3.62668,-7.04002 10.13337,-10.6667 6.61335,-3.73335 15.46671,-3.73335 11.20004,0 17.06672,5.65335 5.97336,5.65336 6.18669,16.00005 0,6.82669 -0.96,10.98671 H 839.3415 q 0.53333,9.06669 4.37334,13.86671 3.94668,4.69334 10.9867,4.69334 3.94668,0 8.21336,-1.28 4.37335,-1.38667 7.04002,-3.09334 l 2.98668,6.50668 q -2.77334,3.09335 -9.49336,5.86669 -6.61336,2.77334 -13.54671,2.77334 z m 6.82669,-36.37345 0.10666,-4.48001 q 0,-6.72002 -1.81334,-10.24003 -1.81333,-3.52001 -6.18668,-3.52001 -4.48002,0 -6.93336,3.94668 -2.45334,3.84001 -2.66667,14.29337 z"
         id="path19372" />
      <path
         d="m 881.58152,286.07692 6.50669,-0.96 v -40.10679 l -6.29335,-1.92001 v -8.32003 l 17.70672,-2.34667 h 0.32 l 2.98668,2.24001 v 2.56001 l -0.32,8.85336 h 0.32 q 0.74667,-2.45334 3.41334,-5.65335 2.66668,-3.30668 6.72002,-5.65336 4.16001,-2.45334 8.96003,-2.45334 2.77334,0 4.26668,0.74667 v 18.56006 q -1.70667,-1.28 -3.73335,-2.02667 -1.92,-0.74667 -5.01334,-0.74667 -3.84002,0 -6.93336,1.06667 -3.09334,0.96 -4.90668,2.24001 v 32.9601 l 11.73337,1.06667 v 6.93335 h -35.73345 z"
         id="path19374" />
      <path
         d="m 932.78163,286.07692 6.50668,-0.96 v -40.10679 l -6.29335,-1.92001 v -8.32003 l 17.70672,-2.34667 h 0.32 l 2.98668,2.24001 v 2.56001 l -0.32,8.85336 h 0.32 q 0.74667,-2.45334 3.41334,-5.65335 2.66668,-3.30668 6.72003,-5.65336 4.16001,-2.45334 8.96002,-2.45334 2.77335,0 4.26668,0.74667 v 18.56006 q -1.70667,-1.28 -3.73334,-2.02667 -1.92001,-0.74667 -5.01335,-0.74667 -3.84001,0 -6.93336,1.06667 -3.09334,0.96 -4.90668,2.24001 v 32.9601 l 11.73337,1.06667 v 6.93335 h -35.73344 z"
         id="path19376" />
      <path
         d="m 996.88844,224.63673 q -4.16001,0 -6.72002,-2.45334 -2.56001,-2.45334 -2.56001,-6.29335 0,-4.48002 2.77334,-7.36003 2.88001,-2.88001 7.68003,-2.88001 4.80002,0 7.36002,2.45334 2.56,2.45335 2.56,6.29336 0,4.58668 -2.88,7.46669 -2.88,2.77334 -8.10669,2.77334 z m -6.50669,20.3734 -7.14669,-2.02668 v -8.00002 l 21.33344,-2.56001 h 0.2133 l 3.3067,2.24001 v 50.45349 l 6.4,0.96 v 7.04002 h -30.7201 v -7.04002 l 6.61335,-0.96 z"
         id="path19378" />
      <path
         d="m 1015.4484,233.91676 h 29.2268 v 6.72002 l -7.1467,1.17334 7.2533,26.56008 2.24,10.56003 1.92,-10.56003 9.1734,-34.45344 h 14.4 l 10.5601,34.45344 2.24,10.45337 2.1333,-10.45337 6.72,-26.45342 -7.68,-1.28 v -6.72002 h 23.4668 v 6.72002 l -5.1201,1.17334 -16.1067,52.16016 h -13.5467 l -10.56,-32.6401 -2.24,-12.37337 -1.6,12.37337 -9.4934,32.6401 h -13.8667 l -16.96,-52.16016 -5.0134,-1.17334 z"
         id="path19380" />
      <path
         d="m 1139.0754,294.29028 q -14.6134,0 -21.6534,-8.21336 -7.04,-8.32002 -7.04,-22.6134 0,-9.7067 3.6267,-16.74672 3.6267,-7.04002 10.1333,-10.6667 6.6134,-3.73335 15.4668,-3.73335 11.2,0 17.0667,5.65335 5.9733,5.65336 6.1867,16.00005 0,6.82669 -0.96,10.98671 h -33.3868 q 0.5333,9.06669 4.3733,13.86671 3.9467,4.69334 10.9867,4.69334 3.9467,0 8.2134,-1.28 4.3733,-1.38667 7.04,-3.09334 l 2.9867,6.50668 q -2.7734,3.09335 -9.4934,5.86669 -6.6133,2.77334 -13.5467,2.77334 z m 6.8267,-36.37345 0.1067,-4.48001 q 0,-6.72002 -1.8134,-10.24003 -1.8133,-3.52001 -6.1867,-3.52001 -4.48,0 -6.9333,3.94668 -2.4533,3.84001 -2.6667,14.29337 z"
         id="path19382" />
      <path
         d="m 1169.1554,276.05022 q 0,-9.38669 9.4933,-14.40004 9.6001,-5.01335 25.1735,-5.12002 v -2.13334 q 0,-3.84001 -0.8534,-6.08002 -0.8533,-2.24 -3.0933,-3.30667 -2.24,-1.17334 -6.6134,-1.17334 -5.2267,0 -9.3867,1.28 -4.0533,1.17334 -8.5333,3.20001 l -3.6267,-7.68002 q 1.7067,-1.38667 5.5467,-3.30668 3.84,-2.02667 9.1733,-3.41334 5.44,-1.49334 11.3067,-1.49334 8.5334,0 13.3334,2.24001 4.9067,2.24 6.9334,6.93335 2.1333,4.69335 2.1333,12.80004 v 31.6801 h 5.5467 v 6.72002 q -2.4534,0.53334 -6.8267,1.06667 -4.3733,0.53334 -7.4667,0.53334 -4.0533,0 -5.44,-1.17334 -1.28,-1.17334 -1.28,-4.69335 v -2.45334 q -2.6667,3.20001 -7.1467,5.76002 -4.48,2.45334 -10.3467,2.45334 -5.0133,0 -9.1734,-2.13334 -4.0533,-2.24001 -6.5066,-6.29335 -2.3467,-4.16002 -2.3467,-9.81337 z m 26.3467,8.4267 q 1.92,0 4.2667,-1.06667 2.3467,-1.17334 4.0534,-2.77335 v -16.96005 q -8.3201,0 -12.3734,2.98668 -3.9467,2.98667 -3.9467,7.68002 0,4.80002 2.1333,7.46669 2.1334,2.66668 5.8667,2.66668 z"
         id="path19384" />
      <path
         d="m 1249.4756,294.07695 q -7.04,0 -10.4534,-3.20001 -3.3066,-3.30668 -3.3066,-10.13337 v -37.97345 h -6.5067 v -6.18669 l 2.1333,-0.85333 q 2.56,-0.85334 4.48,-1.81334 2.1334,-2.02667 3.4134,-5.33335 1.6,-3.84001 3.52,-10.77337 h 9.92 l 0.64,16.00005 h 15.2534 v 8.96003 h -15.04 v 28.26675 q 0,5.86669 0.32,8.21336 0.32,2.34668 1.1733,3.09335 0.96,0.64 3.4133,0.64 5.0134,0 9.4934,-1.70667 l 2.24,6.72002 q -2.9867,2.45334 -8.8534,4.26668 -5.8666,1.81334 -11.84,1.81334 z"
         id="path19386" />
      <path
         d="m 1279.7689,216.10337 -7.5733,-1.38667 v -6.50669 l 21.44,-2.56001 h 0.32 l 3.0934,2.24001 0.1066,23.14674 -0.8533,9.49336 q 3.3067,-3.09334 8.7467,-5.44001 5.44,-2.45335 11.9467,-2.45335 6.72,0 10.4534,2.45335 3.7333,2.45334 5.2267,7.46669 1.4933,5.01334 1.4933,13.33337 v 29.22676 l 6.5067,0.96 v 7.04002 h -29.6534 v -7.04002 l 5.6533,-0.96 v -29.12009 q 0,-7.46669 -1.6,-10.3467 -1.6,-2.98668 -6.5067,-2.98668 -2.9867,0 -5.9733,1.38667 -2.9867,1.28001 -5.0134,3.20001 v 37.86679 l 5.8667,0.96 v 7.04002 h -29.2268 v -7.04002 l 5.5467,-0.96 z"
         id="path19388" />
      <path
         d="m 1374.7024,294.29028 q -14.6134,0 -21.6534,-8.21336 -7.0401,-8.32002 -7.0401,-22.6134 0,-9.7067 3.6267,-16.74672 3.6267,-7.04002 10.1334,-10.6667 6.6133,-3.73335 15.4667,-3.73335 11.2,0 17.0667,5.65335 5.9734,5.65336 6.1867,16.00005 0,6.82669 -0.96,10.98671 h -33.3868 q 0.5334,9.06669 4.3734,13.86671 3.9467,4.69334 10.9867,4.69334 3.9467,0 8.2133,-1.28 4.3734,-1.38667 7.0401,-3.09334 l 2.9866,6.50668 q -2.7733,3.09335 -9.4933,5.86669 -6.6134,2.77334 -13.5467,2.77334 z m 6.8267,-36.37345 0.1066,-4.48001 q 0,-6.72002 -1.8133,-10.24003 -1.8134,-3.52001 -6.1867,-3.52001 -4.48,0 -6.9334,3.94668 -2.4533,3.84001 -2.6666,14.29337 z"
         id="path19390" />
      <path
         d="m 1406.3823,286.07692 6.5067,-0.96 v -40.10679 l -6.2933,-1.92001 v -8.32003 l 17.7067,-2.34667 h 0.32 l 2.9867,2.24001 v 2.56001 l -0.32,8.85336 h 0.32 q 0.7466,-2.45334 3.4133,-5.65335 2.6667,-3.30668 6.72,-5.65336 4.16,-2.45334 8.9601,-2.45334 2.7733,0 4.2666,0.74667 v 18.56006 q -1.7066,-1.28 -3.7333,-2.02667 -1.92,-0.74667 -5.0134,-0.74667 -3.84,0 -6.9333,1.06667 -3.0934,0.96 -4.9067,2.24001 v 32.9601 l 11.7334,1.06667 v 6.93335 h -35.7335 z"
         id="path19392" />
    </g>
    <g
       aria-label="Merriweather"
       id="text17645"
       style="font-size:106.667px;line-height:1.25;font-family:Merriweather;-inkscape-font-specification:'Merriweather, Normal';letter-spacing:0px;word-spacing:0px;fill:#008080;stroke-width:0.999999">
      <path
         d="m 725.1013,373.14771 -11.6267,-1.28001 v -5.33335 h 28.26675 l 15.04005,48.00015 3.52001,13.54671 3.20001,-13.54671 14.93338,-48.00015 h 28.05342 v 5.33335 l -11.73337,1.28001 8.53336,66.2402 9.28003,1.17334 v 5.22668 h -30.7201 v -5.22668 l 9.7067,-1.06667 -4.80002,-47.89348 -2.24,-20.58673 -4.48002,15.36004 -17.81339,55.78685 h -6.93335 l -17.28005,-51.0935 -6.29336,-20.16006 -1.92,20.6934 -4.26668,47.89348 10.56003,1.06667 v 5.22668 h -27.84009 v -5.22668 l 9.0667,-1.06667 z"
         id="path19327" />
      <path
         d="m 844.24831,446.96127 q -12.90671,0 -19.73339,-8.42669 -6.72003,-8.4267 -6.72003,-22.50674 0,-9.28003 3.52002,-16.32005 3.52001,-7.04002 9.81336,-10.88003 6.40002,-3.84002 14.50671,-3.84002 9.92003,0 15.36005,5.54669 5.54668,5.44001 5.86668,15.68005 0,6.50668 -0.74666,9.92003 H 829.4216 q 0.21333,10.56003 4.90668,17.06672 4.69335,6.40002 13.33337,6.40002 4.26668,0 8.85337,-1.49334 4.69334,-1.60001 7.25335,-3.73335 l 2.02667,4.69335 q -3.09334,3.20001 -9.17336,5.54669 -6.08002,2.34667 -12.37337,2.34667 z m 10.88003,-36.48011 q 0.32001,-2.24001 0.32001,-4.58668 -0.10667,-6.93336 -2.98668,-10.88004 -2.77334,-4.05334 -8.85336,-4.05334 -6.18669,0 -9.92003,4.48001 -3.62668,4.48001 -4.16002,15.04005 z"
         id="path19329" />
      <path
         d="m 876.24827,440.56125 8.00003,-0.64 v -45.12014 l -7.68003,-1.92001 v -5.76002 l 14.72005,-1.92 h 0.21333 l 2.34668,1.92 v 1.92001 l -0.32,8.32003 h 0.32 q 1.06667,-1.81334 3.84001,-4.69335 2.77334,-2.88001 7.14669,-5.22669 4.37335,-2.45334 9.49336,-2.45334 2.13334,0 3.52001,0.53334 v 11.9467 q -0.74667,-0.53333 -2.45334,-0.96 -1.6,-0.53334 -3.62668,-0.53334 -8.85336,0 -16.42671,5.44002 v 38.40012 l 13.54671,0.85334 v 5.12001 h -32.64011 z"
         id="path19331" />
      <path
         d="m 925.10158,440.56125 8.00002,-0.64 v -45.12014 l -7.68002,-1.92001 v -5.76002 l 14.72004,-1.92 h 0.21334 l 2.34667,1.92 v 1.92001 l -0.32,8.32003 h 0.32 q 1.06667,-1.81334 3.84001,-4.69335 2.77334,-2.88001 7.14669,-5.22669 4.37335,-2.45334 9.49336,-2.45334 2.13334,0 3.52002,0.53334 v 11.9467 q -0.74667,-0.53333 -2.45335,-0.96 -1.6,-0.53334 -3.62667,-0.53334 -8.85336,0 -16.42672,5.44002 v 38.40012 l 13.54671,0.85334 v 5.12001 h -32.6401 z"
         id="path19333" />
      <path
         d="m 986.32825,375.92105 q -3.41334,0 -5.12002,-1.92001 -1.70667,-1.92 -1.70667,-4.90668 0,-3.41334 2.02667,-5.65335 2.13334,-2.24001 5.76002,-2.24001 3.62668,0 5.33335,1.92001 1.70667,1.92 1.70667,4.90668 0,3.62668 -2.13334,5.76002 -2.02667,2.13334 -5.76001,2.13334 z m -4.26668,18.88006 -8.10669,-1.92001 v -5.65335 l 16.53338,-2.02667 h 0.21334 l 2.45334,1.92 v 52.58683 l 8.53336,0.85334 v 5.22668 h -28.26676 v -5.22668 l 8.64003,-0.96 z"
         id="path19335" />
      <path
         d="m 1003.7148,386.58775 h 24.8534 v 5.01335 l -8.1067,1.28 8.8534,31.3601 3.0933,13.54671 3.0934,-13.65338 10.24,-37.54678 h 10.4534 l 10.56,37.54678 3.0933,13.76005 3.4134,-13.65338 8.64,-31.25343 -8.1067,-1.38667 v -5.01335 h 21.6534 v 5.01335 l -5.6533,1.38667 -16.5334,53.6535 h -10.0267 l -11.3067,-37.65345 -2.7734,-13.22671 -2.24,13.22671 -10.7733,37.65345 h -9.9201 l -17.0667,-53.76017 -5.44,-1.28 z"
         id="path19337" />
      <path
         d="m 1124.9951,446.96127 q -12.9068,0 -19.7334,-8.42669 -6.7201,-8.4267 -6.7201,-22.50674 0,-9.28003 3.52,-16.32005 3.5201,-7.04002 9.8134,-10.88003 6.4,-3.84002 14.5067,-3.84002 9.9201,0 15.3601,5.54669 5.5467,5.44001 5.8667,15.68005 0,6.50668 -0.7467,9.92003 h -36.6935 q 0.2134,10.56003 4.9067,17.06672 4.6934,6.40002 13.3334,6.40002 4.2667,0 8.8534,-1.49334 4.6933,-1.60001 7.2533,-3.73335 l 2.0267,4.69335 q -3.0934,3.20001 -9.1734,5.54669 -6.08,2.34667 -12.3733,2.34667 z m 10.88,-36.48011 q 0.32,-2.24001 0.32,-4.58668 -0.1067,-6.93336 -2.9867,-10.88004 -2.7733,-4.05334 -8.8533,-4.05334 -6.1867,0 -9.9201,4.48001 -3.6267,4.48001 -4.16,15.04005 z"
         id="path19339" />
      <path
         d="m 1156.7817,429.78788 q 0,-10.02669 10.0267,-14.72004 10.0267,-4.80002 25.3867,-5.12002 v -2.98667 q 0,-5.01335 -1.0667,-7.89336 -1.0666,-2.88001 -3.7333,-4.16002 -2.56,-1.38667 -7.36,-1.38667 -5.44,0 -9.8134,1.60001 -4.2667,1.49334 -8.5333,3.73334 l -2.6667,-5.54668 q 1.3867,-1.17334 5.12,-3.09334 3.7333,-1.92001 8.64,-3.41335 4.9067,-1.49334 9.8134,-1.49334 7.5733,0 11.9467,2.13334 4.48,2.02668 6.4,6.61336 1.92,4.58668 1.92,12.2667 v 34.24011 h 6.2934 v 4.69335 q -2.1334,0.53333 -5.44,1.06667 -3.2001,0.53333 -5.6534,0.53333 -2.9867,0 -4.0533,-0.96 -1.0667,-0.85334 -1.0667,-3.94668 v -3.52001 q -3.2,3.20001 -7.8934,5.86669 -4.5867,2.66667 -10.4533,2.66667 -7.6801,0 -12.8001,-4.37335 -5.0133,-4.48001 -5.0133,-12.80004 z m 22.4,9.92003 q 2.7734,0 6.4001,-1.70667 3.6266,-1.70667 6.6133,-4.05334 v -18.34673 q -11.6267,0 -17.6,3.62668 -5.8667,3.52001 -5.8667,9.28003 0,5.76002 2.7733,8.53336 2.88,2.66667 7.68,2.66667 z"
         id="path19341" />
      <path
         d="m 1234.8618,446.8546 q -6.08,0 -9.0667,-2.77334 -2.9867,-2.77334 -2.9867,-9.49336 v -40.96013 h -7.68 v -4.80001 q 0.5333,-0.10667 2.9867,-0.74667 2.4533,-0.64001 3.3066,-1.17334 1.7067,-0.96 2.6667,-3.84001 0.8534,-2.02668 2.0267,-6.50669 1.1733,-4.48001 1.3867,-5.33335 h 6.2933 l 0.2134,15.36005 h 17.8133 v 7.04002 h -17.8133 v 32.74677 q 0,6.08002 0.32,8.53336 0.4266,2.45334 1.6,3.20001 1.28,0.74667 4.2666,0.74667 2.88,0 6.2934,-0.74667 3.52,-0.74667 5.44,-1.60001 l 1.6,4.80002 q -2.56,1.92001 -8.32,3.73334 -5.6534,1.81334 -10.3467,1.81334 z"
         id="path19343" />
      <path
         d="m 1265.7952,366.21435 -8.96,-1.17334 v -4.58668 l 17.3867,-2.02667 h 0.2133 l 2.3467,1.60001 v 24.74674 l -0.4267,9.06669 q 3.4134,-3.09334 9.3867,-5.86668 5.9734,-2.77334 12.0534,-2.77334 6.72,0 10.4534,2.56001 3.7333,2.56 5.2267,7.89335 1.4933,5.22669 1.4933,14.18671 v 29.7601 l 7.4667,0.96 v 5.22668 h -25.4934 v -5.22668 l 6.9333,-0.96 v -29.86676 q 0,-6.29336 -0.8533,-9.81337 -0.8534,-3.62667 -3.2,-5.33335 -2.3467,-1.81334 -7.04,-1.81334 -3.8401,0 -8.2134,1.92001 -4.3734,1.92001 -7.68,4.48001 v 40.4268 l 7.36,0.96 v 5.22668 h -24.8534 v -5.22668 l 6.4,-0.85334 z"
         id="path19345" />
      <path
         d="m 1356.5687,446.96127 q -12.9067,0 -19.7334,-8.42669 -6.7201,-8.4267 -6.7201,-22.50674 0,-9.28003 3.5201,-16.32005 3.52,-7.04002 9.8133,-10.88003 6.4,-3.84002 14.5067,-3.84002 9.9201,0 15.3601,5.54669 5.5467,5.44001 5.8667,15.68005 0,6.50668 -0.7467,9.92003 h -36.6935 q 0.2134,10.56003 4.9067,17.06672 4.6934,6.40002 13.3334,6.40002 4.2667,0 8.8534,-1.49334 4.6933,-1.60001 7.2533,-3.73335 l 2.0267,4.69335 q -3.0933,3.20001 -9.1734,5.54669 -6.08,2.34667 -12.3733,2.34667 z m 10.88,-36.48011 q 0.32,-2.24001 0.32,-4.58668 -0.1067,-6.93336 -2.9867,-10.88004 -2.7733,-4.05334 -8.8533,-4.05334 -6.1867,0 -9.9201,4.48001 -3.6266,4.48001 -4.16,15.04005 z"
         id="path19347" />
      <path
         d="m 1388.5686,440.56125 8,-0.64 v -45.12014 l -7.68,-1.92001 v -5.76002 l 14.72,-1.92 h 0.2134 l 2.3466,1.92 v 1.92001 l -0.32,8.32003 h 0.32 q 1.0667,-1.81334 3.8401,-4.69335 2.7733,-2.88001 7.1466,-5.22669 4.3734,-2.45334 9.4934,-2.45334 2.1333,0 3.52,0.53334 v 11.9467 q -0.7467,-0.53333 -2.4533,-0.96 -1.6,-0.53334 -3.6267,-0.53334 -8.8534,0 -16.4267,5.44002 v 38.40012 l 13.5467,0.85334 v 5.12001 h -32.6401 z"
         id="path19349" />
    </g>
    <path
       style="fill:none;stroke:#004040;stroke-width:3;stroke-linecap:butt;stroke-linejoin:miter;stroke-miterlimit:4;stroke-dasharray:none;stroke-opacity:1"
       d="M 674.65046,49.723819 V 467.4055"
       id="path17752" />
  </g>
</svg>
