<?xml version="1.0" encoding="UTF-8" standalone="no"?>
<svg
   width="920"
   height="300"
   viewBox="0 0 243.41667 79.375"
   version="1.1"
   id="svg5"
   inkscape:version="1.1 (c68e22c387, 2021-05-23)"
   sodipodi:docname="akademieprehledkruh.svg"
   xmlns:inkscape="http://www.inkscape.org/namespaces/inkscape"
   xmlns:sodipodi="http://sodipodi.sourceforge.net/DTD/sodipodi-0.dtd"
   xmlns:xlink="http://www.w3.org/1999/xlink"
   xmlns="http://www.w3.org/2000/svg"
   xmlns:svg="http://www.w3.org/2000/svg">
  <sodipodi:namedview
     id="namedview7"
     pagecolor="#ffffff"
     bordercolor="#666666"
     borderopacity="1.0"
     objecttolerance="10.0"
     gridtolerance="10.0"
     guidetolerance="10.0"
     inkscape:pageshadow="2"
     inkscape:pageopacity="0.0"
     inkscape:pagecheckerboard="0"
     inkscape:document-units="mm"
     showgrid="false"
     inkscape:zoom="0.93731355"
     inkscape:cx="636.39323"
     inkscape:cy="441.68784"
     inkscape:window-width="1920"
     inkscape:window-height="1046"
     inkscape:window-x="-11"
     inkscape:window-y="-11"
     inkscape:window-maximized="1"
     inkscape:current-layer="layer1"
     inkscape:snap-bbox="true"
     showguides="true"
     inkscape:guide-bbox="true"
     inkscape:bbox-paths="true"
     inkscape:bbox-nodes="true"
     inkscape:snap-bbox-edge-midpoints="true"
     units="px">
    <sodipodi:guide
       position="-77.098702,308.10074"
       orientation="1,0"
       id="guide11861" />
    <sodipodi:guide
       position="1919.781,-1493.9154"
       orientation="0,-1"
       id="guide123897" />
    <sodipodi:guide
       position="2527.3659,-1567.1661"
       orientation="0,-1"
       id="guide123899" />
    <sodipodi:guide
       position="141.98602,-129.51098"
       orientation="0,-1"
       id="guide16994" />
  </sodipodi:namedview>
  <defs
     id="defs2">
    <linearGradient
       inkscape:collect="always"
       id="linearGradient66063">
      <stop
         style="stop-color:#ffffff;stop-opacity:1"
         offset="0"
         id="stop66059" />
      <stop
         style="stop-color:#ffccaa;stop-opacity:1"
         offset="1"
         id="stop66061" />
    </linearGradient>
    <linearGradient
       inkscape:collect="always"
       id="linearGradient64952">
      <stop
         style="stop-color:#ffffff;stop-opacity:1;"
         offset="0"
         id="stop64948" />
      <stop
         style="stop-color:#ffffff;stop-opacity:0;"
         offset="1"
         id="stop64950" />
    </linearGradient>
    <linearGradient
       inkscape:collect="always"
       id="linearGradient15092">
      <stop
         style="stop-color:#ffffff;stop-opacity:1;"
         offset="0"
         id="stop15088" />
      <stop
         style="stop-color:#ffffff;stop-opacity:0;"
         offset="1"
         id="stop15090" />
    </linearGradient>
    <linearGradient
       id="linearGradient27426"
       inkscape:swatch="gradient">
      <stop
         style="stop-color:#ffffff;stop-opacity:1;"
         offset="0"
         id="stop27422" />
      <stop
         style="stop-color:#ffffff;stop-opacity:0;"
         offset="1"
         id="stop27424" />
    </linearGradient>
    <filter
       style="color-interpolation-filters:sRGB"
       inkscape:label="Feather"
       id="filter14496"
       x="-0.11277526"
       y="-0.69693726"
       width="1.2255505"
       height="2.3938746">
      <feGaussianBlur
         stdDeviation="6.8343602"
         result="blur"
         id="feGaussianBlur14488" />
      <feComposite
         in="SourceGraphic"
         in2="blur"
         operator="atop"
         result="composite1"
         id="feComposite14490" />
      <feComposite
         in2="composite1"
         operator="in"
         result="composite2"
         id="feComposite14492" />
      <feComposite
         in2="composite2"
         operator="in"
         result="composite3"
         id="feComposite14494" />
    </filter>
    <filter
       style="color-interpolation-filters:sRGB"
       inkscape:label="Blur"
       id="filter15967"
       x="-0.15664497"
       y="-0.92214962"
       width="1.3132899"
       height="2.8442992">
      <feGaussianBlur
         stdDeviation="1.08809 0.841231"
         result="blur"
         id="feGaussianBlur15965" />
    </filter>
    <filter
       style="color-interpolation-filters:sRGB"
       inkscape:label="Feather"
       id="filter53613"
       x="-0.11277526"
       y="-0.69693726"
       width="1.2255505"
       height="2.3938746">
      <feGaussianBlur
         stdDeviation="6.83436"
         result="blur"
         id="feGaussianBlur53605" />
      <feComposite
         in="SourceGraphic"
         in2="blur"
         operator="atop"
         result="composite1"
         id="feComposite53607" />
      <feComposite
         in2="composite1"
         operator="in"
         result="composite2"
         id="feComposite53609" />
      <feComposite
         in2="composite2"
         operator="in"
         result="composite3"
         id="feComposite53611" />
    </filter>
    <filter
       style="color-interpolation-filters:sRGB"
       inkscape:label="Feather"
       id="filter26488"
       x="-0.11174112"
       y="-0.69054642"
       width="1.2234822"
       height="2.3810928">
      <feGaussianBlur
         stdDeviation="6.7716894"
         result="blur"
         id="feGaussianBlur26480" />
      <feComposite
         in="SourceGraphic"
         in2="blur"
         operator="atop"
         result="composite1"
         id="feComposite26482" />
      <feComposite
         in2="composite1"
         operator="in"
         result="composite2"
         id="feComposite26484" />
      <feComposite
         in2="composite2"
         operator="in"
         result="composite3"
         id="feComposite26486" />
    </filter>
    <filter
       style="color-interpolation-filters:sRGB"
       inkscape:label="Blur"
       id="filter9637"
       x="-0.020407148"
       y="-0.053000052"
       width="1.0408143"
       height="1.1060001">
      <feGaussianBlur
         stdDeviation="2.0075 1.76063"
         result="blur"
         id="feGaussianBlur9635" />
    </filter>
    <linearGradient
       inkscape:collect="always"
       xlink:href="#linearGradient15092"
       id="linearGradient45560"
       gradientUnits="userSpaceOnUse"
       gradientTransform="matrix(0.26458333,0,0,0.26458334,-4.5315152,-107.90512)"
       x1="56.671143"
       y1="131.59099"
       x2="56.671143"
       y2="224.9469" />
    <linearGradient
       inkscape:collect="always"
       xlink:href="#linearGradient15092"
       id="linearGradient11280"
       gradientUnits="userSpaceOnUse"
       gradientTransform="matrix(0.24828543,0,0,0.24828544,80.246378,13.719201)"
       x1="56.671143"
       y1="131.59099"
       x2="56.671143"
       y2="224.9469" />
    <linearGradient
       inkscape:collect="always"
       xlink:href="#linearGradient15092"
       id="linearGradient11282"
       gradientUnits="userSpaceOnUse"
       gradientTransform="matrix(0.24828543,0,0,0.24828544,80.246378,13.719201)"
       x1="56.671143"
       y1="131.59099"
       x2="56.671143"
       y2="224.9469" />
    <radialGradient
       inkscape:collect="always"
       xlink:href="#linearGradient64952"
       id="radialGradient64954"
       cx="213.967"
       cy="139.62167"
       fx="213.967"
       fy="139.62167"
       r="19.618347"
       gradientTransform="matrix(1.2086329,0,3.3023587e-6,2.5486347,-44.640989,-219.50418)"
       gradientUnits="userSpaceOnUse" />
    <radialGradient
       inkscape:collect="always"
       xlink:href="#linearGradient66063"
       id="radialGradient66065"
       cx="139.16324"
       cy="146.78474"
       fx="139.16324"
       fy="146.78474"
       r="59.984154"
       gradientUnits="userSpaceOnUse"
       gradientTransform="matrix(0.6399999,-0.6399999,0.70710774,0.70710582,-53.693848,132.05686)" />
  </defs>
  <g
     inkscape:label="Layer 1"
     inkscape:groupmode="layer"
     id="layer1">
    <circle
       style="fill:url(#radialGradient66065);stroke-width:0.432795;-inkscape-stroke:none;paint-order:stroke fill markers;stop-color:#000000;fill-opacity:1"
       id="path6363"
       cx="138.45753"
       cy="148.90182"
       r="59.984154" />
    <rect
       style="fill:#8080ff;fill-opacity:1;stroke-width:1.91079;paint-order:stroke fill markers;stop-color:#000000"
       id="rect23847"
       width="155.21117"
       height="3.2946055"
       x="68.86338"
       y="61.574375" />
    <path
       id="path47568"
       style="fill:#fe8081;fill-opacity:1;stroke-width:0.98584;paint-order:stroke fill markers;stop-color:#000000"
       d="m 116.64181,33.535933 15.283,8.823647 15.28302,-8.823647 v 28.038445 h -30.56602 z"
       sodipodi:nodetypes="cccccc" />
    <path
       id="path47570"
       style="fill:#ffd42a;fill-opacity:1;stroke-width:0.98584;paint-order:stroke fill markers;stop-color:#000000"
       d="m 147.20783,33.535933 15.283,8.823647 15.28302,-8.823647 v 28.038445 h -30.56602 z"
       sodipodi:nodetypes="cccccc" />
    <path
       id="path61291"
       style="fill:#fe5c5d;fill-opacity:1;stroke-width:0.98584;paint-order:stroke fill markers;stop-color:#000000"
       d="m 131.92481,42.35958 15.28302,-8.823647 v 28.038445 h -14.98708 z"
       sodipodi:nodetypes="ccccc" />
    <path
       id="path47572"
       style="fill:#00a5a5;fill-opacity:1;stroke-width:0.98584;paint-order:stroke fill markers;stop-color:#000000"
       d="m 177.77385,33.535933 15.283,8.823647 15.28302,-8.823647 v 28.038445 h -30.56602 z"
       sodipodi:nodetypes="cccccc" />
    <path
       id="rect19018"
       style="fill:#8080ff;fill-opacity:1;stroke-width:0.98584;paint-order:stroke fill markers;stop-color:#000000"
       d="m 86.075864,33.535933 15.282926,8.823647 15.28302,-8.823647 V 61.574378 H 86.075864 Z"
       sodipodi:nodetypes="cccccc" />
    <rect
       style="fill:none;fill-rule:evenodd"
       id="rect120773"
       width="405.31482"
       height="405.31482"
       x="8352.8516"
       y="10525.058"
       transform="matrix(0.26458333,0,0,0.26458333,-1978.0104,-2769.3006)"
       inkscape:export-xdpi="200"
       inkscape:export-ydpi="200" />
    <rect
       style="fill:none;fill-rule:evenodd;stroke-width:0.264582"
       id="rect45504"
       width="53.020321"
       height="53.020321"
       x="38.164906"
       y="17.964312"
       inkscape:export-xdpi="118.90417"
       inkscape:export-ydpi="118.90417" />
    <path
       style="opacity:0.736032;mix-blend-mode:darken;fill:#000000;stroke:none;stroke-width:0.626254px;stroke-linecap:butt;stroke-linejoin:miter;stroke-opacity:1;filter:url(#filter26488)"
       d="m 47.44332,222.07289 -66.475058,-14.55098 c 0,0 -1.035117,-7.62767 23.4195303,-8.85043 24.4546477,-1.22275 75.9517357,6.34669 75.9517357,6.34669 l 46.066242,9.17847 z"
       id="path45506"
       transform="matrix(0.42248555,0,0,0.42248555,9.4555696,-20.756959)"
       inkscape:export-xdpi="118.90417"
       inkscape:export-ydpi="118.90417" />
    <g
       id="g45516"
       transform="matrix(2.0330909,0,0,2.2064942,7.9641702,-68.247861)"
       style="stroke-width:0.472139"
       inkscape:export-xdpi="118.90417"
       inkscape:export-ydpi="118.90417">
      <path
         d="m -3.4138363,189.75924 1.9848452,0.92842 14.6860751,-1.46489 -2.758606,-0.72451 z"
         style="font-variation-settings:'wght' 900;fill:#1a1a1a;fill-opacity:1;fill-rule:evenodd;stroke:none;stroke-width:9.32389;stroke-linecap:round;stroke-linejoin:round;filter:url(#filter15967)"
         id="path45508"
         transform="matrix(1.265933,0,0,1.265933,16.663634,-178.2966)" />
      <path
         d="m -3.4138363,168.15183 1.9848452,-0.86144 14.6860751,1.35919 -2.758606,0.67225 z"
         style="font-variation-settings:'wght' 900;fill:#e6e6e6;fill-opacity:1;fill-rule:evenodd;stroke:none;stroke-width:9.32389;stroke-linecap:round;stroke-linejoin:round"
         id="path45510"
         transform="matrix(1.265933,0,0,1.265933,16.663634,-178.2966)" />
      <path
         d="m -1.4289911,167.29039 v 23.39727 l 14.6860751,-1.46489 v -20.57319 z"
         style="font-variation-settings:'wght' 900;fill:#f2f2f2;fill-opacity:1;fill-rule:evenodd;stroke:none;stroke-width:9.32389;stroke-linecap:round;stroke-linejoin:round"
         id="path45512"
         transform="matrix(1.265933,0,0,1.265933,16.663634,-178.2966)" />
      <path
         d="m -3.4138363,168.15183 1.9848452,-0.86144 v 23.39727 l -1.9848452,-0.92842 z"
         style="font-variation-settings:'wght' 900;fill:#b3b3b3;fill-opacity:1;fill-rule:evenodd;stroke:none;stroke-width:9.32389;stroke-linecap:round;stroke-linejoin:round"
         id="path45514"
         transform="matrix(1.265933,0,0,1.265933,16.663634,-178.2966)" />
    </g>
    <rect
       style="fill:url(#linearGradient45560);fill-opacity:1;fill-rule:evenodd;stroke-width:0.264583"
       id="rect45518"
       width="0.92518902"
       height="64.897423"
       x="38.164974"
       y="5.629602"
       inkscape:export-xdpi="118.90417"
       inkscape:export-ydpi="118.90417" />
    <rect
       style="fill:none;fill-rule:evenodd;stroke-width:0.264583"
       id="rect45520"
       width="60.206036"
       height="60.206036"
       x="27.999184"
       y="7.06499"
       inkscape:export-xdpi="118.90417"
       inkscape:export-ydpi="118.90417" />
    <rect
       style="fill:#8080ff;fill-opacity:1;fill-rule:evenodd;stroke-width:0.264583"
       id="rect45522"
       width="6.4701982"
       height="21.341625"
       x="48.364243"
       y="17.880474"
       inkscape:export-xdpi="118.90417"
       inkscape:export-ydpi="118.90417" />
    <rect
       style="fill:#fe8081;fill-opacity:1;fill-rule:evenodd;stroke-width:0.264583"
       id="rect45524"
       width="6.4701982"
       height="21.341625"
       x="54.834442"
       y="17.880474"
       inkscape:export-xdpi="118.90417"
       inkscape:export-ydpi="118.90417" />
    <rect
       style="fill:#ffd42a;fill-rule:evenodd;stroke-width:0.264583"
       id="rect45526"
       width="6.4701982"
       height="21.341625"
       x="61.304642"
       y="17.880474"
       inkscape:export-xdpi="118.90417"
       inkscape:export-ydpi="118.90417" />
    <path
       id="path45528"
       style="fill:#ffb380;fill-rule:evenodd;stroke-width:0.264583"
       d="m 48.36422,39.222118 h 19.410624 l -8.983063,14.31281 h -1.444498 z"
       sodipodi:nodetypes="ccccc"
       inkscape:export-xdpi="118.90417"
       inkscape:export-ydpi="118.90417" />
    <path
       id="path45530"
       style="fill:#f4e3d7;fill-rule:evenodd;stroke-width:0.264583"
       d="m 48.36422,39.222118 h 6.470192 l 3.398468,14.437616 -0.885597,-0.124806 z"
       sodipodi:nodetypes="ccccc"
       inkscape:export-xdpi="118.90417"
       inkscape:export-ydpi="118.90417" />
    <path
       id="path45532"
       style="fill:#d38d5f;fill-rule:evenodd;stroke-width:0.264583"
       d="M 67.774761,39.222118 H 61.30457 l -3.398469,14.437616 0.885597,-0.124806 z"
       sodipodi:nodetypes="ccccc"
       inkscape:export-xdpi="118.90417"
       inkscape:export-ydpi="118.90417" />
    <path
       id="path45534"
       style="fill:#333333;fill-rule:evenodd;stroke-width:0.264583"
       d="m 54.1571,48.489267 7.890124,-0.110104 -3.605761,5.672088 -0.720686,-0.01341 z"
       sodipodi:nodetypes="ccccc"
       inkscape:export-xdpi="118.90417"
       inkscape:export-ydpi="118.90417" />
    <ellipse
       style="fill:#8080ff;fill-opacity:1;fill-rule:evenodd;stroke-width:0.264583"
       id="ellipse45536"
       cx="58.10218"
       cy="58.211983"
       rx="9.7495232"
       ry="1.9499046"
       inkscape:export-xdpi="118.90417"
       inkscape:export-ydpi="118.90417" />
    <ellipse
       style="fill:#f4e3d7;fill-opacity:1;fill-rule:evenodd;stroke-width:0.264583"
       id="ellipse45538"
       cx="58.10218"
       cy="17.759682"
       rx="9.7495232"
       ry="1.9499046"
       inkscape:export-xdpi="118.90417"
       inkscape:export-ydpi="118.90417" />
    <ellipse
       style="fill:#333333;fill-opacity:1;fill-rule:evenodd;stroke-width:0.264581"
       id="ellipse45540"
       cx="58.102173"
       cy="17.759542"
       rx="3.7907975"
       ry="0.75815952"
       inkscape:export-xdpi="118.90417"
       inkscape:export-ydpi="118.90417" />
    <path
       id="path61293"
       style="fill:#eebe00;fill-opacity:1;stroke-width:0.98584;paint-order:stroke fill markers;stop-color:#000000"
       d="m 162.49083,42.35958 15.28302,-8.823647 v 28.038445 h -14.98708 z"
       sodipodi:nodetypes="ccccc" />
    <rect
       style="fill:none;fill-rule:evenodd;stroke:none;stroke-width:0.264584"
       id="rect45548"
       width="190.84897"
       height="74.617218"
       x="-0.90423363"
       y="2.4195561"
       inkscape:export-xdpi="118.90417"
       inkscape:export-ydpi="118.90417" />
    <path
       id="path60096"
       style="fill:#4949ff;fill-opacity:1;stroke-width:0.98584;paint-order:stroke fill markers;stop-color:#000000"
       d="m 101.35879,42.35958 15.28302,-8.823647 v 28.038445 h -14.98708 z"
       sodipodi:nodetypes="ccccc" />
    <path
       sodipodi:type="star"
       style="fill:#8080ff;fill-opacity:1;stroke:#ffffff;stroke-width:11.4123;stroke-miterlimit:4;stroke-dasharray:none;paint-order:stroke fill markers;stop-color:#000000"
       id="path3972"
       inkscape:flatsided="true"
       sodipodi:sides="6"
       sodipodi:cx="438.92023"
       sodipodi:cy="92.014603"
       sodipodi:r1="100.69813"
       sodipodi:r2="50.349064"
       sodipodi:arg1="0.26179939"
       sodipodi:arg2="0.78539817"
       inkscape:rounded="0"
       inkscape:randomized="0"
       d="M 536.18715,118.0772 464.98282,189.28152 367.7159,163.21893 341.6533,65.952009 412.85763,-5.2523196 510.12456,20.810274 Z"
       transform="matrix(0.169278,0.0453579,-0.0453579,0.169278,31.232917,-10.772263)"
       inkscape:transform-center-x="0.089624374"
       inkscape:transform-center-y="1.4371939" />
    <path
       id="path61295"
       style="fill:#008080;fill-opacity:1;stroke-width:0.98584;paint-order:stroke fill markers;stop-color:#000000"
       d="m 193.05681,42.359578 15.28302,-8.823647 v 28.038445 h -14.98708 z"
       sodipodi:nodetypes="ccccc" />
    <path
       sodipodi:type="star"
       style="fill:#00a5a5;fill-opacity:1;stroke:#ffffff;stroke-width:11.4123;stroke-miterlimit:4;stroke-dasharray:none;paint-order:stroke fill markers;stop-color:#000000"
       id="path8040"
       inkscape:flatsided="true"
       sodipodi:sides="6"
       sodipodi:cx="438.92023"
       sodipodi:cy="92.014603"
       sodipodi:r1="100.69813"
       sodipodi:r2="50.349064"
       sodipodi:arg1="0.26179939"
       sodipodi:arg2="0.78539817"
       inkscape:rounded="0"
       inkscape:randomized="0"
       d="M 536.18715,118.0772 464.98282,189.28152 367.7159,163.21893 341.6533,65.952009 412.85763,-5.2523196 510.12456,20.810274 Z"
       transform="matrix(0.169278,0.0453579,-0.0453579,0.169278,122.93088,-10.772264)"
       inkscape:transform-center-x="0.089624227"
       inkscape:transform-center-y="1.4371934" />
    <path
       sodipodi:type="star"
       style="fill:#ffd42a;fill-opacity:1;stroke:#ffffff;stroke-width:11.4123;stroke-miterlimit:4;stroke-dasharray:none;paint-order:stroke fill markers;stop-color:#000000"
       id="path8042"
       inkscape:flatsided="true"
       sodipodi:sides="6"
       sodipodi:cx="438.92023"
       sodipodi:cy="92.014603"
       sodipodi:r1="100.69813"
       sodipodi:r2="50.349064"
       sodipodi:arg1="0.26179939"
       sodipodi:arg2="0.78539817"
       inkscape:rounded="0"
       inkscape:randomized="0"
       d="M 536.18715,118.0772 464.98282,189.28152 367.7159,163.21893 341.6533,65.952009 412.85763,-5.2523196 510.12456,20.810274 Z"
       transform="matrix(0.169278,0.0453579,-0.0453579,0.169278,92.364915,-10.772264)"
       inkscape:transform-center-x="0.089624684"
       inkscape:transform-center-y="1.4371939" />
    <path
       sodipodi:type="star"
       style="fill:#fe8081;fill-opacity:1;stroke:#ffffff;stroke-width:11.4123;stroke-miterlimit:4;stroke-dasharray:none;paint-order:stroke fill markers;stop-color:#000000"
       id="path8044"
       inkscape:flatsided="true"
       sodipodi:sides="6"
       sodipodi:cx="438.92023"
       sodipodi:cy="92.014603"
       sodipodi:r1="100.69813"
       sodipodi:r2="50.349064"
       sodipodi:arg1="0.26179939"
       sodipodi:arg2="0.78539817"
       inkscape:rounded="0"
       inkscape:randomized="0"
       d="M 536.18715,118.0772 464.98282,189.28152 367.7159,163.21893 341.6533,65.952009 412.85763,-5.2523196 510.12456,20.810274 Z"
       transform="matrix(0.169278,0.0453579,-0.0453579,0.169278,61.798933,-10.772263)"
       inkscape:transform-center-x="0.089624227"
       inkscape:transform-center-y="1.4371938" />
    <g
       aria-label="Malování"
       id="text9128"
       style="font-size:4.83164px;line-height:1.25;font-family:Bahnschrift;-inkscape-font-specification:'Bahnschrift, Normal';stroke-width:0.120791">
      <path
         d="m 94.36739,23.073743 h 0.450607 v 3.430276 h -0.46948 v -2.569168 l 0.02359,0.150989 -0.844594,1.941621 h -0.335006 l -0.844593,-1.894437 0.02359,-0.198173 v 2.569168 h -0.469481 v -3.430276 h 0.450607 l 1.007378,2.264831 z"
         id="path47213" />
      <path
         d="m 97.002615,24.951666 q 0,-0.240639 -0.129756,-0.372754 -0.127396,-0.134474 -0.363316,-0.134474 -0.146271,0 -0.287822,0.04482 -0.139193,0.04482 -0.247716,0.125037 l -0.351521,-0.240638 q 0.139193,-0.167503 0.365676,-0.259512 0.228842,-0.09437 0.507228,-0.09437 0.304336,0 0.521383,0.108523 0.217046,0.106164 0.330287,0.311415 0.113242,0.202891 0.113242,0.490713 v 1.573586 h -0.457685 z m -0.599236,1.587741 q -0.452966,0 -0.67709,-0.186377 -0.224124,-0.188736 -0.224124,-0.570926 0,-0.363317 0.20525,-0.544975 0.20525,-0.181658 0.620469,-0.181658 h 0.695964 l 0.03303,0.386908 h -0.726633 q -0.188736,0 -0.283104,0.08493 -0.09201,0.08257 -0.09201,0.254794 0,0.186377 0.122678,0.276026 0.125038,0.08965 0.377472,0.08965 0.276027,0 0.410501,-0.05898 0.136833,-0.05898 0.136833,-0.184018 l 0.04954,0.344443 q -0.0637,0.09909 -0.158067,0.162785 -0.09201,0.0637 -0.214687,0.09437 -0.122678,0.03303 -0.276026,0.03303 z"
         id="path47215" />
      <path
         d="m 98.672928,25.871753 q 0,0.08965 0.03775,0.139193 0.04011,0.04718 0.110882,0.04718 h 0.226483 v 0.457685 h -0.283104 q -0.273667,0 -0.424656,-0.169863 -0.148629,-0.169862 -0.148629,-0.478917 v -2.793292 h 0.481276 z"
         id="path47217" />
      <path
         d="m 100.52962,26.539407 q -0.31849,0 -0.544977,-0.125038 -0.226483,-0.125037 -0.346802,-0.363316 -0.11796,-0.240639 -0.11796,-0.578004 v -0.398705 q 0,-0.332647 0.11796,-0.568567 0.120319,-0.238279 0.346802,-0.360957 0.226487,-0.125038 0.544977,-0.125038 0.31849,0 0.54497,0.125038 0.22649,0.122678 0.34445,0.360957 0.12032,0.23592 0.12032,0.568567 v 0.405782 q 0,0.335007 -0.12032,0.573286 -0.11796,0.23592 -0.34445,0.360957 -0.22648,0.125038 -0.54497,0.125038 z m 0,-0.457685 q 0.25243,0 0.38927,-0.158066 0.13919,-0.158067 0.13919,-0.44353 v -0.405782 q 0,-0.285463 -0.13919,-0.44117 -0.13684,-0.155707 -0.38927,-0.155707 -0.25244,0 -0.39163,0.155707 -0.13683,0.155707 -0.13683,0.44117 v 0.405782 q 0,0.285463 0.13683,0.44353 0.13919,0.158066 0.39163,0.158066 z"
         id="path47219" />
      <path
         d="m 103.57063,24.05517 h 0.50251 l -0.92009,2.448849 h -0.36332 l -0.92009,-2.448849 h 0.50251 l 0.59924,1.748167 z"
         id="path47221" />
      <path
         d="m 105.92747,24.951666 q 0,-0.240639 -0.12976,-0.372754 -0.1274,-0.134474 -0.36332,-0.134474 -0.14627,0 -0.28782,0.04482 -0.13919,0.04482 -0.24771,0.125037 l -0.35153,-0.240638 q 0.1392,-0.167503 0.36568,-0.259512 0.22884,-0.09437 0.50723,-0.09437 0.30433,0 0.52138,0.108523 0.21705,0.106164 0.33029,0.311415 0.11324,0.202891 0.11324,0.490713 v 1.573586 h -0.45768 z m -0.59924,1.587741 q -0.45297,0 -0.67709,-0.186377 -0.22412,-0.188736 -0.22412,-0.570926 0,-0.363317 0.20525,-0.544975 0.20525,-0.181658 0.62046,-0.181658 h 0.69597 l 0.033,0.386908 h -0.72664 q -0.18873,0 -0.2831,0.08493 -0.092,0.08257 -0.092,0.254794 0,0.186377 0.12268,0.276026 0.12504,0.08965 0.37747,0.08965 0.27603,0 0.4105,-0.05898 0.13684,-0.05898 0.13684,-0.184018 l 0.0495,0.344443 q -0.0637,0.09909 -0.15807,0.162785 -0.092,0.0637 -0.21468,0.09437 -0.12268,0.03303 -0.27603,0.03303 z m -0.14863,-3.199074 0.67473,-0.837516 0.3468,0.287822 -0.71955,0.792691 z"
         id="path47223" />
      <path
         d="m 107.1165,24.05517 h 0.48128 v 2.448849 h -0.48128 z m 1.4863,0.964913 q 0,-0.259512 -0.13448,-0.401064 -0.13447,-0.141552 -0.37747,-0.141552 -0.23592,0 -0.36567,0.125037 -0.1274,0.125038 -0.1274,0.351521 l -0.0495,-0.47184 q 0.11324,-0.221765 0.2949,-0.342084 0.18401,-0.120319 0.40578,-0.120319 0.3987,0 0.61575,0.261871 0.2194,0.259512 0.2194,0.73607 v 1.486296 h -0.48127 z"
         id="path47225" />
      <path
         d="m 109.81543,24.05517 h 0.48127 v 2.448849 h -0.48127 z m -0.0212,-0.714837 0.67473,-0.837516 0.34681,0.287822 -0.71956,0.792691 z"
         id="path47227" />
    </g>
    <g
       aria-label="Malování"
       id="text10378"
       style="font-size:4.83164px;line-height:1.25;font-family:Bahnschrift;-inkscape-font-specification:'Bahnschrift, Normal';stroke-width:0.120791">
      <path
         d="m 94.36739,23.073743 h 0.450607 v 3.430276 h -0.46948 v -2.569168 l 0.02359,0.150989 -0.844594,1.941621 h -0.335006 l -0.844593,-1.894437 0.02359,-0.198173 v 2.569168 h -0.469481 v -3.430276 h 0.450607 l 1.007378,2.264831 z"
         id="path47230" />
      <path
         d="m 97.002615,24.951666 q 0,-0.240639 -0.129756,-0.372754 -0.127396,-0.134474 -0.363316,-0.134474 -0.146271,0 -0.287822,0.04482 -0.139193,0.04482 -0.247716,0.125037 l -0.351521,-0.240638 q 0.139193,-0.167503 0.365676,-0.259512 0.228842,-0.09437 0.507228,-0.09437 0.304336,0 0.521383,0.108523 0.217046,0.106164 0.330287,0.311415 0.113242,0.202891 0.113242,0.490713 v 1.573586 h -0.457685 z m -0.599236,1.587741 q -0.452966,0 -0.67709,-0.186377 -0.224124,-0.188736 -0.224124,-0.570926 0,-0.363317 0.20525,-0.544975 0.20525,-0.181658 0.620469,-0.181658 h 0.695964 l 0.03303,0.386908 h -0.726633 q -0.188736,0 -0.283104,0.08493 -0.09201,0.08257 -0.09201,0.254794 0,0.186377 0.122678,0.276026 0.125038,0.08965 0.377472,0.08965 0.276027,0 0.410501,-0.05898 0.136833,-0.05898 0.136833,-0.184018 l 0.04954,0.344443 q -0.0637,0.09909 -0.158067,0.162785 -0.09201,0.0637 -0.214687,0.09437 -0.122678,0.03303 -0.276026,0.03303 z"
         id="path47232" />
      <path
         d="m 98.672928,25.871753 q 0,0.08965 0.03775,0.139193 0.04011,0.04718 0.110882,0.04718 h 0.226483 v 0.457685 h -0.283104 q -0.273667,0 -0.424656,-0.169863 -0.148629,-0.169862 -0.148629,-0.478917 v -2.793292 h 0.481276 z"
         id="path47234" />
      <path
         d="m 100.52962,26.539407 q -0.31849,0 -0.544977,-0.125038 -0.226483,-0.125037 -0.346802,-0.363316 -0.11796,-0.240639 -0.11796,-0.578004 v -0.398705 q 0,-0.332647 0.11796,-0.568567 0.120319,-0.238279 0.346802,-0.360957 0.226487,-0.125038 0.544977,-0.125038 0.31849,0 0.54497,0.125038 0.22649,0.122678 0.34445,0.360957 0.12032,0.23592 0.12032,0.568567 v 0.405782 q 0,0.335007 -0.12032,0.573286 -0.11796,0.23592 -0.34445,0.360957 -0.22648,0.125038 -0.54497,0.125038 z m 0,-0.457685 q 0.25243,0 0.38927,-0.158066 0.13919,-0.158067 0.13919,-0.44353 v -0.405782 q 0,-0.285463 -0.13919,-0.44117 -0.13684,-0.155707 -0.38927,-0.155707 -0.25244,0 -0.39163,0.155707 -0.13683,0.155707 -0.13683,0.44117 v 0.405782 q 0,0.285463 0.13683,0.44353 0.13919,0.158066 0.39163,0.158066 z"
         id="path47236" />
      <path
         d="m 103.57063,24.05517 h 0.50251 l -0.92009,2.448849 h -0.36332 l -0.92009,-2.448849 h 0.50251 l 0.59924,1.748167 z"
         id="path47238" />
      <path
         d="m 105.92747,24.951666 q 0,-0.240639 -0.12976,-0.372754 -0.1274,-0.134474 -0.36332,-0.134474 -0.14627,0 -0.28782,0.04482 -0.13919,0.04482 -0.24771,0.125037 l -0.35153,-0.240638 q 0.1392,-0.167503 0.36568,-0.259512 0.22884,-0.09437 0.50723,-0.09437 0.30433,0 0.52138,0.108523 0.21705,0.106164 0.33029,0.311415 0.11324,0.202891 0.11324,0.490713 v 1.573586 h -0.45768 z m -0.59924,1.587741 q -0.45297,0 -0.67709,-0.186377 -0.22412,-0.188736 -0.22412,-0.570926 0,-0.363317 0.20525,-0.544975 0.20525,-0.181658 0.62046,-0.181658 h 0.69597 l 0.033,0.386908 h -0.72664 q -0.18873,0 -0.2831,0.08493 -0.092,0.08257 -0.092,0.254794 0,0.186377 0.12268,0.276026 0.12504,0.08965 0.37747,0.08965 0.27603,0 0.4105,-0.05898 0.13684,-0.05898 0.13684,-0.184018 l 0.0495,0.344443 q -0.0637,0.09909 -0.15807,0.162785 -0.092,0.0637 -0.21468,0.09437 -0.12268,0.03303 -0.27603,0.03303 z m -0.14863,-3.199074 0.67473,-0.837516 0.3468,0.287822 -0.71955,0.792691 z"
         id="path47240" />
      <path
         d="m 107.1165,24.05517 h 0.48128 v 2.448849 h -0.48128 z m 1.4863,0.964913 q 0,-0.259512 -0.13448,-0.401064 -0.13447,-0.141552 -0.37747,-0.141552 -0.23592,0 -0.36567,0.125037 -0.1274,0.125038 -0.1274,0.351521 l -0.0495,-0.47184 q 0.11324,-0.221765 0.2949,-0.342084 0.18401,-0.120319 0.40578,-0.120319 0.3987,0 0.61575,0.261871 0.2194,0.259512 0.2194,0.73607 v 1.486296 h -0.48127 z"
         id="path47242" />
      <path
         d="m 109.81543,24.05517 h 0.48127 v 2.448849 h -0.48127 z m -0.0212,-0.714837 0.67473,-0.837516 0.34681,0.287822 -0.71956,0.792691 z"
         id="path47244" />
    </g>
    <g
       aria-label="Modelování"
       id="text10382"
       style="font-size:4.83164px;line-height:1.25;font-family:Bahnschrift;-inkscape-font-specification:'Bahnschrift, Normal';stroke-width:0.120791">
      <path
         d="m 122.30531,23.073743 h 0.45061 v 3.430276 h -0.46948 v -2.569168 l 0.0236,0.150989 -0.8446,1.941621 h -0.335 l -0.84459,-1.894437 0.0236,-0.198173 v 2.569168 h -0.46948 v -3.430276 h 0.4506 l 1.00738,2.264831 z"
         id="path47247" />
      <path
         d="m 124.49701,26.539407 q -0.3185,0 -0.54498,-0.125038 -0.22648,-0.125037 -0.3468,-0.363316 -0.11796,-0.240639 -0.11796,-0.578004 v -0.398705 q 0,-0.332647 0.11796,-0.568567 0.12032,-0.238279 0.3468,-0.360957 0.22648,-0.125038 0.54498,-0.125038 0.31849,0 0.54497,0.125038 0.22648,0.122678 0.34444,0.360957 0.12032,0.23592 0.12032,0.568567 v 0.405782 q 0,0.335007 -0.12032,0.573286 -0.11796,0.23592 -0.34444,0.360957 -0.22648,0.125038 -0.54497,0.125038 z m 0,-0.457685 q 0.25243,0 0.38926,-0.158066 0.1392,-0.158067 0.1392,-0.44353 v -0.405782 q 0,-0.285463 -0.1392,-0.44117 -0.13683,-0.155707 -0.38926,-0.155707 -0.25244,0 -0.39163,0.155707 -0.13683,0.155707 -0.13683,0.44117 v 0.405782 q 0,0.285463 0.13683,0.44353 0.13919,0.158066 0.39163,0.158066 z"
         id="path47249" />
      <path
         d="m 127.58284,23.073743 h 0.48127 v 3.430276 h -0.48127 z m -0.61575,3.472741 q -0.26895,0 -0.46005,-0.1156 -0.18873,-0.11796 -0.28782,-0.342084 -0.0991,-0.224124 -0.0991,-0.537898 v -0.540256 q 0,-0.316133 0.0967,-0.540257 0.0967,-0.224124 0.28075,-0.339725 0.18637,-0.117959 0.44588,-0.117959 0.21705,0 0.39635,0.113241 0.18166,0.113242 0.29254,0.318492 l -0.0495,0.50015 q 0,-0.155707 -0.0566,-0.266589 -0.0566,-0.110883 -0.16515,-0.167503 -0.10616,-0.05898 -0.25951,-0.05898 -0.23828,0 -0.37039,0.148629 -0.12976,0.14863 -0.12976,0.417578 v 0.533179 q 0,0.26659 0.12976,0.41286 0.13211,0.143911 0.37039,0.143911 0.15335,0 0.25951,-0.05898 0.10853,-0.06134 0.16515,-0.17458 0.0566,-0.113242 0.0566,-0.271308 l 0.033,0.516664 q -0.0731,0.181659 -0.24064,0.304337 -0.16515,0.122678 -0.40814,0.122678 z"
         id="path47251" />
      <path
         d="m 129.79813,26.539407 q -0.33973,0 -0.58037,-0.127397 -0.24064,-0.127397 -0.36803,-0.372753 -0.12504,-0.247716 -0.12504,-0.596878 v -0.276026 q 0,-0.363317 0.12032,-0.620469 0.12268,-0.257153 0.35388,-0.391628 0.2312,-0.134474 0.55677,-0.134474 0.3067,0 0.52374,0.153348 0.21705,0.153348 0.33029,0.443529 0.1156,0.290182 0.1156,0.695964 v 0.160426 h -1.65144 V 25.08614 h 1.19376 v 0 q -0.0212,-0.299618 -0.15571,-0.464762 -0.13212,-0.167503 -0.35624,-0.167503 -0.27367,0 -0.42466,0.179299 -0.14862,0.179299 -0.14862,0.507228 v 0.311414 q 0,0.304337 0.16042,0.467121 0.16043,0.162785 0.45533,0.162785 0.14627,0 0.29018,-0.05898 0.14391,-0.05898 0.25715,-0.165144 v 0 l 0.31613,0.316133 v 0 q -0.18166,0.174581 -0.40814,0.271308 -0.22648,0.09437 -0.45532,0.09437 z"
         id="path47253" />
      <path
         d="m 131.86714,25.871753 q 0,0.08965 0.0377,0.139193 0.0401,0.04718 0.11088,0.04718 h 0.22649 v 0.457685 h -0.28311 q -0.27366,0 -0.42465,-0.169863 -0.14863,-0.169862 -0.14863,-0.478917 v -2.793292 h 0.48127 z"
         id="path47255" />
      <path
         d="m 133.72383,26.539407 q -0.31849,0 -0.54497,-0.125038 -0.22648,-0.125037 -0.3468,-0.363316 -0.11796,-0.240639 -0.11796,-0.578004 v -0.398705 q 0,-0.332647 0.11796,-0.568567 0.12032,-0.238279 0.3468,-0.360957 0.22648,-0.125038 0.54497,-0.125038 0.3185,0 0.54498,0.125038 0.22648,0.122678 0.34444,0.360957 0.12032,0.23592 0.12032,0.568567 v 0.405782 q 0,0.335007 -0.12032,0.573286 -0.11796,0.23592 -0.34444,0.360957 -0.22648,0.125038 -0.54498,0.125038 z m 0,-0.457685 q 0.25244,0 0.38927,-0.158066 0.13919,-0.158067 0.13919,-0.44353 v -0.405782 q 0,-0.285463 -0.13919,-0.44117 -0.13683,-0.155707 -0.38927,-0.155707 -0.25243,0 -0.39162,0.155707 -0.13684,0.155707 -0.13684,0.44117 v 0.405782 q 0,0.285463 0.13684,0.44353 0.13919,0.158066 0.39162,0.158066 z"
         id="path47257" />
      <path
         d="m 136.76484,24.05517 h 0.50251 l -0.92009,2.448849 h -0.36331 l -0.92009,-2.448849 h 0.50251 l 0.59923,1.748167 z"
         id="path47259" />
      <path
         d="m 139.12168,24.951666 q 0,-0.240639 -0.12975,-0.372754 -0.1274,-0.134474 -0.36332,-0.134474 -0.14627,0 -0.28782,0.04482 -0.1392,0.04482 -0.24772,0.125037 l -0.35152,-0.240638 q 0.13919,-0.167503 0.36568,-0.259512 0.22884,-0.09437 0.50722,-0.09437 0.30434,0 0.52139,0.108523 0.21704,0.106164 0.33028,0.311415 0.11325,0.202891 0.11325,0.490713 v 1.573586 h -0.45769 z m -0.59923,1.587741 q -0.45297,0 -0.6771,-0.186377 -0.22412,-0.188736 -0.22412,-0.570926 0,-0.363317 0.20525,-0.544975 0.20525,-0.181658 0.62047,-0.181658 h 0.69596 l 0.033,0.386908 h -0.72663 q -0.18874,0 -0.2831,0.08493 -0.092,0.08257 -0.092,0.254794 0,0.186377 0.12268,0.276026 0.12503,0.08965 0.37747,0.08965 0.27602,0 0.4105,-0.05898 0.13683,-0.05898 0.13683,-0.184018 l 0.0495,0.344443 q -0.0637,0.09909 -0.15806,0.162785 -0.092,0.0637 -0.21469,0.09437 -0.12268,0.03303 -0.27602,0.03303 z m -0.14863,-3.199074 0.67473,-0.837516 0.3468,0.287822 -0.71956,0.792691 z"
         id="path47261" />
      <path
         d="m 140.31072,24.05517 h 0.48127 v 2.448849 h -0.48127 z m 1.48629,0.964913 q 0,-0.259512 -0.13447,-0.401064 -0.13448,-0.141552 -0.37747,-0.141552 -0.23592,0 -0.36568,0.125037 -0.1274,0.125038 -0.1274,0.351521 l -0.0495,-0.47184 q 0.11324,-0.221765 0.2949,-0.342084 0.18402,-0.120319 0.40578,-0.120319 0.39871,0 0.61575,0.261871 0.21941,0.259512 0.21941,0.73607 v 1.486296 h -0.48128 z"
         id="path47263" />
      <path
         d="m 143.00964,24.05517 h 0.48128 v 2.448849 h -0.48128 z m -0.0212,-0.714837 0.67473,-0.837516 0.3468,0.287822 -0.71955,0.792691 z"
         id="path47265" />
    </g>
    <g
       aria-label="Grafika"
       id="text12020"
       style="font-size:4.83164px;line-height:1.25;font-family:Bahnschrift;-inkscape-font-specification:'Bahnschrift, Normal';stroke-width:0.120791">
      <path
         d="m 157.41171,24.656766 v 0.599236 q 0,0.382191 -0.14863,0.674731 -0.14863,0.290182 -0.42229,0.450607 -0.27131,0.158067 -0.62991,0.158067 -0.36332,0 -0.63934,-0.14863 -0.27367,-0.150989 -0.42466,-0.424656 -0.15099,-0.273667 -0.15099,-0.634624 V 24.3194 q 0,-0.38219 0.14863,-0.672371 0.14863,-0.290182 0.41994,-0.448248 0.27367,-0.160426 0.63227,-0.160426 0.2949,0 0.54261,0.127397 0.25008,0.125038 0.41758,0.356239 0.1675,0.231202 0.22648,0.535538 v 0 h -0.52138 v 0 q -0.0425,-0.172221 -0.14391,-0.2949 -0.10145,-0.125037 -0.23828,-0.188736 -0.13683,-0.06606 -0.2831,-0.06606 -0.21233,0 -0.37276,0.101445 -0.16042,0.101446 -0.24771,0.285464 -0.0873,0.181658 -0.0873,0.424655 v 1.012097 q 0,0.221765 0.0897,0.389268 0.0897,0.165144 0.25243,0.257152 0.16514,0.09201 0.37983,0.09201 0.21233,0 0.37275,-0.09437 0.16043,-0.09673 0.24772,-0.278385 0.0873,-0.181659 0.0873,-0.431734 V 25.11681 h -0.69596 v -0.460044 z"
         id="path47268" />
      <path
         d="m 158.14306,24.05517 h 0.48128 v 2.448849 h -0.48128 z m 1.34711,0.580363 q -0.0637,-0.07785 -0.16043,-0.11796 -0.0967,-0.04011 -0.22412,-0.04011 -0.22884,0 -0.35624,0.127397 -0.12504,0.125037 -0.12504,0.349161 l -0.0495,-0.47184 q 0.11324,-0.219405 0.29254,-0.339725 0.1793,-0.122678 0.39634,-0.122678 0.16751,0 0.30198,0.04954 0.13684,0.04718 0.23828,0.141552 z"
         id="path47270" />
      <path
         d="m 161.5875,24.951666 q 0,-0.240639 -0.12976,-0.372754 -0.1274,-0.134474 -0.36332,-0.134474 -0.14627,0 -0.28782,0.04482 -0.13919,0.04482 -0.24772,0.125037 l -0.35152,-0.240638 q 0.1392,-0.167503 0.36568,-0.259512 0.22884,-0.09437 0.50723,-0.09437 0.30433,0 0.52138,0.108523 0.21705,0.106164 0.33029,0.311415 0.11324,0.202891 0.11324,0.490713 v 1.573586 h -0.45768 z m -0.59924,1.587741 q -0.45297,0 -0.67709,-0.186377 -0.22413,-0.188736 -0.22413,-0.570926 0,-0.363317 0.20525,-0.544975 0.20526,-0.181658 0.62047,-0.181658 h 0.69597 l 0.033,0.386908 h -0.72664 q -0.18873,0 -0.2831,0.08493 -0.092,0.08257 -0.092,0.254794 0,0.186377 0.12268,0.276026 0.12504,0.08965 0.37747,0.08965 0.27603,0 0.4105,-0.05898 0.13684,-0.05898 0.13684,-0.184018 l 0.0495,0.344443 q -0.0637,0.09909 -0.15807,0.162785 -0.092,0.0637 -0.21468,0.09437 -0.12268,0.03303 -0.27603,0.03303 z"
         id="path47272" />
      <path
         d="m 162.84731,23.722523 q 0,-0.325569 0.14863,-0.485995 0.15099,-0.162785 0.4624,-0.162785 h 0.35388 v 0.457685 h -0.34444 q -0.0684,0 -0.10381,0.0519 -0.0354,0.0519 -0.0354,0.134475 v 2.786214 h -0.48127 z m -0.25951,0.332647 h 1.22442 v 0.410501 h -1.22442 z"
         id="path47274" />
      <path
         d="m 164.37843,23.073743 h 0.48128 v 0.481277 h -0.48128 z m 0,0.981427 h 0.48128 v 2.448849 h -0.48128 z"
         id="path47276" />
      <path
         d="m 165.79867,25.574494 1.25981,-1.519324 h 0.56621 l -1.85669,2.090251 z m -0.20761,-2.500751 h 0.48127 v 3.430276 h -0.48127 z m 0.77617,2.017116 0.30906,-0.320852 1.06872,1.734012 h -0.52375 z"
         id="path47278" />
      <path
         d="m 169.52856,24.951666 q 0,-0.240639 -0.12976,-0.372754 -0.12739,-0.134474 -0.36331,-0.134474 -0.14627,0 -0.28782,0.04482 -0.1392,0.04482 -0.24772,0.125037 l -0.35152,-0.240638 q 0.13919,-0.167503 0.36567,-0.259512 0.22885,-0.09437 0.50723,-0.09437 0.30434,0 0.52139,0.108523 0.21704,0.106164 0.33028,0.311415 0.11324,0.202891 0.11324,0.490713 v 1.573586 h -0.45768 z m -0.59924,1.587741 q -0.45296,0 -0.67709,-0.186377 -0.22412,-0.188736 -0.22412,-0.570926 0,-0.363317 0.20525,-0.544975 0.20525,-0.181658 0.62047,-0.181658 h 0.69596 l 0.033,0.386908 h -0.72663 q -0.18874,0 -0.28311,0.08493 -0.092,0.08257 -0.092,0.254794 0,0.186377 0.12267,0.276026 0.12504,0.08965 0.37748,0.08965 0.27602,0 0.4105,-0.05898 0.13683,-0.05898 0.13683,-0.184018 l 0.0495,0.344443 q -0.0637,0.09909 -0.15806,0.162785 -0.092,0.0637 -0.21469,0.09437 -0.12268,0.03303 -0.27603,0.03303 z"
         id="path47280" />
    </g>
    <g
       aria-label="Design"
       id="text13790"
       style="font-size:4.83164px;line-height:1.25;font-family:Bahnschrift;-inkscape-font-specification:'Bahnschrift, Normal';stroke-width:0.120791">
      <path
         d="m 186.48671,26.046334 h 0.77617 q 0.37984,0 0.58744,-0.195813 0.20997,-0.198173 0.20997,-0.556771 v -1.009738 q 0,-0.358598 -0.20997,-0.554411 -0.2076,-0.198173 -0.58744,-0.198173 h -0.77617 v -0.457685 h 0.76202 q 0.41286,0 0.7054,0.143911 0.29254,0.143912 0.44589,0.419938 0.15335,0.276026 0.15335,0.665294 v 0.97199 q 0,0.389268 -0.15335,0.665294 -0.15335,0.276026 -0.44825,0.419938 -0.29254,0.143911 -0.7054,0.143911 h -0.75966 z m -0.32557,-2.972591 h 0.48128 v 3.430276 h -0.48128 z"
         style="text-align:center;text-anchor:middle"
         id="path47283" />
      <path
         d="m 190.28738,26.539407 q -0.33973,0 -0.58037,-0.127397 -0.24063,-0.127397 -0.36803,-0.372753 -0.12504,-0.247716 -0.12504,-0.596878 v -0.276026 q 0,-0.363317 0.12032,-0.620469 0.12268,-0.257153 0.35388,-0.391628 0.2312,-0.134474 0.55677,-0.134474 0.3067,0 0.52374,0.153348 0.21705,0.153348 0.33029,0.443529 0.1156,0.290182 0.1156,0.695964 v 0.160426 H 189.5631 V 25.08614 h 1.19376 v 0 q -0.0212,-0.299618 -0.15571,-0.464762 -0.13211,-0.167503 -0.35624,-0.167503 -0.27367,0 -0.42465,0.179299 -0.14863,0.179299 -0.14863,0.507228 v 0.311414 q 0,0.304337 0.16042,0.467121 0.16043,0.162785 0.45533,0.162785 0.14627,0 0.29018,-0.05898 0.14391,-0.05898 0.25715,-0.165144 v 0 l 0.31613,0.316133 v 0 q -0.18165,0.174581 -0.40814,0.271308 -0.22648,0.09437 -0.45532,0.09437 z"
         style="text-align:center;text-anchor:middle"
         id="path47285" />
      <path
         d="m 192.74094,26.539407 q -0.21704,0 -0.40814,-0.04247 -0.18873,-0.04246 -0.35388,-0.127397 -0.16514,-0.08493 -0.30433,-0.212327 v 0 l 0.28546,-0.351521 v 0 q 0.19817,0.150989 0.39399,0.226483 0.19581,0.07549 0.3869,0.07549 0.28547,0 0.42702,-0.08729 0.14391,-0.08965 0.14391,-0.26659 0,-0.117959 -0.0779,-0.176939 -0.0779,-0.05898 -0.19346,-0.07785 -0.1156,-0.02123 -0.32557,-0.03775 -0.0189,0 -0.0401,0 -0.0212,-0.0024 -0.0401,-0.0047 -0.009,0 -0.0189,0 -0.009,-0.0024 -0.0189,-0.0024 -0.23828,-0.01887 -0.40342,-0.06842 -0.16514,-0.0519 -0.27603,-0.191095 -0.10852,-0.139192 -0.10852,-0.398704 0,-0.259512 0.10617,-0.431734 0.10616,-0.172221 0.31613,-0.257153 0.20997,-0.08729 0.5261,-0.08729 0.19109,0 0.36332,0.03539 0.17458,0.03539 0.33264,0.106164 0.15807,0.06842 0.30434,0.174581 v 0 l -0.29018,0.35152 v 0 q -0.18402,-0.117959 -0.36332,-0.176939 -0.17694,-0.05898 -0.3468,-0.05898 -0.24536,0 -0.36804,0.08493 -0.12267,0.08257 -0.12267,0.250075 0,0.09909 0.0684,0.148629 0.0708,0.04954 0.17694,0.06606 0.10617,0.01651 0.30198,0.02831 0.0142,0.0024 0.0283,0.0024 0.0165,0 0.033,0.0024 0.007,0 0.0142,0 0.007,0 0.0142,0.0024 0.25715,0.01651 0.43645,0.06842 0.18166,0.0519 0.30434,0.20525 0.12268,0.153348 0.12268,0.443529 0,0.264231 -0.11325,0.438812 -0.11324,0.172221 -0.34208,0.259511 -0.22648,0.08729 -0.57093,0.08729 z"
         style="text-align:center;text-anchor:middle"
         id="path47287" />
      <path
         d="m 194.38059,23.073743 h 0.48128 v 0.481277 h -0.48128 z m 0,0.981427 h 0.48128 v 2.448849 h -0.48128 z"
         style="text-align:center;text-anchor:middle"
         id="path47289" />
      <path
         d="m 196.41422,27.499601 q -0.27603,0 -0.49543,-0.103805 -0.21705,-0.101446 -0.33737,-0.287822 v 0 l 0.32557,-0.2949 v 0 q 0.0944,0.129756 0.22412,0.200532 0.13212,0.07078 0.27603,0.07078 0.27603,0 0.42702,-0.153348 0.15098,-0.150989 0.15098,-0.429374 v -2.44649 h 0.48128 v 2.375714 q 0,0.337365 -0.12504,0.578003 -0.12268,0.240639 -0.35859,0.365676 -0.23592,0.125038 -0.56857,0.125038 z m -0.0448,-0.953117 q -0.26895,0 -0.46004,-0.1156 -0.18874,-0.11796 -0.28782,-0.342084 -0.0991,-0.224124 -0.0991,-0.537898 v -0.540256 q 0,-0.316133 0.0967,-0.540257 0.0967,-0.224124 0.28074,-0.339725 0.18638,-0.117959 0.44589,-0.117959 0.21705,0 0.39635,0.113241 0.18166,0.113242 0.29254,0.318492 l -0.0496,0.50015 q 0,-0.155707 -0.0566,-0.266589 -0.0566,-0.110883 -0.16514,-0.167503 -0.10616,-0.05898 -0.25951,-0.05898 -0.23828,0 -0.3704,0.148629 -0.12975,0.14863 -0.12975,0.417578 v 0.533179 q 0,0.26659 0.12975,0.41286 0.13212,0.143911 0.3704,0.143911 0.15335,0 0.25951,-0.05898 0.10852,-0.06134 0.16514,-0.17458 0.0566,-0.113242 0.0566,-0.271308 l 0.033,0.516664 q -0.0731,0.181659 -0.24064,0.304337 -0.16514,0.122678 -0.40814,0.122678 z"
         style="text-align:center;text-anchor:middle"
         id="path47291" />
      <path
         d="m 198.19777,24.05517 h 0.48128 v 2.448849 h -0.48128 z m 1.4863,0.964913 q 0,-0.259512 -0.13448,-0.401064 -0.13447,-0.141552 -0.37747,-0.141552 -0.23592,0 -0.36567,0.125037 -0.1274,0.125038 -0.1274,0.351521 l -0.0495,-0.47184 q 0.11324,-0.221765 0.2949,-0.342084 0.18401,-0.120319 0.40578,-0.120319 0.3987,0 0.61575,0.261871 0.2194,0.259512 0.2194,0.73607 v 1.486296 h -0.48127 z"
         style="text-align:center;text-anchor:middle"
         id="path47293" />
    </g>
    <path
       id="path1282"
       style="fill:#81ff81;fill-opacity:1;stroke-width:0.98584;paint-order:stroke fill markers;stop-color:#000000"
       d="m 208.33986,33.535932 15.283,8.823647 15.28302,-8.823647 v 28.038445 h -30.56602 z"
       sodipodi:nodetypes="cccccc" />
    <path
       id="path1284"
       style="fill:#55f455;fill-opacity:1;stroke-width:0.98584;paint-order:stroke fill markers;stop-color:#000000"
       d="M 223.62282,42.359577 238.90584,33.53593 V 61.574375 H 223.91876 Z"
       sodipodi:nodetypes="ccccc" />
    <path
       sodipodi:type="star"
       style="fill:#81ff81;fill-opacity:1;stroke:#ffffff;stroke-width:11.4123;stroke-miterlimit:4;stroke-dasharray:none;paint-order:stroke fill markers;stop-color:#000000"
       id="path1286"
       inkscape:flatsided="true"
       sodipodi:sides="6"
       sodipodi:cx="438.92023"
       sodipodi:cy="92.014603"
       sodipodi:r1="100.69813"
       sodipodi:r2="50.349064"
       sodipodi:arg1="0.26179939"
       sodipodi:arg2="0.78539817"
       inkscape:rounded="0"
       inkscape:randomized="0"
       d="M 536.18715,118.0772 464.98282,189.28152 367.7159,163.21893 341.6533,65.952009 412.85763,-5.2523196 510.12456,20.810274 Z"
       transform="matrix(0.169278,0.0453579,-0.0453579,0.169278,153.49689,-10.772265)"
       inkscape:transform-center-x="0.089624227"
       inkscape:transform-center-y="1.4371934" />
    <rect
       style="fill:#fe8081;fill-opacity:1;stroke-width:0.849027;paint-order:stroke fill markers;stop-color:#000000"
       id="rect27038"
       width="30.643888"
       height="3.2946055"
       x="101.57687"
       y="61.574379" />
    <rect
       style="fill:#ffd42a;fill-opacity:1;stroke-width:0.849027;paint-order:stroke fill markers;stop-color:#000000"
       id="rect32699"
       width="30.643888"
       height="3.2946055"
       x="132.14288"
       y="61.574379" />
    <rect
       style="fill:#00a5a5;fill-opacity:1;stroke-width:0.849027;paint-order:stroke fill markers;stop-color:#000000"
       id="rect35823"
       width="30.643888"
       height="3.2946055"
       x="162.78677"
       y="61.574379" />
    <rect
       style="fill:#81ff81;fill-opacity:1;stroke-width:0.849027;paint-order:stroke fill markers;stop-color:#000000"
       id="rect39142"
       width="30.643888"
       height="3.2946055"
       x="193.43066"
       y="61.574379" />
    <rect
       style="fill:#81ff81;fill-opacity:1;stroke-width:0.597001;paint-order:stroke fill markers;stop-color:#000000"
       id="rect44261"
       width="15.151329"
       height="3.2946055"
       x="223.62282"
       y="61.574375" />
    <g
       aria-label="Film"
       id="text1647"
       style="font-size:4.87979px;line-height:1.25;font-family:Bahnschrift;-inkscape-font-specification:'Bahnschrift, Normal';stroke-width:0.121994">
      <path
         d="m 219.21986,22.840725 h 0.48607 v 3.46446 h -0.48607 z m 0.23827,1.543996 h 1.67981 v 0.462246 h -1.67981 z m 0,-1.543996 h 1.94191 v 0.462246 h -1.94191 z"
         id="path5769" />
      <path
         d="m 221.97189,22.840725 h 0.48607 v 0.486073 h -0.48607 z m 0,0.991207 h 0.48607 v 2.473253 h -0.48607 z"
         id="path5771" />
      <path
         d="m 223.68267,25.666619 q 0,0.09054 0.0381,0.14058 0.0405,0.04765 0.11198,0.04765 h 0.22874 v 0.462246 h -0.28592 q -0.2764,0 -0.42889,-0.171555 -0.15011,-0.171555 -0.15011,-0.48369 v -2.821129 h 0.48607 z"
         id="path5773" />
      <path
         d="m 227.54028,24.806461 q 0,-0.262098 -0.13581,-0.405061 -0.13582,-0.142962 -0.38124,-0.142962 -0.22635,0 -0.35026,0.138197 -0.1239,0.138197 -0.1239,0.390764 l -0.0977,-0.476542 q 0.11676,-0.245419 0.30737,-0.378851 0.193,-0.135814 0.42412,-0.135814 0.26687,0 0.4551,0.119135 0.19062,0.116753 0.28831,0.343111 0.10007,0.226357 0.10007,0.54564 v 1.501107 h -0.48607 z m -2.95456,-0.974529 h 0.48607 v 2.473253 h -0.48607 z m 1.47728,0.974529 q 0,-0.262098 -0.12867,-0.405061 -0.12866,-0.142962 -0.36455,-0.142962 -0.23827,0 -0.36932,0.126283 -0.12867,0.126284 -0.12867,0.355024 l -0.05,-0.476542 q 0.11437,-0.223975 0.29784,-0.345493 0.18585,-0.121518 0.40982,-0.121518 0.25972,0 0.44319,0.119135 0.18346,0.116753 0.27877,0.343111 0.0977,0.226357 0.0977,0.54564 v 1.501107 H 226.063 Z"
         id="path5775" />
    </g>
    <path
       sodipodi:type="star"
       style="fill:#000000;stroke-width:1.63576;-inkscape-stroke:none;paint-order:stroke fill markers;stop-color:#000000"
       id="path6259"
       inkscape:flatsided="true"
       sodipodi:sides="5"
       sodipodi:cx="-1.0668788"
       sodipodi:cy="-27.73885"
       sodipodi:r1="205.50923"
       sodipodi:r2="177.97621"
       sodipodi:arg1="0.52359878"
       sodipodi:arg2="1.1519173"
       inkscape:rounded="0"
       inkscape:randomized="0"
       d="M 176.90934,75.015767 -43.794651,173.27951 -205.45031,-6.2572864 -84.655013,-215.48088 151.65624,-165.25137 Z"
       transform="matrix(0.24210602,0.10671933,-0.10671933,0.24210602,-27.613946,17.082088)" />
    <path
       sodipodi:type="star"
       style="fill:#8080ff;fill-opacity:1;stroke:#ffffff;stroke-width:11.4123;stroke-miterlimit:4;stroke-dasharray:none;paint-order:stroke fill markers;stop-color:#000000"
       id="path6445"
       inkscape:flatsided="true"
       sodipodi:sides="6"
       sodipodi:cx="438.92023"
       sodipodi:cy="92.014603"
       sodipodi:r1="100.69813"
       sodipodi:r2="50.349064"
       sodipodi:arg1="0.26179939"
       sodipodi:arg2="0.78539817"
       inkscape:rounded="0"
       inkscape:randomized="0"
       d="M 536.18715,118.0772 464.98282,189.28152 367.7159,163.21893 341.6533,65.952009 412.85763,-5.2523196 510.12456,20.810274 Z"
       transform="matrix(0.169278,0.0453579,-0.0453579,0.169278,28.46456,101.84387)"
       inkscape:transform-center-x="0.089624374"
       inkscape:transform-center-y="1.4371939" />
    <g
       aria-label="Malování"
       id="g6463"
       style="font-size:4.83164px;line-height:1.25;font-family:Bahnschrift;-inkscape-font-specification:'Bahnschrift, Normal';stroke-width:0.120791"
       transform="translate(-2.7683573,112.61613)">
      <path
         d="m 94.36739,23.073743 h 0.450607 v 3.430276 h -0.46948 v -2.569168 l 0.02359,0.150989 -0.844594,1.941621 h -0.335006 l -0.844593,-1.894437 0.02359,-0.198173 v 2.569168 h -0.469481 v -3.430276 h 0.450607 l 1.007378,2.264831 z"
         id="path6447" />
      <path
         d="m 97.002615,24.951666 q 0,-0.240639 -0.129756,-0.372754 -0.127396,-0.134474 -0.363316,-0.134474 -0.146271,0 -0.287822,0.04482 -0.139193,0.04482 -0.247716,0.125037 l -0.351521,-0.240638 q 0.139193,-0.167503 0.365676,-0.259512 0.228842,-0.09437 0.507228,-0.09437 0.304336,0 0.521383,0.108523 0.217046,0.106164 0.330287,0.311415 0.113242,0.202891 0.113242,0.490713 v 1.573586 h -0.457685 z m -0.599236,1.587741 q -0.452966,0 -0.67709,-0.186377 -0.224124,-0.188736 -0.224124,-0.570926 0,-0.363317 0.20525,-0.544975 0.20525,-0.181658 0.620469,-0.181658 h 0.695964 l 0.03303,0.386908 h -0.726633 q -0.188736,0 -0.283104,0.08493 -0.09201,0.08257 -0.09201,0.254794 0,0.186377 0.122678,0.276026 0.125038,0.08965 0.377472,0.08965 0.276027,0 0.410501,-0.05898 0.136833,-0.05898 0.136833,-0.184018 l 0.04954,0.344443 q -0.0637,0.09909 -0.158067,0.162785 -0.09201,0.0637 -0.214687,0.09437 -0.122678,0.03303 -0.276026,0.03303 z"
         id="path6449" />
      <path
         d="m 98.672928,25.871753 q 0,0.08965 0.03775,0.139193 0.04011,0.04718 0.110882,0.04718 h 0.226483 v 0.457685 h -0.283104 q -0.273667,0 -0.424656,-0.169863 -0.148629,-0.169862 -0.148629,-0.478917 v -2.793292 h 0.481276 z"
         id="path6451" />
      <path
         d="m 100.52962,26.539407 q -0.31849,0 -0.544977,-0.125038 -0.226483,-0.125037 -0.346802,-0.363316 -0.11796,-0.240639 -0.11796,-0.578004 v -0.398705 q 0,-0.332647 0.11796,-0.568567 0.120319,-0.238279 0.346802,-0.360957 0.226487,-0.125038 0.544977,-0.125038 0.31849,0 0.54497,0.125038 0.22649,0.122678 0.34445,0.360957 0.12032,0.23592 0.12032,0.568567 v 0.405782 q 0,0.335007 -0.12032,0.573286 -0.11796,0.23592 -0.34445,0.360957 -0.22648,0.125038 -0.54497,0.125038 z m 0,-0.457685 q 0.25243,0 0.38927,-0.158066 0.13919,-0.158067 0.13919,-0.44353 v -0.405782 q 0,-0.285463 -0.13919,-0.44117 -0.13684,-0.155707 -0.38927,-0.155707 -0.25244,0 -0.39163,0.155707 -0.13683,0.155707 -0.13683,0.44117 v 0.405782 q 0,0.285463 0.13683,0.44353 0.13919,0.158066 0.39163,0.158066 z"
         id="path6453" />
      <path
         d="m 103.57063,24.05517 h 0.50251 l -0.92009,2.448849 h -0.36332 l -0.92009,-2.448849 h 0.50251 l 0.59924,1.748167 z"
         id="path6455" />
      <path
         d="m 105.92747,24.951666 q 0,-0.240639 -0.12976,-0.372754 -0.1274,-0.134474 -0.36332,-0.134474 -0.14627,0 -0.28782,0.04482 -0.13919,0.04482 -0.24771,0.125037 l -0.35153,-0.240638 q 0.1392,-0.167503 0.36568,-0.259512 0.22884,-0.09437 0.50723,-0.09437 0.30433,0 0.52138,0.108523 0.21705,0.106164 0.33029,0.311415 0.11324,0.202891 0.11324,0.490713 v 1.573586 h -0.45768 z m -0.59924,1.587741 q -0.45297,0 -0.67709,-0.186377 -0.22412,-0.188736 -0.22412,-0.570926 0,-0.363317 0.20525,-0.544975 0.20525,-0.181658 0.62046,-0.181658 h 0.69597 l 0.033,0.386908 h -0.72664 q -0.18873,0 -0.2831,0.08493 -0.092,0.08257 -0.092,0.254794 0,0.186377 0.12268,0.276026 0.12504,0.08965 0.37747,0.08965 0.27603,0 0.4105,-0.05898 0.13684,-0.05898 0.13684,-0.184018 l 0.0495,0.344443 q -0.0637,0.09909 -0.15807,0.162785 -0.092,0.0637 -0.21468,0.09437 -0.12268,0.03303 -0.27603,0.03303 z m -0.14863,-3.199074 0.67473,-0.837516 0.3468,0.287822 -0.71955,0.792691 z"
         id="path6457" />
      <path
         d="m 107.1165,24.05517 h 0.48128 v 2.448849 h -0.48128 z m 1.4863,0.964913 q 0,-0.259512 -0.13448,-0.401064 -0.13447,-0.141552 -0.37747,-0.141552 -0.23592,0 -0.36567,0.125037 -0.1274,0.125038 -0.1274,0.351521 l -0.0495,-0.47184 q 0.11324,-0.221765 0.2949,-0.342084 0.18401,-0.120319 0.40578,-0.120319 0.3987,0 0.61575,0.261871 0.2194,0.259512 0.2194,0.73607 v 1.486296 h -0.48127 z"
         id="path6459" />
      <path
         d="m 109.81543,24.05517 h 0.48127 v 2.448849 h -0.48127 z m -0.0212,-0.714837 0.67473,-0.837516 0.34681,0.287822 -0.71956,0.792691 z"
         id="path6461" />
    </g>
    <g
       aria-label="Malování"
       id="g6481"
       style="font-size:4.83164px;line-height:1.25;font-family:Bahnschrift;-inkscape-font-specification:'Bahnschrift, Normal';stroke-width:0.120791"
       transform="translate(-2.7683573,112.61613)">
      <path
         d="m 94.36739,23.073743 h 0.450607 v 3.430276 h -0.46948 v -2.569168 l 0.02359,0.150989 -0.844594,1.941621 h -0.335006 l -0.844593,-1.894437 0.02359,-0.198173 v 2.569168 h -0.469481 v -3.430276 h 0.450607 l 1.007378,2.264831 z"
         id="path6465" />
      <path
         d="m 97.002615,24.951666 q 0,-0.240639 -0.129756,-0.372754 -0.127396,-0.134474 -0.363316,-0.134474 -0.146271,0 -0.287822,0.04482 -0.139193,0.04482 -0.247716,0.125037 l -0.351521,-0.240638 q 0.139193,-0.167503 0.365676,-0.259512 0.228842,-0.09437 0.507228,-0.09437 0.304336,0 0.521383,0.108523 0.217046,0.106164 0.330287,0.311415 0.113242,0.202891 0.113242,0.490713 v 1.573586 h -0.457685 z m -0.599236,1.587741 q -0.452966,0 -0.67709,-0.186377 -0.224124,-0.188736 -0.224124,-0.570926 0,-0.363317 0.20525,-0.544975 0.20525,-0.181658 0.620469,-0.181658 h 0.695964 l 0.03303,0.386908 h -0.726633 q -0.188736,0 -0.283104,0.08493 -0.09201,0.08257 -0.09201,0.254794 0,0.186377 0.122678,0.276026 0.125038,0.08965 0.377472,0.08965 0.276027,0 0.410501,-0.05898 0.136833,-0.05898 0.136833,-0.184018 l 0.04954,0.344443 q -0.0637,0.09909 -0.158067,0.162785 -0.09201,0.0637 -0.214687,0.09437 -0.122678,0.03303 -0.276026,0.03303 z"
         id="path6467" />
      <path
         d="m 98.672928,25.871753 q 0,0.08965 0.03775,0.139193 0.04011,0.04718 0.110882,0.04718 h 0.226483 v 0.457685 h -0.283104 q -0.273667,0 -0.424656,-0.169863 -0.148629,-0.169862 -0.148629,-0.478917 v -2.793292 h 0.481276 z"
         id="path6469" />
      <path
         d="m 100.52962,26.539407 q -0.31849,0 -0.544977,-0.125038 -0.226483,-0.125037 -0.346802,-0.363316 -0.11796,-0.240639 -0.11796,-0.578004 v -0.398705 q 0,-0.332647 0.11796,-0.568567 0.120319,-0.238279 0.346802,-0.360957 0.226487,-0.125038 0.544977,-0.125038 0.31849,0 0.54497,0.125038 0.22649,0.122678 0.34445,0.360957 0.12032,0.23592 0.12032,0.568567 v 0.405782 q 0,0.335007 -0.12032,0.573286 -0.11796,0.23592 -0.34445,0.360957 -0.22648,0.125038 -0.54497,0.125038 z m 0,-0.457685 q 0.25243,0 0.38927,-0.158066 0.13919,-0.158067 0.13919,-0.44353 v -0.405782 q 0,-0.285463 -0.13919,-0.44117 -0.13684,-0.155707 -0.38927,-0.155707 -0.25244,0 -0.39163,0.155707 -0.13683,0.155707 -0.13683,0.44117 v 0.405782 q 0,0.285463 0.13683,0.44353 0.13919,0.158066 0.39163,0.158066 z"
         id="path6471" />
      <path
         d="m 103.57063,24.05517 h 0.50251 l -0.92009,2.448849 h -0.36332 l -0.92009,-2.448849 h 0.50251 l 0.59924,1.748167 z"
         id="path6473" />
      <path
         d="m 105.92747,24.951666 q 0,-0.240639 -0.12976,-0.372754 -0.1274,-0.134474 -0.36332,-0.134474 -0.14627,0 -0.28782,0.04482 -0.13919,0.04482 -0.24771,0.125037 l -0.35153,-0.240638 q 0.1392,-0.167503 0.36568,-0.259512 0.22884,-0.09437 0.50723,-0.09437 0.30433,0 0.52138,0.108523 0.21705,0.106164 0.33029,0.311415 0.11324,0.202891 0.11324,0.490713 v 1.573586 h -0.45768 z m -0.59924,1.587741 q -0.45297,0 -0.67709,-0.186377 -0.22412,-0.188736 -0.22412,-0.570926 0,-0.363317 0.20525,-0.544975 0.20525,-0.181658 0.62046,-0.181658 h 0.69597 l 0.033,0.386908 h -0.72664 q -0.18873,0 -0.2831,0.08493 -0.092,0.08257 -0.092,0.254794 0,0.186377 0.12268,0.276026 0.12504,0.08965 0.37747,0.08965 0.27603,0 0.4105,-0.05898 0.13684,-0.05898 0.13684,-0.184018 l 0.0495,0.344443 q -0.0637,0.09909 -0.15807,0.162785 -0.092,0.0637 -0.21468,0.09437 -0.12268,0.03303 -0.27603,0.03303 z m -0.14863,-3.199074 0.67473,-0.837516 0.3468,0.287822 -0.71955,0.792691 z"
         id="path6475" />
      <path
         d="m 107.1165,24.05517 h 0.48128 v 2.448849 h -0.48128 z m 1.4863,0.964913 q 0,-0.259512 -0.13448,-0.401064 -0.13447,-0.141552 -0.37747,-0.141552 -0.23592,0 -0.36567,0.125037 -0.1274,0.125038 -0.1274,0.351521 l -0.0495,-0.47184 q 0.11324,-0.221765 0.2949,-0.342084 0.18401,-0.120319 0.40578,-0.120319 0.3987,0 0.61575,0.261871 0.2194,0.259512 0.2194,0.73607 v 1.486296 h -0.48127 z"
         id="path6477" />
      <path
         d="m 109.81543,24.05517 h 0.48127 v 2.448849 h -0.48127 z m -0.0212,-0.714837 0.67473,-0.837516 0.34681,0.287822 -0.71956,0.792691 z"
         id="path6479" />
    </g>
    <path
       sodipodi:type="star"
       style="fill:#fe8081;fill-opacity:1;stroke:#ffffff;stroke-width:11.4123;stroke-miterlimit:4;stroke-dasharray:none;paint-order:stroke fill markers;stop-color:#000000"
       id="path6483"
       inkscape:flatsided="true"
       sodipodi:sides="6"
       sodipodi:cx="438.92023"
       sodipodi:cy="92.014603"
       sodipodi:r1="100.69813"
       sodipodi:r2="50.349064"
       sodipodi:arg1="0.26179939"
       sodipodi:arg2="0.78539817"
       inkscape:rounded="0"
       inkscape:randomized="0"
       d="M 536.18715,118.0772 464.98282,189.28152 367.7159,163.21893 341.6533,65.952009 412.85763,-5.2523196 510.12456,20.810274 Z"
       transform="matrix(0.169278,0.0453579,-0.0453579,0.169278,68.331586,71.080418)"
       inkscape:transform-center-x="0.089624227"
       inkscape:transform-center-y="1.4371938" />
    <g
       aria-label="Modelování"
       id="g6505"
       style="font-size:4.83164px;line-height:1.25;font-family:Bahnschrift;-inkscape-font-specification:'Bahnschrift, Normal';stroke-width:0.120791"
       transform="translate(6.5326527,81.852681)">
      <path
         d="m 122.30531,23.073743 h 0.45061 v 3.430276 h -0.46948 v -2.569168 l 0.0236,0.150989 -0.8446,1.941621 h -0.335 l -0.84459,-1.894437 0.0236,-0.198173 v 2.569168 h -0.46948 v -3.430276 h 0.4506 l 1.00738,2.264831 z"
         id="path6485" />
      <path
         d="m 124.49701,26.539407 q -0.3185,0 -0.54498,-0.125038 -0.22648,-0.125037 -0.3468,-0.363316 -0.11796,-0.240639 -0.11796,-0.578004 v -0.398705 q 0,-0.332647 0.11796,-0.568567 0.12032,-0.238279 0.3468,-0.360957 0.22648,-0.125038 0.54498,-0.125038 0.31849,0 0.54497,0.125038 0.22648,0.122678 0.34444,0.360957 0.12032,0.23592 0.12032,0.568567 v 0.405782 q 0,0.335007 -0.12032,0.573286 -0.11796,0.23592 -0.34444,0.360957 -0.22648,0.125038 -0.54497,0.125038 z m 0,-0.457685 q 0.25243,0 0.38926,-0.158066 0.1392,-0.158067 0.1392,-0.44353 v -0.405782 q 0,-0.285463 -0.1392,-0.44117 -0.13683,-0.155707 -0.38926,-0.155707 -0.25244,0 -0.39163,0.155707 -0.13683,0.155707 -0.13683,0.44117 v 0.405782 q 0,0.285463 0.13683,0.44353 0.13919,0.158066 0.39163,0.158066 z"
         id="path6487" />
      <path
         d="m 127.58284,23.073743 h 0.48127 v 3.430276 h -0.48127 z m -0.61575,3.472741 q -0.26895,0 -0.46005,-0.1156 -0.18873,-0.11796 -0.28782,-0.342084 -0.0991,-0.224124 -0.0991,-0.537898 v -0.540256 q 0,-0.316133 0.0967,-0.540257 0.0967,-0.224124 0.28075,-0.339725 0.18637,-0.117959 0.44588,-0.117959 0.21705,0 0.39635,0.113241 0.18166,0.113242 0.29254,0.318492 l -0.0495,0.50015 q 0,-0.155707 -0.0566,-0.266589 -0.0566,-0.110883 -0.16515,-0.167503 -0.10616,-0.05898 -0.25951,-0.05898 -0.23828,0 -0.37039,0.148629 -0.12976,0.14863 -0.12976,0.417578 v 0.533179 q 0,0.26659 0.12976,0.41286 0.13211,0.143911 0.37039,0.143911 0.15335,0 0.25951,-0.05898 0.10853,-0.06134 0.16515,-0.17458 0.0566,-0.113242 0.0566,-0.271308 l 0.033,0.516664 q -0.0731,0.181659 -0.24064,0.304337 -0.16515,0.122678 -0.40814,0.122678 z"
         id="path6489" />
      <path
         d="m 129.79813,26.539407 q -0.33973,0 -0.58037,-0.127397 -0.24064,-0.127397 -0.36803,-0.372753 -0.12504,-0.247716 -0.12504,-0.596878 v -0.276026 q 0,-0.363317 0.12032,-0.620469 0.12268,-0.257153 0.35388,-0.391628 0.2312,-0.134474 0.55677,-0.134474 0.3067,0 0.52374,0.153348 0.21705,0.153348 0.33029,0.443529 0.1156,0.290182 0.1156,0.695964 v 0.160426 h -1.65144 V 25.08614 h 1.19376 v 0 q -0.0212,-0.299618 -0.15571,-0.464762 -0.13212,-0.167503 -0.35624,-0.167503 -0.27367,0 -0.42466,0.179299 -0.14862,0.179299 -0.14862,0.507228 v 0.311414 q 0,0.304337 0.16042,0.467121 0.16043,0.162785 0.45533,0.162785 0.14627,0 0.29018,-0.05898 0.14391,-0.05898 0.25715,-0.165144 v 0 l 0.31613,0.316133 v 0 q -0.18166,0.174581 -0.40814,0.271308 -0.22648,0.09437 -0.45532,0.09437 z"
         id="path6491" />
      <path
         d="m 131.86714,25.871753 q 0,0.08965 0.0377,0.139193 0.0401,0.04718 0.11088,0.04718 h 0.22649 v 0.457685 h -0.28311 q -0.27366,0 -0.42465,-0.169863 -0.14863,-0.169862 -0.14863,-0.478917 v -2.793292 h 0.48127 z"
         id="path6493" />
      <path
         d="m 133.72383,26.539407 q -0.31849,0 -0.54497,-0.125038 -0.22648,-0.125037 -0.3468,-0.363316 -0.11796,-0.240639 -0.11796,-0.578004 v -0.398705 q 0,-0.332647 0.11796,-0.568567 0.12032,-0.238279 0.3468,-0.360957 0.22648,-0.125038 0.54497,-0.125038 0.3185,0 0.54498,0.125038 0.22648,0.122678 0.34444,0.360957 0.12032,0.23592 0.12032,0.568567 v 0.405782 q 0,0.335007 -0.12032,0.573286 -0.11796,0.23592 -0.34444,0.360957 -0.22648,0.125038 -0.54498,0.125038 z m 0,-0.457685 q 0.25244,0 0.38927,-0.158066 0.13919,-0.158067 0.13919,-0.44353 v -0.405782 q 0,-0.285463 -0.13919,-0.44117 -0.13683,-0.155707 -0.38927,-0.155707 -0.25243,0 -0.39162,0.155707 -0.13684,0.155707 -0.13684,0.44117 v 0.405782 q 0,0.285463 0.13684,0.44353 0.13919,0.158066 0.39162,0.158066 z"
         id="path6495" />
      <path
         d="m 136.76484,24.05517 h 0.50251 l -0.92009,2.448849 h -0.36331 l -0.92009,-2.448849 h 0.50251 l 0.59923,1.748167 z"
         id="path6497" />
      <path
         d="m 139.12168,24.951666 q 0,-0.240639 -0.12975,-0.372754 -0.1274,-0.134474 -0.36332,-0.134474 -0.14627,0 -0.28782,0.04482 -0.1392,0.04482 -0.24772,0.125037 l -0.35152,-0.240638 q 0.13919,-0.167503 0.36568,-0.259512 0.22884,-0.09437 0.50722,-0.09437 0.30434,0 0.52139,0.108523 0.21704,0.106164 0.33028,0.311415 0.11325,0.202891 0.11325,0.490713 v 1.573586 h -0.45769 z m -0.59923,1.587741 q -0.45297,0 -0.6771,-0.186377 -0.22412,-0.188736 -0.22412,-0.570926 0,-0.363317 0.20525,-0.544975 0.20525,-0.181658 0.62047,-0.181658 h 0.69596 l 0.033,0.386908 h -0.72663 q -0.18874,0 -0.2831,0.08493 -0.092,0.08257 -0.092,0.254794 0,0.186377 0.12268,0.276026 0.12503,0.08965 0.37747,0.08965 0.27602,0 0.4105,-0.05898 0.13683,-0.05898 0.13683,-0.184018 l 0.0495,0.344443 q -0.0637,0.09909 -0.15806,0.162785 -0.092,0.0637 -0.21469,0.09437 -0.12268,0.03303 -0.27602,0.03303 z m -0.14863,-3.199074 0.67473,-0.837516 0.3468,0.287822 -0.71956,0.792691 z"
         id="path6499" />
      <path
         d="m 140.31072,24.05517 h 0.48127 v 2.448849 h -0.48127 z m 1.48629,0.964913 q 0,-0.259512 -0.13447,-0.401064 -0.13448,-0.141552 -0.37747,-0.141552 -0.23592,0 -0.36568,0.125037 -0.1274,0.125038 -0.1274,0.351521 l -0.0495,-0.47184 q 0.11324,-0.221765 0.2949,-0.342084 0.18402,-0.120319 0.40578,-0.120319 0.39871,0 0.61575,0.261871 0.21941,0.259512 0.21941,0.73607 v 1.486296 h -0.48128 z"
         id="path6501" />
      <path
         d="m 143.00964,24.05517 h 0.48128 v 2.448849 h -0.48128 z m -0.0212,-0.714837 0.67473,-0.837516 0.3468,0.287822 -0.71955,0.792691 z"
         id="path6503" />
    </g>
    <path
       sodipodi:type="star"
       style="fill:#ffd42a;fill-opacity:1;stroke:#ffffff;stroke-width:11.4123;stroke-miterlimit:4;stroke-dasharray:none;paint-order:stroke fill markers;stop-color:#000000"
       id="path6507"
       inkscape:flatsided="true"
       sodipodi:sides="6"
       sodipodi:cx="438.92023"
       sodipodi:cy="92.014603"
       sodipodi:r1="100.69813"
       sodipodi:r2="50.349064"
       sodipodi:arg1="0.26179939"
       sodipodi:arg2="0.78539817"
       inkscape:rounded="0"
       inkscape:randomized="0"
       d="M 536.18715,118.0772 464.98282,189.28152 367.7159,163.21893 341.6533,65.952009 412.85763,-5.2523196 510.12456,20.810274 Z"
       transform="matrix(0.169278,0.0453579,-0.0453579,0.169278,108.234,100.99703)"
       inkscape:transform-center-x="0.089624684"
       inkscape:transform-center-y="1.4371939" />
    <g
       aria-label="Grafika"
       id="g6523"
       style="font-size:4.83164px;line-height:1.25;font-family:Bahnschrift;-inkscape-font-specification:'Bahnschrift, Normal';stroke-width:0.120791"
       transform="translate(15.86909,111.76929)">
      <path
         d="m 157.41171,24.656766 v 0.599236 q 0,0.382191 -0.14863,0.674731 -0.14863,0.290182 -0.42229,0.450607 -0.27131,0.158067 -0.62991,0.158067 -0.36332,0 -0.63934,-0.14863 -0.27367,-0.150989 -0.42466,-0.424656 -0.15099,-0.273667 -0.15099,-0.634624 V 24.3194 q 0,-0.38219 0.14863,-0.672371 0.14863,-0.290182 0.41994,-0.448248 0.27367,-0.160426 0.63227,-0.160426 0.2949,0 0.54261,0.127397 0.25008,0.125038 0.41758,0.356239 0.1675,0.231202 0.22648,0.535538 v 0 h -0.52138 v 0 q -0.0425,-0.172221 -0.14391,-0.2949 -0.10145,-0.125037 -0.23828,-0.188736 -0.13683,-0.06606 -0.2831,-0.06606 -0.21233,0 -0.37276,0.101445 -0.16042,0.101446 -0.24771,0.285464 -0.0873,0.181658 -0.0873,0.424655 v 1.012097 q 0,0.221765 0.0897,0.389268 0.0897,0.165144 0.25243,0.257152 0.16514,0.09201 0.37983,0.09201 0.21233,0 0.37275,-0.09437 0.16043,-0.09673 0.24772,-0.278385 0.0873,-0.181659 0.0873,-0.431734 V 25.11681 h -0.69596 v -0.460044 z"
         id="path6509" />
      <path
         d="m 158.14306,24.05517 h 0.48128 v 2.448849 h -0.48128 z m 1.34711,0.580363 q -0.0637,-0.07785 -0.16043,-0.11796 -0.0967,-0.04011 -0.22412,-0.04011 -0.22884,0 -0.35624,0.127397 -0.12504,0.125037 -0.12504,0.349161 l -0.0495,-0.47184 q 0.11324,-0.219405 0.29254,-0.339725 0.1793,-0.122678 0.39634,-0.122678 0.16751,0 0.30198,0.04954 0.13684,0.04718 0.23828,0.141552 z"
         id="path6511" />
      <path
         d="m 161.5875,24.951666 q 0,-0.240639 -0.12976,-0.372754 -0.1274,-0.134474 -0.36332,-0.134474 -0.14627,0 -0.28782,0.04482 -0.13919,0.04482 -0.24772,0.125037 l -0.35152,-0.240638 q 0.1392,-0.167503 0.36568,-0.259512 0.22884,-0.09437 0.50723,-0.09437 0.30433,0 0.52138,0.108523 0.21705,0.106164 0.33029,0.311415 0.11324,0.202891 0.11324,0.490713 v 1.573586 h -0.45768 z m -0.59924,1.587741 q -0.45297,0 -0.67709,-0.186377 -0.22413,-0.188736 -0.22413,-0.570926 0,-0.363317 0.20525,-0.544975 0.20526,-0.181658 0.62047,-0.181658 h 0.69597 l 0.033,0.386908 h -0.72664 q -0.18873,0 -0.2831,0.08493 -0.092,0.08257 -0.092,0.254794 0,0.186377 0.12268,0.276026 0.12504,0.08965 0.37747,0.08965 0.27603,0 0.4105,-0.05898 0.13684,-0.05898 0.13684,-0.184018 l 0.0495,0.344443 q -0.0637,0.09909 -0.15807,0.162785 -0.092,0.0637 -0.21468,0.09437 -0.12268,0.03303 -0.27603,0.03303 z"
         id="path6513" />
      <path
         d="m 162.84731,23.722523 q 0,-0.325569 0.14863,-0.485995 0.15099,-0.162785 0.4624,-0.162785 h 0.35388 v 0.457685 h -0.34444 q -0.0684,0 -0.10381,0.0519 -0.0354,0.0519 -0.0354,0.134475 v 2.786214 h -0.48127 z m -0.25951,0.332647 h 1.22442 v 0.410501 h -1.22442 z"
         id="path6515" />
      <path
         d="m 164.37843,23.073743 h 0.48128 v 0.481277 h -0.48128 z m 0,0.981427 h 0.48128 v 2.448849 h -0.48128 z"
         id="path6517" />
      <path
         d="m 165.79867,25.574494 1.25981,-1.519324 h 0.56621 l -1.85669,2.090251 z m -0.20761,-2.500751 h 0.48127 v 3.430276 h -0.48127 z m 0.77617,2.017116 0.30906,-0.320852 1.06872,1.734012 h -0.52375 z"
         id="path6519" />
      <path
         d="m 169.52856,24.951666 q 0,-0.240639 -0.12976,-0.372754 -0.12739,-0.134474 -0.36331,-0.134474 -0.14627,0 -0.28782,0.04482 -0.1392,0.04482 -0.24772,0.125037 l -0.35152,-0.240638 q 0.13919,-0.167503 0.36567,-0.259512 0.22885,-0.09437 0.50723,-0.09437 0.30434,0 0.52139,0.108523 0.21704,0.106164 0.33028,0.311415 0.11324,0.202891 0.11324,0.490713 v 1.573586 h -0.45768 z m -0.59924,1.587741 q -0.45296,0 -0.67709,-0.186377 -0.22412,-0.188736 -0.22412,-0.570926 0,-0.363317 0.20525,-0.544975 0.20525,-0.181658 0.62047,-0.181658 h 0.69596 l 0.033,0.386908 h -0.72663 q -0.18874,0 -0.28311,0.08493 -0.092,0.08257 -0.092,0.254794 0,0.186377 0.12267,0.276026 0.12504,0.08965 0.37748,0.08965 0.27602,0 0.4105,-0.05898 0.13683,-0.05898 0.13683,-0.184018 l 0.0495,0.344443 q -0.0637,0.09909 -0.15806,0.162785 -0.092,0.0637 -0.21469,0.09437 -0.12268,0.03303 -0.27603,0.03303 z"
         id="path6521" />
    </g>
    <path
       sodipodi:type="star"
       style="fill:#00a5a5;fill-opacity:1;stroke:#ffffff;stroke-width:11.4123;stroke-miterlimit:4;stroke-dasharray:none;paint-order:stroke fill markers;stop-color:#000000"
       id="path6525"
       inkscape:flatsided="true"
       sodipodi:sides="6"
       sodipodi:cx="438.92023"
       sodipodi:cy="92.014603"
       sodipodi:r1="100.69813"
       sodipodi:r2="50.349064"
       sodipodi:arg1="0.26179939"
       sodipodi:arg2="0.78539817"
       inkscape:rounded="0"
       inkscape:randomized="0"
       d="M 536.18715,118.0772 464.98282,189.28152 367.7159,163.21893 341.6533,65.952009 412.85763,-5.2523196 510.12456,20.810274 Z"
       transform="matrix(0.169278,0.0453579,-0.0453579,0.169278,44.333342,150.32008)"
       inkscape:transform-center-x="0.089624227"
       inkscape:transform-center-y="1.4371934" />
    <g
       aria-label="Design"
       id="g6539"
       style="font-size:4.83164px;line-height:1.25;font-family:Bahnschrift;-inkscape-font-specification:'Bahnschrift, Normal';stroke-width:0.120791"
       transform="translate(-78.597538,161.09234)">
      <path
         d="m 186.48671,26.046334 h 0.77617 q 0.37984,0 0.58744,-0.195813 0.20997,-0.198173 0.20997,-0.556771 v -1.009738 q 0,-0.358598 -0.20997,-0.554411 -0.2076,-0.198173 -0.58744,-0.198173 h -0.77617 v -0.457685 h 0.76202 q 0.41286,0 0.7054,0.143911 0.29254,0.143912 0.44589,0.419938 0.15335,0.276026 0.15335,0.665294 v 0.97199 q 0,0.389268 -0.15335,0.665294 -0.15335,0.276026 -0.44825,0.419938 -0.29254,0.143911 -0.7054,0.143911 h -0.75966 z m -0.32557,-2.972591 h 0.48128 v 3.430276 h -0.48128 z"
         style="text-align:center;text-anchor:middle"
         id="path6527" />
      <path
         d="m 190.28738,26.539407 q -0.33973,0 -0.58037,-0.127397 -0.24063,-0.127397 -0.36803,-0.372753 -0.12504,-0.247716 -0.12504,-0.596878 v -0.276026 q 0,-0.363317 0.12032,-0.620469 0.12268,-0.257153 0.35388,-0.391628 0.2312,-0.134474 0.55677,-0.134474 0.3067,0 0.52374,0.153348 0.21705,0.153348 0.33029,0.443529 0.1156,0.290182 0.1156,0.695964 v 0.160426 H 189.5631 V 25.08614 h 1.19376 v 0 q -0.0212,-0.299618 -0.15571,-0.464762 -0.13211,-0.167503 -0.35624,-0.167503 -0.27367,0 -0.42465,0.179299 -0.14863,0.179299 -0.14863,0.507228 v 0.311414 q 0,0.304337 0.16042,0.467121 0.16043,0.162785 0.45533,0.162785 0.14627,0 0.29018,-0.05898 0.14391,-0.05898 0.25715,-0.165144 v 0 l 0.31613,0.316133 v 0 q -0.18165,0.174581 -0.40814,0.271308 -0.22648,0.09437 -0.45532,0.09437 z"
         style="text-align:center;text-anchor:middle"
         id="path6529" />
      <path
         d="m 192.74094,26.539407 q -0.21704,0 -0.40814,-0.04247 -0.18873,-0.04246 -0.35388,-0.127397 -0.16514,-0.08493 -0.30433,-0.212327 v 0 l 0.28546,-0.351521 v 0 q 0.19817,0.150989 0.39399,0.226483 0.19581,0.07549 0.3869,0.07549 0.28547,0 0.42702,-0.08729 0.14391,-0.08965 0.14391,-0.26659 0,-0.117959 -0.0779,-0.176939 -0.0779,-0.05898 -0.19346,-0.07785 -0.1156,-0.02123 -0.32557,-0.03775 -0.0189,0 -0.0401,0 -0.0212,-0.0024 -0.0401,-0.0047 -0.009,0 -0.0189,0 -0.009,-0.0024 -0.0189,-0.0024 -0.23828,-0.01887 -0.40342,-0.06842 -0.16514,-0.0519 -0.27603,-0.191095 -0.10852,-0.139192 -0.10852,-0.398704 0,-0.259512 0.10617,-0.431734 0.10616,-0.172221 0.31613,-0.257153 0.20997,-0.08729 0.5261,-0.08729 0.19109,0 0.36332,0.03539 0.17458,0.03539 0.33264,0.106164 0.15807,0.06842 0.30434,0.174581 v 0 l -0.29018,0.35152 v 0 q -0.18402,-0.117959 -0.36332,-0.176939 -0.17694,-0.05898 -0.3468,-0.05898 -0.24536,0 -0.36804,0.08493 -0.12267,0.08257 -0.12267,0.250075 0,0.09909 0.0684,0.148629 0.0708,0.04954 0.17694,0.06606 0.10617,0.01651 0.30198,0.02831 0.0142,0.0024 0.0283,0.0024 0.0165,0 0.033,0.0024 0.007,0 0.0142,0 0.007,0 0.0142,0.0024 0.25715,0.01651 0.43645,0.06842 0.18166,0.0519 0.30434,0.20525 0.12268,0.153348 0.12268,0.443529 0,0.264231 -0.11325,0.438812 -0.11324,0.172221 -0.34208,0.259511 -0.22648,0.08729 -0.57093,0.08729 z"
         style="text-align:center;text-anchor:middle"
         id="path6531" />
      <path
         d="m 194.38059,23.073743 h 0.48128 v 0.481277 h -0.48128 z m 0,0.981427 h 0.48128 v 2.448849 h -0.48128 z"
         style="text-align:center;text-anchor:middle"
         id="path6533" />
      <path
         d="m 196.41422,27.499601 q -0.27603,0 -0.49543,-0.103805 -0.21705,-0.101446 -0.33737,-0.287822 v 0 l 0.32557,-0.2949 v 0 q 0.0944,0.129756 0.22412,0.200532 0.13212,0.07078 0.27603,0.07078 0.27603,0 0.42702,-0.153348 0.15098,-0.150989 0.15098,-0.429374 v -2.44649 h 0.48128 v 2.375714 q 0,0.337365 -0.12504,0.578003 -0.12268,0.240639 -0.35859,0.365676 -0.23592,0.125038 -0.56857,0.125038 z m -0.0448,-0.953117 q -0.26895,0 -0.46004,-0.1156 -0.18874,-0.11796 -0.28782,-0.342084 -0.0991,-0.224124 -0.0991,-0.537898 v -0.540256 q 0,-0.316133 0.0967,-0.540257 0.0967,-0.224124 0.28074,-0.339725 0.18638,-0.117959 0.44589,-0.117959 0.21705,0 0.39635,0.113241 0.18166,0.113242 0.29254,0.318492 l -0.0496,0.50015 q 0,-0.155707 -0.0566,-0.266589 -0.0566,-0.110883 -0.16514,-0.167503 -0.10616,-0.05898 -0.25951,-0.05898 -0.23828,0 -0.3704,0.148629 -0.12975,0.14863 -0.12975,0.417578 v 0.533179 q 0,0.26659 0.12975,0.41286 0.13212,0.143911 0.3704,0.143911 0.15335,0 0.25951,-0.05898 0.10852,-0.06134 0.16514,-0.17458 0.0566,-0.113242 0.0566,-0.271308 l 0.033,0.516664 q -0.0731,0.181659 -0.24064,0.304337 -0.16514,0.122678 -0.40814,0.122678 z"
         style="text-align:center;text-anchor:middle"
         id="path6535" />
      <path
         d="m 198.19777,24.05517 h 0.48128 v 2.448849 h -0.48128 z m 1.4863,0.964913 q 0,-0.259512 -0.13448,-0.401064 -0.13447,-0.141552 -0.37747,-0.141552 -0.23592,0 -0.36567,0.125037 -0.1274,0.125038 -0.1274,0.351521 l -0.0495,-0.47184 q 0.11324,-0.221765 0.2949,-0.342084 0.18401,-0.120319 0.40578,-0.120319 0.3987,0 0.61575,0.261871 0.2194,0.259512 0.2194,0.73607 v 1.486296 h -0.48127 z"
         style="text-align:center;text-anchor:middle"
         id="path6537" />
    </g>
    <path
       sodipodi:type="star"
       style="fill:#81ff81;fill-opacity:1;stroke:#ffffff;stroke-width:11.4123;stroke-miterlimit:4;stroke-dasharray:none;paint-order:stroke fill markers;stop-color:#000000"
       id="path6541"
       inkscape:flatsided="true"
       sodipodi:sides="6"
       sodipodi:cx="438.92023"
       sodipodi:cy="92.014603"
       sodipodi:r1="100.69813"
       sodipodi:r2="50.349064"
       sodipodi:arg1="0.26179939"
       sodipodi:arg2="0.78539817"
       inkscape:rounded="0"
       inkscape:randomized="0"
       d="M 536.18715,118.0772 464.98282,189.28152 367.7159,163.21893 341.6533,65.952009 412.85763,-5.2523196 510.12456,20.810274 Z"
       transform="matrix(0.169278,0.0453579,-0.0453579,0.169278,94.023501,149.79091)"
       inkscape:transform-center-x="0.089624227"
       inkscape:transform-center-y="1.4371934" />
    <g
       aria-label="Film"
       id="g6551"
       style="font-size:4.87979px;line-height:1.25;font-family:Bahnschrift;-inkscape-font-specification:'Bahnschrift, Normal';stroke-width:0.121994"
       transform="translate(-59.473389,160.56317)">
      <path
         d="m 219.21986,22.840725 h 0.48607 v 3.46446 h -0.48607 z m 0.23827,1.543996 h 1.67981 v 0.462246 h -1.67981 z m 0,-1.543996 h 1.94191 v 0.462246 h -1.94191 z"
         id="path6543" />
      <path
         d="m 221.97189,22.840725 h 0.48607 v 0.486073 h -0.48607 z m 0,0.991207 h 0.48607 v 2.473253 h -0.48607 z"
         id="path6545" />
      <path
         d="m 223.68267,25.666619 q 0,0.09054 0.0381,0.14058 0.0405,0.04765 0.11198,0.04765 h 0.22874 v 0.462246 h -0.28592 q -0.2764,0 -0.42889,-0.171555 -0.15011,-0.171555 -0.15011,-0.48369 v -2.821129 h 0.48607 z"
         id="path6547" />
      <path
         d="m 227.54028,24.806461 q 0,-0.262098 -0.13581,-0.405061 -0.13582,-0.142962 -0.38124,-0.142962 -0.22635,0 -0.35026,0.138197 -0.1239,0.138197 -0.1239,0.390764 l -0.0977,-0.476542 q 0.11676,-0.245419 0.30737,-0.378851 0.193,-0.135814 0.42412,-0.135814 0.26687,0 0.4551,0.119135 0.19062,0.116753 0.28831,0.343111 0.10007,0.226357 0.10007,0.54564 v 1.501107 h -0.48607 z m -2.95456,-0.974529 h 0.48607 v 2.473253 h -0.48607 z m 1.47728,0.974529 q 0,-0.262098 -0.12867,-0.405061 -0.12866,-0.142962 -0.36455,-0.142962 -0.23827,0 -0.36932,0.126283 -0.12867,0.126284 -0.12867,0.355024 l -0.05,-0.476542 q 0.11437,-0.223975 0.29784,-0.345493 0.18585,-0.121518 0.40982,-0.121518 0.25972,0 0.44319,0.119135 0.18346,0.116753 0.27877,0.343111 0.0977,0.226357 0.0977,0.54564 v 1.501107 H 226.063 Z"
         id="path6549" />
    </g>
    <path
       style="opacity:0.736032;mix-blend-mode:darken;fill:#000000;stroke:none;stroke-width:0.626254px;stroke-linecap:butt;stroke-linejoin:miter;stroke-opacity:1;filter:url(#filter26488)"
       d="m 47.44332,222.07289 -66.475058,-14.55098 c 0,0 -1.035117,-7.62767 23.4195303,-8.85043 24.4546477,-1.22275 75.9517357,6.34669 75.9517357,6.34669 l 46.066242,9.17847 z"
       id="path11196"
       transform="matrix(0.42248555,0,0,0.42248555,9.4555696,-20.756959)"
       inkscape:export-xdpi="118.90417"
       inkscape:export-ydpi="118.90417" />
    <rect
       style="fill:url(#linearGradient45560);fill-opacity:1;fill-rule:evenodd;stroke-width:0.264583"
       id="rect11198"
       width="0.92518902"
       height="64.897423"
       x="38.164974"
       y="5.629602"
       inkscape:export-xdpi="118.90417"
       inkscape:export-ydpi="118.90417" />
    <rect
       style="fill:#8080ff;fill-opacity:1;fill-rule:evenodd;stroke-width:0.264583"
       id="rect11200"
       width="6.4701982"
       height="21.341625"
       x="48.364243"
       y="17.880474"
       inkscape:export-xdpi="118.90417"
       inkscape:export-ydpi="118.90417" />
    <rect
       style="fill:#fe8081;fill-opacity:1;fill-rule:evenodd;stroke-width:0.264583"
       id="rect11202"
       width="6.4701982"
       height="21.341625"
       x="54.834442"
       y="17.880474"
       inkscape:export-xdpi="118.90417"
       inkscape:export-ydpi="118.90417" />
    <rect
       style="fill:#ffd42a;fill-rule:evenodd;stroke-width:0.264583"
       id="rect11204"
       width="6.4701982"
       height="21.341625"
       x="61.304642"
       y="17.880474"
       inkscape:export-xdpi="118.90417"
       inkscape:export-ydpi="118.90417" />
    <path
       id="path11206"
       style="fill:#ffb380;fill-rule:evenodd;stroke-width:0.264583"
       d="m 48.36422,39.222118 h 19.410624 l -8.983063,14.31281 h -1.444498 z"
       sodipodi:nodetypes="ccccc"
       inkscape:export-xdpi="118.90417"
       inkscape:export-ydpi="118.90417" />
    <path
       id="path11208"
       style="fill:#f4e3d7;fill-rule:evenodd;stroke-width:0.264583"
       d="m 48.36422,39.222118 h 6.470192 l 3.398468,14.437616 -0.885597,-0.124806 z"
       sodipodi:nodetypes="ccccc"
       inkscape:export-xdpi="118.90417"
       inkscape:export-ydpi="118.90417" />
    <path
       id="path11210"
       style="fill:#d38d5f;fill-rule:evenodd;stroke-width:0.264583"
       d="M 67.774761,39.222118 H 61.30457 l -3.398469,14.437616 0.885597,-0.124806 z"
       sodipodi:nodetypes="ccccc"
       inkscape:export-xdpi="118.90417"
       inkscape:export-ydpi="118.90417" />
    <path
       id="path11212"
       style="fill:#333333;fill-rule:evenodd;stroke-width:0.264583"
       d="m 54.1571,48.489267 7.890124,-0.110104 -3.605761,5.672088 -0.720686,-0.01341 z"
       sodipodi:nodetypes="ccccc"
       inkscape:export-xdpi="118.90417"
       inkscape:export-ydpi="118.90417" />
    <ellipse
       style="fill:#8080ff;fill-opacity:1;fill-rule:evenodd;stroke-width:0.264583"
       id="ellipse11214"
       cx="58.10218"
       cy="58.211983"
       rx="9.7495232"
       ry="1.9499046"
       inkscape:export-xdpi="118.90417"
       inkscape:export-ydpi="118.90417" />
    <ellipse
       style="fill:#f4e3d7;fill-opacity:1;fill-rule:evenodd;stroke-width:0.264583"
       id="ellipse11216"
       cx="58.10218"
       cy="17.759682"
       rx="9.7495232"
       ry="1.9499046"
       inkscape:export-xdpi="118.90417"
       inkscape:export-ydpi="118.90417" />
    <ellipse
       style="fill:#333333;fill-opacity:1;fill-rule:evenodd;stroke-width:0.264581"
       id="ellipse11218"
       cx="58.102173"
       cy="17.759542"
       rx="3.7907975"
       ry="0.75815952"
       inkscape:export-xdpi="118.90417"
       inkscape:export-ydpi="118.90417" />
    <rect
       style="fill:url(#linearGradient11282);fill-opacity:1;fill-rule:evenodd;stroke-width:0.248285"
       id="rect11234"
       width="0.86819887"
       height="60.899849"
       x="120.31284"
       y="120.26038"
       inkscape:export-xdpi="118.90417"
       inkscape:export-ydpi="118.90417" />
    <rect
       style="fill:#8080ff;fill-opacity:1;fill-rule:evenodd;stroke-width:0.248285"
       id="rect11236"
       width="6.0716443"
       height="20.027016"
       x="129.88385"
       y="131.75659"
       inkscape:export-xdpi="118.90417"
       inkscape:export-ydpi="118.90417" />
    <rect
       style="fill:#fe8081;fill-opacity:1;fill-rule:evenodd;stroke-width:0.248285"
       id="rect11238"
       width="6.0716443"
       height="20.027016"
       x="135.95549"
       y="131.75659"
       inkscape:export-xdpi="118.90417"
       inkscape:export-ydpi="118.90417" />
    <rect
       style="fill:#ffd42a;fill-rule:evenodd;stroke-width:0.248285"
       id="rect11240"
       width="6.0716443"
       height="20.027016"
       x="142.02713"
       y="131.75659"
       inkscape:export-xdpi="118.90417"
       inkscape:export-ydpi="118.90417" />
    <path
       id="path11242"
       style="fill:#ffb380;fill-rule:evenodd;stroke-width:0.248285"
       d="m 129.88382,151.78364 h 18.21497 l -8.42973,13.43117 h -1.35552 z"
       sodipodi:nodetypes="ccccc"
       inkscape:export-xdpi="118.90417"
       inkscape:export-ydpi="118.90417" />
    <path
       id="path11244"
       style="fill:#f4e3d7;fill-rule:evenodd;stroke-width:0.248285"
       d="m 129.88382,151.78364 h 6.07164 l 3.18913,13.54828 -0.83105,-0.11717 z"
       sodipodi:nodetypes="ccccc"
       inkscape:export-xdpi="118.90417"
       inkscape:export-ydpi="118.90417" />
    <path
       id="path11246"
       style="fill:#d38d5f;fill-rule:evenodd;stroke-width:0.248285"
       d="m 148.0987,151.78364 h -6.07163 l -3.18913,13.54828 0.83104,-0.11717 z"
       sodipodi:nodetypes="ccccc"
       inkscape:export-xdpi="118.90417"
       inkscape:export-ydpi="118.90417" />
    <path
       id="path11248"
       style="fill:#333333;fill-rule:evenodd;stroke-width:0.248285"
       d="m 135.31987,160.47995 7.40411,-0.10337 -3.38366,5.3227 -0.67628,-0.0129 z"
       sodipodi:nodetypes="ccccc"
       inkscape:export-xdpi="118.90417"
       inkscape:export-ydpi="118.90417" />
    <ellipse
       style="fill:#8080ff;fill-opacity:1;fill-rule:evenodd;stroke-width:0.248285"
       id="ellipse11250"
       cx="139.02196"
       cy="169.60376"
       rx="9.1489687"
       ry="1.8297936"
       inkscape:export-xdpi="118.90417"
       inkscape:export-ydpi="118.90417" />
    <ellipse
       style="fill:#f4e3d7;fill-opacity:1;fill-rule:evenodd;stroke-width:0.248285"
       id="ellipse11252"
       cx="139.02196"
       cy="131.64325"
       rx="9.1489687"
       ry="1.8297936"
       inkscape:export-xdpi="118.90417"
       inkscape:export-ydpi="118.90417" />
    <ellipse
       style="fill:#333333;fill-opacity:1;fill-rule:evenodd;stroke-width:0.248283"
       id="ellipse11254"
       cx="139.02193"
       cy="131.64311"
       rx="3.5572906"
       ry="0.71145815"
       inkscape:export-xdpi="118.90417"
       inkscape:export-ydpi="118.90417" />
    <rect
       style="fill:url(#linearGradient11280);fill-opacity:1;fill-rule:evenodd;stroke-width:0.248285"
       id="rect11258"
       width="0.86819887"
       height="60.899849"
       x="120.31284"
       y="120.26038"
       inkscape:export-xdpi="118.90417"
       inkscape:export-ydpi="118.90417" />
    <rect
       style="fill:#8080ff;fill-opacity:1;fill-rule:evenodd;stroke-width:0.248285"
       id="rect11260"
       width="6.0716443"
       height="20.027016"
       x="129.88385"
       y="131.75659"
       inkscape:export-xdpi="118.90417"
       inkscape:export-ydpi="118.90417" />
    <rect
       style="fill:#fe8081;fill-opacity:1;fill-rule:evenodd;stroke-width:0.248285"
       id="rect11262"
       width="6.0716443"
       height="20.027016"
       x="135.95549"
       y="131.75659"
       inkscape:export-xdpi="118.90417"
       inkscape:export-ydpi="118.90417" />
    <rect
       style="fill:#ffd42a;fill-rule:evenodd;stroke-width:0.248285"
       id="rect11264"
       width="6.0716443"
       height="20.027016"
       x="142.02713"
       y="131.75659"
       inkscape:export-xdpi="118.90417"
       inkscape:export-ydpi="118.90417" />
    <path
       id="path11266"
       style="fill:#ffb380;fill-rule:evenodd;stroke-width:0.248285"
       d="m 129.88382,151.78364 h 18.21497 l -8.42973,13.43117 h -1.35552 z"
       sodipodi:nodetypes="ccccc"
       inkscape:export-xdpi="118.90417"
       inkscape:export-ydpi="118.90417" />
    <path
       id="path11268"
       style="fill:#f4e3d7;fill-rule:evenodd;stroke-width:0.248285"
       d="m 129.88382,151.78364 h 6.07164 l 3.18913,13.54828 -0.83105,-0.11717 z"
       sodipodi:nodetypes="ccccc"
       inkscape:export-xdpi="118.90417"
       inkscape:export-ydpi="118.90417" />
    <path
       id="path11270"
       style="fill:#d38d5f;fill-rule:evenodd;stroke-width:0.248285"
       d="m 148.0987,151.78364 h -6.07163 l -3.18913,13.54828 0.83104,-0.11717 z"
       sodipodi:nodetypes="ccccc"
       inkscape:export-xdpi="118.90417"
       inkscape:export-ydpi="118.90417" />
    <path
       id="path11272"
       style="fill:#333333;fill-rule:evenodd;stroke-width:0.248285"
       d="m 135.31987,160.47995 7.40411,-0.10337 -3.38366,5.3227 -0.67628,-0.0129 z"
       sodipodi:nodetypes="ccccc"
       inkscape:export-xdpi="118.90417"
       inkscape:export-ydpi="118.90417" />
    <ellipse
       style="fill:#8080ff;fill-opacity:1;fill-rule:evenodd;stroke-width:0.248285"
       id="ellipse11274"
       cx="139.02196"
       cy="169.60376"
       rx="9.1489687"
       ry="1.8297936"
       inkscape:export-xdpi="118.90417"
       inkscape:export-ydpi="118.90417" />
    <ellipse
       style="fill:#f4e3d7;fill-opacity:1;fill-rule:evenodd;stroke-width:0.248285"
       id="ellipse11276"
       cx="139.02196"
       cy="131.64325"
       rx="9.1489687"
       ry="1.8297936"
       inkscape:export-xdpi="118.90417"
       inkscape:export-ydpi="118.90417" />
    <ellipse
       style="fill:#333333;fill-opacity:1;fill-rule:evenodd;stroke-width:0.248283"
       id="ellipse11278"
       cx="139.02193"
       cy="131.64311"
       rx="3.5572906"
       ry="0.71145815"
       inkscape:export-xdpi="118.90417"
       inkscape:export-ydpi="118.90417" />
    <rect
       style="fill:#f2f2f2;fill-opacity:1;stroke-width:0.40578;-inkscape-stroke:none;paint-order:stroke fill markers;stop-color:#000000"
       id="rect16912"
       width="39.236691"
       height="100"
       x="207.75687"
       y="91.740463" />
    <rect
       style="fill:#81ff81;fill-opacity:1;stroke-width:0.28693;-inkscape-stroke:none;paint-order:stroke fill markers;stop-color:#000000"
       id="rect16996"
       width="39.236691"
       height="50"
       x="207.75687"
       y="141.74046" />
    <rect
       style="fill:#8080ff;fill-opacity:1;stroke-width:0.222255;-inkscape-stroke:none;paint-order:stroke fill markers;stop-color:#000000"
       id="rect16998"
       width="39.236691"
       height="30"
       x="207.75687"
       y="111.74046" />
    <rect
       style="fill:#fe8081;fill-opacity:1;stroke-width:0.18147;-inkscape-stroke:none;paint-order:stroke fill markers;stop-color:#000000"
       id="rect27027"
       width="39.236691"
       height="20"
       x="207.75687"
       y="91.740463" />
    <rect
       style="mix-blend-mode:soft-light;fill:url(#radialGradient64954);fill-opacity:1;stroke-width:0.432795;-inkscape-stroke:none;paint-order:stroke fill markers;stop-color:#000000"
       id="rect64652"
       width="39.236694"
       height="100"
       x="207.75687"
       y="91.740463" />
  </g>
</svg>
