<?xml version="1.0" encoding="UTF-8" standalone="no"?>
<!-- Created with Inkscape (http://www.inkscape.org/) -->

<svg
   width="1900"
   height="400"
   viewBox="0 0 502.70832 105.83334"
   version="1.1"
   id="svg5"
   inkscape:version="1.1 (c68e22c387, 2021-05-23)"
   sodipodi:docname="photo-golden.svg"
   xmlns:inkscape="http://www.inkscape.org/namespaces/inkscape"
   xmlns:sodipodi="http://sodipodi.sourceforge.net/DTD/sodipodi-0.dtd"
   xmlns="http://www.w3.org/2000/svg"
   xmlns:svg="http://www.w3.org/2000/svg">
  <sodipodi:namedview
     id="namedview7"
     pagecolor="#ffffff"
     bordercolor="#666666"
     borderopacity="1.0"
     inkscape:pageshadow="2"
     inkscape:pageopacity="0.0"
     inkscape:pagecheckerboard="0"
     inkscape:document-units="mm"
     showgrid="false"
     inkscape:zoom="0.75916666"
     inkscape:cx="817.34359"
     inkscape:cy="380.02196"
     inkscape:window-width="1920"
     inkscape:window-height="989"
     inkscape:window-x="-9"
     inkscape:window-y="-9"
     inkscape:window-maximized="1"
     inkscape:current-layer="layer1"
     units="px"
     width="1200px"
     inkscape:snap-bbox="true"
     inkscape:snap-bbox-midpoints="false"
     inkscape:snap-object-midpoints="true"
     inkscape:snap-bbox-edge-midpoints="false"
     showguides="false"
     inkscape:guide-bbox="true"
     inkscape:snap-nodes="true"
     inkscape:bbox-nodes="false"
     inkscape:bbox-paths="true"
     inkscape:snap-smooth-nodes="true">
    <sodipodi:guide
       position="0,105.83334"
       orientation="0,1200"
       id="guide236407" />
    <sodipodi:guide
       position="521.62578,351.11199"
       orientation="400,0"
       id="guide236409" />
    <sodipodi:guide
       position="317.50001,0"
       orientation="0,-1200"
       id="guide236411" />
    <sodipodi:guide
       position="0,0"
       orientation="-400,0"
       id="guide236413" />
    <sodipodi:guide
       position="521.62578,362.12632"
       orientation="1,0"
       id="guide71869" />
    <sodipodi:guide
       position="88.15855,121.41585"
       orientation="0,-1"
       id="guide71871" />
    <sodipodi:guide
       position="158.75,-56.352031"
       orientation="1,0"
       id="guide245073" />
    <sodipodi:guide
       position="55.858031,39.687502"
       orientation="0,-1"
       id="guide245283" />
    <sodipodi:guide
       position="-26.343245,416.82787"
       orientation="1,0"
       id="guide245683" />
    <sodipodi:guide
       position="555.23705,498.10627"
       orientation="1,0"
       id="guide17431" />
    <sodipodi:guide
       position="333.18331,506.3678"
       orientation="0,-1"
       id="guide18587" />
    <sodipodi:guide
       position="333.1833,506.36782"
       orientation="0,-1"
       id="guide18589" />
    <sodipodi:guide
       position="201.44347,491.73004"
       orientation="0,-1"
       id="guide19573" />
    <sodipodi:guide
       position="98.822246,380.92428"
       orientation="1,0"
       id="guide20327" />
  </sodipodi:namedview>
  <defs
     id="defs2">
    <rect
       x="64.268578"
       y="452.86444"
       width="237.74532"
       height="267.91397"
       id="rect584158" />
    <rect
       x="49.917774"
       y="-284.89774"
       width="299.17294"
       height="236.87001"
       id="rect262369" />
    <rect
       x="48.479023"
       y="-229.50354"
       width="376.47485"
       height="396.86792"
       id="rect696309" />
    <rect
       x="135.77975"
       y="-334.41962"
       width="345.19617"
       height="255.59877"
       id="rect580217" />
    <rect
       x="537.6828"
       y="596.96564"
       width="146.22623"
       height="175.72003"
       id="rect57753" />
    <rect
       x="313.01096"
       y="592.36932"
       width="334.12207"
       height="239.64877"
       id="rect10200" />
    <rect
       x="48.479023"
       y="-229.50354"
       width="522.71075"
       height="380.22006"
       id="rect45947" />
    <rect
       x="48.479023"
       y="-229.50354"
       width="546.63867"
       height="380.91187"
       id="rect61053" />
    <rect
       x="48.479023"
       y="-229.50354"
       width="546.63867"
       height="380.91187"
       id="rect696309-9" />
    <rect
       x="48.479023"
       y="-229.50354"
       width="546.63867"
       height="380.91187"
       id="rect696309-3" />
    <rect
       x="48.479023"
       y="-229.50354"
       width="546.63867"
       height="380.91187"
       id="rect696309-1" />
    <rect
       x="48.479023"
       y="-229.50354"
       width="546.63867"
       height="380.91187"
       id="rect696309-4" />
    <rect
       x="48.479023"
       y="-229.50354"
       width="376.47485"
       height="396.86792"
       id="rect319832" />
    <rect
       x="48.479023"
       y="-229.50354"
       width="376.47485"
       height="396.86792"
       id="rect363358" />
    <rect
       x="48.479023"
       y="-229.50354"
       width="376.47485"
       height="396.86792"
       id="rect612387" />
    <rect
       x="48.479023"
       y="-229.50354"
       width="376.47485"
       height="396.86792"
       id="rect624326" />
    <rect
       x="48.479023"
       y="-229.50354"
       width="376.47485"
       height="396.86792"
       id="rect748604" />
    <rect
       x="48.479023"
       y="-229.50354"
       width="376.47485"
       height="396.86792"
       id="rect776264" />
    <clipPath
       clipPathUnits="userSpaceOnUse"
       id="clipPath2902">
      <path
         d="M 0,0 H 14033 V 9917 H 0 Z"
         clip-rule="evenodd"
         id="path2900" />
    </clipPath>
    <clipPath
       clipPathUnits="userSpaceOnUse"
       id="clipPath2908">
      <path
         d="m 4184.8878,2965.9909 h 1416.7143 c 0,-782.4297 -634.2846,-1416.7143 -1416.7143,-1416.7143 V 2965.9909 L 7352.7765,1549.2767 h 302.3559 v 1416.7142 c 0,-488.2499 -103.0298,-971.0046 -302.3559,-1416.7142 h 302.3559 v 1416.7142 h -302.3559 c 0,-491.7959 -114.5021,-976.8379 -334.4386,-1416.7142 h 334.4386 v 1416.7142 h -334.4386 c 0,-497.3701 -130.9209,-985.9779 -379.6041,-1416.7142 h 379.6041 V 2965.9909 H 6638.7338 V 1549.2767 h -442.5035 v 1416.7142 h 442.5035 c 0,-507.4539 -157.3248,-1002.4272 -450.3094,-1416.7573 l -586.8223,0.022 -1416.7143,0.021 V 2965.9909 L 7655.1324,1549.2767 4184.8878,2965.9909 7352.7765,1549.2767 H 7018.3379 L 4184.8878,2965.9909 7018.3379,1549.2767 h -379.6041 -442.5035 v 1416.7142 h 442.5035 c 0,-507.4539 -157.3248,-1002.4272 -450.3094,-1416.7573 v 1416.7573 h -586.8223 c 0,-782.4297 -634.2846,-1416.7143 -1416.7143,-1416.7143 l 1416.7143,-0.021 V 2965.9914 H 4184.8878 L 6638.7338,1549.2767 4184.8878,2965.9909 6196.2303,1549.2767 4184.8878,2965.9909 5601.6021,1549.2551 Z"
         clip-rule="evenodd"
         id="path2906" />
    </clipPath>
    <clipPath
       clipPathUnits="userSpaceOnUse"
       id="clipPath2948">
      <path
         d="M 0,0 H 14033 V 9917 H 0 Z"
         clip-rule="evenodd"
         id="path2946" />
    </clipPath>
    <clipPath
       clipPathUnits="userSpaceOnUse"
       id="clipPath2954">
      <path
         d="m 5601.6021,2965.9909 h 586.8223 c 0,-531.3709 -211.0863,-1040.9783 -586.8223,-1416.7143 z"
         clip-rule="evenodd"
         id="path2952" />
    </clipPath>
    <clipPath
       clipPathUnits="userSpaceOnUse"
       id="clipPath3132">
      <path
         d="M 0,0 H 14033 V 9917 H 0 Z"
         clip-rule="evenodd"
         id="path3130" />
    </clipPath>
    <clipPath
       clipPathUnits="userSpaceOnUse"
       id="clipPath3138">
      <path
         d="M 6188.4244,2965.9909 V 1549.2336 l -586.8223,0.022 v 0.021 c 375.736,375.736 586.8223,885.3434 586.8223,1416.7143"
         clip-rule="evenodd"
         id="path3136" />
    </clipPath>
    <clipPath
       clipPathUnits="userSpaceOnUse"
       id="clipPath19990">
      <path
         d="M 0,0 H 14033 V 9917 H 0 Z"
         clip-rule="evenodd"
         id="path19988" />
    </clipPath>
    <clipPath
       clipPathUnits="userSpaceOnUse"
       id="clipPath19994">
      <path
         d="m 4184.8878,2965.9909 h 1416.7143 c 0,-782.4297 -634.2846,-1416.7143 -1416.7143,-1416.7143 V 2965.9909 L 7352.7765,1549.2767 h 302.3559 v 1416.7142 c 0,-488.2499 -103.0298,-971.0046 -302.3559,-1416.7142 h 302.3559 v 1416.7142 h -302.3559 c 0,-491.7959 -114.5021,-976.8379 -334.4386,-1416.7142 h 334.4386 v 1416.7142 h -334.4386 c 0,-497.3701 -130.9209,-985.9779 -379.6041,-1416.7142 h 379.6041 V 2965.9909 H 6638.7338 V 1549.2767 h -442.5035 v 1416.7142 h 442.5035 c 0,-507.4539 -157.3248,-1002.4272 -450.3094,-1416.7573 l -586.8223,0.022 -1416.7143,0.021 V 2965.9909 L 7655.1324,1549.2767 4184.8878,2965.9909 7352.7765,1549.2767 H 7018.3379 L 4184.8878,2965.9909 7018.3379,1549.2767 h -379.6041 -442.5035 v 1416.7142 h 442.5035 c 0,-507.4539 -157.3248,-1002.4272 -450.3094,-1416.7573 v 1416.7573 h -586.8223 c 0,-782.4297 -634.2846,-1416.7143 -1416.7143,-1416.7143 l 1416.7143,-0.021 V 2965.9914 H 4184.8878 L 6638.7338,1549.2767 4184.8878,2965.9909 6196.2303,1549.2767 4184.8878,2965.9909 5601.6021,1549.2551 Z"
         clip-rule="evenodd"
         id="path19992" />
    </clipPath>
    <clipPath
       clipPathUnits="userSpaceOnUse"
       id="clipPath19998">
      <path
         d="M 0,0 H 14033 V 9917 H 0 Z"
         clip-rule="evenodd"
         id="path19996" />
    </clipPath>
    <clipPath
       clipPathUnits="userSpaceOnUse"
       id="clipPath20002">
      <path
         d="m 5601.6021,2965.9909 h 586.8223 c 0,-531.3709 -211.0863,-1040.9783 -586.8223,-1416.7143 z"
         clip-rule="evenodd"
         id="path20000" />
    </clipPath>
    <clipPath
       clipPathUnits="userSpaceOnUse"
       id="clipPath20006">
      <path
         d="M 0,0 H 14033 V 9917 H 0 Z"
         clip-rule="evenodd"
         id="path20004" />
    </clipPath>
    <clipPath
       clipPathUnits="userSpaceOnUse"
       id="clipPath20010">
      <path
         d="M 6188.4244,2965.9909 V 1549.2336 l -586.8223,0.022 v 0.021 c 375.736,375.736 586.8223,885.3434 586.8223,1416.7143"
         clip-rule="evenodd"
         id="path20008" />
    </clipPath>
  </defs>
  <g
     inkscape:label="Layer 1"
     inkscape:groupmode="layer"
     id="layer1">
    <text
       xml:space="preserve"
       transform="scale(0.26458333)"
       id="text57751"
       style="font-style:normal;font-weight:normal;font-size:40px;line-height:1.25;font-family:sans-serif;white-space:pre;shape-inside:url(#rect57753);fill:#000000;fill-opacity:1;stroke:none;stroke-width:2.66667;stroke-miterlimit:4;stroke-dasharray:none" />
    <text
       xml:space="preserve"
       style="font-style:normal;font-weight:normal;font-size:10.5833px;line-height:1.25;font-family:sans-serif;fill:#000000;fill-opacity:1;stroke:none;stroke-width:0.705556;stroke-miterlimit:4;stroke-dasharray:none"
       x="54.975067"
       y="146.39041"
       id="text602693"><tspan
         sodipodi:role="line"
         id="tspan602691"
         style="stroke-width:0.705556;stroke-miterlimit:4;stroke-dasharray:none"
         x="54.975067"
         y="146.39041" /><tspan
         sodipodi:role="line"
         style="stroke-width:0.705556;stroke-miterlimit:4;stroke-dasharray:none"
         id="tspan602695"
         x="54.975067"
         y="159.61954" /><tspan
         sodipodi:role="line"
         style="stroke-width:0.705556;stroke-miterlimit:4;stroke-dasharray:none"
         x="54.975067"
         y="172.84866"
         id="tspan602697" /></text>
    <rect
       style="fill:#008080;fill-rule:evenodd;stroke-width:0.264583"
       id="rect20879"
       width="160"
       height="90"
       x="0"
       y="0"
       sodipodi:insensitive="true" />
    <rect
       style="fill:#008080;fill-rule:evenodd;stroke-width:0.264583"
       id="rect20961"
       width="160"
       height="90"
       x="171.35417"
       y="0"
       sodipodi:insensitive="true" />
    <rect
       style="fill:#008080;fill-rule:evenodd;stroke-width:0.264583"
       id="rect20963"
       width="160"
       height="90"
       x="342.70834"
       y="0"
       sodipodi:insensitive="true" />
    <text
       xml:space="preserve"
       style="font-style:normal;font-variant:normal;font-weight:normal;font-stretch:normal;font-size:13.8205px;line-height:1.25;font-family:'Fira Sans';-inkscape-font-specification:'Fira Sans, Normal';font-variant-ligatures:normal;font-variant-position:normal;font-variant-caps:normal;font-variant-numeric:normal;font-variant-alternates:normal;font-variant-east-asian:normal;font-feature-settings:normal;font-variation-settings:normal;text-indent:0;text-align:start;text-decoration-line:none;text-decoration-style:solid;text-decoration-color:#000000;letter-spacing:0px;word-spacing:0px;text-transform:none;writing-mode:lr-tb;direction:ltr;text-orientation:mixed;dominant-baseline:auto;baseline-shift:baseline;text-anchor:start;white-space:normal;shape-padding:0;shape-margin:0;inline-size:0;fill:#008080;fill-opacity:1;stroke-width:0.705556;stroke-linecap:butt;stroke-linejoin:miter;stroke-miterlimit:4;stroke-dasharray:none;stroke-dashoffset:0;stroke-opacity:1;stop-color:#000000"
       x="257.43604"
       y="49.991062"
       id="text115351"
       transform="translate(-183.03334,-168.46204)"><tspan
         sodipodi:role="line"
         id="tspan115349"
         style="font-style:normal;font-variant:normal;font-weight:normal;font-stretch:normal;font-size:13.8205px;line-height:1.25;font-family:'Fira Sans';-inkscape-font-specification:'Fira Sans, Normal';font-variant-ligatures:normal;font-variant-position:normal;font-variant-caps:normal;font-variant-numeric:normal;font-variant-alternates:normal;font-variant-east-asian:normal;font-feature-settings:normal;font-variation-settings:normal;text-indent:0;text-align:start;text-decoration-line:none;text-decoration-style:solid;text-decoration-color:#000000;letter-spacing:0px;word-spacing:0px;text-transform:none;writing-mode:lr-tb;direction:ltr;text-orientation:mixed;dominant-baseline:auto;baseline-shift:baseline;text-anchor:start;white-space:normal;shape-padding:0;shape-margin:0;inline-size:0;fill:#008080;fill-opacity:1;stroke-width:0.705556;stroke-linecap:butt;stroke-linejoin:miter;stroke-miterlimit:4;stroke-dasharray:none;stroke-dashoffset:0;stroke-opacity:1;stop-color:#000000;stop-opacity:1"
         x="257.43604"
         y="49.991062">Φ</tspan></text>
    <path
       style="fill:none;stroke:#ffffff;stroke-width:0.705556;stroke-linecap:butt;stroke-linejoin:miter;stroke-miterlimit:4;stroke-dasharray:none;stroke-opacity:1"
       d="m 98.529565,-0.23847694 c 0,89.95768694 0,90.37684794 0,90.37684794"
       id="path20362" />
    <path
       style="fill:none;stroke:#ffffff;stroke-width:0.705556;stroke-linecap:butt;stroke-linejoin:miter;stroke-miterlimit:4;stroke-dasharray:none;stroke-opacity:1"
       d="m 61.470435,-0.23847694 c 0,89.95768694 0,90.37684794 0,90.37684794"
       id="path20464" />
    <path
       style="fill:none;stroke:#ffffff;stroke-width:0.705556;stroke-linecap:butt;stroke-linejoin:miter;stroke-miterlimit:4;stroke-dasharray:none;stroke-opacity:1"
       d="m 302.51811,-0.23847694 c 0,89.95768694 0,90.37684794 0,90.37684794"
       id="path22593" />
    <path
       style="fill:none;stroke:#ffffff;stroke-width:0.705556;stroke-linecap:butt;stroke-linejoin:miter;stroke-miterlimit:4;stroke-dasharray:none;stroke-opacity:1"
       d="m 200.19023,-0.23847694 c 0,89.95768694 0,90.37684794 0,90.37684794"
       id="path22597" />
    <path
       style="fill:none;stroke:#ffffff;stroke-width:0.705556;stroke-linecap:butt;stroke-linejoin:miter;stroke-miterlimit:4;stroke-dasharray:none;stroke-opacity:1"
       d="m 395.93399,-0.23847694 c 0,89.95768694 0,90.37684794 0,90.37684794"
       id="path22816" />
    <path
       style="fill:none;stroke:#ffffff;stroke-width:0.705556;stroke-linecap:butt;stroke-linejoin:miter;stroke-miterlimit:4;stroke-dasharray:none;stroke-opacity:1"
       d="m 449.2489,-0.23847694 c 0,89.95768694 0,90.37684794 0,90.37684794"
       id="path22818" />
    <path
       style="fill:none;stroke:#ffffff;stroke-width:0.705556;stroke-linecap:butt;stroke-linejoin:miter;stroke-miterlimit:4;stroke-dasharray:none;stroke-opacity:1"
       d="m 158.82572,55.422878 c -157.5395103,0 -158.27357123,0 -158.27357123,0"
       id="path23112" />
    <path
       style="fill:none;stroke:#ffffff;stroke-width:0.705556;stroke-linecap:butt;stroke-linejoin:miter;stroke-miterlimit:4;stroke-dasharray:none;stroke-opacity:1"
       d="m 158.82572,34.577118 c -157.5395103,0 -158.27357123,0 -158.27357123,0"
       id="path23114" />
    <path
       style="fill:none;stroke:#ffffff;stroke-width:0.705556;stroke-linecap:butt;stroke-linejoin:miter;stroke-miterlimit:4;stroke-dasharray:none;stroke-opacity:1"
       d="m 330.59141,73.845139 c -158.63642,0 -159.37559,0 -159.37559,0"
       id="path23505" />
    <path
       style="fill:none;stroke:#ffffff;stroke-width:0.705556;stroke-linecap:butt;stroke-linejoin:miter;stroke-miterlimit:4;stroke-dasharray:none;stroke-opacity:1"
       d="m 330.59141,16.517883 c -158.63642,0 -159.37559,0 -159.37559,0"
       id="path23507" />
    <path
       style="fill:none;stroke:#ffffff;stroke-width:0.705556;stroke-linecap:butt;stroke-linejoin:miter;stroke-miterlimit:4;stroke-dasharray:none;stroke-opacity:1"
       d="m 502.17125,29.939427 c -158.86106,0 -159.60127,0 -159.60127,0"
       id="path23672" />
    <path
       style="fill:none;stroke:#ffffff;stroke-width:0.705556;stroke-linecap:butt;stroke-linejoin:miter;stroke-miterlimit:4;stroke-dasharray:none;stroke-opacity:1"
       d="m 502.17125,59.929064 c -158.86106,0 -159.60127,0 -159.60127,0"
       id="path23674" />
    <path
       style="fill:none;stroke:#ff6600;stroke-width:2.46944;stroke-linecap:round;stroke-linejoin:round;stroke-miterlimit:4;stroke-dasharray:none;stroke-opacity:1"
       d="m 98.529565,13.31805 c 0,62.970381 0,63.263794 0,63.263794"
       id="path24158" />
    <path
       style="fill:none;stroke:#ff6600;stroke-width:2.46944;stroke-linecap:round;stroke-linejoin:round;stroke-miterlimit:4;stroke-dasharray:none;stroke-opacity:1"
       d="m 302.34172,13.31805 c 0,62.970381 0,63.263794 0,63.263794"
       id="path24364" />
    <path
       style="fill:none;stroke:#ff6600;stroke-width:2.46944;stroke-linecap:round;stroke-linejoin:round;stroke-miterlimit:4;stroke-dasharray:none;stroke-opacity:1"
       d="m 449.07251,13.31805 c 0,62.970381 0,63.263794 0,63.263794"
       id="path24366" />
  </g>
</svg>
