<?xml version="1.0" encoding="UTF-8" standalone="no"?>
<!-- Created with Inkscape (http://www.inkscape.org/) -->

<svg
   width="1200"
   height="300"
   viewBox="0 0 317.49999 79.375004"
   version="1.1"
   id="svg5"
   inkscape:version="1.1 (c68e22c387, 2021-05-23)"
   sodipodi:docname="photo-speed-aperture-iso.svg"
   xmlns:inkscape="http://www.inkscape.org/namespaces/inkscape"
   xmlns:sodipodi="http://sodipodi.sourceforge.net/DTD/sodipodi-0.dtd"
   xmlns="http://www.w3.org/2000/svg"
   xmlns:svg="http://www.w3.org/2000/svg">
  <sodipodi:namedview
     id="namedview7"
     pagecolor="#ffffff"
     bordercolor="#666666"
     borderopacity="1.0"
     inkscape:pageshadow="2"
     inkscape:pageopacity="0.0"
     inkscape:pagecheckerboard="0"
     inkscape:document-units="mm"
     showgrid="false"
     inkscape:zoom="0.77772769"
     inkscape:cx="426.24174"
     inkscape:cy="181.94029"
     inkscape:window-width="1920"
     inkscape:window-height="989"
     inkscape:window-x="-9"
     inkscape:window-y="-9"
     inkscape:window-maximized="1"
     inkscape:current-layer="layer1"
     units="px"
     width="1200px"
     inkscape:snap-bbox="true"
     inkscape:snap-bbox-midpoints="true"
     inkscape:snap-object-midpoints="true"
     inkscape:snap-bbox-edge-midpoints="true"
     showguides="true"
     inkscape:guide-bbox="true">
    <sodipodi:guide
       position="0,105.83334"
       orientation="0,1200"
       id="guide236407" />
    <sodipodi:guide
       position="317.50001,105.83334"
       orientation="400,0"
       id="guide236409" />
    <sodipodi:guide
       position="317.50001,0"
       orientation="0,-1200"
       id="guide236411" />
    <sodipodi:guide
       position="0,0"
       orientation="-400,0"
       id="guide236413" />
    <sodipodi:guide
       position="385.10036,57.499299"
       orientation="1,0"
       id="guide71869" />
    <sodipodi:guide
       position="88.15855,121.41585"
       orientation="0,-1"
       id="guide71871" />
  </sodipodi:namedview>
  <defs
     id="defs2">
    <rect
       x="64.268578"
       y="452.86444"
       width="237.74532"
       height="267.91397"
       id="rect584158" />
    <rect
       x="49.917774"
       y="-284.89774"
       width="299.17294"
       height="236.87001"
       id="rect262369" />
    <rect
       x="48.479023"
       y="-229.50354"
       width="376.47485"
       height="396.86792"
       id="rect696309" />
    <rect
       x="135.77975"
       y="-334.41962"
       width="345.19617"
       height="255.59877"
       id="rect580217" />
    <rect
       x="537.6828"
       y="596.96564"
       width="146.22623"
       height="175.72003"
       id="rect57753" />
    <rect
       x="313.01096"
       y="592.36932"
       width="334.12207"
       height="239.64877"
       id="rect10200" />
    <rect
       x="48.479023"
       y="-229.50354"
       width="522.71075"
       height="380.22006"
       id="rect45947" />
    <rect
       x="48.479023"
       y="-229.50354"
       width="546.63867"
       height="380.91187"
       id="rect61053" />
    <rect
       x="48.479023"
       y="-229.50354"
       width="546.63867"
       height="380.91187"
       id="rect696309-9" />
    <rect
       x="48.479023"
       y="-229.50354"
       width="546.63867"
       height="380.91187"
       id="rect696309-3" />
    <rect
       x="48.479023"
       y="-229.50354"
       width="546.63867"
       height="380.91187"
       id="rect696309-1" />
    <rect
       x="48.479023"
       y="-229.50354"
       width="546.63867"
       height="380.91187"
       id="rect696309-4" />
    <rect
       x="48.479023"
       y="-229.50354"
       width="376.47485"
       height="396.86792"
       id="rect319832" />
    <rect
       x="48.479023"
       y="-229.50354"
       width="376.47485"
       height="396.86792"
       id="rect363358" />
    <rect
       x="48.479023"
       y="-229.50354"
       width="376.47485"
       height="396.86792"
       id="rect612387" />
    <rect
       x="48.479023"
       y="-229.50354"
       width="376.47485"
       height="396.86792"
       id="rect624326" />
    <rect
       x="48.479023"
       y="-229.50354"
       width="376.47485"
       height="396.86792"
       id="rect748604" />
    <rect
       x="48.479023"
       y="-229.50354"
       width="376.47485"
       height="396.86792"
       id="rect776264" />
  </defs>
  <g
     inkscape:label="Layer 1"
     inkscape:groupmode="layer"
     id="layer1">
    <path
       sodipodi:type="star"
       style="fill:#008080;stroke-width:2.89134"
       id="path59269"
       inkscape:flatsided="false"
       sodipodi:sides="3"
       sodipodi:cx="549.44995"
       sodipodi:cy="167.55627"
       sodipodi:r1="92.87207"
       sodipodi:r2="46.436035"
       sodipodi:arg1="0.52359878"
       sodipodi:arg2="1.5707963"
       inkscape:rounded="0"
       inkscape:randomized="0"
       d="m 629.87952,213.99231 -80.42957,0 -80.42957,0 40.21478,-69.65405 40.21479,-69.654056 40.21479,69.654056 z"
       transform="matrix(0.11203233,-0.06468189,-0.06468189,-0.11203233,90.487023,76.014394)"
       inkscape:transform-center-x="3.0035619"
       inkscape:transform-center-y="7.9711159e-06" />
    <rect
       style="fill:#008080;stroke-width:0.6885"
       id="rect59271"
       width="20.994991"
       height="10.404675"
       x="-167.73123"
       y="16.500875"
       transform="scale(-1,1)" />
    <circle
       style="fill:#afdde9;stroke-width:0.897278;-inkscape-stroke:none;stop-color:#000000"
       id="circle1459"
       cx="236.71915"
       cy="36.421928"
       r="16.787804" />
    <circle
       style="fill:#006680;stroke-width:0.709297;-inkscape-stroke:none;stop-color:#000000"
       id="circle1461"
       cx="240.23622"
       cy="36.421928"
       r="13.27073" />
    <circle
       style="fill:#ffeeaa;stroke-width:0.97202;-inkscape-stroke:none;stop-color:#000000"
       id="circle1481"
       cx="44.674175"
       cy="34.789299"
       r="18.186207" />
    <rect
       style="fill:none;fill-rule:evenodd;stroke-width:0.234872"
       id="rect76783"
       width="79.375"
       height="79.375"
       x="0"
       y="-5.0000003e-06" />
    <text
       xml:space="preserve"
       transform="scale(0.26458333)"
       id="text57751"
       style="font-style:normal;font-weight:normal;font-size:40px;line-height:1.25;font-family:sans-serif;white-space:pre;shape-inside:url(#rect57753);fill:#000000;fill-opacity:1;stroke:none" />
    <text
       xml:space="preserve"
       style="font-style:normal;font-weight:normal;font-size:10.5833px;line-height:1.25;font-family:sans-serif;fill:#000000;fill-opacity:1;stroke:none;stroke-width:0.264583"
       x="54.975067"
       y="146.39041"
       id="text602693"><tspan
         sodipodi:role="line"
         id="tspan602691"
         style="stroke-width:0.264583"
         x="54.975067"
         y="146.39041" /><tspan
         sodipodi:role="line"
         style="stroke-width:0.264583"
         id="tspan602695"
         x="54.975067"
         y="159.61954" /><tspan
         sodipodi:role="line"
         style="stroke-width:0.264583"
         x="54.975067"
         y="172.84866"
         id="tspan602697" /></text>
    <circle
       style="fill:#ffdd55;stroke-width:0.810017;-inkscape-stroke:none;stop-color:#000000"
       id="path71724"
       cx="44.674175"
       cy="34.789299"
       r="15.155172" />
    <rect
       style="fill:none;fill-rule:evenodd;stroke-width:0.234872"
       id="rect76865"
       width="79.375"
       height="79.375"
       x="238.125"
       y="-5.0000003e-06" />
    <path
       style="fill:#008080;fill-opacity:1;stroke:none;stroke-width:0.234872px;stroke-linecap:butt;stroke-linejoin:miter;stroke-opacity:1"
       d="M 288.01366,35.868886 V 71.602165 L 257.06772,53.735525 V 18.002238 Z"
       id="path76867" />
    <path
       style="fill:#165044;fill-opacity:1;stroke:none;stroke-width:0.234872px;stroke-linecap:butt;stroke-linejoin:miter;stroke-opacity:1"
       d="m 302.73525,27.16169 -14.72159,8.707196 v 35.733279 l 14.72159,-8.166561"
       id="path76869"
       sodipodi:nodetypes="cccc" />
    <rect
       style="fill:#008080;fill-opacity:1;fill-rule:evenodd;stroke:none;stroke-width:0.145012"
       id="rect76871"
       width="24.464909"
       height="24.464893"
       x="-348.94086"
       y="128.74152"
       transform="matrix(-0.83451193,-0.55098987,-0.05991526,-0.99820347,0,0)" />
    <path
       id="path76873"
       style="fill:#37c8ab;stroke:none;stroke-width:0.321454;stop-color:#000000"
       d="m 257.06772,53.735526 -8.57291,-13.390083 15.88263,-9.169837 8.16326,13.626592 7.71936,13.882925 -15.88262,9.169836 z"
       sodipodi:nodetypes="ccccccc" />
    <ellipse
       style="fill:#008080;fill-opacity:1;stroke:none;stroke-width:0.661756;-inkscape-stroke:none;stop-color:#000000"
       id="ellipse76875"
       cx="-336.7084"
       cy="140.974"
       rx="12.381235"
       ry="12.381227"
       transform="matrix(-0.83451193,-0.55098987,-0.05991526,-0.99820347,0,0)" />
    <ellipse
       style="fill:#008080;fill-opacity:1;stroke:none;stroke-width:0.661756;-inkscape-stroke:none;stop-color:#000000"
       id="ellipse76877"
       cx="-316.73288"
       cy="120.99847"
       rx="12.381235"
       ry="12.381227"
       transform="matrix(-0.83451193,-0.55098987,-0.05991526,-0.99820347,0,0)" />
    <path
       style="fill:#5fd3bc;fill-opacity:1;stroke:none;stroke-width:0.234872px;stroke-linecap:butt;stroke-linejoin:miter;stroke-opacity:1"
       d="M 302.73525,27.161689 288.01366,35.868885 257.06773,18.002238 271.94228,9.7938011 Z"
       id="path76879" />
    <ellipse
       style="fill:#ffffff;fill-opacity:1;stroke:none;stroke-width:0.476465;-inkscape-stroke:none;stop-color:#000000"
       id="ellipse76881"
       cx="-316.73288"
       cy="120.99847"
       rx="8.9144888"
       ry="8.914484"
       transform="matrix(-0.83451193,-0.55098987,-0.05991526,-0.99820347,0,0)" />
    <rect
       style="fill:none;fill-rule:evenodd;stroke-width:0.234872"
       id="rect76901"
       width="79.375"
       height="79.375"
       x="238.125"
       y="-5.0000003e-06" />
    <path
       style="fill:#008080;fill-opacity:1;stroke:none;stroke-width:0.234872px;stroke-linecap:butt;stroke-linejoin:miter;stroke-opacity:1"
       d="M 98.052538,35.868886 V 71.602165 L 67.106594,53.735525 V 18.002238 Z"
       id="path1804" />
    <path
       style="fill:#165044;fill-opacity:1;stroke:none;stroke-width:0.234872px;stroke-linecap:butt;stroke-linejoin:miter;stroke-opacity:1"
       d="M 112.77413,27.16169 98.052538,35.868886 V 71.602165 L 112.77413,63.435604"
       id="path1806"
       sodipodi:nodetypes="cccc" />
    <rect
       style="fill:#008080;fill-opacity:1;fill-rule:evenodd;stroke:none;stroke-width:0.145012"
       id="rect1808"
       width="24.464909"
       height="24.464893"
       x="-111.91605"
       y="-2.0917995"
       transform="matrix(-0.83451193,-0.55098987,-0.05991526,-0.99820347,0,0)" />
    <path
       id="path1810"
       style="fill:#37c8ab;stroke:none;stroke-width:0.321454;stop-color:#000000"
       d="m 67.106594,53.735526 -8.57291,-13.390083 15.88263,-9.169837 8.163261,13.626592 7.71936,13.882925 -15.882621,9.169836 z"
       sodipodi:nodetypes="ccccccc" />
    <ellipse
       style="fill:#008080;fill-opacity:1;stroke:none;stroke-width:0.661756;-inkscape-stroke:none;stop-color:#000000"
       id="ellipse1812"
       cx="-99.683594"
       cy="10.140683"
       rx="12.381235"
       ry="12.381227"
       transform="matrix(-0.83451193,-0.55098987,-0.05991526,-0.99820347,0,0)" />
    <ellipse
       style="fill:#008080;fill-opacity:1;stroke:none;stroke-width:0.661756;-inkscape-stroke:none;stop-color:#000000"
       id="ellipse1814"
       cx="-79.708069"
       cy="-9.8348513"
       rx="12.381235"
       ry="12.381227"
       transform="matrix(-0.83451193,-0.55098987,-0.05991526,-0.99820347,0,0)" />
    <path
       style="fill:#5fd3bc;fill-opacity:1;stroke:none;stroke-width:0.234872px;stroke-linecap:butt;stroke-linejoin:miter;stroke-opacity:1"
       d="M 112.77413,27.161689 98.052538,35.868885 67.106604,18.002238 81.981155,9.7938011 Z"
       id="path1816" />
    <ellipse
       style="fill:#ffffff;fill-opacity:1;stroke:none;stroke-width:0.238232;-inkscape-stroke:none;stop-color:#000000"
       id="ellipse1818"
       cx="-79.708069"
       cy="-9.8348513"
       rx="4.4572444"
       ry="4.457242"
       transform="matrix(-0.83451193,-0.55098987,-0.05991526,-0.99820347,0,0)" />
    <circle
       style="fill:#008080;stroke-width:0.551093;-inkscape-stroke:none;stop-color:#000000"
       id="circle1887"
       cx="168.20749"
       cy="21.703209"
       r="10.310774" />
    <path
       sodipodi:type="star"
       style="fill:#008080;stroke-width:2.89134"
       id="path9059"
       inkscape:flatsided="false"
       sodipodi:sides="3"
       sodipodi:cx="549.44995"
       sodipodi:cy="167.55627"
       sodipodi:r1="92.87207"
       sodipodi:r2="46.436035"
       sodipodi:arg1="0.52359878"
       sodipodi:arg2="1.5707963"
       inkscape:rounded="0"
       inkscape:randomized="0"
       d="m 629.87952,213.99231 -80.42957,0 -80.42957,0 40.21478,-69.65405 40.21479,-69.654056 40.21479,69.654056 z"
       transform="matrix(-0.11203233,-0.06468189,0.06468189,-0.11203233,245.92792,76.014393)"
       inkscape:transform-center-x="-3.0035602"
       inkscape:transform-center-y="7.8711159e-06" />
    <rect
       style="fill:#008080;stroke-width:0.6885"
       id="rect9217"
       width="20.994991"
       height="10.404675"
       x="168.68372"
       y="16.500875" />
    <g
       aria-label="S"
       id="text4465"
       style="font-size:13.7481px;line-height:1.25;font-family:'Libre Franklin';-inkscape-font-specification:'Libre Franklin, Normal';fill:#ffffff;stroke-width:0.343703"
       transform="matrix(0.9,0,0,0.9,16.820747,4.1589425)">
      <path
         d="m 170.60791,16.343965 q -0.35745,-0.426191 -0.92113,-0.728649 -0.56367,-0.302458 -1.41605,-0.302458 -1.03111,0 -1.62228,0.453687 -0.59116,0.453687 -0.59116,1.264825 0,0.21997 0.0962,0.50868 0.10999,0.28871 0.42619,0.563672 0.31621,0.274962 0.94862,0.494931 l 1.99348,0.659909 q 1.25107,0.412443 1.7735,1.099848 0.52243,0.673657 0.52243,1.59478 0,0.879878 -0.43994,1.526039 -0.43994,0.632413 -1.25108,0.976115 -0.81113,0.329955 -1.95223,0.329955 -0.82488,0 -1.52604,-0.192474 -0.70115,-0.206221 -1.25107,-0.57742 -0.53618,-0.384947 -0.92113,-0.948619 -0.0687,-0.09624 -0.055,-0.164977 0.0275,-0.08249 0.13748,-0.164977 l 0.49493,-0.343703 q 0.13748,-0.08249 0.20623,-0.08249 0.0825,0 0.13748,0.08249 0.3712,0.467436 0.72865,0.783642 0.35745,0.302458 0.82488,0.453687 0.48119,0.151229 1.16859,0.151229 1.0861,0 1.75976,-0.384947 0.67365,-0.398694 0.67365,-1.306069 0,-0.343703 -0.13748,-0.618665 -0.13748,-0.28871 -0.46743,-0.522427 -0.32996,-0.247466 -0.94862,-0.481184 l -2.08971,-0.714901 q -0.75615,-0.261214 -1.22358,-0.673657 -0.46744,-0.412443 -0.68741,-0.907375 -0.20622,-0.494931 -0.20622,-1.017359 0,-0.86613 0.43994,-1.498543 0.43994,-0.646161 1.20983,-0.989863 0.78364,-0.357451 1.8285,-0.357451 0.70115,0 1.27857,0.164977 0.59117,0.164978 1.07235,0.467436 0.49494,0.302458 0.86613,0.728649 0.055,0.05499 0.0688,0.123733 0.0137,0.06874 -0.0688,0.137481 l -0.63241,0.494932 q -0.0687,0.04124 -0.10998,0.0275 -0.0412,-0.0275 -0.13748,-0.109985 z"
         id="path95424" />
    </g>
    <g
       aria-label="-"
       id="text9323"
       style="font-size:35.4944px;line-height:1.25;opacity:1;vector-effect:none;fill:#5fd3bc;stroke-width:0.234872px;stop-color:#000000;stop-opacity:1"
       transform="matrix(0.9,0,0,0.9,16.820747,4.1589425)">
      <path
         d="m 201.70567,21.00033 q 0,0.56791 -0.70988,0.56791 h -8.16372 q -0.28395,0 -0.42593,-0.106483 -0.10648,-0.106483 -0.10648,-0.390438 v -1.881204 q 0,-0.496921 0.39044,-0.496921 h 8.58964 q 0.42593,0 0.42593,0.390438 z"
         style="font-weight:500;font-family:'Libre Franklin';-inkscape-font-specification:'Libre Franklin, Medium';vector-effect:none;stop-color:#000000;stop-opacity:1"
         id="path94776" />
    </g>
    <g
       aria-label="+"
       id="text59275"
       style="font-size:27.8915px;line-height:1.25;opacity:1;vector-effect:none;fill:#5fd3bc;stroke-width:0.234872px;stop-color:#000000;stop-opacity:1"
       transform="matrix(0.81,0,0,0.81,29.413548,5.9196833)">
      <path
         d="m 146.20956,20.247129 q 0,0.446264 -0.55783,0.446264 l -11.60286,0.02789 q -0.22314,0 -0.3347,-0.08367 -0.0837,-0.111566 -0.0837,-0.334698 v -1.450358 q 0,-0.390481 0.27892,-0.390481 h 11.96545 q 0.3347,0 0.3347,0.306806 z m -6.94498,5.606191 q -0.47416,0 -0.47416,-0.529938 V 13.720517 q 0,-0.251023 0.0837,-0.334698 0.0837,-0.111566 0.3068,-0.111566 h 1.47825 q 0.36259,0 0.36259,0.306807 l 0.0279,11.965454 q 0,0.306806 -0.33469,0.306806 z"
         style="font-weight:500;font-family:'Libre Franklin';-inkscape-font-specification:'Libre Franklin, Medium';vector-effect:none;stop-color:#000000;stop-opacity:1"
         id="path94755" />
    </g>
    <path
       sodipodi:type="star"
       style="fill:#008080;stroke-width:2.89134"
       id="path82498"
       inkscape:flatsided="false"
       sodipodi:sides="3"
       sodipodi:cx="549.44995"
       sodipodi:cy="167.55627"
       sodipodi:r1="92.87207"
       sodipodi:r2="46.436035"
       sodipodi:arg1="0.52359878"
       sodipodi:arg2="1.5707963"
       inkscape:rounded="0"
       inkscape:randomized="0"
       d="m 629.87952,213.99231 -80.42957,0 -80.42957,0 40.21478,-69.65405 40.21479,-69.654056 40.21479,69.654056 z"
       transform="matrix(0.11203233,-0.06468189,-0.06468189,-0.11203233,90.487023,96.635923)"
       inkscape:transform-center-x="3.0035619"
       inkscape:transform-center-y="7.9711159e-06" />
    <rect
       style="fill:#008080;stroke-width:0.6885"
       id="rect82500"
       width="20.994991"
       height="10.404675"
       x="-167.73123"
       y="37.122414"
       transform="scale(-1,1)" />
    <circle
       style="fill:#008080;stroke-width:0.551093;-inkscape-stroke:none;stop-color:#000000"
       id="circle82502"
       cx="168.20749"
       cy="42.324757"
       r="10.310774" />
    <path
       sodipodi:type="star"
       style="fill:#008080;stroke-width:2.89134"
       id="path82504"
       inkscape:flatsided="false"
       sodipodi:sides="3"
       sodipodi:cx="549.44995"
       sodipodi:cy="167.55627"
       sodipodi:r1="92.87207"
       sodipodi:r2="46.436035"
       sodipodi:arg1="0.52359878"
       sodipodi:arg2="1.5707963"
       inkscape:rounded="0"
       inkscape:randomized="0"
       d="m 629.87952,213.99231 -80.42957,0 -80.42957,0 40.21478,-69.65405 40.21479,-69.654056 40.21479,69.654056 z"
       transform="matrix(-0.11203233,-0.06468189,0.06468189,-0.11203233,245.92792,96.635923)"
       inkscape:transform-center-x="-3.0035602"
       inkscape:transform-center-y="7.9711159e-06" />
    <rect
       style="fill:#008080;stroke-width:0.6885"
       id="rect82506"
       width="20.994991"
       height="10.404675"
       x="168.68372"
       y="37.122414" />
    <g
       aria-label="A"
       id="text82510"
       style="font-size:13.7481px;line-height:1.25;font-family:'Libre Franklin';-inkscape-font-specification:'Libre Franklin, Normal';fill:#ffffff;stroke-width:0.343703"
       transform="matrix(0.9,0,0,0.9,16.820747,4.1589425)">
      <path
         d="m 164.5175,47.560646 q -0.0825,0 -0.12373,-0.05499 -0.0275,-0.06874 0,-0.178726 l 3.56075,-9.774899 q 0.0412,-0.09624 0.0962,-0.137481 0.055,-0.05499 0.17873,-0.05499 h 1.07235 q 0.24746,0 0.3162,0.206221 l 3.51952,9.761151 q 0.0275,0.08249 -0.0138,0.164978 -0.0275,0.06874 -0.12373,0.06874 h -0.97612 q -0.16498,0 -0.21997,-0.137481 l -0.94862,-2.667131 q -0.0275,-0.05499 -0.055,-0.08249 -0.0275,-0.0275 -0.10998,-0.0275 h -4.0007 q -0.12374,0 -0.16498,0.109985 l -0.97611,2.680879 q -0.0137,0.05499 -0.0687,0.09624 -0.0413,0.0275 -0.13749,0.0275 h -0.82488 z m 5.81544,-3.959453 q 0.16498,0 0.10999,-0.178725 l -1.64977,-4.523125 q -0.055,-0.123733 -0.10999,-0.123733 -0.0412,0 -0.0825,0.123733 l -1.67726,4.550621 q -0.0687,0.151229 0.0825,0.151229 z"
         id="path95445" />
    </g>
    <g
       aria-label="-"
       id="text82514"
       style="font-size:35.4944px;line-height:1.25;opacity:1;vector-effect:none;fill:#5fd3bc;stroke-width:0.234872px;stop-color:#000000;stop-opacity:1"
       transform="matrix(0.9,0,0,0.9,16.820747,4.1589425)">
      <path
         d="m 201.70567,43.91316 q 0,0.56791 -0.70988,0.56791 h -8.16372 q -0.28395,0 -0.42593,-0.106483 -0.10648,-0.106483 -0.10648,-0.390438 v -1.881203 q 0,-0.496922 0.39044,-0.496922 h 8.58964 q 0.42593,0 0.42593,0.390438 z"
         style="font-weight:500;font-family:'Libre Franklin';-inkscape-font-specification:'Libre Franklin, Medium';vector-effect:none;stop-color:#000000;stop-opacity:1"
         id="path94797" />
    </g>
    <g
       aria-label="+"
       id="text82518"
       style="font-size:27.8915px;line-height:1.25;opacity:1;vector-effect:none;fill:#5fd3bc;stroke-width:0.234872px;stop-color:#000000;stop-opacity:1"
       transform="matrix(0.81,0,0,0.81,29.413548,7.9818381)">
      <path
         d="m 146.20956,43.159959 q 0,0.446264 -0.55783,0.446264 l -11.60286,0.02789 q -0.22314,0 -0.3347,-0.08367 -0.0837,-0.111566 -0.0837,-0.334698 v -1.450358 q 0,-0.390481 0.27892,-0.390481 h 11.96545 q 0.3347,0 0.3347,0.306806 z m -6.94498,5.606191 q -0.47416,0 -0.47416,-0.529938 V 36.633348 q 0,-0.251024 0.0837,-0.334698 0.0837,-0.111566 0.3068,-0.111566 h 1.47825 q 0.36259,0 0.36259,0.306806 l 0.0279,11.965454 q 0,0.306806 -0.33469,0.306806 z"
         style="font-weight:500;font-family:'Libre Franklin';-inkscape-font-specification:'Libre Franklin, Medium';vector-effect:none;stop-color:#000000;stop-opacity:1"
         id="path94818" />
    </g>
    <path
       sodipodi:type="star"
       style="fill:#008080;stroke-width:2.89134"
       id="path82520"
       inkscape:flatsided="false"
       sodipodi:sides="3"
       sodipodi:cx="549.44995"
       sodipodi:cy="167.55627"
       sodipodi:r1="92.87207"
       sodipodi:r2="46.436035"
       sodipodi:arg1="0.52359878"
       sodipodi:arg2="1.5707963"
       inkscape:rounded="0"
       inkscape:randomized="0"
       d="m 629.87952,213.99231 -80.42957,0 -80.42957,0 40.21478,-69.65405 40.21479,-69.654056 40.21479,69.654056 z"
       transform="matrix(0.11203233,-0.06468189,-0.06468189,-0.11203233,90.487023,115.78682)"
       inkscape:transform-center-x="3.0035619"
       inkscape:transform-center-y="2.9711156e-06" />
    <rect
       style="fill:#008080;stroke-width:0.6885"
       id="rect82522"
       width="20.994991"
       height="10.404675"
       x="-167.73123"
       y="56.273323"
       transform="scale(-1,1)" />
    <circle
       style="fill:#008080;stroke-width:0.551093;-inkscape-stroke:none;stop-color:#000000"
       id="circle82524"
       cx="168.20749"
       cy="61.475666"
       r="10.310774" />
    <path
       sodipodi:type="star"
       style="fill:#008080;stroke-width:2.89134"
       id="path82526"
       inkscape:flatsided="false"
       sodipodi:sides="3"
       sodipodi:cx="549.44995"
       sodipodi:cy="167.55627"
       sodipodi:r1="92.87207"
       sodipodi:r2="46.436035"
       sodipodi:arg1="0.52359878"
       sodipodi:arg2="1.5707963"
       inkscape:rounded="0"
       inkscape:randomized="0"
       d="m 629.87952,213.99231 -80.42957,0 -80.42957,0 40.21478,-69.65405 40.21479,-69.654056 40.21479,69.654056 z"
       transform="matrix(-0.11203233,-0.06468189,0.06468189,-0.11203233,245.92792,115.78682)"
       inkscape:transform-center-x="-3.0035602"
       inkscape:transform-center-y="2.9711156e-06" />
    <rect
       style="fill:#008080;stroke-width:0.6885"
       id="rect82528"
       width="20.994991"
       height="10.404675"
       x="168.68372"
       y="56.273323" />
    <g
       aria-label="ISO"
       id="text82532"
       style="font-weight:500;font-size:10.901px;line-height:1.25;font-family:'Libre Franklin';-inkscape-font-specification:'Libre Franklin, Medium';fill:#ffffff;stroke-width:0.272525"
       transform="matrix(0.9,0,0,0.9,16.820747,4.1589425)">
      <path
         d="m 161.48161,59.694615 q 0.14172,0 0.14172,0.163515 v 7.717908 q 0,0.119911 -0.0545,0.163515 -0.0436,0.0436 -0.17442,0.0436 h -0.89388 q -0.11991,0 -0.16351,-0.0327 -0.0327,-0.0436 -0.0327,-0.141713 v -7.75061 q 0,-0.163515 0.15262,-0.163515 z"
         id="path95466" />
      <path
         d="m 168.0222,61.329765 q -0.28343,-0.316129 -0.69767,-0.54505 -0.41424,-0.228921 -1.0792,-0.228921 -0.77397,0 -1.21001,0.32703 -0.42514,0.316129 -0.42514,0.882981 0,0.152614 0.0763,0.359733 0.0763,0.207119 0.30523,0.403337 0.23982,0.185317 0.68676,0.348832 l 1.63515,0.512347 q 0.99199,0.305228 1.41713,0.87208 0.43604,0.555951 0.43604,1.30812 0,0.719466 -0.37063,1.242714 -0.35974,0.523248 -1.0356,0.806674 -0.66496,0.272525 -1.59154,0.272525 -0.68677,0 -1.27542,-0.152614 -0.57775,-0.163515 -1.0356,-0.468743 -0.44694,-0.316129 -0.75217,-0.76307 -0.0436,-0.07631 -0.0327,-0.141713 0.0109,-0.06541 0.0981,-0.130812 l 0.53415,-0.370634 q 0.11991,-0.07631 0.18532,-0.06541 0.0654,0.0109 0.11991,0.07631 0.27252,0.348832 0.54505,0.588654 0.28342,0.239822 0.64316,0.359733 0.37063,0.10901 0.89388,0.10901 0.81757,0 1.30812,-0.283426 0.50144,-0.294327 0.50144,-0.926585 0,-0.250723 -0.0981,-0.446941 -0.0981,-0.207119 -0.33794,-0.370634 -0.23982,-0.174416 -0.69766,-0.337931 l -1.64605,-0.534149 q -0.62136,-0.207119 -1.01379,-0.534149 -0.38154,-0.32703 -0.56686,-0.741268 -0.18531,-0.414238 -0.18531,-0.850278 0,-0.697664 0.35973,-1.220912 0.35973,-0.523248 1.00289,-0.806674 0.64316,-0.294327 1.50434,-0.294327 0.57775,0 1.0574,0.141713 0.49054,0.130812 0.89388,0.381535 0.40334,0.239822 0.68676,0.577753 0.0436,0.0545 0.0545,0.10901 0.0218,0.0545 -0.0545,0.119911 l -0.62135,0.479644 q -0.0654,0.0436 -0.10901,0.0327 -0.0327,-0.0218 -0.10901,-0.09811 z"
         id="path95468" />
      <path
         d="m 173.71249,67.892167 q -1.101,0 -1.89677,-0.479644 -0.79577,-0.490545 -1.22091,-1.406229 -0.42514,-0.926585 -0.42514,-2.234705 0,-1.319021 0.43604,-2.256507 0.43604,-0.937486 1.23181,-1.428031 0.79577,-0.501446 1.88587,-0.501446 1.0792,0 1.86407,0.501446 0.79578,0.490545 1.22092,1.428031 0.43604,0.926585 0.43604,2.245606 0,1.30812 -0.42514,2.234705 -0.42514,0.915684 -1.22091,1.406229 -0.79578,0.490545 -1.88588,0.490545 z m 0.0109,-0.970189 q 1.0901,0 1.61335,-0.752169 0.53415,-0.76307 0.53415,-2.39822 0,-1.656952 -0.54505,-2.441824 -0.53415,-0.784872 -1.60245,-0.784872 -1.0901,0 -1.63515,0.795773 -0.54505,0.784872 -0.54505,2.430923 0,1.624249 0.54505,2.387319 0.54505,0.76307 1.63515,0.76307 z"
         id="path95470" />
    </g>
    <g
       aria-label="-"
       id="text82536"
       style="font-size:35.4944px;line-height:1.25;opacity:1;vector-effect:none;fill:#5fd3bc;stroke-width:0.234872px;stop-color:#000000;stop-opacity:1"
       transform="matrix(0.9,0,0,0.9,16.820747,4.1589425)">
      <path
         d="m 144.34348,65.191946 q 0,0.56791 -0.70989,0.56791 h -8.16371 q -0.28396,0 -0.42594,-0.106483 -0.10648,-0.106483 -0.10648,-0.390438 v -1.881204 q 0,-0.496921 0.39044,-0.496921 h 8.58964 q 0.42594,0 0.42594,0.390438 z"
         style="font-weight:500;font-family:'Libre Franklin';-inkscape-font-specification:'Libre Franklin, Medium';vector-effect:none;stop-color:#000000;stop-opacity:1"
         id="path94839" />
    </g>
    <g
       aria-label="+"
       id="text82540"
       style="font-size:27.8915px;line-height:1.25;opacity:1;vector-effect:none;fill:#5fd3bc;stroke-width:0.234872px;stop-color:#000000;stop-opacity:1"
       transform="matrix(0.81,0,0,0.81,34.396959,9.8969291)">
      <path
         d="m 201.58079,64.438748 q 0,0.446264 -0.55783,0.446264 l -11.60286,0.02789 q -0.22313,0 -0.3347,-0.08367 -0.0837,-0.111566 -0.0837,-0.334698 v -1.450358 q 0,-0.390481 0.27892,-0.390481 h 11.96545 q 0.3347,0 0.3347,0.306807 z m -6.94498,5.606192 q -0.47416,0 -0.47416,-0.529938 V 57.912137 q 0,-0.251023 0.0837,-0.334698 0.0837,-0.111566 0.3068,-0.111566 h 1.47825 q 0.36259,0 0.36259,0.306807 l 0.0279,11.965454 q 0,0.306806 -0.33469,0.306806 z"
         style="font-weight:500;font-family:'Libre Franklin';-inkscape-font-specification:'Libre Franklin, Medium';vector-effect:none;stop-color:#000000;stop-opacity:1"
         id="path95582" />
    </g>
  </g>
</svg>
