<?xml version="1.0" encoding="UTF-8" standalone="no"?>
<!-- Created with Inkscape (http://www.inkscape.org/) -->

<svg
   inkscape:version="1.1 (c68e22c387, 2021-05-23)"
   sodipodi:docname="fonts-serif.svg"
   id="SVGRoot"
   version="1.1"
   viewBox="0 0 1500 500"
   height="500"
   width="1500"
   xmlns:inkscape="http://www.inkscape.org/namespaces/inkscape"
   xmlns:sodipodi="http://sodipodi.sourceforge.net/DTD/sodipodi-0.dtd"
   xmlns="http://www.w3.org/2000/svg"
   xmlns:svg="http://www.w3.org/2000/svg">
  <sodipodi:namedview
     id="namedview32418"
     pagecolor="#505050"
     bordercolor="#eeeeee"
     borderopacity="1"
     inkscape:pageshadow="0"
     inkscape:pageopacity="0"
     inkscape:pagecheckerboard="0"
     inkscape:document-units="px"
     showgrid="false"
     inkscape:zoom="1.1673333"
     inkscape:cx="750"
     inkscape:cy="249.71445"
     inkscape:current-layer="layer1"
     inkscape:snap-bbox="true"
     inkscape:bbox-paths="true"
     inkscape:object-paths="true"
     inkscape:snap-bbox-midpoints="true"
     inkscape:snap-bbox-edge-midpoints="true"
     inkscape:window-width="1920"
     inkscape:window-height="989"
     inkscape:window-x="-9"
     inkscape:window-y="-9"
     inkscape:window-maximized="1" />
  <defs
     id="defs32413">
    <filter
       style="color-interpolation-filters:sRGB"
       inkscape:label="Greyscale"
       id="filter439502"
       x="-0.014759365"
       y="-0.011013929"
       width="1.0273222"
       height="1.0239658">
      <feColorMatrix
         values="0.21 0.72 0.072 0 0 0.21 0.72 0.072 0 0 0.21 0.72 0.072 0 0 0 0 0 1 0 "
         id="feColorMatrix439500" />
    </filter>
    <filter
       style="color-interpolation-filters:sRGB"
       inkscape:label="Greyscale"
       id="filter439506"
       x="-0.012198776"
       y="-0.0133698"
       width="1.0250034"
       height="1.0260875">
      <feColorMatrix
         values="0.21 0.72 0.072 0 0 0.21 0.72 0.072 0 0 0.21 0.72 0.072 0 0 0 0 0 1 0 "
         id="feColorMatrix439504" />
    </filter>
    <filter
       style="color-interpolation-filters:sRGB"
       inkscape:label="Greyscale"
       id="filter439510"
       x="-0.0097815869"
       y="-0.016557066"
       width="1.0227838"
       height="1.0289789">
      <feColorMatrix
         values="0.21 0.72 0.072 0 0 0.21 0.72 0.072 0 0 0.21 0.72 0.072 0 0 0 0 0 1 0 "
         id="feColorMatrix439508" />
    </filter>
    <filter
       style="color-interpolation-filters:sRGB"
       inkscape:label="Greyscale"
       id="filter439514"
       x="-0.0097927544"
       y="-0.012482116"
       width="1.0228409"
       height="1.0290717">
      <feColorMatrix
         values="0.21 0.72 0.072 0 0 0.21 0.72 0.072 0 0 0.21 0.72 0.072 0 0 0 0 0 1 0 "
         id="feColorMatrix439512" />
    </filter>
    <filter
       style="color-interpolation-filters:sRGB"
       inkscape:label="Greyscale"
       id="filter439518"
       x="-0.012221048"
       y="-0.012739026"
       width="1.0250626"
       height="1.0261874">
      <feColorMatrix
         values="0.21 0.72 0.072 0 0 0.21 0.72 0.072 0 0 0.21 0.72 0.072 0 0 0 0 0 1 0 "
         id="feColorMatrix439516" />
    </filter>
    <filter
       style="color-interpolation-filters:sRGB"
       inkscape:label="Greyscale"
       id="filter439522"
       x="-0.01483388"
       y="-0.012948699"
       width="1.0274705"
       height="1.024031">
      <feColorMatrix
         values="0.21 0.72 0.072 0 0 0.21 0.72 0.072 0 0 0.21 0.72 0.072 0 0 0 0 0 1 0 "
         id="feColorMatrix439520" />
    </filter>
    <filter
       style="color-interpolation-filters:sRGB"
       inkscape:label="Greyscale"
       id="filter439526"
       x="-0.014561634"
       y="-0.012651609"
       width="1.0290953"
       height="1.0230787">
      <feColorMatrix
         values="0.21 0.72 0.072 0 0 0.21 0.72 0.072 0 0 0.21 0.72 0.072 0 0 0 0 0 1 0 "
         id="feColorMatrix439524" />
    </filter>
    <filter
       style="color-interpolation-filters:sRGB"
       inkscape:label="Greyscale"
       id="filter439530"
       x="-0.012623959"
       y="-0.012938922"
       width="1.0274804"
       height="1.0239927">
      <feColorMatrix
         values="0.21 0.72 0.072 0 0 0.21 0.72 0.072 0 0 0.21 0.72 0.072 0 0 0 0 0 1 0 "
         id="feColorMatrix439528" />
    </filter>
    <filter
       style="color-interpolation-filters:sRGB"
       inkscape:label="Greyscale"
       id="filter439534"
       x="-0.012860469"
       y="-0.012725824"
       width="1.0251007"
       height="1.0261182">
      <feColorMatrix
         values="0.21 0.72 0.072 0 0 0.21 0.72 0.072 0 0 0.21 0.72 0.072 0 0 0 0 0 1 0 "
         id="feColorMatrix439532" />
    </filter>
    <filter
       style="color-interpolation-filters:sRGB"
       inkscape:label="Greyscale"
       id="filter439538"
       x="-0.012994008"
       y="-0.012420811"
       width="1.0228411"
       height="1.0289242">
      <feColorMatrix
         values="0.21 0.72 0.072 0 0 0.21 0.72 0.072 0 0 0.21 0.72 0.072 0 0 0 0 0 1 0 "
         id="feColorMatrix439536" />
    </filter>
    <filter
       style="color-interpolation-filters:sRGB"
       inkscape:label="Greyscale"
       id="filter439542"
       x="-0.012992011"
       y="-0.016474618"
       width="1.022725"
       height="1.0288349">
      <feColorMatrix
         values="0.21 0.72 0.072 0 0 0.21 0.72 0.072 0 0 0.21 0.72 0.072 0 0 0 0 0 1 0 "
         id="feColorMatrix439540" />
    </filter>
    <filter
       style="color-interpolation-filters:sRGB"
       inkscape:label="Greyscale"
       id="filter439546"
       x="-0.012777513"
       y="-0.013337689"
       width="1.0248979"
       height="1.0260091">
      <feColorMatrix
         values="0.21 0.72 0.072 0 0 0.21 0.72 0.072 0 0 0.21 0.72 0.072 0 0 0 0 0 1 0 "
         id="feColorMatrix439544" />
    </filter>
    <filter
       style="color-interpolation-filters:sRGB"
       inkscape:label="Greyscale"
       id="filter439550"
       x="-0.012523829"
       y="-0.010999327"
       width="1.0271902"
       height="1.023912">
      <feColorMatrix
         values="0.21 0.72 0.072 0 0 0.21 0.72 0.072 0 0 0.21 0.72 0.072 0 0 0 0 0 1 0 "
         id="feColorMatrix439548" />
    </filter>
    <filter
       style="color-interpolation-filters:sRGB"
       inkscape:label="Greyscale"
       id="filter439554"
       x="-0.014368828"
       y="-0.01043784"
       width="1.0288149"
       height="1.0230671">
      <feColorMatrix
         values="0.21 0.72 0.072 0 0 0.21 0.72 0.072 0 0 0.21 0.72 0.072 0 0 0 0 0 1 0 "
         id="feColorMatrix439552" />
    </filter>
    <filter
       style="color-interpolation-filters:sRGB"
       inkscape:label="Greyscale"
       id="filter503175"
       x="-0.0018665642"
       y="-0.013065955"
       width="1.0037332"
       height="1.0261319">
      <feColorMatrix
         values="0.618044 0.72381 -0.110563 -0.322094 0 0.618044 0.72381 -0.110563 -0.322094 0 0.618044 0.72381 -0.110563 -0.322094 0 0 0 0 1 0 "
         id="feColorMatrix503173" />
    </filter>
    <filter
       style="color-interpolation-filters:sRGB"
       inkscape:label="Greyscale"
       id="filter504073"
       x="-0.014368799"
       y="-0.010437819"
       width="1.0288149"
       height="1.0230671">
      <feColorMatrix
         values="0.618044 0.72381 -0.110563 -0.12 0 0.618044 0.72381 -0.110563 -0.12 0 0.618044 0.72381 -0.110563 -0.12 0 0 0 0 1 0 "
         id="feColorMatrix504071" />
    </filter>
    <filter
       style="color-interpolation-filters:sRGB"
       inkscape:label="Greyscale"
       id="filter504077"
       x="-0.012523803"
       y="-0.010999305"
       width="1.0271901"
       height="1.023912">
      <feColorMatrix
         values="0.618044 0.72381 -0.110563 -0.12 0 0.618044 0.72381 -0.110563 -0.12 0 0.618044 0.72381 -0.110563 -0.12 0 0 0 0 1 0 "
         id="feColorMatrix504075" />
    </filter>
    <filter
       style="color-interpolation-filters:sRGB"
       inkscape:label="Greyscale"
       id="filter504081"
       x="-0.012777488"
       y="-0.013337663"
       width="1.0248978"
       height="1.0260091">
      <feColorMatrix
         values="0.618044 0.72381 -0.110563 -0.12 0 0.618044 0.72381 -0.110563 -0.12 0 0.618044 0.72381 -0.110563 -0.12 0 0 0 0 1 0 "
         id="feColorMatrix504079" />
    </filter>
    <filter
       style="color-interpolation-filters:sRGB"
       inkscape:label="Greyscale"
       id="filter504085"
       x="-0.012991986"
       y="-0.016474584"
       width="1.022725"
       height="1.0288349">
      <feColorMatrix
         values="0.618044 0.72381 -0.110563 -0.12 0 0.618044 0.72381 -0.110563 -0.12 0 0.618044 0.72381 -0.110563 -0.12 0 0 0 0 1 0 "
         id="feColorMatrix504083" />
    </filter>
    <filter
       style="color-interpolation-filters:sRGB"
       inkscape:label="Greyscale"
       id="filter504089"
       x="-0.012993982"
       y="-0.012420786"
       width="1.022841"
       height="1.0289241">
      <feColorMatrix
         values="0.618044 0.72381 -0.110563 -0.12 0 0.618044 0.72381 -0.110563 -0.12 0 0.618044 0.72381 -0.110563 -0.12 0 0 0 0 1 0 "
         id="feColorMatrix504087" />
    </filter>
    <filter
       style="color-interpolation-filters:sRGB"
       inkscape:label="Greyscale"
       id="filter504093"
       x="-0.012860442"
       y="-0.012725798"
       width="1.0251006"
       height="1.026118">
      <feColorMatrix
         values="0.618044 0.72381 -0.110563 -0.12 0 0.618044 0.72381 -0.110563 -0.12 0 0.618044 0.72381 -0.110563 -0.12 0 0 0 0 1 0 "
         id="feColorMatrix504091" />
    </filter>
    <filter
       style="color-interpolation-filters:sRGB"
       inkscape:label="Greyscale"
       id="filter504097"
       x="-0.012623934"
       y="-0.012938895"
       width="1.0274802"
       height="1.0239927">
      <feColorMatrix
         values="0.618044 0.72381 -0.110563 -0.12 0 0.618044 0.72381 -0.110563 -0.12 0 0.618044 0.72381 -0.110563 -0.12 0 0 0 0 1 0 "
         id="feColorMatrix504095" />
    </filter>
    <filter
       style="color-interpolation-filters:sRGB"
       inkscape:label="Greyscale"
       id="filter504101"
       x="-0.014561605"
       y="-0.012651581"
       width="1.0290952"
       height="1.0230787">
      <feColorMatrix
         values="0.618044 0.72381 -0.110563 -0.12 0 0.618044 0.72381 -0.110563 -0.12 0 0.618044 0.72381 -0.110563 -0.12 0 0 0 0 1 0 "
         id="feColorMatrix504099" />
    </filter>
    <filter
       style="color-interpolation-filters:sRGB"
       inkscape:label="Greyscale"
       id="filter504105"
       x="-0.014833851"
       y="-0.012948672"
       width="1.0274704"
       height="1.024031">
      <feColorMatrix
         values="0.618044 0.72381 -0.110563 -0.12 0 0.618044 0.72381 -0.110563 -0.12 0 0.618044 0.72381 -0.110563 -0.12 0 0 0 0 1 0 "
         id="feColorMatrix504103" />
    </filter>
    <filter
       style="color-interpolation-filters:sRGB"
       inkscape:label="Greyscale"
       id="filter504109"
       x="-0.012221023"
       y="-0.012739001"
       width="1.0250626"
       height="1.0261873">
      <feColorMatrix
         values="0.618044 0.72381 -0.110563 -0.12 0 0.618044 0.72381 -0.110563 -0.12 0 0.618044 0.72381 -0.110563 -0.12 0 0 0 0 1 0 "
         id="feColorMatrix504107" />
    </filter>
    <filter
       style="color-interpolation-filters:sRGB"
       inkscape:label="Greyscale"
       id="filter504113"
       x="-0.0097927349"
       y="-0.012482092"
       width="1.0228407"
       height="1.0290716">
      <feColorMatrix
         values="0.618044 0.72381 -0.110563 -0.12 0 0.618044 0.72381 -0.110563 -0.12 0 0.618044 0.72381 -0.110563 -0.12 0 0 0 0 1 0 "
         id="feColorMatrix504111" />
    </filter>
    <filter
       style="color-interpolation-filters:sRGB"
       inkscape:label="Greyscale"
       id="filter504117"
       x="-0.0097815385"
       y="-0.016557053"
       width="1.0227836"
       height="1.0289789">
      <feColorMatrix
         values="0.618044 0.72381 -0.110563 -0.12 0 0.618044 0.72381 -0.110563 -0.12 0 0.618044 0.72381 -0.110563 -0.12 0 0 0 0 1 0 "
         id="feColorMatrix504115" />
    </filter>
    <filter
       style="color-interpolation-filters:sRGB"
       inkscape:label="Greyscale"
       id="filter504121"
       x="-0.012198751"
       y="-0.013369773"
       width="1.0250033"
       height="1.0260874">
      <feColorMatrix
         values="0.618044 0.72381 -0.110563 -0.12 0 0.618044 0.72381 -0.110563 -0.12 0 0.618044 0.72381 -0.110563 -0.12 0 0 0 0 1 0 "
         id="feColorMatrix504119" />
    </filter>
    <filter
       style="color-interpolation-filters:sRGB"
       inkscape:label="Greyscale"
       id="filter504125"
       x="-0.014759335"
       y="-0.011013906"
       width="1.0273222"
       height="1.0239657">
      <feColorMatrix
         values="0.618044 0.72381 -0.110563 -0.12 0 0.618044 0.72381 -0.110563 -0.12 0 0.618044 0.72381 -0.110563 -0.12 0 0 0 0 1 0 "
         id="feColorMatrix504123" />
    </filter>
    <filter
       style="color-interpolation-filters:sRGB"
       inkscape:label="Greyscale"
       id="filter504245"
       x="-0.0018665642"
       y="-0.013065955"
       width="1.0037332"
       height="1.0261319">
      <feColorMatrix
         values="0.618044 0.72381 -0.110563 -0.12 0 0.618044 0.72381 -0.110563 -0.12 0 0.618044 0.72381 -0.110563 -0.12 0 0 0 0 1 0 "
         id="feColorMatrix504243" />
    </filter>
    <filter
       style="color-interpolation-filters:sRGB"
       inkscape:label="Greyscale"
       id="filter504249"
       x="-0.01766916"
       y="-0.01766916"
       width="1.0353383"
       height="1.0353383">
      <feColorMatrix
         values="0.618044 0.72381 -0.110563 -0.12 0 0.618044 0.72381 -0.110563 -0.12 0 0.618044 0.72381 -0.110563 -0.12 0 0 0 0 1 0 "
         id="feColorMatrix504247" />
    </filter>
    <filter
       style="color-interpolation-filters:sRGB"
       inkscape:label="Greyscale"
       id="filter504253"
       x="-0.01766916"
       y="-0.01766916"
       width="1.0353383"
       height="1.0353383">
      <feColorMatrix
         values="0.618044 0.72381 -0.110563 -0.12 0 0.618044 0.72381 -0.110563 -0.12 0 0.618044 0.72381 -0.110563 -0.12 0 0 0 0 1 0 "
         id="feColorMatrix504251" />
    </filter>
    <filter
       style="color-interpolation-filters:sRGB"
       inkscape:label="Greyscale"
       id="filter504257"
       x="-0.01766916"
       y="-0.01766916"
       width="1.0353383"
       height="1.0353383">
      <feColorMatrix
         values="0.618044 0.72381 -0.110563 -0.12 0 0.618044 0.72381 -0.110563 -0.12 0 0.618044 0.72381 -0.110563 -0.12 0 0 0 0 1 0 "
         id="feColorMatrix504255" />
    </filter>
    <filter
       style="color-interpolation-filters:sRGB"
       inkscape:label="Greyscale"
       id="filter504261"
       x="-0.01766916"
       y="-0.01766916"
       width="1.0353383"
       height="1.0353383">
      <feColorMatrix
         values="0.618044 0.72381 -0.110563 -0.12 0 0.618044 0.72381 -0.110563 -0.12 0 0.618044 0.72381 -0.110563 -0.12 0 0 0 0 1 0 "
         id="feColorMatrix504259" />
    </filter>
    <filter
       style="color-interpolation-filters:sRGB"
       inkscape:label="Greyscale"
       id="filter504265"
       x="-0.01766916"
       y="-0.01766916"
       width="1.0353383"
       height="1.0353383">
      <feColorMatrix
         values="0.618044 0.72381 -0.110563 -0.12 0 0.618044 0.72381 -0.110563 -0.12 0 0.618044 0.72381 -0.110563 -0.12 0 0 0 0 1 0 "
         id="feColorMatrix504263" />
    </filter>
    <filter
       style="color-interpolation-filters:sRGB"
       inkscape:label="Greyscale"
       id="filter504269"
       x="-0.01766916"
       y="-0.01766916"
       width="1.0353383"
       height="1.0353383">
      <feColorMatrix
         values="0.618044 0.72381 -0.110563 -0.12 0 0.618044 0.72381 -0.110563 -0.12 0 0.618044 0.72381 -0.110563 -0.12 0 0 0 0 1 0 "
         id="feColorMatrix504267" />
    </filter>
    <filter
       style="color-interpolation-filters:sRGB"
       inkscape:label="Greyscale"
       id="filter504273"
       x="-0.01766916"
       y="-0.01766916"
       width="1.0353383"
       height="1.0353383">
      <feColorMatrix
         values="0.618044 0.72381 -0.110563 -0.12 0 0.618044 0.72381 -0.110563 -0.12 0 0.618044 0.72381 -0.110563 -0.12 0 0 0 0 1 0 "
         id="feColorMatrix504271" />
    </filter>
    <rect
       x="301.8735"
       y="54.922695"
       width="315.38217"
       height="392.1662"
       id="rect142869" />
    <rect
       x="580.67041"
       y="168.2337"
       width="148.4621"
       height="227.98207"
       id="rect128629" />
    <rect
       x="580.67041"
       y="168.2337"
       width="148.4621"
       height="227.98207"
       id="rect625543" />
    <rect
       x="580.67041"
       y="168.2337"
       width="148.4621"
       height="227.98207"
       id="rect625549" />
    <rect
       x="580.67041"
       y="168.2337"
       width="148.4621"
       height="227.98207"
       id="rect630971" />
    <rect
       x="580.67041"
       y="168.2337"
       width="148.4621"
       height="227.98207"
       id="rect637555" />
    <rect
       x="580.67041"
       y="168.2337"
       width="148.4621"
       height="227.98207"
       id="rect642415" />
    <rect
       x="580.67041"
       y="168.2337"
       width="148.4621"
       height="227.98207"
       id="rect647017" />
    <rect
       x="580.67041"
       y="168.2337"
       width="148.4621"
       height="227.98207"
       id="rect651637" />
    <rect
       x="580.67041"
       y="168.2337"
       width="148.4621"
       height="227.98207"
       id="rect656769" />
    <rect
       x="580.67041"
       y="168.2337"
       width="148.4621"
       height="227.98207"
       id="rect662965" />
    <rect
       x="580.67041"
       y="168.2337"
       width="148.4621"
       height="227.98207"
       id="rect669437" />
    <rect
       x="580.67041"
       y="168.2337"
       width="148.4621"
       height="227.98207"
       id="rect678811" />
    <rect
       x="580.67041"
       y="168.2337"
       width="148.4621"
       height="227.98207"
       id="rect689501" />
    <rect
       x="580.67041"
       y="168.2337"
       width="148.4621"
       height="227.98207"
       id="rect697375" />
    <rect
       x="580.67041"
       y="168.2337"
       width="148.4621"
       height="227.98207"
       id="rect704877" />
    <rect
       x="580.67041"
       y="168.2337"
       width="148.4621"
       height="227.98207"
       id="rect710993" />
    <rect
       x="580.67041"
       y="168.2337"
       width="148.4621"
       height="227.98207"
       id="rect745823" />
    <rect
       x="580.67041"
       y="168.2337"
       width="148.4621"
       height="227.98207"
       id="rect751192" />
    <rect
       x="580.67041"
       y="168.2337"
       width="148.4621"
       height="227.98207"
       id="rect757148" />
    <rect
       x="580.67041"
       y="168.2337"
       width="148.4621"
       height="227.98207"
       id="rect760568" />
    <rect
       x="580.67041"
       y="168.2337"
       width="148.4621"
       height="227.98207"
       id="rect764806" />
    <rect
       x="580.67041"
       y="168.2337"
       width="148.4621"
       height="227.98207"
       id="rect768602" />
    <rect
       x="580.67041"
       y="168.2337"
       width="148.4621"
       height="227.98207"
       id="rect770588" />
    <rect
       x="580.67041"
       y="168.2337"
       width="148.4621"
       height="227.98207"
       id="rect774595" />
    <rect
       x="580.67041"
       y="168.2337"
       width="148.4621"
       height="227.98207"
       id="rect783037" />
    <rect
       x="580.67041"
       y="168.2337"
       width="148.4621"
       height="227.98207"
       id="rect788527" />
    <rect
       x="580.67041"
       y="168.2337"
       width="148.4621"
       height="227.98207"
       id="rect799827" />
    <rect
       x="580.67041"
       y="168.2337"
       width="148.4621"
       height="227.98207"
       id="rect805629" />
    <rect
       x="580.67041"
       y="168.2337"
       width="148.4621"
       height="227.98207"
       id="rect811239" />
    <rect
       x="580.67041"
       y="168.2337"
       width="148.4621"
       height="227.98207"
       id="rect69704" />
    <rect
       x="580.67041"
       y="168.2337"
       width="148.4621"
       height="227.98207"
       id="rect69706" />
    <rect
       x="580.67041"
       y="168.2337"
       width="148.4621"
       height="227.98207"
       id="rect69708" />
    <rect
       x="580.67041"
       y="168.2337"
       width="148.4621"
       height="227.98207"
       id="rect69710" />
    <rect
       x="580.67041"
       y="168.2337"
       width="148.4621"
       height="227.98207"
       id="rect69712" />
    <rect
       x="580.67041"
       y="168.2337"
       width="148.4621"
       height="227.98207"
       id="rect69714" />
    <rect
       x="580.67041"
       y="168.2337"
       width="148.4621"
       height="227.98207"
       id="rect69716" />
    <rect
       x="580.67041"
       y="168.2337"
       width="148.4621"
       height="227.98207"
       id="rect69718" />
    <rect
       x="580.67041"
       y="168.2337"
       width="148.4621"
       height="227.98207"
       id="rect69720" />
    <rect
       x="580.67041"
       y="168.2337"
       width="148.4621"
       height="227.98207"
       id="rect69722" />
    <rect
       x="580.67041"
       y="168.2337"
       width="148.4621"
       height="227.98207"
       id="rect69724" />
    <rect
       x="580.67041"
       y="168.2337"
       width="148.4621"
       height="227.98207"
       id="rect69726" />
    <rect
       x="580.67041"
       y="168.2337"
       width="148.4621"
       height="227.98207"
       id="rect69728" />
    <rect
       x="580.67041"
       y="168.2337"
       width="148.4621"
       height="227.98207"
       id="rect69730" />
    <rect
       x="580.67041"
       y="168.2337"
       width="148.4621"
       height="227.98207"
       id="rect69732" />
    <rect
       x="580.67041"
       y="168.2337"
       width="148.4621"
       height="227.98207"
       id="rect69734" />
    <rect
       x="580.67041"
       y="168.2337"
       width="148.4621"
       height="227.98207"
       id="rect69736" />
    <rect
       x="580.67041"
       y="168.2337"
       width="148.4621"
       height="227.98207"
       id="rect69738" />
    <rect
       x="580.67041"
       y="168.2337"
       width="148.4621"
       height="227.98207"
       id="rect69740" />
    <rect
       x="580.67041"
       y="168.2337"
       width="148.4621"
       height="227.98207"
       id="rect69742" />
    <rect
       x="580.67041"
       y="168.2337"
       width="148.4621"
       height="227.98207"
       id="rect69744" />
    <rect
       x="580.67041"
       y="168.2337"
       width="148.4621"
       height="227.98207"
       id="rect69746" />
    <rect
       x="580.67041"
       y="168.2337"
       width="148.4621"
       height="227.98207"
       id="rect69748" />
    <rect
       x="580.67041"
       y="168.2337"
       width="148.4621"
       height="227.98207"
       id="rect69750" />
    <rect
       x="580.67041"
       y="168.2337"
       width="148.4621"
       height="227.98207"
       id="rect69752" />
    <rect
       x="580.67041"
       y="168.2337"
       width="148.4621"
       height="227.98207"
       id="rect69754" />
    <rect
       x="580.67041"
       y="168.2337"
       width="148.4621"
       height="227.98207"
       id="rect69756" />
    <rect
       x="580.67041"
       y="168.2337"
       width="148.4621"
       height="227.98207"
       id="rect69758" />
    <rect
       x="580.67041"
       y="168.2337"
       width="148.4621"
       height="227.98207"
       id="rect70246" />
    <rect
       x="580.67041"
       y="168.2337"
       width="148.4621"
       height="227.98207"
       id="rect92519" />
    <rect
       x="580.67041"
       y="168.2337"
       width="148.4621"
       height="227.98207"
       id="rect92521" />
    <rect
       x="580.67041"
       y="168.2337"
       width="148.4621"
       height="227.98207"
       id="rect139275" />
    <rect
       x="580.67041"
       y="168.2337"
       width="148.4621"
       height="227.98207"
       id="rect139277" />
    <rect
       x="580.67041"
       y="168.2337"
       width="148.4621"
       height="227.98207"
       id="rect161517" />
    <rect
       x="580.67041"
       y="168.2337"
       width="148.4621"
       height="227.98207"
       id="rect161519" />
    <rect
       x="580.67041"
       y="168.2337"
       width="148.4621"
       height="227.98207"
       id="rect564459" />
    <rect
       x="580.67041"
       y="168.2337"
       width="148.4621"
       height="227.98207"
       id="rect564461" />
    <rect
       x="580.67041"
       y="168.2337"
       width="148.4621"
       height="227.98207"
       id="rect665715" />
    <rect
       x="580.67041"
       y="168.2337"
       width="148.4621"
       height="227.98207"
       id="rect665717" />
  </defs>
  <g
     inkscape:label="Vrstva 1"
     inkscape:groupmode="layer"
     id="layer1">
    <g
       aria-label="Libre Baskerville"
       id="text2146853"
       style="font-size:106.667px;line-height:1.25;font-family:'Libre Baskerville';-inkscape-font-specification:'Libre Baskerville, Normal';letter-spacing:0px;word-spacing:0px;fill:#008080;stroke-width:0.999998">
      <path
         d="M 92.637303,110.77323 H 23.730422 v -4.05334 q 3.733345,-0.10667 5.973352,-0.64001 2.346674,-0.53333 3.626678,-1.81334 1.280004,-1.28 1.706672,-3.62667 0.426668,-2.346677 0.426668,-6.080022 V 44.853026 q 0,-3.733345 -0.426668,-5.973352 -0.320001,-2.346674 -1.493338,-3.626678 -1.06667,-1.386671 -3.20001,-1.813339 -2.13334,-0.533335 -5.546684,-0.746669 V 28.639642 H 57.22386 v 4.053346 q -3.413344,0.106667 -5.546684,0.640002 -2.026673,0.533335 -3.20001,1.920006 -1.06667,1.386671 -1.493338,3.840012 -0.320001,2.453341 -0.320001,6.506687 v 45.973477 q 0,4.480014 0.853336,7.360023 0.960003,2.773345 3.093343,4.373345 2.240007,1.49334 5.866685,2.13334 3.626677,0.53334 9.173361,0.53334 6.080019,0 10.240032,-0.64001 4.160013,-0.74666 6.933355,-2.45334 2.880009,-1.81334 4.480014,-4.906678 1.706672,-3.20001 2.880009,-8.213359 h 4.053346 z"
         id="path2029" />
      <path
         d="m 120.79731,93.813179 q 0,4.160013 0.32,6.720021 0.42667,2.45334 1.49334,3.94668 1.06667,1.38667 2.98668,1.92 1.92,0.53334 5.12001,0.64001 v 3.73334 h -30.61343 v -3.73334 q 3.20001,-0.10667 5.22669,-0.64001 2.02667,-0.64 3.09334,-1.92 1.17334,-1.38667 1.49334,-3.73335 0.42667,-2.453337 0.42667,-6.186682 V 80.906472 q 0,-6.186686 -0.21334,-10.133365 -0.10667,-4.053346 -0.53333,-5.546684 -0.53334,-2.453341 -2.45334,-3.306677 -1.92001,-0.960003 -7.25336,-0.960003 v -3.733345 l 20.90673,-4.053346 z m -12.2667,-62.293528 q 0,-2.773342 1.92,-4.693348 1.92001,-1.920006 4.69335,-1.920006 2.77334,0 4.69335,1.920006 1.92,1.920006 1.92,4.693348 0,2.773342 -1.92,4.693348 -1.92001,1.920006 -4.69335,1.920006 -2.77334,0 -4.69335,-1.920006 -1.92,-1.920006 -1.92,-4.693348 z"
         id="path2031" />
      <path
         d="m 153.0107,88.479829 q 0,4.053346 1.17334,7.46669 1.17334,3.306677 3.20001,5.760021 2.13334,2.34667 5.01335,3.73334 2.98668,1.38667 6.40002,1.38667 3.73335,0 6.72002,-1.70667 3.09334,-1.70667 5.22668,-4.80001 2.24001,-3.200014 3.41335,-7.573361 1.28,-4.480014 1.28,-9.920031 0,-5.440017 -1.28,-9.920031 -1.28001,-4.586681 -3.52001,-7.786691 -2.24001,-3.306677 -5.44002,-5.120016 -3.09334,-1.813339 -6.82669,-1.813339 -4.37334,0 -7.78669,2.13334 -3.41334,2.026673 -5.22668,5.760018 -2.34668,4.693348 -2.34668,12.906707 z m -0.21333,-26.66675 h 0.42667 q 3.41334,-4.480014 7.46669,-6.506687 4.16001,-2.13334 9.60003,-2.13334 5.76002,0 10.6667,2.240007 5.01335,2.240007 8.64003,6.186686 3.73334,3.946679 5.76001,9.386696 2.13334,5.33335 2.13334,11.520036 0,6.293353 -2.13334,11.73337 -2.13334,5.33335 -5.86668,9.280033 -3.62668,3.94667 -8.64003,6.18668 -5.01335,2.24001 -10.88003,2.24001 -6.08002,0 -11.41337,-2.24001 -5.22668,-2.24001 -8.64003,-6.08002 l -5.01335,7.14669 h -2.34667 V 46.346364 q 0,-10.773367 -1.38667,-13.760043 -0.32,-0.746669 -0.74667,-1.173337 -0.42667,-0.533335 -1.28001,-0.853336 -0.85333,-0.426668 -2.34667,-0.746669 -1.49334,-0.320001 -4.05335,-0.640002 v -2.666675 l 20.0534,-4.26668 z"
         id="path2033" />
      <path
         d="m 226.29087,93.813179 q 0,4.373347 0.21333,6.933351 0.21334,2.56001 1.06667,3.94668 0.96001,1.28001 2.66668,1.70667 1.70667,0.42667 4.80001,0.64001 v 3.73334 h -28.37342 v -3.73334 q 3.09334,-0.10667 4.90668,-0.53334 1.81334,-0.53333 2.77335,-1.81334 0.96,-1.28 1.17333,-3.62668 0.32,-2.453336 0.32,-6.506682 V 82.079809 q 0,-7.253356 -0.21333,-11.306702 -0.10667,-4.053346 -1.06667,-5.973352 -0.85334,-1.920006 -2.77334,-2.240007 -1.92001,-0.426668 -5.33335,-0.426668 v -3.733345 l 18.66672,-4.053346 1.49334,13.226708 h 0.42667 q 1.38667,-3.20001 3.41334,-5.866685 2.13334,-2.666675 4.58668,-4.480014 2.45334,-1.920006 5.12002,-2.986676 2.66667,-1.06667 5.44002,-1.06667 3.41334,0 5.33335,1.706672 2.02667,1.600005 2.02667,4.373347 0,2.560008 -1.60001,4.053346 -1.6,1.386671 -4.58668,1.386671 -1.70667,0 -2.88001,-0.426668 -1.17333,-0.426668 -2.13334,-0.853336 -0.85333,-0.533335 -1.70667,-0.960003 -0.74667,-0.426668 -1.70667,-0.426668 -2.88001,0 -5.76002,3.733345 -2.88001,3.626678 -4.48001,9.280029 -0.85334,3.093343 -1.38667,7.040022 -0.42667,3.840012 -0.42667,8.106692 z"
         id="path2035" />
      <path
         d="m 307.99754,100.8532 q -9.06669,10.9867 -22.50673,10.9867 -6.29336,0 -11.41337,-2.02667 -5.12002,-2.13334 -8.85336,-5.86669 -3.62668,-3.84001 -5.65335,-9.066691 -2.02668,-5.33335 -2.02668,-11.73337 0,-6.506687 2.13334,-12.053371 2.13334,-5.546684 5.97335,-9.493363 3.94668,-3.946679 9.28003,-6.186686 5.44002,-2.240007 11.84004,-2.240007 10.3467,0 16.00005,5.653351 5.65335,5.546684 5.65335,16.00005 0,1.493338 -0.64,1.813339 -0.53334,0.320001 -2.66668,0.320001 h -35.09344 q -0.21333,0.853336 -0.32,2.13334 -0.10667,1.173337 -0.10667,2.666675 0,5.546684 1.28001,10.133365 1.38667,4.480014 3.84001,7.680024 2.56001,3.200013 5.97335,5.013353 3.52001,1.70667 7.78669,1.70667 4.48002,0 8.32003,-1.92001 3.84001,-2.02667 7.89336,-6.506685 z M 290.39749,72.053111 q 2.13334,0 3.41334,-0.106667 1.28001,-0.106667 1.92001,-0.426668 0.64,-0.320001 0.85333,-0.853336 0.21334,-0.640002 0.21334,-1.600005 0,-4.906682 -3.20001,-7.786691 -3.09334,-2.986676 -8.53336,-2.986676 -11.52004,0 -14.29338,13.760043 z"
         id="path2037" />
      <path
         d="m 348.10421,110.77323 v -4.05334 q 4.16001,-0.10667 6.61335,-0.64001 2.56001,-0.53333 3.84001,-1.81334 1.38667,-1.28 1.81334,-3.62667 0.53334,-2.346677 0.53334,-6.080022 V 44.853026 q 0,-3.733345 -0.42667,-5.973352 -0.32,-2.346674 -1.49334,-3.626678 -1.06667,-1.386671 -3.20001,-1.813339 -2.13334,-0.533335 -5.54668,-0.746669 v -4.053346 h 31.89343 q 14.40004,0 22.40007,5.120016 8.00002,5.120016 8.00002,14.400045 0,7.040022 -4.48001,11.520036 -4.37335,4.480014 -13.97338,7.360023 v 0.426668 q 3.30668,0.320001 5.76002,0.746669 2.45334,0.426668 4.37335,1.06667 1.92,0.533335 3.52001,1.386671 1.70667,0.853336 3.30668,1.920006 9.49336,6.720021 9.49336,16.853386 0,5.653351 -3.20001,10.560033 -3.09334,4.800015 -8.7467,7.573355 -1.81333,0.96 -3.73334,1.60001 -1.92001,0.53333 -4.48001,0.96 -2.56001,0.32 -5.97336,0.53333 -3.30667,0.10667 -7.89335,0.10667 z m 38.72012,-4.58668 q 19.30672,0 19.30672,-16.533384 0,-12.053371 -9.92003,-16.853386 -1.70667,-0.746669 -3.30667,-1.280004 -1.60001,-0.533335 -3.73335,-0.746669 -2.13334,-0.320001 -5.12002,-0.426668 -2.88,-0.106667 -7.14668,-0.106667 h -4.80002 v 23.786741 q 0,6.506687 3.41334,9.386697 3.41335,2.77334 11.30671,2.77334 z m -8.7467,-41.280128 q 3.30668,0 5.54669,-0.106667 2.24,-0.106667 3.84001,-0.320001 1.6,-0.320001 2.77334,-0.746669 1.28,-0.533335 2.56001,-1.386671 3.41334,-2.13334 4.80001,-5.120016 1.49334,-2.986676 1.49334,-7.786691 0,-8.426693 -4.16001,-12.053371 -4.05335,-3.733345 -12.80004,-3.733345 h -8.21336 q -1.81334,0 -1.81334,1.813339 v 29.440092 z"
         id="path2039" />
      <path
         d="m 463.09103,79.1998 q -6.08002,2.346674 -10.3467,4.586681 -4.16001,2.240007 -6.72002,4.480014 -2.56001,2.240007 -3.73335,4.480014 -1.06667,2.240007 -1.06667,4.586681 0,3.52001 2.34668,5.76002 2.34667,2.24 6.18668,2.24 2.77334,0 5.12002,-1.38667 2.45334,-1.38667 4.26668,-3.73334 1.81334,-2.453342 2.88001,-5.653352 1.06667,-3.306677 1.06667,-6.933355 z m 0,-4.586681 v -4.373347 q 0,-13.013374 -11.09337,-13.013374 -1.81334,0 -3.09334,0.320001 -1.28001,0.320001 -2.13334,1.06667 -0.85334,0.746669 -1.60001,2.13334 -0.64,1.386671 -1.28,3.413344 -1.17334,3.093343 -2.34668,4.160013 -1.06667,0.960003 -3.20001,0.960003 -5.33335,0 -5.33335,-5.33335 0,-5.120016 5.44002,-7.893358 5.44002,-2.880009 15.46672,-2.880009 10.6667,0 15.14671,3.840012 4.48001,3.733345 4.48001,12.80004 v 23.893408 q 0,12.160038 4.80002,12.160038 1.49334,0 2.88001,-0.32 1.38667,-0.42667 2.34667,-2.02667 l 1.49334,2.56 q -1.28,2.45334 -4.69335,4.16002 -3.41334,1.6 -7.14669,1.6 -4.69335,0 -7.04002,-2.98667 -2.24001,-2.98668 -2.24001,-8.4267 h -0.53333 q -2.77334,5.22669 -7.68003,8.32003 -4.90668,2.98667 -10.88003,2.98667 -6.72002,0 -10.56003,-3.41334 -3.84001,-3.41334 -3.84001,-9.173361 0,-2.560008 0.85333,-4.906682 0.96,-2.346674 2.98668,-4.480014 2.02667,-2.13334 5.33335,-4.160013 3.30667,-2.13334 8.10669,-4.26668 z"
         id="path2041" />
      <path
         d="m 494.13102,110.77323 h -2.34667 V 92.426508 h 2.66667 q 4.16001,15.040042 15.14672,15.040042 4.26668,0 6.72002,-2.02667 2.56,-2.13334 2.56,-6.400018 0,-1.600005 -0.53333,-2.666675 -0.42667,-1.173337 -1.81334,-2.346674 -1.28,-1.280004 -3.73334,-2.880009 -2.34668,-1.600005 -6.29336,-4.053346 -3.62668,-2.240007 -6.29335,-4.160013 -2.66668,-1.920006 -4.48001,-3.840012 -1.81334,-2.026673 -2.77335,-4.26668 -0.85333,-2.240007 -0.85333,-5.226683 0,-3.626678 1.17333,-6.613354 1.28001,-3.093343 3.41335,-5.226683 2.13334,-2.13334 5.01335,-3.306677 2.88001,-1.280004 6.29335,-1.280004 2.88001,0 5.97335,0.960003 3.09335,0.853336 5.44002,2.346674 l 2.13334,-2.240007 h 2.02667 V 69.59977 h -2.77334 q -2.34667,-6.506687 -5.12002,-9.280029 -2.77334,-2.773342 -6.82668,-2.773342 -3.62668,0 -5.86669,1.920006 -2.13334,1.920006 -2.13334,5.33335 0,1.813339 0.53334,3.20001 0.64,1.280004 1.92,2.560008 1.28001,1.280004 3.20001,2.666675 2.02668,1.280004 4.80002,2.986676 4.58668,2.880009 7.78669,5.120016 3.30668,2.240007 5.33335,4.480014 2.02667,2.13334 2.98667,4.480014 0.96001,2.346674 0.96001,5.33335 0,7.573352 -4.90668,11.946702 -4.90669,4.26668 -12.90671,4.26668 -8.32003,0 -14.29338,-4.80001 z"
         id="path2043" />
      <path
         d="m 570.50444,107.03989 q 3.52001,0 4.80002,-0.32 1.38667,-0.32001 1.38667,-0.85334 -0.10667,-0.85334 -1.70668,-3.09334 -1.6,-2.24001 -4.16001,-5.333353 l -11.3067,-13.653376 -3.94668,3.733345 v 6.293353 q 0,4.160013 0.32,6.720021 0.42667,2.45334 1.38667,3.94668 1.06667,1.38667 2.98668,1.92 2.02667,0.53334 5.22668,0.64001 v 3.73334 h -30.29343 v -3.73334 q 3.20001,-0.10667 5.12002,-0.64001 2.02667,-0.53333 3.09334,-1.92 1.17334,-1.38667 1.60001,-3.73335 0.42667,-2.34667 0.42667,-6.186682 V 49.866375 q 0,-8.106692 -0.21334,-12.266705 -0.10666,-4.160013 -1.06667,-5.653351 -0.96,-1.493338 -3.20001,-1.706672 -2.24,-0.320001 -5.97335,-0.320001 v -3.626678 l 20.58673,-4.053346 v 58.560183 l 9.92003,-9.706697 q 4.80002,-4.800015 7.14669,-7.040022 2.34667,-2.346674 2.34667,-3.520011 0,-1.173337 -2.24,-1.813339 -2.24001,-0.746669 -6.40002,-0.746669 v -3.733345 h 27.73342 v 3.733345 q -2.02668,0 -3.52001,0.213334 -1.49334,0.213334 -2.88001,0.853336 -1.28001,0.640002 -2.77334,1.813339 -1.49334,1.06667 -3.41335,2.773342 l -15.36005,13.653376 21.12007,23.893406 q 1.49334,1.81334 2.66667,2.98668 1.28001,1.06667 2.45335,1.70667 1.28,0.64 2.66667,0.96 1.49334,0.21334 3.52001,0.21334 v 3.73334 h -28.05342 z"
         id="path2045" />
      <path
         d="m 650.82457,100.8532 q -9.0667,10.9867 -22.50674,10.9867 -6.29335,0 -11.41337,-2.02667 -5.12001,-2.13334 -8.85336,-5.86669 -3.62668,-3.84001 -5.65335,-9.066691 -2.02667,-5.33335 -2.02667,-11.73337 0,-6.506687 2.13334,-12.053371 2.13334,-5.546684 5.97335,-9.493363 3.94668,-3.946679 9.28003,-6.186686 5.44002,-2.240007 11.84004,-2.240007 10.3467,0 16.00005,5.653351 5.65335,5.546684 5.65335,16.00005 0,1.493338 -0.64,1.813339 -0.53334,0.320001 -2.66668,0.320001 h -35.09344 q -0.21334,0.853336 -0.32,2.13334 -0.10667,1.173337 -0.10667,2.666675 0,5.546684 1.28,10.133365 1.38667,4.480014 3.84002,7.680024 2.56,3.200013 5.97335,5.013353 3.52001,1.70667 7.78669,1.70667 4.48001,0 8.32002,-1.92001 3.84002,-2.02667 7.89336,-6.506685 z M 633.22451,72.053111 q 2.13334,0 3.41335,-0.106667 1.28,-0.106667 1.92,-0.426668 0.64001,-0.320001 0.85334,-0.853336 0.21333,-0.640002 0.21333,-1.600005 0,-4.906682 -3.20001,-7.786691 -3.09334,-2.986676 -8.53336,-2.986676 -11.52003,0 -14.29337,13.760043 z"
         id="path2047" />
      <path
         d="m 679.94465,93.813179 q 0,4.373347 0.21333,6.933351 0.21334,2.56001 1.06667,3.94668 0.96001,1.28001 2.66668,1.70667 1.70667,0.42667 4.80001,0.64001 v 3.73334 h -28.37342 v -3.73334 q 3.09334,-0.10667 4.90668,-0.53334 1.81334,-0.53333 2.77334,-1.81334 0.96001,-1.28 1.17334,-3.62668 0.32,-2.453336 0.32,-6.506682 V 82.079809 q 0,-7.253356 -0.21333,-11.306702 -0.10667,-4.053346 -1.06667,-5.973352 -0.85334,-1.920006 -2.77334,-2.240007 -1.92001,-0.426668 -5.33335,-0.426668 v -3.733345 l 18.66672,-4.053346 1.49334,13.226708 h 0.42667 q 1.38667,-3.20001 3.41334,-5.866685 2.13334,-2.666675 4.58668,-4.480014 2.45334,-1.920006 5.12002,-2.986676 2.66667,-1.06667 5.44001,-1.06667 3.41335,0 5.33335,1.706672 2.02668,1.600005 2.02668,4.373347 0,2.560008 -1.60001,4.053346 -1.6,1.386671 -4.58668,1.386671 -1.70667,0 -2.88001,-0.426668 -1.17333,-0.426668 -2.13334,-0.853336 -0.85333,-0.533335 -1.70667,-0.960003 -0.74667,-0.426668 -1.70667,-0.426668 -2.88001,0 -5.76002,3.733345 -2.88001,3.626678 -4.48001,9.280029 -0.85334,3.093343 -1.38667,7.040022 -0.42667,3.840012 -0.42667,8.106692 z"
         id="path2049" />
      <path
         d="m 718.23801,67.46643 q -1.28001,-3.20001 -2.34668,-5.013349 -0.96,-1.920006 -2.13334,-2.880009 -1.17333,-0.960003 -2.66667,-1.173337 -1.38667,-0.320001 -3.41335,-0.426668 v -3.733345 h 28.26676 v 3.733345 q -2.13334,0.106667 -3.52001,0.213334 -1.38667,0.106667 -2.24001,0.533335 -0.74667,0.320001 -1.06667,1.06667 -0.32,0.640002 -0.32,1.920006 0,1.813339 0.42667,3.413344 0.53333,1.600005 1.06667,3.20001 l 11.3067,30.93343 h 0.42667 l 9.7067,-22.933405 q 2.24,-5.33335 3.20001,-8.53336 0.96,-3.20001 0.96,-5.653351 0,-2.453341 -1.28001,-3.306677 -1.28,-0.853336 -5.54668,-0.853336 v -3.733345 h 21.22673 v 3.733345 q -1.70667,0 -3.09334,0.853336 -1.38667,0.853336 -2.45334,2.13334 -0.85334,1.173337 -1.81334,3.20001 -0.85334,1.920006 -1.81334,4.053346 -0.85333,2.13334 -1.6,4.26668 -0.74667,2.026673 -1.38667,3.306677 l -15.68005,36.160114 h -6.18669 z"
         id="path2051" />
      <path
         d="m 796.53143,93.813179 q 0,4.160013 0.32,6.720021 0.42667,2.45334 1.49334,3.94668 1.06667,1.38667 2.98667,1.92 1.92001,0.53334 5.12002,0.64001 v 3.73334 h -30.61343 v -3.73334 q 3.20001,-0.10667 5.22668,-0.64001 2.02668,-0.64 3.09335,-1.92 1.17333,-1.38667 1.49333,-3.73335 0.42667,-2.453337 0.42667,-6.186682 V 80.906472 q 0,-6.186686 -0.21333,-10.133365 -0.10667,-4.053346 -0.53334,-5.546684 -0.53333,-2.453341 -2.45334,-3.306677 -1.92,-0.960003 -7.25335,-0.960003 v -3.733345 l 20.90673,-4.053346 z M 784.26472,31.519651 q 0,-2.773342 1.92001,-4.693348 1.92,-1.920006 4.69335,-1.920006 2.77334,0 4.69334,1.920006 1.92001,1.920006 1.92001,4.693348 0,2.773342 -1.92001,4.693348 -1.92,1.920006 -4.69334,1.920006 -2.77335,0 -4.69335,-1.920006 -1.92001,-1.920006 -1.92001,-4.693348 z"
         id="path2053" />
      <path
         d="m 830.87817,94.13318 q 0,4.053346 0.32,6.50669 0.32,2.45334 1.28,3.84001 1.06667,1.38667 2.88001,1.92 1.92001,0.53334 5.01335,0.64001 v 3.73334 h -29.44009 v -3.73334 q 3.20001,-0.10667 5.12001,-0.64001 1.92001,-0.64 2.98668,-1.92 1.17334,-1.28001 1.49334,-3.52001 0.42667,-2.346676 0.42667,-6.080021 V 48.906372 q 0,-5.760018 -0.21334,-9.60003 -0.10666,-3.946679 -0.42667,-5.33335 -0.53333,-2.453341 -2.56,-3.306677 -1.92001,-0.853336 -7.04003,-0.853336 v -3.626678 l 20.16007,-3.946679 z"
         id="path2055" />
      <path
         d="m 865.54485,94.13318 q 0,4.053346 0.32001,6.50669 0.32,2.45334 1.28,3.84001 1.06667,1.38667 2.88001,1.92 1.92,0.53334 5.01335,0.64001 v 3.73334 h -29.44009 v -3.73334 q 3.20001,-0.10667 5.12001,-0.64001 1.92001,-0.64 2.98668,-1.92 1.17333,-1.28001 1.49334,-3.52001 0.42666,-2.346676 0.42666,-6.080021 V 48.906372 q 0,-5.760018 -0.21333,-9.60003 -0.10667,-3.946679 -0.42667,-5.33335 -0.53333,-2.453341 -2.56001,-3.306677 -1.92,-0.853336 -7.04002,-0.853336 v -3.626678 l 20.16006,-3.946679 z"
         id="path2057" />
      <path
         d="m 933.59825,100.8532 q -9.06669,10.9867 -22.50674,10.9867 -6.29335,0 -11.41336,-2.02667 -5.12002,-2.13334 -8.85337,-5.86669 -3.62667,-3.84001 -5.65335,-9.066691 -2.02667,-5.33335 -2.02667,-11.73337 0,-6.506687 2.13334,-12.053371 2.13334,-5.546684 5.97335,-9.493363 3.94668,-3.946679 9.28003,-6.186686 5.44002,-2.240007 11.84004,-2.240007 10.3467,0 16.00005,5.653351 5.65335,5.546684 5.65335,16.00005 0,1.493338 -0.64,1.813339 -0.53334,0.320001 -2.66668,0.320001 H 895.6248 q -0.21333,0.853336 -0.32,2.13334 -0.10667,1.173337 -0.10667,2.666675 0,5.546684 1.28001,10.133365 1.38667,4.480014 3.84001,7.680024 2.56001,3.200013 5.97335,5.013353 3.52001,1.70667 7.78669,1.70667 4.48001,0 8.32003,-1.92001 3.84001,-2.02667 7.89335,-6.506685 z M 915.9982,72.053111 q 2.13334,0 3.41334,-0.106667 1.28,-0.106667 1.92001,-0.426668 0.64,-0.320001 0.85333,-0.853336 0.21334,-0.640002 0.21334,-1.600005 0,-4.906682 -3.20001,-7.786691 -3.09335,-2.986676 -8.53336,-2.986676 -11.52004,0 -14.29338,13.760043 z"
         id="path2059" />
    </g>
    <g
       id="g400843"
       transform="translate(417.90701,-49.780313)"
       sodipodi:insensitive="true">
      <rect
         style="fill:#8080ff;fill-opacity:1;fill-rule:evenodd;stroke-width:0.258267"
         id="rect45522"
         width="6.3157067"
         height="20.832041"
         x="-1062.1268"
         y="486.24539"
         inkscape:export-xdpi="96.534714"
         inkscape:export-ydpi="96.534714"
         transform="scale(-1,1)"
         inkscape:export-filename="C:\Users\dansa\Documents\Krita-Malba\ellipse45540.png" />
      <rect
         style="fill:#fe8081;fill-opacity:1;fill-rule:evenodd;stroke-width:0.258267"
         id="rect45524"
         width="6.3157067"
         height="20.832041"
         x="-1055.8112"
         y="486.24539"
         inkscape:export-xdpi="96.534714"
         inkscape:export-ydpi="96.534714"
         transform="scale(-1,1)"
         inkscape:export-filename="C:\Users\dansa\Documents\Krita-Malba\ellipse45540.png" />
      <rect
         style="fill:#ffd42a;fill-rule:evenodd;stroke-width:0.258267"
         id="rect45526"
         width="6.3157067"
         height="20.832041"
         x="-1049.4954"
         y="486.24539"
         inkscape:export-xdpi="96.534714"
         inkscape:export-ydpi="96.534714"
         transform="scale(-1,1)"
         inkscape:export-filename="C:\Users\dansa\Documents\Krita-Malba\ellipse45540.png" />
      <path
         id="path45528"
         style="fill:#ffb380;fill-rule:evenodd;stroke-width:0.258267"
         d="m 1062.1269,507.07744 h -18.9471 l 8.7686,13.97104 h 1.41 z"
         sodipodi:nodetypes="ccccc"
         inkscape:export-xdpi="96.534714"
         inkscape:export-ydpi="96.534714"
         inkscape:export-filename="C:\Users\dansa\Documents\Krita-Malba\ellipse45540.png" />
      <path
         id="path45530"
         style="fill:#f4e3d7;fill-rule:evenodd;stroke-width:0.258267"
         d="m 1062.1269,507.07744 h -6.3156 l -3.3174,14.09288 0.8645,-0.12184 z"
         sodipodi:nodetypes="ccccc"
         inkscape:export-xdpi="96.534714"
         inkscape:export-ydpi="96.534714"
         inkscape:export-filename="C:\Users\dansa\Documents\Krita-Malba\ellipse45540.png" />
      <path
         id="path45532"
         style="fill:#d38d5f;fill-rule:evenodd;stroke-width:0.258267"
         d="m 1043.1799,507.07744 h 6.3157 l 3.3173,14.09288 -0.8644,-0.12184 z"
         sodipodi:nodetypes="ccccc"
         inkscape:export-xdpi="96.534714"
         inkscape:export-ydpi="96.534714"
         inkscape:export-filename="C:\Users\dansa\Documents\Krita-Malba\ellipse45540.png" />
      <path
         id="path45534"
         style="fill:#333333;fill-rule:evenodd;stroke-width:0.258267"
         d="m 1056.4724,516.12331 -7.7017,-0.1075 3.5196,5.53665 0.7035,-0.0131 z"
         sodipodi:nodetypes="ccccc"
         inkscape:export-xdpi="96.534714"
         inkscape:export-ydpi="96.534714"
         inkscape:export-filename="C:\Users\dansa\Documents\Krita-Malba\ellipse45540.png" />
      <ellipse
         style="fill:#8080ff;fill-opacity:1;fill-rule:evenodd;stroke-width:0.258267"
         id="ellipse45536"
         cx="-1052.6215"
         cy="525.61383"
         rx="9.5167303"
         ry="1.9033457"
         inkscape:export-xdpi="96.534714"
         inkscape:export-ydpi="96.534714"
         transform="scale(-1,1)"
         inkscape:export-filename="C:\Users\dansa\Documents\Krita-Malba\ellipse45540.png" />
      <ellipse
         style="fill:#f4e3d7;fill-opacity:1;fill-rule:evenodd;stroke:#000000;stroke-width:0.258267"
         id="ellipse45538"
         cx="-1052.6215"
         cy="486.1275"
         rx="9.5167303"
         ry="1.9033457"
         inkscape:export-xdpi="96.534714"
         inkscape:export-ydpi="96.534714"
         transform="scale(-1,1)"
         inkscape:export-filename="C:\Users\dansa\Documents\Krita-Malba\ellipse45540.png" />
      <ellipse
         style="fill:#333333;fill-opacity:1;fill-rule:evenodd;stroke:#000000;stroke-width:0.258263"
         id="ellipse45540"
         cx="-1052.6215"
         cy="486.12732"
         rx="3.7002831"
         ry="0.74005651"
         inkscape:export-xdpi="96.534714"
         inkscape:export-ydpi="96.534714"
         transform="scale(-1,1)"
         inkscape:export-filename="C:\Users\dansa\Documents\Krita-Malba\ellipse45540.png" />
    </g>
    <g
       aria-label="Libre Caslon Text"
       id="text2150343"
       style="font-size:106.667px;line-height:1.25;font-family:'Libre Caslon Text';-inkscape-font-specification:'Libre Caslon Text, Normal';letter-spacing:0px;word-spacing:0px;fill:#008080">
      <path
         d="m 43.930312,334.68135 h 30.826763 q 2.880009,-4.69335 4.693348,-9.28003 1.813339,-4.69335 4.26668,-11.9467 h 2.773342 l -3.946679,25.49341 H 23.663582 v -2.45334 l 9.066695,-2.02668 v -73.17356 l -9.066695,-2.02667 v -2.45334 h 30.400095 v 2.45334 l -10.133365,2.02667 z"
         id="path2127" />
      <path
         d="m 98.010295,262.68112 q 0,-2.98667 1.813339,-4.90668 1.920006,-2.02667 5.013346,-2.02667 3.09335,0 5.01335,2.02667 1.92001,1.92001 1.92001,4.90668 0,2.88001 -1.92001,4.90669 -1.92,1.92 -5.01335,1.92 -3.09334,0 -5.013346,-1.92 -1.813339,-2.02668 -1.813339,-4.90669 z m 19.946725,76.26691 H 91.716942 v -2.13334 l 8.106692,-1.60001 v -44.37347 l -7.893358,-2.88001 v -1.49334 L 108.997,281.34785 h 0.96 v 53.86683 l 8.00002,1.60001 z"
         id="path2129" />
      <path
         d="m 151.55705,340.0147 q -8.21336,0 -14.72004,-4.90668 h -0.53334 l -4.90668,3.62667 h -1.70667 v -78.82691 l -7.78669,-2.88001 v -1.38667 l 16.96005,-5.22668 h 1.06667 v 38.18678 q 6.72002,-7.25335 16.21338,-7.25335 6.93336,0 12.26671,3.41334 5.33335,3.41335 8.32002,9.60003 2.98668,6.08002 2.98668,13.97338 0,8.85336 -3.73335,16.10672 -3.62667,7.25335 -10.13336,11.41337 -6.40002,4.16001 -14.29338,4.16001 z m 0,-3.62668 q 5.01335,0 8.7467,-3.09334 3.84001,-3.20001 5.86668,-8.85336 2.13334,-5.65335 2.13334,-13.12004 0,-11.30671 -4.48001,-17.70673 -4.37335,-6.50668 -12.16004,-6.50668 -3.52001,0 -6.61336,1.49333 -2.98667,1.49334 -5.12001,4.05335 v 30.29343 q 0,6.08002 3.20001,9.81336 3.20001,3.62668 8.42669,3.62668 z"
         id="path2131" />
      <path
         d="m 220.46385,281.24118 q 2.77335,0 4.69335,2.02667 2.02668,1.92001 2.02668,4.69335 0,2.56001 -1.81334,4.37335 -1.70668,1.70667 -4.37335,1.70667 -2.56001,0 -4.05335,-2.02667 -0.96,-1.17334 -1.70667,-1.60001 -0.64,-0.42666 -1.6,-0.42666 -1.28001,0 -2.24001,0.64 -0.96,0.53333 -2.02667,2.02667 -1.81334,2.45334 -2.34668,3.30668 -0.53333,0.85333 -0.74667,1.92 v 37.33345 l 10.6667,1.60001 v 2.13334 h -28.90675 v -2.13334 l 8.10669,-1.60001 v -44.37347 l -7.89336,-2.98667 v -1.38668 l 16.53339,-5.22668 h 1.06667 v 11.6267 q 3.73334,-5.65335 7.46669,-8.64002 3.84001,-2.98668 7.14668,-2.98668 z"
         id="path2133" />
      <path
         d="m 243.18362,306.09459 q -0.10667,0.74667 -0.10667,2.45334 0,11.73337 4.69335,17.70673 4.69335,5.97335 13.76005,5.97335 5.22668,0 9.70669,-1.81334 4.48002,-1.92001 7.25336,-5.33335 l 1.28,-1.60001 1.81334,1.06667 -0.64,1.49334 q -2.77334,6.50669 -8.96003,10.24003 -6.18668,3.73335 -13.97338,3.73335 -7.57335,0 -13.44004,-3.52001 -5.76002,-3.62668 -8.96003,-10.0267 -3.20001,-6.50669 -3.20001,-14.93338 0,-8.85336 3.52002,-15.68005 3.62667,-6.93335 10.02669,-10.6667 6.50669,-3.84001 14.93338,-3.84001 10.45337,0 16.00005,6.18668 5.65335,6.08002 5.86669,17.92006 l -0.74667,0.64 z m 16.74672,-21.44006 q -7.04002,0 -11.3067,4.80001 -4.26668,4.80002 -5.22668,13.65338 l 27.84008,-0.96001 q 0.32,-1.28 0.32,-4.37334 0,-13.12004 -11.6267,-13.12004 z"
         id="path2135" />
      <path
         d="m 322.11707,298.41457 q 0,-12.37337 5.01335,-22.08007 5.01335,-9.7067 13.86671,-15.14671 8.85336,-5.44002 20.16006,-5.44002 6.18669,0 12.16004,1.70667 5.97335,1.70667 10.77337,4.80002 h 0.42666 l 5.22669,-5.44002 h 1.92 v 24.53341 h -3.20001 q -1.70667,-5.22668 -4.37334,-9.60003 -3.73335,-5.97335 -8.85337,-8.64003 -5.01334,-2.66667 -12.2667,-2.66667 -13.22671,0 -20.3734,9.70669 -7.04002,9.7067 -7.04002,27.52009 0,17.81339 7.14669,27.73342 7.25336,9.81336 20.3734,9.81336 6.40002,0 11.52003,-2.56 5.12002,-2.56001 8.53336,-7.46669 4.05335,-5.65336 5.65335,-14.18672 h 2.88001 v 27.94676 h -2.56001 l -4.90668,-7.04002 q -5.65335,4.26668 -11.3067,6.18668 -5.54668,1.92001 -12.16004,1.92001 -11.3067,0 -20.16006,-5.22668 -8.74669,-5.22669 -13.65338,-14.72005 -4.80001,-9.49336 -4.80001,-21.6534 z"
         id="path2137" />
      <path
         d="m 416.73053,340.0147 q -5.65335,0 -9.28003,-3.62668 -3.52001,-3.62668 -3.52001,-9.3867 0,-4.69334 2.77334,-8.00002 2.88001,-3.41334 9.17336,-5.97335 6.40002,-2.56001 17.28006,-4.90668 V 297.6679 q 0,-6.72002 -1.92001,-9.49336 -1.92001,-2.77335 -6.61335,-2.77335 -4.58668,0 -7.25336,2.24001 -2.66667,2.13334 -2.66667,5.86669 0,0.96 0.10666,1.92 0.10667,0.85334 0.10667,1.81334 0,2.66668 -1.60001,4.48002 -1.49333,1.70667 -3.94667,1.70667 -2.13334,0 -3.52002,-1.38667 -1.38667,-1.38667 -1.38667,-3.73335 0,-3.52001 3.09335,-7.25335 3.20001,-3.73335 8.42669,-6.40002 6.40002,-3.30668 13.54671,-3.30668 4.58668,0 7.78669,1.49334 3.20001,1.49333 4.58668,4.16001 0.85334,1.81334 1.06667,4.48001 0.32,2.66668 0.32,9.49337 v 24.42674 q 0,5.22668 0.74667,7.14669 0.85334,1.81334 3.20001,1.81334 1.49334,0 2.66668,-0.64 1.17333,-0.74667 2.56,-2.45335 l 1.81334,1.60001 q -2.45334,3.84001 -5.12001,5.54668 -2.56001,1.60001 -5.97336,1.60001 -4.26668,0 -6.61335,-2.34668 -2.34667,-2.34667 -2.88001,-7.25335 l -0.32,-0.21334 q -3.09334,4.58669 -7.57336,7.25336 -4.48001,2.56001 -9.06669,2.56001 z m 4.69335,-6.29335 q 3.41334,0 6.50668,-1.81334 3.09335,-1.92001 5.22669,-5.33335 v -15.36005 q -7.68003,1.49334 -11.94671,3.20001 -4.16001,1.70667 -5.97335,4.16001 -1.81334,2.45334 -1.81334,6.18669 0,4.26668 2.02667,6.61335 2.13334,2.34668 5.97336,2.34668 z"
         id="path2139" />
      <path
         d="m 480.73068,281.34785 q 3.62667,0 7.04002,0.53333 3.52001,0.42667 5.54668,1.28001 v 14.82671 h -2.24001 q -1.6,-13.44004 -12.48003,-13.44004 -4.26668,0 -6.82669,2.34667 -2.45334,2.34668 -2.45334,6.29336 0,2.98667 1.49333,5.12001 1.60001,2.02667 3.84002,3.41335 2.24,1.38667 6.18668,3.20001 4.90668,2.24 7.78669,4.16001 2.98668,1.92 5.12002,5.33335 2.13334,3.30668 2.13334,8.32002 0,7.89336 -5.33335,12.58671 -5.22668,4.69335 -14.29338,4.69335 -3.41334,0 -7.57336,-0.64 -4.05334,-0.64001 -7.14668,-1.70668 l -0.64001,-17.28005 h 2.56001 q 0.74667,8.10669 4.16001,12.26671 3.41335,4.16001 9.49337,4.16001 4.80001,0 7.68002,-2.66668 2.88001,-2.66667 2.88001,-7.14669 0,-3.30667 -1.6,-5.54668 -1.60001,-2.34667 -3.94668,-3.73334 -2.34668,-1.49334 -6.61336,-3.62668 -4.80001,-2.34668 -7.68002,-4.16002 -2.88001,-1.92 -4.90668,-5.12001 -2.02668,-3.20001 -2.02668,-7.89336 0,-7.46669 5.12002,-11.52004 5.22668,-4.05334 14.72005,-4.05334 z"
         id="path2141" />
      <path
         d="m 528.83743,338.94803 h -24.64007 v -2.02667 l 7.46669,-1.60001 v -75.52024 l -7.46669,-2.77334 v -1.38667 l 16.32005,-5.22668 h 0.96 v 84.90693 l 7.36002,1.60001 z"
         id="path2143" />
      <path
         d="m 564.78417,281.34785 q 7.89336,0 14.29338,3.84001 6.50669,3.73335 10.13336,10.45337 3.62668,6.72002 3.62668,15.04004 0,8.32003 -3.62668,15.04005 -3.62667,6.72002 -10.13336,10.56003 -6.40002,3.73335 -14.29338,3.73335 -7.89336,0 -14.40004,-3.73335 -6.40002,-3.84001 -10.0267,-10.56003 -3.62668,-6.72002 -3.62668,-15.04005 0,-8.32002 3.62668,-15.04004 3.62668,-6.72002 10.0267,-10.45337 6.50668,-3.84001 14.40004,-3.84001 z m -16.74672,29.33342 q 0,11.52004 4.37335,18.02673 4.48001,6.50668 12.2667,6.50668 7.89336,0 12.37338,-6.50668 4.48001,-6.61336 4.48001,-18.13339 0,-11.41337 -4.48001,-17.92006 -4.37335,-6.50669 -12.26671,-6.50669 -7.89336,0 -12.37337,6.50669 -4.37335,6.50669 -4.37335,18.02672 z"
         id="path2145" />
      <path
         d="m 660.57105,336.81469 v 2.13334 h -26.13341 v -2.13334 l 8.00002,-1.49334 v -31.3601 q 0,-4.69335 -0.32,-7.36002 -0.21333,-2.77334 -0.96,-4.48001 -2.02668,-4.90669 -8.32003,-4.90669 -3.84001,0 -7.46669,1.70668 -3.52001,1.70667 -6.18668,4.90668 v 41.38679 l 8.00002,1.60001 v 2.13334 H 600.9442 v -2.13334 l 8.10669,-1.60001 v -44.2668 l -7.89336,-2.98668 v -1.38667 l 16.53339,-5.22668 h 1.06667 v 9.06669 q 4.58668,-4.37334 9.70669,-6.72002 5.22669,-2.34667 10.3467,-2.34667 4.26668,0 7.57336,1.70667 3.30668,1.70667 4.80002,4.69335 0.85333,1.70667 1.06667,4.58668 0.32,2.77334 0.32,10.56003 v 32.42677 z"
         id="path2147" />
      <path
         d="m 723.7176,334.46801 v -73.38689 h -21.44006 q -5.76002,7.57336 -9.81337,19.20006 h -2.56 l 3.94667,-23.46674 h 70.61356 l 3.94668,23.46674 h -2.56001 q -4.05335,-11.6267 -9.81336,-19.20006 h -21.12007 v 73.38689 l 11.6267,2.02668 v 2.45334 h -34.56011 v -2.45334 z"
         id="path2149" />
      <path
         d="m 774.59764,306.09459 q -0.10667,0.74667 -0.10667,2.45334 0,11.73337 4.69335,17.70673 4.69335,5.97335 13.76004,5.97335 5.22669,0 9.7067,-1.81334 4.48001,-1.92001 7.25336,-5.33335 l 1.28,-1.60001 1.81334,1.06667 -0.64,1.49334 q -2.77335,6.50669 -8.96003,10.24003 -6.18669,3.73335 -13.97338,3.73335 -7.57336,0 -13.44004,-3.52001 -5.76002,-3.62668 -8.96003,-10.0267 -3.20001,-6.50669 -3.20001,-14.93338 0,-8.85336 3.52001,-15.68005 3.62668,-6.93335 10.0267,-10.6667 6.50669,-3.84001 14.93338,-3.84001 10.45337,0 16.00005,6.18668 5.65335,6.08002 5.86669,17.92006 l -0.74667,0.64 z m 16.74672,-21.44006 q -7.04002,0 -11.3067,4.80001 -4.26668,4.80002 -5.22669,13.65338 l 27.84009,-0.96001 q 0.32,-1.28 0.32,-4.37334 0,-13.12004 -11.6267,-13.12004 z"
         id="path2151" />
      <path
         d="m 866.65113,332.22801 q 1.49334,2.24 3.30668,3.20001 1.92001,0.96 5.86668,1.38667 v 2.13334 h -26.56008 v -2.13334 q 3.94668,-0.42667 5.12002,-0.74667 1.17333,-0.42667 1.17333,-1.49334 0,-0.85333 -1.70667,-3.52001 l -10.3467,-16.00005 -10.77336,14.08004 q -1.92001,2.45335 -1.92001,3.84002 0,2.98667 6.93336,3.84001 v 2.13334 h -23.57341 v -2.13334 q 5.33335,-0.85334 8.32002,-2.45334 3.09335,-1.60001 5.65336,-5.12002 l 13.01337,-17.81339 -14.50671,-22.2934 q -1.38667,-2.13334 -3.41335,-2.98668 -1.92,-0.96 -6.50668,-1.6 v -2.13334 h 26.77341 v 2.13334 q -3.09334,0.21333 -4.37334,0.74667 -1.28001,0.53333 -1.28001,1.49334 0,1.06667 1.60001,3.52001 l 8.42669,12.9067 8.42669,-10.9867 q 1.28001,-1.6 1.60001,-2.34667 0.32,-0.74667 0.32,-1.70667 0,-2.56001 -6.18669,-3.62668 v -2.13334 h 21.97341 v 2.13334 q -5.12002,1.06667 -7.57336,2.45334 -2.34668,1.28 -5.01335,4.80001 l -11.41337,14.82672 z"
         id="path2153" />
      <path
         d="m 898.01111,340.0147 q -5.12002,0 -8.32003,-2.98668 -1.92,-1.81334 -2.77334,-4.48001 -0.74667,-2.77334 -0.74667,-7.68003 v -38.72012 h -6.93335 l -0.21334,-1.70667 15.36005,-16.00005 1.92001,0.21334 v 13.76004 h 15.25338 l -0.85334,3.73334 h -14.40004 v 37.76012 q 0,3.84001 0.21333,5.54669 0.21333,1.6 0.74667,2.56 1.70667,2.98668 5.33335,2.98668 2.13334,0 4.26668,-1.17334 2.24001,-1.17333 3.84001,-3.20001 l 1.81334,1.38667 q -2.45334,3.73335 -6.40002,5.86669 -3.84001,2.13334 -8.10669,2.13334 z"
         id="path2155" />
    </g>
    <g
       aria-label="AaBbCcDdEeRrQq"
       id="text1728"
       style="font-size:137.86px;line-height:1.25;font-family:'Libre Baskerville';-inkscape-font-specification:'Libre Baskerville, Normal';letter-spacing:0px;word-spacing:0px;fill:#004040;stroke-width:0.999999">
      <path
         d="M 112.96429,194.10789 H 76.15567 q -2.34362,5.65226 -3.99794,10.06378 -1.65432,4.27366 -2.7572,7.44444 -0.96502,3.17078 -1.3786,5.37654 -0.41358,2.20576 -0.41358,3.58436 0,3.86008 2.48148,5.37654 2.48148,1.3786 8.2716,1.3786 v 5.23868 H 44.86145 v -5.23868 q 3.17078,-0.41358 5.37654,-1.10288 2.34362,-0.6893 3.99794,-1.93004 1.79218,-1.24074 3.03292,-3.17078 1.3786,-2.0679 2.61934,-4.96296 l 35.8436,-89.74686 h 5.92798 l 31.29422,77.75304 q 3.17078,7.72016 5.5144,12.4074 2.34362,4.54938 4.54938,6.893 2.20576,2.34362 4.68724,3.03292 2.61934,0.6893 6.2037,0.6893 v 5.37654 h -44.94236 v -5.37654 q 7.30658,0 10.06378,-1.3786 2.7572,-1.3786 2.7572,-4.54938 0,-1.3786 -0.13786,-2.48148 -0.13786,-1.24074 -0.55144,-2.61934 -0.27572,-1.3786 -0.96502,-3.03292 -0.55144,-1.79218 -1.51646,-4.1358 z m -34.05142,-6.893 h 31.43208 l -15.30246,-40.6687 z"
         id="path2080" />
      <path
         d="m 200.22958,191.76427 q -7.85802,3.03292 -13.37242,5.92798 -5.37654,2.89506 -8.68518,5.79012 -3.30864,2.89506 -4.8251,5.79012 -1.3786,2.89506 -1.3786,5.92798 0,4.54938 3.03292,7.44444 3.03292,2.89506 7.99588,2.89506 3.58436,0 6.61728,-1.79218 3.17078,-1.79218 5.5144,-4.8251 2.34362,-3.17078 3.72222,-7.30658 1.3786,-4.27366 1.3786,-8.9609 z m 0,-5.92798 v -5.65226 q 0,-16.81892 -14.33744,-16.81892 -2.34362,0 -3.99794,0.41358 -1.65432,0.41358 -2.7572,1.3786 -1.10288,0.96502 -2.0679,2.7572 -0.82716,1.79218 -1.65432,4.41152 -1.51646,3.99794 -3.03292,5.37654 -1.3786,1.24074 -4.1358,1.24074 -6.893,0 -6.893,-6.893 0,-6.61728 7.03086,-10.20164 7.03086,-3.72222 19.9897,-3.72222 13.786,0 19.57612,4.96296 5.79012,4.8251 5.79012,16.5432 v 30.88064 q 0,15.71604 6.2037,15.71604 1.93004,0 3.72222,-0.41358 1.79218,-0.55144 3.03292,-2.61934 l 1.93004,3.30864 q -1.65432,3.17078 -6.06584,5.37654 -4.41152,2.0679 -9.23662,2.0679 -6.06584,0 -9.09876,-3.86008 -2.89506,-3.86008 -2.89506,-10.89094 h -0.6893 q -3.58436,6.75514 -9.92592,10.75308 -6.34156,3.86008 -14.06172,3.86008 -8.68518,0 -13.64814,-4.41152 -4.96296,-4.41152 -4.96296,-11.85596 0,-3.30864 1.10288,-6.34156 1.24074,-3.03292 3.86008,-5.79012 2.61934,-2.7572 6.893,-5.37654 4.27366,-2.7572 10.47736,-5.5144 z"
         id="path2082" />
      <path
         d="m 233.72941,232.57083 v -5.23868 q 5.37654,-0.13786 8.54732,-0.82716 3.30864,-0.6893 4.96296,-2.34362 1.79218,-1.65432 2.34362,-4.68724 0.6893,-3.03292 0.6893,-7.85802 v -64.24276 q 0,-4.8251 -0.55144,-7.72016 -0.41358,-3.03292 -1.93004,-4.68724 -1.3786,-1.79218 -4.1358,-2.34362 -2.7572,-0.6893 -7.16872,-0.96502 v -5.23868 h 41.22014 q 18.6111,0 28.9506,6.61728 10.3395,6.61728 10.3395,18.6111 0,9.09876 -5.79012,14.88888 -5.65226,5.79012 -18.05966,9.51234 v 0.55144 q 4.27366,0.41358 7.44444,0.96502 3.17078,0.55144 5.65226,1.3786 2.48148,0.6893 4.54938,1.79218 2.20576,1.10288 4.27366,2.48148 12.26954,8.68518 12.26954,21.78188 0,7.30658 -4.1358,13.64814 -3.99794,6.2037 -11.30452,9.78806 -2.34362,1.24074 -4.8251,2.0679 -2.48148,0.6893 -5.79012,1.24074 -3.30864,0.41358 -7.72016,0.6893 -4.27366,0.13786 -10.20164,0.13786 z m 50.04318,-5.92798 q 24.95266,0 24.95266,-21.3683 0,-15.57818 -12.82098,-21.78188 -2.20576,-0.96502 -4.27366,-1.65432 -2.0679,-0.6893 -4.8251,-0.96502 -2.7572,-0.41358 -6.61728,-0.55144 -3.72222,-0.13786 -9.23662,-0.13786 h -6.2037 v 30.74278 q 0,8.40946 4.41152,12.13168 4.41152,3.58436 14.61316,3.58436 z m -11.30452,-53.35182 q 4.27366,0 7.16872,-0.13786 2.89506,-0.13786 4.96296,-0.41358 2.0679,-0.41358 3.58436,-0.96502 1.65432,-0.6893 3.30864,-1.79218 4.41152,-2.7572 6.2037,-6.61728 1.93004,-3.86008 1.93004,-10.06378 0,-10.89094 -5.37654,-15.57818 -5.23868,-4.8251 -16.5432,-4.8251 h -10.61522 q -2.34362,0 -2.34362,2.34362 v 38.04936 z"
         id="path2084" />
      <path
         d="m 360.28468,203.75809 q 0,5.23868 1.51646,9.6502 1.51646,4.27366 4.1358,7.44444 2.7572,3.03292 6.47942,4.8251 3.86008,1.79218 8.2716,1.79218 4.8251,0 8.68518,-2.20576 3.99794,-2.20576 6.75514,-6.2037 2.89506,-4.1358 4.41152,-9.78806 1.65432,-5.79012 1.65432,-12.82098 0,-7.03086 -1.65432,-12.82098 -1.65432,-5.92798 -4.54938,-10.06378 -2.89506,-4.27366 -7.03086,-6.61728 -3.99794,-2.34362 -8.82304,-2.34362 -5.65226,0 -10.06378,2.7572 -4.41152,2.61934 -6.75514,7.44444 -3.03292,6.06584 -3.03292,16.68106 z m -0.27572,-34.465 h 0.55144 q 4.41152,-5.79012 9.6502,-8.40946 5.37654,-2.7572 12.4074,-2.7572 7.44444,0 13.786,2.89506 6.47942,2.89506 11.16666,7.99588 4.8251,5.10082 7.44444,12.13168 2.7572,6.893 2.7572,14.88888 0,8.13374 -2.7572,15.1646 -2.7572,6.893 -7.5823,11.99382 -4.68724,5.10082 -11.16666,7.99588 -6.47942,2.89506 -14.06172,2.89506 -7.85802,0 -14.75102,-2.89506 -6.75514,-2.89506 -11.16666,-7.85802 l -6.47942,9.23662 h -3.03292 v -83.26744 q 0,-13.92386 -1.79218,-17.78394 -0.41358,-0.96502 -0.96502,-1.51646 -0.55144,-0.6893 -1.65432,-1.10288 -1.10288,-0.55144 -3.03292,-0.96502 -1.93004,-0.41358 -5.23868,-0.82716 v -3.4465 l 25.91768,-5.5144 z"
         id="path2086" />
      <path
         d="m 519.37502,126.41863 h 3.86008 l 1.24074,31.7078 h -5.10082 q -3.03292,-12.13168 -11.7181,-19.02468 -8.68518,-6.893 -20.95472,-6.893 -8.40946,0 -15.02674,3.30864 -6.61728,3.30864 -11.16666,9.51234 -4.54938,6.2037 -7.03086,15.1646 -2.34362,8.9609 -2.34362,20.26542 0,22.19546 9.23662,34.18928 9.23662,11.85596 26.74484,11.85596 26.60698,0 34.18928,-28.2613 h 5.65226 v 34.32714 h -4.8251 l -3.17078,-10.89094 q -14.4753,12.26954 -35.01644,12.26954 -11.7181,0 -21.23044,-3.72222 -9.37448,-3.72222 -16.12962,-10.47736 -6.61728,-6.893 -10.3395,-16.68106 -3.58436,-9.78806 -3.58436,-21.78188 0,-12.54526 3.86008,-22.88476 3.86008,-10.3395 10.75308,-17.78394 7.03086,-7.44444 16.68106,-11.44238 9.78806,-4.1358 21.50616,-4.1358 8.2716,0 15.57818,2.34362 7.30658,2.34362 15.8539,7.5823 z"
         id="path2088" />
      <path
         d="m 604.71011,221.12845 q -4.96296,6.06584 -12.82098,9.51234 -7.85802,3.30864 -16.95678,3.30864 -7.30658,0 -13.51028,-2.61934 -6.06584,-2.7572 -10.47736,-7.5823 -4.41152,-4.96296 -6.893,-11.85596 -2.34362,-6.893 -2.34362,-15.30246 0,-8.82304 2.7572,-15.8539 2.7572,-7.16872 7.72016,-12.13168 5.10082,-5.10082 12.13168,-7.72016 7.16872,-2.7572 15.71604,-2.7572 5.37654,0 9.78806,0.96502 4.41152,0.82716 7.5823,2.48148 3.30864,1.51646 5.10082,3.86008 1.79218,2.20576 1.79218,4.8251 0,2.7572 -1.79218,4.27366 -1.79218,1.51646 -4.96296,1.51646 -2.48148,0 -4.1358,-0.96502 -1.65432,-1.10288 -4.27366,-4.68724 -2.7572,-3.17078 -5.37654,-4.41152 -2.48148,-1.3786 -6.47942,-1.3786 -9.78806,0 -14.88888,7.5823 -4.96296,7.5823 -4.96296,22.33332 0,15.8539 5.5144,24.1255 5.65226,8.13374 16.40534,8.13374 5.79012,0 10.89094,-2.20576 5.10082,-2.34362 10.3395,-7.44444 z"
         id="path2090" />
      <path
         d="m 614.08446,232.57083 v -5.23868 q 5.23868,-0.13786 8.40946,-0.6893 3.30864,-0.6893 5.10082,-2.34362 1.79218,-1.79218 2.34362,-4.68724 0.6893,-3.03292 0.6893,-7.99588 v -64.24276 q 0,-4.8251 -0.55144,-7.72016 -0.41358,-3.03292 -1.93004,-4.68724 -1.3786,-1.79218 -4.1358,-2.34362 -2.7572,-0.6893 -7.16872,-0.96502 v -5.23868 h 48.38886 q 12.4074,0 22.88476,4.1358 10.61522,4.1358 18.19752,11.44238 7.72016,7.30658 11.99382,17.37036 4.27366,10.06378 4.27366,21.91974 0,11.30452 -3.99794,20.81686 -3.99794,9.37448 -11.30452,16.12962 -7.16872,6.75514 -17.2325,10.61522 -10.06378,3.72222 -22.0576,3.72222 z m 33.36212,-99.39706 q -2.34362,0 -2.34362,2.34362 v 74.58226 q 0,15.71604 20.54114,15.71604 18.88682,0 28.9506,-11.16666 10.06378,-11.30452 10.06378,-33.0864 0,-11.44238 -2.7572,-20.40328 -2.7572,-8.9609 -7.99588,-15.1646 -5.10082,-6.2037 -12.4074,-9.51234 -7.30658,-3.30864 -16.5432,-3.30864 z"
         id="path2092" />
      <path
         d="m 797.43812,220.99059 h -0.55144 q -4.96296,7.03086 -10.61522,10.06378 -5.5144,2.89506 -13.0967,2.89506 -7.85802,0 -14.4753,-2.7572 -6.47942,-2.89506 -11.30452,-7.85802 -4.68724,-5.10082 -7.44444,-12.13168 -2.61934,-7.03086 -2.61934,-15.30246 0,-8.13374 2.61934,-15.02674 2.7572,-7.03086 7.44444,-11.99382 4.8251,-5.10082 11.44238,-7.85802 6.61728,-2.89506 14.33744,-2.89506 6.61728,0 11.7181,2.20576 5.23868,2.20576 10.06378,7.03086 v -14.06172 q 0,-7.85802 -0.27572,-13.0967 -0.13786,-5.23868 -0.55144,-7.16872 -0.6893,-3.03292 -3.86008,-4.27366 -3.17078,-1.24074 -10.3395,-1.24074 v -4.1358 l 28.2613,-5.23868 v 79.54522 q 0,9.51234 0.13786,15.71604 0.13786,6.06584 0.82716,8.68518 0.41358,1.65432 0.96502,2.7572 0.6893,1.10288 1.79218,1.79218 1.24074,0.55144 3.17078,0.82716 2.0679,0.27572 5.23868,0.27572 v 4.68724 l -22.88476,1.51646 z m -2.7572,-30.46706 q 0,-7.16872 -0.82716,-10.89094 -0.6893,-3.72222 -2.89506,-6.47942 -3.17078,-4.1358 -8.13374,-6.2037 -4.8251,-2.20576 -9.6502,-2.20576 -9.92592,0 -15.1646,8.2716 -5.10082,8.13374 -5.10082,22.19546 0,7.30658 1.24074,13.23456 1.3786,5.92798 3.86008,10.20164 2.61934,4.1358 6.34156,6.47942 3.86008,2.20576 8.82304,2.20576 2.48148,0 4.96296,-0.55144 2.61934,-0.55144 4.96296,-1.65432 2.48148,-1.24074 4.54938,-2.7572 2.0679,-1.65432 3.4465,-3.72222 1.93004,-3.03292 2.7572,-7.30658 0.82716,-4.27366 0.82716,-11.7181 z"
         id="path2094" />
      <path
         d="m 859.6129,174.25605 q 7.44444,0 12.4074,-0.82716 5.10082,-0.96502 7.99588,-2.89506 3.03292,-1.93004 4.27366,-4.96296 1.3786,-3.03292 1.3786,-7.16872 h 4.8251 v 37.63578 h -4.8251 q 0,-4.1358 -1.24074,-7.16872 -1.10288,-3.03292 -4.1358,-4.96296 -2.89506,-2.0679 -7.99588,-3.03292 -4.96296,-1.10288 -12.68312,-1.10288 v 31.15636 q 0,4.54938 1.10288,7.5823 1.10288,2.89506 3.72222,4.8251 2.7572,1.79218 7.16872,2.61934 4.41152,0.6893 10.89094,0.6893 7.30658,0 12.4074,-0.96502 5.10082,-1.10288 8.54732,-3.58436 3.4465,-2.48148 5.5144,-6.47942 2.0679,-4.1358 3.4465,-10.20164 h 5.23868 l -2.0679,27.15842 H 829.973 v -5.23868 q 4.8251,-0.13786 7.72016,-0.82716 3.03292,-0.6893 4.68724,-2.34362 1.65432,-1.65432 2.20576,-4.68724 0.55144,-3.03292 0.55144,-7.85802 v -64.24276 q 0,-4.8251 -0.55144,-7.72016 -0.41358,-3.03292 -1.93004,-4.68724 -1.3786,-1.79218 -4.1358,-2.34362 -2.7572,-0.6893 -7.16872,-0.96502 v -5.23868 h 79.68308 l 1.24074,24.26336 h -4.8251 q -0.82716,-5.5144 -2.7572,-8.9609 -1.79218,-3.58436 -5.10082,-5.65226 -3.17078,-2.0679 -8.13374,-2.89506 -4.96296,-0.82716 -11.99382,-0.82716 h -17.50822 q -2.34362,0 -2.34362,2.34362 z"
         id="path2096" />
      <path
         d="m 995.81852,219.74985 q -11.7181,14.19958 -29.08846,14.19958 -8.13374,0 -14.75102,-2.61934 -6.61728,-2.7572 -11.44238,-7.5823 -4.68724,-4.96296 -7.30658,-11.7181 -2.61934,-6.893 -2.61934,-15.1646 0,-8.40946 2.7572,-15.57818 2.7572,-7.16872 7.72016,-12.26954 5.10082,-5.10082 11.99382,-7.99588 7.03086,-2.89506 15.30246,-2.89506 13.37242,0 20.679,7.30658 7.30658,7.16872 7.30658,20.679 0,1.93004 -0.82716,2.34362 -0.6893,0.41358 -3.4465,0.41358 h -45.35594 q -0.27572,1.10288 -0.41358,2.7572 -0.13786,1.51646 -0.13786,3.4465 0,7.16872 1.65432,13.0967 1.79218,5.79012 4.96296,9.92592 3.30864,4.1358 7.72016,6.47942 4.54938,2.20576 10.06378,2.20576 5.79012,0 10.75308,-2.48148 4.96296,-2.61934 10.20164,-8.40946 z m -22.7469,-37.2222 q 2.7572,0 4.41152,-0.13786 1.65432,-0.13786 2.48148,-0.55144 0.82716,-0.41358 1.10288,-1.10288 0.27572,-0.82716 0.27572,-2.0679 0,-6.34156 -4.1358,-10.06378 -3.99794,-3.86008 -11.0288,-3.86008 -14.88888,0 -18.47324,17.78394 z"
         id="path2098" />
      <path
         d="m 1092.4582,153.02561 q 0,11.0288 -6.6173,18.33538 -6.6172,7.30658 -21.0925,9.78806 l 30.467,36.67076 q 3.7222,4.54938 8.1338,6.61728 4.5493,1.93004 10.753,2.89506 v 5.23868 h -26.6069 l -33.7757,-43.28804 q -1.7922,-2.34362 -3.4465,-3.72222 -1.5165,-1.3786 -3.3087,-2.0679 -1.6543,-0.82716 -3.9979,-0.96502 -2.2058,-0.27572 -5.3766,-0.27572 v 28.67488 q 0,5.10082 0.5515,8.40946 0.6893,3.17078 2.6193,4.96296 2.0679,1.79218 5.7901,2.48148 3.8601,0.55144 10.0638,0.55144 v 5.23868 H 1007.95 v -5.23868 q 4.8251,-0.13786 7.7202,-0.82716 3.0329,-0.6893 4.6872,-2.34362 1.6544,-1.65432 2.2058,-4.68724 0.5514,-3.03292 0.5514,-7.85802 v -64.24276 q 0,-4.8251 -0.5514,-7.72016 -0.4136,-3.03292 -1.93,-4.68724 -1.3786,-1.79218 -4.1358,-2.34362 -2.7572,-0.6893 -7.1688,-0.96502 v -5.23868 h 43.2881 q 19.0247,0 29.3642,7.03086 10.4773,7.03086 10.4773,19.57612 z m -54.8683,22.33332 h 9.7881 q 13.786,0 20.4033,-4.96296 6.7551,-5.10082 6.7551,-16.68106 0,-11.16666 -5.3765,-15.99176 -5.2387,-4.8251 -16.5432,-4.8251 h -12.6831 q -2.3437,0 -2.3437,2.34362 z"
         id="path2100" />
      <path
         d="m 1140.9847,210.65109 q 0,5.65226 0.2757,8.9609 0.2757,3.30864 1.3786,5.10082 1.2408,1.65432 3.4465,2.20576 2.2058,0.55144 6.2037,0.82716 v 4.8251 h -36.6707 v -4.8251 q 3.9979,-0.13786 6.3415,-0.6893 2.3436,-0.6893 3.5844,-2.34362 1.2407,-1.65432 1.5164,-4.68724 0.4136,-3.17078 0.4136,-8.40946 v -16.12962 q 0,-9.37448 -0.2757,-14.61316 -0.1379,-5.23868 -1.3786,-7.72016 -1.1029,-2.48148 -3.5844,-2.89506 -2.4814,-0.55144 -6.893,-0.55144 v -4.8251 l 24.1255,-5.23868 1.9301,17.09464 h 0.5514 q 1.7922,-4.1358 4.4115,-7.5823 2.7572,-3.4465 5.928,-5.79012 3.1708,-2.48148 6.6173,-3.86008 3.4465,-1.3786 7.0309,-1.3786 4.4115,0 6.893,2.20576 2.6193,2.0679 2.6193,5.65226 0,3.30864 -2.0679,5.23868 -2.0679,1.79218 -5.928,1.79218 -2.2057,0 -3.7222,-0.55144 -1.5165,-0.55144 -2.7572,-1.10288 -1.1029,-0.6893 -2.2058,-1.24074 -0.965,-0.55144 -2.2057,-0.55144 -3.7222,0 -7.4445,4.8251 -3.7222,4.68724 -5.7901,11.99382 -1.1029,3.99794 -1.7922,9.09876 -0.5514,4.96296 -0.5514,10.47736 z"
         id="path2102" />
      <path
         d="m 1241.4846,125.04003 q 12.1316,0 22.609,4.27366 10.4774,4.27366 18.1975,11.7181 7.7202,7.44444 12.1317,17.64608 4.4115,10.06378 4.4115,21.78188 0,12.95884 -5.3765,23.71192 -5.2387,10.61522 -14.0617,18.33538 -5.7902,4.96296 -12.9589,8.40946 -7.1687,3.30864 -15.0267,6.2037 -3.7222,1.51646 -7.3066,3.17078 -3.4465,1.65432 -6.3416,3.86008 v 0.55144 q 0.8272,-0.13786 2.2058,-0.27572 1.5165,0 2.6193,0 6.2037,0 11.5803,1.51646 5.3765,1.65432 10.4773,3.58436 5.1009,2.0679 10.2017,3.58436 5.1008,1.65432 10.7531,1.65432 6.4794,0 9.788,-2.7572 3.3087,-2.7572 5.3766,-9.51234 h 3.4465 q 0.2757,1.24074 0.4135,2.7572 0.1379,1.51646 0.1379,3.03292 0,4.41152 -1.93,7.99588 -1.7922,3.72222 -5.1009,6.34156 -3.1707,2.7572 -7.5823,4.27366 -4.4115,1.51646 -9.5123,1.51646 -7.7202,0 -14.3374,-3.03292 -6.4795,-2.89506 -12.4074,-6.47942 -5.7902,-3.4465 -11.1667,-6.47942 -5.3765,-2.89506 -10.6152,-2.89506 -3.5844,0 -5.7901,1.3786 -2.2058,1.3786 -3.998,3.03292 -1.7922,1.79218 -3.4465,3.17078 -1.5164,1.3786 -3.8601,1.3786 -3.9979,0 -3.9979,-3.4465 0,-0.96502 0.2757,-1.65432 0.2757,-0.6893 1.1029,-1.65432 0.965,-0.82716 2.7572,-2.0679 1.7922,-1.10288 4.963,-2.89506 l 17.9218,-10.20164 q -11.5803,-0.41358 -21.5062,-4.8251 -9.9259,-4.54938 -17.0946,-11.99382 -7.1688,-7.5823 -11.3046,-17.50822 -3.9979,-10.06378 -3.9979,-21.50616 0,-11.85596 4.4115,-22.0576 4.4115,-10.20164 12.1317,-17.64608 7.7202,-7.44444 18.1975,-11.7181 10.4774,-4.27366 22.6091,-4.27366 z m 0,104.7736 q 9.0987,0 16.2674,-3.4465 7.3066,-3.4465 12.4074,-9.78806 5.2387,-6.47942 7.9959,-15.44032 2.7572,-9.09876 2.7572,-20.40328 0,-11.0288 -2.7572,-19.85184 -2.7572,-8.9609 -7.858,-15.1646 -5.1008,-6.34156 -12.4074,-9.6502 -7.3066,-3.4465 -16.4053,-3.4465 -9.0988,0 -16.4054,3.4465 -7.3066,3.30864 -12.4074,9.6502 -5.1008,6.2037 -7.858,15.1646 -2.7572,8.82304 -2.7572,19.85184 0,11.30452 2.7572,20.40328 2.7572,8.9609 7.858,15.44032 5.1008,6.34156 12.4074,9.78806 7.3066,3.4465 16.4054,3.4465 z"
         id="path2104" />
      <path
         d="m 1370.7973,188.45563 q 0,-5.10082 -1.5165,-9.37448 -1.5165,-4.41152 -4.2737,-7.44444 -2.7572,-3.17078 -6.4794,-4.96296 -3.7222,-1.79218 -7.9959,-1.79218 -4.9629,0 -8.9609,2.20576 -3.86,2.20576 -6.7551,6.34156 -2.7572,3.99794 -4.2737,9.78806 -1.5164,5.79012 -1.5164,12.82098 0,7.16872 1.5164,12.95884 1.5165,5.79012 4.2737,9.92592 2.8951,3.99794 6.893,6.2037 3.9979,2.20576 8.9609,2.20576 5.6523,0 10.2016,-2.61934 4.5494,-2.61934 6.893,-7.44444 3.033,-6.06584 3.033,-16.68106 z m 0.4135,34.18928 h -0.5514 q -4.8251,6.06584 -10.0638,8.68518 -5.1008,2.61934 -12.4074,2.61934 -7.7201,0 -14.0617,-2.61934 -6.3416,-2.7572 -11.0288,-7.5823 -4.5494,-4.96296 -7.1687,-11.7181 -2.4815,-6.893 -2.4815,-15.02674 0,-8.13374 2.7572,-15.1646 2.7572,-7.16872 7.5823,-12.4074 4.8251,-5.23868 11.3045,-8.2716 6.4794,-3.03292 13.9239,-3.03292 7.4444,0 14.3374,3.03292 6.893,3.03292 11.4424,8.13374 l 6.0658,-9.51234 h 3.4465 v 85.19748 q 0,5.79012 0.2758,9.09876 0.4135,3.30864 1.7921,5.10082 1.5165,1.79218 4.2737,2.34362 2.8951,0.55144 7.858,0.6893 v 4.8251 h -42.0473 v -4.8251 q 4.4115,-0.13786 7.1687,-0.96502 2.8951,-0.6893 4.5494,-2.61934 1.6543,-1.79218 2.3436,-4.96296 0.6893,-3.03292 0.6893,-7.72016 z"
         id="path2106" />
    </g>
    <g
       aria-label="AaBbCcDdEeRrQq"
       id="text14905"
       style="font-size:137.86px;line-height:1.25;font-family:'Libre Caslon Text';-inkscape-font-specification:'Libre Caslon Text, Normal';letter-spacing:0px;word-spacing:0px;fill:#004040;stroke-width:0.999999">
      <path
         d="m 135.43547,447.8218 q 1.24074,3.30864 2.61934,4.96296 1.3786,1.65432 3.86008,2.34362 2.61934,0.6893 7.5823,1.10288 v 3.17078 h -43.83948 v -3.17078 q 6.34156,-0.27572 9.23662,-0.6893 3.03292,-0.55144 3.99794,-1.3786 0.96502,-0.96502 0.96502,-2.48148 0,-2.0679 -1.51646,-6.06584 l -9.09876,-25.22838 H 75.87995 l -7.44444,20.81686 q -1.51646,4.27366 -1.51646,6.47942 0,3.58436 3.4465,5.5144 3.4465,1.93004 10.75308,3.03292 v 3.17078 H 42.37997 v -3.17078 q 7.16872,-1.10288 10.75308,-2.7572 3.72222,-1.65432 5.5144,-4.27366 1.79218,-2.7572 3.72222,-8.2716 l 26.74484,-74.85798 -3.58436,-8.13374 13.51028,-7.44444 z M 107.17417,414.87326 92.69887,374.756 h -0.55144 l -14.33744,40.11726 z"
         id="path2176" />
      <path
         d="m 171.55472,460.78064 q -7.30658,0 -11.99382,-4.68724 -4.54938,-4.68724 -4.54938,-12.13168 0,-6.06584 3.58436,-10.3395 3.72222,-4.41152 11.85596,-7.72016 8.2716,-3.30864 22.33332,-6.34156 v -13.51028 q 0,-8.68518 -2.48148,-12.26954 -2.48148,-3.58436 -8.54732,-3.58436 -5.92798,0 -9.37448,2.89506 -3.4465,2.7572 -3.4465,7.5823 0,1.24074 0.13786,2.48148 0.13786,1.10288 0.13786,2.34362 0,3.4465 -2.0679,5.79012 -1.93004,2.20576 -5.10082,2.20576 -2.7572,0 -4.54938,-1.79218 -1.79218,-1.79218 -1.79218,-4.8251 0,-4.54938 3.99794,-9.37448 4.1358,-4.8251 10.89094,-8.2716 8.2716,-4.27366 17.50822,-4.27366 5.92798,0 10.06378,1.93004 4.1358,1.93004 5.92798,5.37654 1.10288,2.34362 1.3786,5.79012 0.41358,3.4465 0.41358,12.26954 v 31.56994 q 0,6.75514 0.96502,9.23662 1.10288,2.34362 4.1358,2.34362 1.93004,0 3.4465,-0.82716 1.51646,-0.96502 3.30864,-3.17078 l 2.34362,2.0679 q -3.17078,4.96296 -6.61728,7.16872 -3.30864,2.0679 -7.72016,2.0679 -5.5144,0 -8.54732,-3.03292 -3.03292,-3.03292 -3.72222,-9.37448 l -0.41358,-0.27572 q -3.99794,5.92798 -9.78806,9.37448 -5.79012,3.30864 -11.7181,3.30864 z m 6.06584,-8.13374 q 4.41152,0 8.40946,-2.34362 3.99794,-2.48148 6.75514,-6.893 v -19.85184 q -9.92592,1.93004 -15.44032,4.1358 -5.37654,2.20576 -7.72016,5.37654 -2.34362,3.17078 -2.34362,7.99588 0,5.5144 2.61934,8.54732 2.7572,3.03292 7.72016,3.03292 z"
         id="path2178" />
      <path
         d="m 268.19452,353.24984 q 9.51234,0 15.71604,1.3786 6.34156,1.3786 10.61522,4.27366 4.8251,3.4465 7.5823,8.82304 2.7572,5.23868 2.7572,11.30452 0,8.9609 -5.92798,15.1646 -5.92798,6.2037 -16.81892,8.40946 v 0.55144 q 12.4074,1.3786 19.85184,9.09876 7.5823,7.72016 7.5823,19.02468 0,6.34156 -2.48148,11.85596 -2.34362,5.5144 -6.75514,9.09876 -4.8251,3.86008 -11.7181,5.5144 -6.893,1.65432 -18.05966,1.65432 h -43.15018 v -3.17078 l 11.7181,-2.61934 v -94.57196 l -11.7181,-2.61934 v -3.17078 z m -6.06584,47.01026 q 7.03086,0 11.58024,-0.41358 7.5823,-0.82716 11.58024,-6.34156 4.1358,-5.5144 4.1358,-14.88888 0,-4.8251 -1.24074,-8.13374 -1.10288,-3.4465 -3.86008,-6.2037 -3.03292,-3.03292 -7.16872,-4.27366 -4.1358,-1.24074 -11.7181,-1.24074 h -11.85596 v 41.49586 z m -8.54732,45.63166 q 0,4.8251 2.48148,6.61728 2.61934,1.65432 9.6502,1.65432 14.33744,0 21.09258,-5.79012 6.75514,-5.92798 6.75514,-18.33538 0,-12.4074 -6.893,-18.33538 -6.893,-5.92798 -21.3683,-5.92798 h -11.7181 z"
         id="path2180" />
      <path
         d="m 357.25202,460.78064 q -10.61522,0 -19.02468,-6.34156 h -0.6893 l -6.34156,4.68724 h -2.20576 V 357.24778 l -10.06378,-3.72222 v -1.79218 l 21.91974,-6.75514 h 1.3786 v 49.35388 q 8.68518,-9.37448 20.95472,-9.37448 8.9609,0 15.8539,4.41152 6.893,4.41152 10.75308,12.4074 3.86008,7.85802 3.86008,18.05966 0,11.44238 -4.8251,20.81686 -4.68724,9.37448 -13.0967,14.75102 -8.2716,5.37654 -18.47324,5.37654 z m 0,-4.68724 q 6.47942,0 11.30452,-3.99794 4.96296,-4.1358 7.5823,-11.44238 2.7572,-7.30658 2.7572,-16.95678 0,-14.61316 -5.79012,-22.88476 -5.65226,-8.40946 -15.71604,-8.40946 -4.54938,0 -8.54732,1.93004 -3.86008,1.93004 -6.61728,5.23868 v 39.15224 q 0,7.85802 4.1358,12.68312 4.1358,4.68724 10.89094,4.68724 z"
         id="path2182" />
      <path
         d="m 407.70867,407.01524 q 0,-15.99176 6.47942,-28.53702 6.47942,-12.54526 17.9218,-19.57612 11.44238,-7.03086 26.05554,-7.03086 7.99588,0 15.71604,2.20576 7.72016,2.20576 13.92386,6.2037 h 0.55144 l 6.75514,-7.03086 h 2.48148 v 31.7078 h -4.1358 q -2.20576,-6.75514 -5.65226,-12.4074 -4.8251,-7.72016 -11.44238,-11.16666 -6.47942,-3.4465 -15.8539,-3.4465 -17.09464,0 -26.33126,12.54526 -9.09876,12.54526 -9.09876,35.56788 0,23.02262 9.23662,35.8436 9.37448,12.68312 26.33126,12.68312 8.2716,0 14.88888,-3.30864 6.61728,-3.30864 11.0288,-9.6502 5.23868,-7.30658 7.30658,-18.33538 h 3.72222 v 36.11932 h -3.30864 l -6.34156,-9.09876 q -7.30658,5.5144 -14.61316,7.99588 -7.16872,2.48148 -15.71604,2.48148 -14.61316,0 -26.05554,-6.75514 -11.30452,-6.75514 -17.64608,-19.02468 -6.2037,-12.26954 -6.2037,-27.98558 z"
         id="path2184" />
      <path
         d="m 546.67131,460.78064 q -9.78806,0 -17.50822,-4.68724 -7.5823,-4.68724 -11.85596,-13.0967 -4.27366,-8.40946 -4.27366,-19.16254 0,-11.30452 4.68724,-20.12756 4.68724,-8.82304 12.95884,-13.786 8.40946,-4.96296 19.02468,-4.96296 6.893,0 12.54526,2.20576 5.65226,2.20576 8.9609,5.92798 3.30864,3.72222 3.30864,8.13374 0,3.58436 -1.79218,5.79012 -1.65432,2.0679 -4.54938,2.0679 -7.16872,0 -8.13374,-8.68518 -0.82716,-6.61728 -3.03292,-8.82304 -2.0679,-2.20576 -6.893,-2.20576 -10.89094,0 -16.95678,8.54732 -6.06584,8.54732 -6.06584,23.16048 0,14.06172 6.2037,21.91974 6.2037,7.72016 17.50822,7.72016 6.34156,0 11.7181,-2.48148 5.5144,-2.61934 9.09876,-7.5823 l 1.51646,-2.0679 2.61934,1.3786 -0.6893,1.79218 q -3.4465,9.09876 -10.89094,14.06172 -7.44444,4.96296 -17.50822,4.96296 z"
         id="path2186" />
      <path
         d="m 587.20211,456.23126 11.7181,-2.61934 v -94.57196 l -11.7181,-2.61934 v -3.17078 h 34.32714 q 16.40534,0 26.1934,2.34362 9.78806,2.20576 17.09464,7.72016 9.23662,7.16872 14.33744,18.47324 5.10082,11.30452 5.10082,24.8148 0,14.06172 -5.37654,25.91768 -5.37654,11.7181 -15.02674,18.74896 -6.06584,4.41152 -13.0967,6.34156 -7.03086,1.79218 -17.37036,1.79218 h -46.1831 z m 40.53084,-2.0679 q 10.06378,0 16.5432,-2.48148 6.47942,-2.61934 11.44238,-8.68518 5.5144,-6.75514 8.40946,-16.5432 2.89506,-9.92592 2.89506,-21.50616 0,-11.7181 -3.03292,-20.81686 -2.89506,-9.23662 -8.68518,-15.30246 -5.23868,-5.5144 -12.4074,-7.72016 -7.03086,-2.34362 -18.6111,-2.34362 h -10.89094 v 87.12752 q 0,4.68724 3.03292,6.47942 3.17078,1.79218 11.30452,1.79218 z"
         id="path2188" />
      <path
         d="m 727.12998,460.78064 q -7.99588,0 -14.61316,-4.68724 -6.47942,-4.8251 -10.20164,-13.23456 -3.72222,-8.40946 -3.72222,-18.74896 0,-11.44238 4.54938,-20.26542 4.54938,-8.9609 12.82098,-13.92386 8.2716,-4.96296 18.88682,-4.96296 7.72016,0 14.88888,2.0679 v -29.6399 l -10.06378,-3.86008 v -1.79218 l 21.64402,-6.75514 h 1.3786 v 103.67072 l 9.37448,2.0679 v 1.51646 l -20.40328,8.54732 h -0.96502 v -11.85596 l -0.55144,-0.27572 q -4.27366,6.06584 -10.20164,9.09876 -5.92798,3.03292 -12.82098,3.03292 z m 5.79012,-8.9609 q 5.37654,0 9.92592,-2.20576 4.54938,-2.20576 6.893,-5.92798 v -39.42796 q 0,-7.44444 -3.86008,-11.30452 -3.86008,-3.86008 -11.30452,-3.86008 -6.34156,0 -11.30452,4.1358 -4.8251,3.99794 -7.5823,11.44238 -2.61934,7.44444 -2.61934,17.2325 0,13.92386 5.23868,21.91974 5.37654,7.99588 14.61316,7.99588 z"
         id="path2190" />
      <path
         d="m 863.749,427.1428 -5.10082,32.25924 h -76.09872 v -3.17078 l 11.7181,-2.61934 v -94.57196 l -11.7181,-2.61934 v -3.17078 h 76.65016 l 2.34362,30.3292 h -3.30864 q -4.1358,-14.88888 -9.92592,-24.8148 h -39.56582 v 41.90944 h 24.67694 q 3.4465,-7.30658 5.10082,-16.5432 h 3.30864 v 38.6008 h -3.30864 q -1.24074,-8.54732 -5.10082,-16.5432 h -24.67694 v 47.69956 h 38.87652 q 3.72222,-6.06584 6.06584,-11.99382 2.48148,-5.92798 5.5144,-14.75102 z"
         id="path2192" />
      <path
         d="m 891.59665,416.94116 q -0.13786,0.96502 -0.13786,3.17078 0,15.1646 6.06584,22.88476 6.06584,7.72016 17.78394,7.72016 6.75514,0 12.54526,-2.34362 5.79012,-2.48148 9.37448,-6.893 l 1.65432,-2.0679 2.34362,1.3786 -0.82716,1.93004 q -3.58436,8.40946 -11.58024,13.23456 -7.99588,4.8251 -18.05966,4.8251 -9.78806,0 -17.37036,-4.54938 -7.44444,-4.68724 -11.58024,-12.95884 -4.1358,-8.40946 -4.1358,-19.3004 0,-11.44238 4.54938,-20.26542 4.68724,-8.9609 12.95884,-13.786 8.40946,-4.96296 19.3004,-4.96296 13.51028,0 20.679,7.99588 7.30658,7.85802 7.5823,23.16048 l -0.96502,0.82716 z m 21.64402,-27.70986 q -9.09876,0 -14.61316,6.2037 -5.5144,6.2037 -6.75514,17.64608 l 35.98146,-1.24074 q 0.41358,-1.65432 0.41358,-5.65226 0,-16.95678 -15.02674,-16.95678 z"
         id="path2194" />
      <path
         d="m 965.21367,453.61192 v -94.57196 l -11.7181,-2.61934 v -3.17078 h 41.49586 q 16.68107,0 26.74487,7.99588 10.0637,7.85802 10.0637,22.19546 0,10.20164 -6.0658,16.81892 -5.928,6.61728 -17.0946,9.23662 l 29.3641,44.1152 15.7161,2.61934 v 3.17078 h -29.9156 l -30.88067,-48.251 h -13.23456 v 42.46088 l 15.71604,2.61934 v 3.17078 h -41.90944 v -3.17078 z m 23.4362,-47.83742 q 8.2716,0 13.37243,-1.79218 5.1008,-1.93004 8.4094,-5.65226 5.5144,-6.34156 5.5144,-16.26748 0,-8.2716 -3.3086,-13.64814 -3.3086,-5.5144 -9.3745,-7.99588 -4.27363,-1.65432 -12.26951,-1.65432 h -11.30452 v 47.01026 z"
         id="path2196" />
      <path
         d="m 1094.1127,384.81978 q 3.5844,0 6.0659,2.61934 2.6193,2.48148 2.6193,6.06584 0,3.30864 -2.3436,5.65226 -2.2058,2.20576 -5.6523,2.20576 -3.3086,0 -5.2387,-2.61934 -1.2407,-1.51646 -2.2057,-2.0679 -0.8272,-0.55144 -2.0679,-0.55144 -1.6543,0 -2.8951,0.82716 -1.2407,0.6893 -2.6193,2.61934 -2.3436,3.17078 -3.0329,4.27366 -0.6893,1.10288 -0.9651,2.48148 v 48.251 l 13.786,2.0679 v 2.7572 h -37.36 v -2.7572 l 10.4773,-2.0679 v -57.34976 l -10.2016,-3.86008 v -1.79218 l 21.3683,-6.75514 h 1.3786 v 15.02674 q 4.8251,-7.30658 9.6502,-11.16666 4.963,-3.86008 9.2366,-3.86008 z"
         id="path2198" />
      <path
         d="m 1162.629,351.87124 q 14.0618,0 25.5041,7.16872 11.4424,7.03086 17.9218,19.57612 6.6173,12.4074 6.6173,27.70986 0,13.64814 -5.5144,25.22838 -5.3765,11.44238 -15.1646,18.74896 -9.788,7.16872 -22.3333,8.13374 v 0.55144 q 3.8601,0.82716 10.8909,4.27366 5.7902,2.61934 9.7881,3.99794 4.1358,1.3786 8.823,1.3786 4.5494,0 7.5823,-1.79218 3.033,-1.65432 5.928,-5.5144 l 3.7222,1.3786 q -4.1358,9.37448 -10.6152,14.33744 -6.4794,4.96296 -13.9238,4.96296 -5.7902,0 -10.2017,-2.7572 -4.2736,-2.7572 -9.5123,-7.99588 -5.5144,-5.10082 -9.3745,-7.72016 -3.8601,-2.48148 -9.2366,-2.48148 -4.2737,0 -6.4794,1.65432 -2.0679,1.79218 -2.0679,4.54938 0,1.51646 1.1028,3.4465 1.2408,1.93004 1.2408,3.86008 0,3.03292 -2.0679,4.96296 -1.9301,1.93004 -4.963,1.93004 -3.0329,0 -4.9629,-2.0679 -1.9301,-2.0679 -1.9301,-5.5144 0,-4.96296 3.998,-9.23662 4.1358,-4.27366 11.1666,-7.03086 v -0.55144 q -10.6152,-2.34362 -18.8868,-9.51234 -8.1337,-7.30658 -12.6831,-18.05966 -4.4115,-10.75308 -4.4115,-23.16048 0,-15.30246 6.4794,-27.70986 6.6173,-12.54526 18.0596,-19.57612 11.4424,-7.16872 25.5041,-7.16872 z m -32.6728,54.31684 q 0,15.02674 3.8601,25.91768 3.9979,10.89094 11.3045,16.68106 7.4445,5.79012 17.5082,5.79012 10.2017,0 17.5083,-5.79012 7.3065,-5.79012 11.1666,-16.68106 3.998,-11.0288 3.998,-26.05554 0,-22.60904 -8.6852,-35.29216 -8.5473,-12.68312 -23.8498,-12.68312 -10.2016,0 -17.6461,5.79012 -7.3066,5.65226 -11.3045,16.5432 -3.8601,10.75308 -3.8601,25.77982 z"
         id="path2200" />
      <path
         d="m 1278.1555,451.40616 q -8.6852,9.37448 -20.9547,9.37448 -8.9609,0 -15.8539,-4.41152 -6.893,-4.41152 -10.7531,-12.26954 -3.8601,-7.99588 -3.8601,-18.19752 0,-12.4074 4.5494,-21.64402 4.5494,-9.37448 12.6831,-14.33744 8.2716,-4.96296 19.1625,-4.96296 10.6153,0 19.0247,6.34156 h 0.6893 l 6.2037,-4.68724 h 2.2058 V 489.1798 l 10.3395,2.0679 v 2.61934 h -37.0844 v -2.61934 l 13.6482,-2.0679 z m -15.0268,-62.037 q -9.9259,0 -15.8539,8.40946 -5.7901,8.40946 -5.7901,24.26336 0,14.61316 5.6523,23.02262 5.7901,8.2716 15.8539,8.2716 4.5494,0 8.4094,-1.93004 3.998,-1.93004 6.7552,-5.23868 v -39.42796 q 0,-7.85802 -4.1358,-12.54526 -4.1358,-4.8251 -10.891,-4.8251 z"
         id="path2202" />
    </g>
  </g>
</svg>
