<?xml version="1.0" encoding="UTF-8" standalone="no"?>
<!-- Created with Inkscape (http://www.inkscape.org/) -->

<svg
   inkscape:version="1.1 (c68e22c387, 2021-05-23)"
   sodipodi:docname="fonts-sansserif.svg"
   id="SVGRoot"
   version="1.1"
   viewBox="0 0 1500 500"
   height="500"
   width="1500"
   xmlns:inkscape="http://www.inkscape.org/namespaces/inkscape"
   xmlns:sodipodi="http://sodipodi.sourceforge.net/DTD/sodipodi-0.dtd"
   xmlns="http://www.w3.org/2000/svg"
   xmlns:svg="http://www.w3.org/2000/svg">
  <sodipodi:namedview
     id="namedview32418"
     pagecolor="#505050"
     bordercolor="#eeeeee"
     borderopacity="1"
     inkscape:pageshadow="0"
     inkscape:pageopacity="0"
     inkscape:pagecheckerboard="0"
     inkscape:document-units="px"
     showgrid="false"
     inkscape:zoom="1.1673333"
     inkscape:cx="750"
     inkscape:cy="249.71445"
     inkscape:current-layer="layer1"
     inkscape:snap-bbox="true"
     inkscape:bbox-paths="true"
     inkscape:object-paths="true"
     inkscape:snap-bbox-midpoints="true"
     inkscape:snap-bbox-edge-midpoints="true"
     inkscape:window-width="1920"
     inkscape:window-height="989"
     inkscape:window-x="-9"
     inkscape:window-y="-9"
     inkscape:window-maximized="1" />
  <defs
     id="defs32413">
    <filter
       style="color-interpolation-filters:sRGB"
       inkscape:label="Greyscale"
       id="filter439502"
       x="-0.014759365"
       y="-0.011013929"
       width="1.0273222"
       height="1.0239658">
      <feColorMatrix
         values="0.21 0.72 0.072 0 0 0.21 0.72 0.072 0 0 0.21 0.72 0.072 0 0 0 0 0 1 0 "
         id="feColorMatrix439500" />
    </filter>
    <filter
       style="color-interpolation-filters:sRGB"
       inkscape:label="Greyscale"
       id="filter439506"
       x="-0.012198776"
       y="-0.0133698"
       width="1.0250034"
       height="1.0260875">
      <feColorMatrix
         values="0.21 0.72 0.072 0 0 0.21 0.72 0.072 0 0 0.21 0.72 0.072 0 0 0 0 0 1 0 "
         id="feColorMatrix439504" />
    </filter>
    <filter
       style="color-interpolation-filters:sRGB"
       inkscape:label="Greyscale"
       id="filter439510"
       x="-0.0097815869"
       y="-0.016557066"
       width="1.0227838"
       height="1.0289789">
      <feColorMatrix
         values="0.21 0.72 0.072 0 0 0.21 0.72 0.072 0 0 0.21 0.72 0.072 0 0 0 0 0 1 0 "
         id="feColorMatrix439508" />
    </filter>
    <filter
       style="color-interpolation-filters:sRGB"
       inkscape:label="Greyscale"
       id="filter439514"
       x="-0.0097927544"
       y="-0.012482116"
       width="1.0228409"
       height="1.0290717">
      <feColorMatrix
         values="0.21 0.72 0.072 0 0 0.21 0.72 0.072 0 0 0.21 0.72 0.072 0 0 0 0 0 1 0 "
         id="feColorMatrix439512" />
    </filter>
    <filter
       style="color-interpolation-filters:sRGB"
       inkscape:label="Greyscale"
       id="filter439518"
       x="-0.012221048"
       y="-0.012739026"
       width="1.0250626"
       height="1.0261874">
      <feColorMatrix
         values="0.21 0.72 0.072 0 0 0.21 0.72 0.072 0 0 0.21 0.72 0.072 0 0 0 0 0 1 0 "
         id="feColorMatrix439516" />
    </filter>
    <filter
       style="color-interpolation-filters:sRGB"
       inkscape:label="Greyscale"
       id="filter439522"
       x="-0.01483388"
       y="-0.012948699"
       width="1.0274705"
       height="1.024031">
      <feColorMatrix
         values="0.21 0.72 0.072 0 0 0.21 0.72 0.072 0 0 0.21 0.72 0.072 0 0 0 0 0 1 0 "
         id="feColorMatrix439520" />
    </filter>
    <filter
       style="color-interpolation-filters:sRGB"
       inkscape:label="Greyscale"
       id="filter439526"
       x="-0.014561634"
       y="-0.012651609"
       width="1.0290953"
       height="1.0230787">
      <feColorMatrix
         values="0.21 0.72 0.072 0 0 0.21 0.72 0.072 0 0 0.21 0.72 0.072 0 0 0 0 0 1 0 "
         id="feColorMatrix439524" />
    </filter>
    <filter
       style="color-interpolation-filters:sRGB"
       inkscape:label="Greyscale"
       id="filter439530"
       x="-0.012623959"
       y="-0.012938922"
       width="1.0274804"
       height="1.0239927">
      <feColorMatrix
         values="0.21 0.72 0.072 0 0 0.21 0.72 0.072 0 0 0.21 0.72 0.072 0 0 0 0 0 1 0 "
         id="feColorMatrix439528" />
    </filter>
    <filter
       style="color-interpolation-filters:sRGB"
       inkscape:label="Greyscale"
       id="filter439534"
       x="-0.012860469"
       y="-0.012725824"
       width="1.0251007"
       height="1.0261182">
      <feColorMatrix
         values="0.21 0.72 0.072 0 0 0.21 0.72 0.072 0 0 0.21 0.72 0.072 0 0 0 0 0 1 0 "
         id="feColorMatrix439532" />
    </filter>
    <filter
       style="color-interpolation-filters:sRGB"
       inkscape:label="Greyscale"
       id="filter439538"
       x="-0.012994008"
       y="-0.012420811"
       width="1.0228411"
       height="1.0289242">
      <feColorMatrix
         values="0.21 0.72 0.072 0 0 0.21 0.72 0.072 0 0 0.21 0.72 0.072 0 0 0 0 0 1 0 "
         id="feColorMatrix439536" />
    </filter>
    <filter
       style="color-interpolation-filters:sRGB"
       inkscape:label="Greyscale"
       id="filter439542"
       x="-0.012992011"
       y="-0.016474618"
       width="1.022725"
       height="1.0288349">
      <feColorMatrix
         values="0.21 0.72 0.072 0 0 0.21 0.72 0.072 0 0 0.21 0.72 0.072 0 0 0 0 0 1 0 "
         id="feColorMatrix439540" />
    </filter>
    <filter
       style="color-interpolation-filters:sRGB"
       inkscape:label="Greyscale"
       id="filter439546"
       x="-0.012777513"
       y="-0.013337689"
       width="1.0248979"
       height="1.0260091">
      <feColorMatrix
         values="0.21 0.72 0.072 0 0 0.21 0.72 0.072 0 0 0.21 0.72 0.072 0 0 0 0 0 1 0 "
         id="feColorMatrix439544" />
    </filter>
    <filter
       style="color-interpolation-filters:sRGB"
       inkscape:label="Greyscale"
       id="filter439550"
       x="-0.012523829"
       y="-0.010999327"
       width="1.0271902"
       height="1.023912">
      <feColorMatrix
         values="0.21 0.72 0.072 0 0 0.21 0.72 0.072 0 0 0.21 0.72 0.072 0 0 0 0 0 1 0 "
         id="feColorMatrix439548" />
    </filter>
    <filter
       style="color-interpolation-filters:sRGB"
       inkscape:label="Greyscale"
       id="filter439554"
       x="-0.014368828"
       y="-0.01043784"
       width="1.0288149"
       height="1.0230671">
      <feColorMatrix
         values="0.21 0.72 0.072 0 0 0.21 0.72 0.072 0 0 0.21 0.72 0.072 0 0 0 0 0 1 0 "
         id="feColorMatrix439552" />
    </filter>
    <filter
       style="color-interpolation-filters:sRGB"
       inkscape:label="Greyscale"
       id="filter503175"
       x="-0.0018665642"
       y="-0.013065955"
       width="1.0037332"
       height="1.0261319">
      <feColorMatrix
         values="0.618044 0.72381 -0.110563 -0.322094 0 0.618044 0.72381 -0.110563 -0.322094 0 0.618044 0.72381 -0.110563 -0.322094 0 0 0 0 1 0 "
         id="feColorMatrix503173" />
    </filter>
    <filter
       style="color-interpolation-filters:sRGB"
       inkscape:label="Greyscale"
       id="filter504073"
       x="-0.014368799"
       y="-0.010437819"
       width="1.0288149"
       height="1.0230671">
      <feColorMatrix
         values="0.618044 0.72381 -0.110563 -0.12 0 0.618044 0.72381 -0.110563 -0.12 0 0.618044 0.72381 -0.110563 -0.12 0 0 0 0 1 0 "
         id="feColorMatrix504071" />
    </filter>
    <filter
       style="color-interpolation-filters:sRGB"
       inkscape:label="Greyscale"
       id="filter504077"
       x="-0.012523803"
       y="-0.010999305"
       width="1.0271901"
       height="1.023912">
      <feColorMatrix
         values="0.618044 0.72381 -0.110563 -0.12 0 0.618044 0.72381 -0.110563 -0.12 0 0.618044 0.72381 -0.110563 -0.12 0 0 0 0 1 0 "
         id="feColorMatrix504075" />
    </filter>
    <filter
       style="color-interpolation-filters:sRGB"
       inkscape:label="Greyscale"
       id="filter504081"
       x="-0.012777488"
       y="-0.013337663"
       width="1.0248978"
       height="1.0260091">
      <feColorMatrix
         values="0.618044 0.72381 -0.110563 -0.12 0 0.618044 0.72381 -0.110563 -0.12 0 0.618044 0.72381 -0.110563 -0.12 0 0 0 0 1 0 "
         id="feColorMatrix504079" />
    </filter>
    <filter
       style="color-interpolation-filters:sRGB"
       inkscape:label="Greyscale"
       id="filter504085"
       x="-0.012991986"
       y="-0.016474584"
       width="1.022725"
       height="1.0288349">
      <feColorMatrix
         values="0.618044 0.72381 -0.110563 -0.12 0 0.618044 0.72381 -0.110563 -0.12 0 0.618044 0.72381 -0.110563 -0.12 0 0 0 0 1 0 "
         id="feColorMatrix504083" />
    </filter>
    <filter
       style="color-interpolation-filters:sRGB"
       inkscape:label="Greyscale"
       id="filter504089"
       x="-0.012993982"
       y="-0.012420786"
       width="1.022841"
       height="1.0289241">
      <feColorMatrix
         values="0.618044 0.72381 -0.110563 -0.12 0 0.618044 0.72381 -0.110563 -0.12 0 0.618044 0.72381 -0.110563 -0.12 0 0 0 0 1 0 "
         id="feColorMatrix504087" />
    </filter>
    <filter
       style="color-interpolation-filters:sRGB"
       inkscape:label="Greyscale"
       id="filter504093"
       x="-0.012860442"
       y="-0.012725798"
       width="1.0251006"
       height="1.026118">
      <feColorMatrix
         values="0.618044 0.72381 -0.110563 -0.12 0 0.618044 0.72381 -0.110563 -0.12 0 0.618044 0.72381 -0.110563 -0.12 0 0 0 0 1 0 "
         id="feColorMatrix504091" />
    </filter>
    <filter
       style="color-interpolation-filters:sRGB"
       inkscape:label="Greyscale"
       id="filter504097"
       x="-0.012623934"
       y="-0.012938895"
       width="1.0274802"
       height="1.0239927">
      <feColorMatrix
         values="0.618044 0.72381 -0.110563 -0.12 0 0.618044 0.72381 -0.110563 -0.12 0 0.618044 0.72381 -0.110563 -0.12 0 0 0 0 1 0 "
         id="feColorMatrix504095" />
    </filter>
    <filter
       style="color-interpolation-filters:sRGB"
       inkscape:label="Greyscale"
       id="filter504101"
       x="-0.014561605"
       y="-0.012651581"
       width="1.0290952"
       height="1.0230787">
      <feColorMatrix
         values="0.618044 0.72381 -0.110563 -0.12 0 0.618044 0.72381 -0.110563 -0.12 0 0.618044 0.72381 -0.110563 -0.12 0 0 0 0 1 0 "
         id="feColorMatrix504099" />
    </filter>
    <filter
       style="color-interpolation-filters:sRGB"
       inkscape:label="Greyscale"
       id="filter504105"
       x="-0.014833851"
       y="-0.012948672"
       width="1.0274704"
       height="1.024031">
      <feColorMatrix
         values="0.618044 0.72381 -0.110563 -0.12 0 0.618044 0.72381 -0.110563 -0.12 0 0.618044 0.72381 -0.110563 -0.12 0 0 0 0 1 0 "
         id="feColorMatrix504103" />
    </filter>
    <filter
       style="color-interpolation-filters:sRGB"
       inkscape:label="Greyscale"
       id="filter504109"
       x="-0.012221023"
       y="-0.012739001"
       width="1.0250626"
       height="1.0261873">
      <feColorMatrix
         values="0.618044 0.72381 -0.110563 -0.12 0 0.618044 0.72381 -0.110563 -0.12 0 0.618044 0.72381 -0.110563 -0.12 0 0 0 0 1 0 "
         id="feColorMatrix504107" />
    </filter>
    <filter
       style="color-interpolation-filters:sRGB"
       inkscape:label="Greyscale"
       id="filter504113"
       x="-0.0097927349"
       y="-0.012482092"
       width="1.0228407"
       height="1.0290716">
      <feColorMatrix
         values="0.618044 0.72381 -0.110563 -0.12 0 0.618044 0.72381 -0.110563 -0.12 0 0.618044 0.72381 -0.110563 -0.12 0 0 0 0 1 0 "
         id="feColorMatrix504111" />
    </filter>
    <filter
       style="color-interpolation-filters:sRGB"
       inkscape:label="Greyscale"
       id="filter504117"
       x="-0.0097815385"
       y="-0.016557053"
       width="1.0227836"
       height="1.0289789">
      <feColorMatrix
         values="0.618044 0.72381 -0.110563 -0.12 0 0.618044 0.72381 -0.110563 -0.12 0 0.618044 0.72381 -0.110563 -0.12 0 0 0 0 1 0 "
         id="feColorMatrix504115" />
    </filter>
    <filter
       style="color-interpolation-filters:sRGB"
       inkscape:label="Greyscale"
       id="filter504121"
       x="-0.012198751"
       y="-0.013369773"
       width="1.0250033"
       height="1.0260874">
      <feColorMatrix
         values="0.618044 0.72381 -0.110563 -0.12 0 0.618044 0.72381 -0.110563 -0.12 0 0.618044 0.72381 -0.110563 -0.12 0 0 0 0 1 0 "
         id="feColorMatrix504119" />
    </filter>
    <filter
       style="color-interpolation-filters:sRGB"
       inkscape:label="Greyscale"
       id="filter504125"
       x="-0.014759335"
       y="-0.011013906"
       width="1.0273222"
       height="1.0239657">
      <feColorMatrix
         values="0.618044 0.72381 -0.110563 -0.12 0 0.618044 0.72381 -0.110563 -0.12 0 0.618044 0.72381 -0.110563 -0.12 0 0 0 0 1 0 "
         id="feColorMatrix504123" />
    </filter>
    <filter
       style="color-interpolation-filters:sRGB"
       inkscape:label="Greyscale"
       id="filter504245"
       x="-0.0018665642"
       y="-0.013065955"
       width="1.0037332"
       height="1.0261319">
      <feColorMatrix
         values="0.618044 0.72381 -0.110563 -0.12 0 0.618044 0.72381 -0.110563 -0.12 0 0.618044 0.72381 -0.110563 -0.12 0 0 0 0 1 0 "
         id="feColorMatrix504243" />
    </filter>
    <filter
       style="color-interpolation-filters:sRGB"
       inkscape:label="Greyscale"
       id="filter504249"
       x="-0.01766916"
       y="-0.01766916"
       width="1.0353383"
       height="1.0353383">
      <feColorMatrix
         values="0.618044 0.72381 -0.110563 -0.12 0 0.618044 0.72381 -0.110563 -0.12 0 0.618044 0.72381 -0.110563 -0.12 0 0 0 0 1 0 "
         id="feColorMatrix504247" />
    </filter>
    <filter
       style="color-interpolation-filters:sRGB"
       inkscape:label="Greyscale"
       id="filter504253"
       x="-0.01766916"
       y="-0.01766916"
       width="1.0353383"
       height="1.0353383">
      <feColorMatrix
         values="0.618044 0.72381 -0.110563 -0.12 0 0.618044 0.72381 -0.110563 -0.12 0 0.618044 0.72381 -0.110563 -0.12 0 0 0 0 1 0 "
         id="feColorMatrix504251" />
    </filter>
    <filter
       style="color-interpolation-filters:sRGB"
       inkscape:label="Greyscale"
       id="filter504257"
       x="-0.01766916"
       y="-0.01766916"
       width="1.0353383"
       height="1.0353383">
      <feColorMatrix
         values="0.618044 0.72381 -0.110563 -0.12 0 0.618044 0.72381 -0.110563 -0.12 0 0.618044 0.72381 -0.110563 -0.12 0 0 0 0 1 0 "
         id="feColorMatrix504255" />
    </filter>
    <filter
       style="color-interpolation-filters:sRGB"
       inkscape:label="Greyscale"
       id="filter504261"
       x="-0.01766916"
       y="-0.01766916"
       width="1.0353383"
       height="1.0353383">
      <feColorMatrix
         values="0.618044 0.72381 -0.110563 -0.12 0 0.618044 0.72381 -0.110563 -0.12 0 0.618044 0.72381 -0.110563 -0.12 0 0 0 0 1 0 "
         id="feColorMatrix504259" />
    </filter>
    <filter
       style="color-interpolation-filters:sRGB"
       inkscape:label="Greyscale"
       id="filter504265"
       x="-0.01766916"
       y="-0.01766916"
       width="1.0353383"
       height="1.0353383">
      <feColorMatrix
         values="0.618044 0.72381 -0.110563 -0.12 0 0.618044 0.72381 -0.110563 -0.12 0 0.618044 0.72381 -0.110563 -0.12 0 0 0 0 1 0 "
         id="feColorMatrix504263" />
    </filter>
    <filter
       style="color-interpolation-filters:sRGB"
       inkscape:label="Greyscale"
       id="filter504269"
       x="-0.01766916"
       y="-0.01766916"
       width="1.0353383"
       height="1.0353383">
      <feColorMatrix
         values="0.618044 0.72381 -0.110563 -0.12 0 0.618044 0.72381 -0.110563 -0.12 0 0.618044 0.72381 -0.110563 -0.12 0 0 0 0 1 0 "
         id="feColorMatrix504267" />
    </filter>
    <filter
       style="color-interpolation-filters:sRGB"
       inkscape:label="Greyscale"
       id="filter504273"
       x="-0.01766916"
       y="-0.01766916"
       width="1.0353383"
       height="1.0353383">
      <feColorMatrix
         values="0.618044 0.72381 -0.110563 -0.12 0 0.618044 0.72381 -0.110563 -0.12 0 0.618044 0.72381 -0.110563 -0.12 0 0 0 0 1 0 "
         id="feColorMatrix504271" />
    </filter>
    <rect
       x="301.8735"
       y="54.922695"
       width="315.38217"
       height="392.1662"
       id="rect142869" />
    <rect
       x="580.67041"
       y="168.2337"
       width="148.4621"
       height="227.98207"
       id="rect128629" />
    <rect
       x="580.67041"
       y="168.2337"
       width="148.4621"
       height="227.98207"
       id="rect625543" />
    <rect
       x="580.67041"
       y="168.2337"
       width="148.4621"
       height="227.98207"
       id="rect625549" />
    <rect
       x="580.67041"
       y="168.2337"
       width="148.4621"
       height="227.98207"
       id="rect630971" />
    <rect
       x="580.67041"
       y="168.2337"
       width="148.4621"
       height="227.98207"
       id="rect637555" />
    <rect
       x="580.67041"
       y="168.2337"
       width="148.4621"
       height="227.98207"
       id="rect642415" />
    <rect
       x="580.67041"
       y="168.2337"
       width="148.4621"
       height="227.98207"
       id="rect647017" />
    <rect
       x="580.67041"
       y="168.2337"
       width="148.4621"
       height="227.98207"
       id="rect651637" />
    <rect
       x="580.67041"
       y="168.2337"
       width="148.4621"
       height="227.98207"
       id="rect656769" />
    <rect
       x="580.67041"
       y="168.2337"
       width="148.4621"
       height="227.98207"
       id="rect662965" />
    <rect
       x="580.67041"
       y="168.2337"
       width="148.4621"
       height="227.98207"
       id="rect669437" />
    <rect
       x="580.67041"
       y="168.2337"
       width="148.4621"
       height="227.98207"
       id="rect678811" />
    <rect
       x="580.67041"
       y="168.2337"
       width="148.4621"
       height="227.98207"
       id="rect689501" />
    <rect
       x="580.67041"
       y="168.2337"
       width="148.4621"
       height="227.98207"
       id="rect697375" />
    <rect
       x="580.67041"
       y="168.2337"
       width="148.4621"
       height="227.98207"
       id="rect704877" />
    <rect
       x="580.67041"
       y="168.2337"
       width="148.4621"
       height="227.98207"
       id="rect710993" />
    <rect
       x="580.67041"
       y="168.2337"
       width="148.4621"
       height="227.98207"
       id="rect745823" />
    <rect
       x="580.67041"
       y="168.2337"
       width="148.4621"
       height="227.98207"
       id="rect751192" />
    <rect
       x="580.67041"
       y="168.2337"
       width="148.4621"
       height="227.98207"
       id="rect757148" />
    <rect
       x="580.67041"
       y="168.2337"
       width="148.4621"
       height="227.98207"
       id="rect760568" />
    <rect
       x="580.67041"
       y="168.2337"
       width="148.4621"
       height="227.98207"
       id="rect764806" />
    <rect
       x="580.67041"
       y="168.2337"
       width="148.4621"
       height="227.98207"
       id="rect768602" />
    <rect
       x="580.67041"
       y="168.2337"
       width="148.4621"
       height="227.98207"
       id="rect770588" />
    <rect
       x="580.67041"
       y="168.2337"
       width="148.4621"
       height="227.98207"
       id="rect774595" />
    <rect
       x="580.67041"
       y="168.2337"
       width="148.4621"
       height="227.98207"
       id="rect783037" />
    <rect
       x="580.67041"
       y="168.2337"
       width="148.4621"
       height="227.98207"
       id="rect788527" />
    <rect
       x="580.67041"
       y="168.2337"
       width="148.4621"
       height="227.98207"
       id="rect799827" />
    <rect
       x="580.67041"
       y="168.2337"
       width="148.4621"
       height="227.98207"
       id="rect805629" />
    <rect
       x="580.67041"
       y="168.2337"
       width="148.4621"
       height="227.98207"
       id="rect811239" />
    <rect
       x="580.67041"
       y="168.2337"
       width="148.4621"
       height="227.98207"
       id="rect69704" />
    <rect
       x="580.67041"
       y="168.2337"
       width="148.4621"
       height="227.98207"
       id="rect69706" />
    <rect
       x="580.67041"
       y="168.2337"
       width="148.4621"
       height="227.98207"
       id="rect69708" />
    <rect
       x="580.67041"
       y="168.2337"
       width="148.4621"
       height="227.98207"
       id="rect69710" />
    <rect
       x="580.67041"
       y="168.2337"
       width="148.4621"
       height="227.98207"
       id="rect69712" />
    <rect
       x="580.67041"
       y="168.2337"
       width="148.4621"
       height="227.98207"
       id="rect69714" />
    <rect
       x="580.67041"
       y="168.2337"
       width="148.4621"
       height="227.98207"
       id="rect69716" />
    <rect
       x="580.67041"
       y="168.2337"
       width="148.4621"
       height="227.98207"
       id="rect69718" />
    <rect
       x="580.67041"
       y="168.2337"
       width="148.4621"
       height="227.98207"
       id="rect69720" />
    <rect
       x="580.67041"
       y="168.2337"
       width="148.4621"
       height="227.98207"
       id="rect69722" />
    <rect
       x="580.67041"
       y="168.2337"
       width="148.4621"
       height="227.98207"
       id="rect69724" />
    <rect
       x="580.67041"
       y="168.2337"
       width="148.4621"
       height="227.98207"
       id="rect69726" />
    <rect
       x="580.67041"
       y="168.2337"
       width="148.4621"
       height="227.98207"
       id="rect69728" />
    <rect
       x="580.67041"
       y="168.2337"
       width="148.4621"
       height="227.98207"
       id="rect69730" />
    <rect
       x="580.67041"
       y="168.2337"
       width="148.4621"
       height="227.98207"
       id="rect69732" />
    <rect
       x="580.67041"
       y="168.2337"
       width="148.4621"
       height="227.98207"
       id="rect69734" />
    <rect
       x="580.67041"
       y="168.2337"
       width="148.4621"
       height="227.98207"
       id="rect69736" />
    <rect
       x="580.67041"
       y="168.2337"
       width="148.4621"
       height="227.98207"
       id="rect69738" />
    <rect
       x="580.67041"
       y="168.2337"
       width="148.4621"
       height="227.98207"
       id="rect69740" />
    <rect
       x="580.67041"
       y="168.2337"
       width="148.4621"
       height="227.98207"
       id="rect69742" />
    <rect
       x="580.67041"
       y="168.2337"
       width="148.4621"
       height="227.98207"
       id="rect69744" />
    <rect
       x="580.67041"
       y="168.2337"
       width="148.4621"
       height="227.98207"
       id="rect69746" />
    <rect
       x="580.67041"
       y="168.2337"
       width="148.4621"
       height="227.98207"
       id="rect69748" />
    <rect
       x="580.67041"
       y="168.2337"
       width="148.4621"
       height="227.98207"
       id="rect69750" />
    <rect
       x="580.67041"
       y="168.2337"
       width="148.4621"
       height="227.98207"
       id="rect69752" />
    <rect
       x="580.67041"
       y="168.2337"
       width="148.4621"
       height="227.98207"
       id="rect69754" />
    <rect
       x="580.67041"
       y="168.2337"
       width="148.4621"
       height="227.98207"
       id="rect69756" />
    <rect
       x="580.67041"
       y="168.2337"
       width="148.4621"
       height="227.98207"
       id="rect69758" />
    <rect
       x="580.67041"
       y="168.2337"
       width="148.4621"
       height="227.98207"
       id="rect70246" />
    <rect
       x="580.67041"
       y="168.2337"
       width="148.4621"
       height="227.98207"
       id="rect92519" />
    <rect
       x="580.67041"
       y="168.2337"
       width="148.4621"
       height="227.98207"
       id="rect92521" />
    <rect
       x="580.67041"
       y="168.2337"
       width="148.4621"
       height="227.98207"
       id="rect139275" />
    <rect
       x="580.67041"
       y="168.2337"
       width="148.4621"
       height="227.98207"
       id="rect139277" />
    <rect
       x="580.67041"
       y="168.2337"
       width="148.4621"
       height="227.98207"
       id="rect161517" />
    <rect
       x="580.67041"
       y="168.2337"
       width="148.4621"
       height="227.98207"
       id="rect161519" />
    <rect
       x="580.67041"
       y="168.2337"
       width="148.4621"
       height="227.98207"
       id="rect564459" />
    <rect
       x="580.67041"
       y="168.2337"
       width="148.4621"
       height="227.98207"
       id="rect564461" />
    <rect
       x="580.67041"
       y="168.2337"
       width="148.4621"
       height="227.98207"
       id="rect665715" />
    <rect
       x="580.67041"
       y="168.2337"
       width="148.4621"
       height="227.98207"
       id="rect665717" />
  </defs>
  <g
     inkscape:label="Vrstva 1"
     inkscape:groupmode="layer"
     id="layer1">
    <g
       id="g400843"
       transform="translate(417.90701,-49.780313)"
       sodipodi:insensitive="true">
      <rect
         style="fill:#8080ff;fill-opacity:1;fill-rule:evenodd;stroke-width:0.258267"
         id="rect45522"
         width="6.3157067"
         height="20.832041"
         x="-1062.1268"
         y="486.24539"
         inkscape:export-xdpi="96.534714"
         inkscape:export-ydpi="96.534714"
         transform="scale(-1,1)"
         inkscape:export-filename="C:\Users\dansa\Documents\Krita-Malba\ellipse45540.png" />
      <rect
         style="fill:#fe8081;fill-opacity:1;fill-rule:evenodd;stroke-width:0.258267"
         id="rect45524"
         width="6.3157067"
         height="20.832041"
         x="-1055.8112"
         y="486.24539"
         inkscape:export-xdpi="96.534714"
         inkscape:export-ydpi="96.534714"
         transform="scale(-1,1)"
         inkscape:export-filename="C:\Users\dansa\Documents\Krita-Malba\ellipse45540.png" />
      <rect
         style="fill:#ffd42a;fill-rule:evenodd;stroke-width:0.258267"
         id="rect45526"
         width="6.3157067"
         height="20.832041"
         x="-1049.4954"
         y="486.24539"
         inkscape:export-xdpi="96.534714"
         inkscape:export-ydpi="96.534714"
         transform="scale(-1,1)"
         inkscape:export-filename="C:\Users\dansa\Documents\Krita-Malba\ellipse45540.png" />
      <path
         id="path45528"
         style="fill:#ffb380;fill-rule:evenodd;stroke-width:0.258267"
         d="m 1062.1269,507.07744 h -18.9471 l 8.7686,13.97104 h 1.41 z"
         sodipodi:nodetypes="ccccc"
         inkscape:export-xdpi="96.534714"
         inkscape:export-ydpi="96.534714"
         inkscape:export-filename="C:\Users\dansa\Documents\Krita-Malba\ellipse45540.png" />
      <path
         id="path45530"
         style="fill:#f4e3d7;fill-rule:evenodd;stroke-width:0.258267"
         d="m 1062.1269,507.07744 h -6.3156 l -3.3174,14.09288 0.8645,-0.12184 z"
         sodipodi:nodetypes="ccccc"
         inkscape:export-xdpi="96.534714"
         inkscape:export-ydpi="96.534714"
         inkscape:export-filename="C:\Users\dansa\Documents\Krita-Malba\ellipse45540.png" />
      <path
         id="path45532"
         style="fill:#d38d5f;fill-rule:evenodd;stroke-width:0.258267"
         d="m 1043.1799,507.07744 h 6.3157 l 3.3173,14.09288 -0.8644,-0.12184 z"
         sodipodi:nodetypes="ccccc"
         inkscape:export-xdpi="96.534714"
         inkscape:export-ydpi="96.534714"
         inkscape:export-filename="C:\Users\dansa\Documents\Krita-Malba\ellipse45540.png" />
      <path
         id="path45534"
         style="fill:#333333;fill-rule:evenodd;stroke-width:0.258267"
         d="m 1056.4724,516.12331 -7.7017,-0.1075 3.5196,5.53665 0.7035,-0.0131 z"
         sodipodi:nodetypes="ccccc"
         inkscape:export-xdpi="96.534714"
         inkscape:export-ydpi="96.534714"
         inkscape:export-filename="C:\Users\dansa\Documents\Krita-Malba\ellipse45540.png" />
      <ellipse
         style="fill:#8080ff;fill-opacity:1;fill-rule:evenodd;stroke-width:0.258267"
         id="ellipse45536"
         cx="-1052.6215"
         cy="525.61383"
         rx="9.5167303"
         ry="1.9033457"
         inkscape:export-xdpi="96.534714"
         inkscape:export-ydpi="96.534714"
         transform="scale(-1,1)"
         inkscape:export-filename="C:\Users\dansa\Documents\Krita-Malba\ellipse45540.png" />
      <ellipse
         style="fill:#f4e3d7;fill-opacity:1;fill-rule:evenodd;stroke:#000000;stroke-width:0.258267"
         id="ellipse45538"
         cx="-1052.6215"
         cy="486.1275"
         rx="9.5167303"
         ry="1.9033457"
         inkscape:export-xdpi="96.534714"
         inkscape:export-ydpi="96.534714"
         transform="scale(-1,1)"
         inkscape:export-filename="C:\Users\dansa\Documents\Krita-Malba\ellipse45540.png" />
      <ellipse
         style="fill:#333333;fill-opacity:1;fill-rule:evenodd;stroke:#000000;stroke-width:0.258263"
         id="ellipse45540"
         cx="-1052.6215"
         cy="486.12732"
         rx="3.7002831"
         ry="0.74005651"
         inkscape:export-xdpi="96.534714"
         inkscape:export-ydpi="96.534714"
         transform="scale(-1,1)"
         inkscape:export-filename="C:\Users\dansa\Documents\Krita-Malba\ellipse45540.png" />
    </g>
    <g
       aria-label="Libre Franklin"
       id="text2146853"
       style="font-size:106.667px;line-height:1.25;font-family:'Libre Franklin';-inkscape-font-specification:'Libre Franklin, Normal';letter-spacing:0px;word-spacing:0px;fill:#008080;stroke-width:0.999998">
      <path
         d="m 29.277106,33.119656 q 0,-1.493338 1.280004,-1.493338 h 7.680024 q 1.280004,0 1.280004,1.386671 V 101.8132 q 0,1.06667 1.06667,1.06667 h 36.906781 q 1.280004,0 1.280004,1.06667 v 5.65335 q 0,0.53334 -0.320001,0.85334 -0.320001,0.32 -0.960003,0.32 H 30.770444 q -0.853336,0 -1.173337,-0.32 -0.320001,-0.42667 -0.320001,-1.17334 V 33.119656 Z"
         id="path740" />
      <path
         d="m 100.31725,108.95989 q 0,1.06667 -0.426669,1.49334 -0.320001,0.32 -1.493338,0.32 h -5.440017 q -0.960003,0 -1.280004,-0.32 -0.320001,-0.32 -0.320001,-1.17334 V 55.73306 q 0,-1.493338 1.280004,-1.493338 h 6.506687 q 1.173338,0 1.173338,1.386671 z m 0.42667,-66.880206 q 0,2.026673 -1.920009,2.026673 h -6.186686 q -0.960003,0 -1.280004,-0.426668 Q 91.03722,43.146354 91.03722,42.293018 V 33.33299 q 0,-1.706672 1.493338,-1.706672 h 6.720021 q 1.493341,0 1.493341,1.600005 z"
         id="path742" />
      <path
         d="m 118.55713,110.77323 q -0.96,0 -1.38667,-0.42667 -0.32,-0.42666 -0.32,-1.28 V 33.119656 q 0,-1.493338 1.28001,-1.493338 h 6.61335 q 1.06667,0 1.06667,1.493338 v 26.133415 q 0,1.173337 0.42667,1.280004 0.42667,0 1.17333,-0.640002 0.96001,-0.960003 3.09335,-2.560008 2.24,-1.600005 5.65335,-2.880009 3.52001,-1.280004 8.32002,-1.280004 7.7867,0 12.80004,3.840012 5.01335,3.840012 7.46669,10.453366 2.56001,6.506687 2.56001,14.720046 0,13.653376 -6.40002,21.653404 -6.40002,8.00002 -17.92005,8.00002 -4.90669,0 -8.4267,-1.49334 -3.41334,-1.49333 -5.65335,-3.52001 -2.24,-2.02667 -3.30667,-3.41334 -0.42667,-0.53334 -0.74667,-0.42667 -0.32,0.10667 -0.42667,0.74667 l -0.53334,5.33335 q -0.21333,1.70667 -1.92,1.70667 z m 7.25336,-19.093391 q 0,3.840012 2.13334,7.040022 2.24001,3.093339 5.76002,4.906679 3.52001,1.81334 7.36002,1.81334 4.80002,0 8.64003,-2.34667 3.84001,-2.45334 6.08002,-7.573359 2.24,-5.120016 2.24,-13.120041 0,-10.880034 -4.16001,-16.746719 -4.16001,-5.973352 -12.05337,-5.973352 -5.01335,0 -9.17336,2.346674 -4.05335,2.240007 -6.82669,5.546684 z"
         id="path744" />
      <path
         d="m 182.23723,110.77323 q -0.74667,0 -1.17334,-0.32 -0.32,-0.42667 -0.32,-1.06667 V 55.626393 q 0,-1.386671 1.17334,-1.386671 h 6.18669 q 1.17333,0 1.17333,1.173337 v 6.933355 q 0,0.640002 0.32,0.746669 0.32001,0.106667 0.85334,-0.426668 2.77334,-3.306677 5.44002,-5.33335 2.77334,-2.13334 5.54668,-3.093343 2.77334,-1.06667 5.54669,-1.06667 3.73334,0 3.73334,1.386671 v 6.40002 q 0,1.06667 -0.96,0.853336 -0.96001,-0.106667 -2.24001,-0.213334 -1.17334,-0.106667 -2.56001,-0.106667 -2.34667,0 -5.01335,1.06667 -2.66667,0.960003 -5.01335,2.773342 -2.24,1.813339 -3.73334,4.053346 -1.49334,2.240007 -1.49334,4.480014 v 35.30678 q 0,1.6 -1.6,1.6 h -5.86669 z"
         id="path746" />
      <path
         d="m 226.21058,86.026488 q 0,5.226683 2.45334,9.60003 2.56001,4.26668 6.72002,6.826692 4.26668,2.56 9.49336,2.56 5.33335,0 9.49337,-2.13334 4.16001,-2.24 7.14668,-6.720017 0.42667,-0.426668 0.64001,-0.426668 0.32,-0.106667 0.85333,0.106667 l 4.48002,2.240007 q 0.96,0.533335 0.21333,1.493338 -2.88001,4.266683 -6.40002,7.040023 -3.41334,2.66667 -7.68002,3.94668 -4.26668,1.28 -9.60003,1.28 -7.89336,0 -13.97338,-3.62668 -6.08002,-3.62667 -9.60003,-10.133361 -3.52001,-6.506687 -3.52001,-15.040047 0,-9.280029 3.52001,-15.893383 3.62668,-6.720021 9.7067,-10.346699 6.18668,-3.626678 13.76004,-3.626678 7.78669,0 13.54671,3.413344 5.76002,3.413344 8.96003,9.920031 3.20001,6.506687 3.20001,15.680049 0,0.746669 -0.21334,1.493338 -0.10666,0.746669 -1.38667,0.746669 h -40.85346 q -0.42667,0 -0.74667,0.533335 -0.21333,0.426668 -0.21333,1.06667 z m 32.6401,-7.46669 q 1.17334,0 1.49334,-0.213334 0.32,-0.320001 0.32,-1.280004 0,-4.586681 -2.02667,-8.53336 -1.92001,-4.053346 -5.65336,-6.506687 -3.62667,-2.453341 -8.85336,-2.453341 -5.76001,0 -9.70669,2.773342 -3.94668,2.666675 -5.97336,7.040022 -2.02667,4.373347 -2.02667,9.173362 z"
         id="path748" />
      <path
         d="m 307.17063,33.119656 q 0,-1.493338 1.28,-1.493338 h 46.93348 q 1.06667,0 1.06667,1.173337 v 5.440017 q 0,1.280004 -1.38667,1.280004 h -36.26678 q -1.38667,0 -1.38667,1.280004 v 26.240082 q 0,1.173337 1.17334,1.173337 h 28.48009 q 1.17333,0 1.17333,1.06667 v 5.653351 q 0,0.960003 -1.17333,0.960003 H 318.584 q -1.17334,0 -1.17334,1.173337 v 32.3201 q 0,1.38667 -1.49334,1.38667 h -7.25335 q -0.85334,0 -1.17334,-0.32 -0.32,-0.32 -0.32,-1.17334 V 33.119656 Z"
         id="path750" />
      <path
         d="m 364.71724,110.77323 q -0.74667,0 -1.17333,-0.32 -0.32001,-0.42667 -0.32001,-1.06667 V 55.626393 q 0,-1.386671 1.17334,-1.386671 h 6.18669 q 1.17333,0 1.17333,1.173337 v 6.933355 q 0,0.640002 0.32001,0.746669 0.32,0.106667 0.85333,-0.426668 2.77334,-3.306677 5.44002,-5.33335 2.77334,-2.13334 5.54668,-3.093343 2.77334,-1.06667 5.54669,-1.06667 3.73334,0 3.73334,1.386671 v 6.40002 q 0,1.06667 -0.96,0.853336 -0.96,-0.106667 -2.24001,-0.213334 -1.17334,-0.106667 -2.56001,-0.106667 -2.34667,0 -5.01335,1.06667 -2.66667,0.960003 -5.01334,2.773342 -2.24001,1.813339 -3.73335,4.053346 -1.49334,2.240007 -1.49334,4.480014 v 35.30678 q 0,1.6 -1.6,1.6 h -5.86669 z"
         id="path752" />
      <path
         d="m 436.024,103.94654 q -3.94668,3.84002 -8.64002,5.86669 -4.58669,2.02667 -10.3467,2.02667 -8.32003,0 -13.12004,-4.26668 -4.69335,-4.26668 -4.69335,-11.200033 0,-5.653351 3.20001,-9.706697 3.20001,-4.160013 9.49336,-6.506687 6.29335,-2.453341 15.46672,-2.986676 l 8.32002,-0.640002 q 0.64,-0.106667 1.17334,-0.426668 0.53333,-0.320001 0.53333,-1.173337 v -2.880009 q 0,-5.760018 -3.62667,-9.066695 -3.52002,-3.413344 -9.60003,-3.413344 -4.69335,0 -8.53336,2.13334 -3.73335,2.13334 -6.72003,6.40002 -0.42666,0.533335 -0.74666,0.746669 -0.21334,0.106667 -0.85334,-0.106667 l -5.76002,-1.920006 q -0.32,-0.213334 -0.53333,-0.533335 -0.10667,-0.320001 0.32,-1.173337 3.20001,-5.546684 8.96003,-8.746694 5.86668,-3.20001 14.29337,-3.20001 7.14669,0 11.84004,2.240007 4.80002,2.13334 7.14669,6.293353 2.45334,4.053346 2.45334,9.706697 v 37.760121 q 0,0.96 -0.32,1.28 -0.32,0.32 -1.06667,0.32 h -5.44002 q -0.74667,0 -1.06667,-0.42667 -0.32,-0.53333 -0.42667,-1.28 l -0.10666,-4.90668 q -0.32,-1.49334 -1.60001,-0.21334 z m 1.38667,-20.266726 q 0,-1.813339 -1.49333,-1.706672 l -7.04003,0.640002 q -4.90668,0.213334 -8.74669,1.280004 -3.84001,0.960003 -6.50669,2.560008 -2.66667,1.600005 -4.05334,3.840012 -1.38667,2.13334 -1.38667,5.013349 0,4.693348 3.20001,7.360023 3.30667,2.56001 8.85336,2.56001 3.41334,0 6.50668,-1.17334 3.20001,-1.28 5.54669,-3.20001 2.45334,-2.026672 3.73334,-4.160012 1.38667,-2.13334 1.38667,-4.160013 v -8.853361 z"
         id="path754" />
      <path
         d="m 463.43724,110.77323 q -1.49333,0 -1.49333,-1.38667 V 55.626393 q 0,-1.386671 1.17333,-1.386671 h 6.40002 q 1.17334,0 1.17334,1.173337 v 6.186686 q 0,0.533335 0.21333,0.640002 0.21334,0.106667 0.74667,-0.320001 3.52001,-2.773342 6.50669,-4.693348 3.09334,-2.026673 6.29335,-2.986676 3.20001,-1.06667 6.82669,-1.06667 8.32003,0 12.69337,4.480014 4.48002,4.480014 4.48002,11.626703 v 39.786791 q 0,1.70667 -1.60001,1.70667 h -5.97335 q -0.74667,0 -1.06667,-0.32 -0.32,-0.42667 -0.32,-1.06667 V 71.306442 q 0,-5.226683 -2.66668,-8.106692 -2.66667,-2.986676 -8.42669,-2.986676 -3.09334,0 -5.86668,1.06667 -2.66668,0.960003 -5.44002,2.880009 -2.77334,1.813339 -6.18669,4.693348 v 40.320129 q 0,1.6 -1.6,1.6 h -5.86669 z"
         id="path756" />
      <path
         d="m 573.09088,109.06656 q 0.42667,0.64 0.21333,1.17334 -0.21333,0.53333 -1.17333,0.53333 h -7.46669 q -0.64001,0 -1.17334,-0.32 -0.42667,-0.32 -0.74667,-0.96 L 546.63746,81.866475 q -0.21333,-0.426668 -0.53333,-0.533335 -0.21334,-0.213334 -0.74667,0.320001 l -11.3067,11.413369 q -0.42667,0.426668 -0.64,0.960003 -0.10667,0.426668 -0.10667,1.173337 v 13.76004 q 0,1.06667 -0.42667,1.49334 -0.32,0.32 -1.49334,0.32 h -5.44001 q -1.06667,0 -1.38668,-0.32 -0.21333,-0.32 -0.21333,-1.17334 V 33.119656 q 0,-1.493338 1.17334,-1.493338 h 6.50668 q 1.28001,0 1.28001,1.386671 v 49.493488 q 0,0.853336 0.21333,1.06667 0.21334,0.106667 0.85334,-0.640002 l 26.34675,-27.413419 q 1.17333,-1.280004 2.24,-1.280004 h 6.50669 q 1.06667,0 1.17334,0.640002 0.21333,0.533335 -0.64,1.386671 l -16.85339,17.173387 q -0.32,0.320001 -0.42667,0.746669 0,0.426668 0.32,1.06667 l 20.0534,33.813439 z"
         id="path758" />
      <path
         d="m 593.46418,108.95989 q 0,1.06667 -0.42666,1.49334 -0.42667,0.32 -1.49334,0.32 h -5.54669 q -1.6,0 -1.6,-1.49334 l 0.10667,-76.160234 q 0,-1.493338 1.28,-1.493338 h 6.40002 q 1.28,0 1.28,1.386671 z"
         id="path760" />
      <path
         d="m 618.85074,108.95989 q 0,1.06667 -0.42667,1.49334 -0.32,0.32 -1.49333,0.32 h -5.44002 q -0.96,0 -1.28001,-0.32 -0.32,-0.32 -0.32,-1.17334 V 55.73306 q 0,-1.493338 1.28001,-1.493338 h 6.50668 q 1.17334,0 1.17334,1.386671 z m 0.42667,-66.880206 q 0,2.026673 -1.92001,2.026673 h -6.18668 q -0.96001,0 -1.28001,-0.426668 -0.32,-0.533335 -0.32,-1.386671 V 33.33299 q 0,-1.706672 1.49334,-1.706672 h 6.72002 q 1.49334,0 1.49334,1.600005 z"
         id="path762" />
      <path
         d="m 636.87734,110.77323 q -1.49334,0 -1.49334,-1.38667 V 55.626393 q 0,-1.386671 1.17334,-1.386671 h 6.40002 q 1.17333,0 1.17333,1.173337 v 6.186686 q 0,0.533335 0.21334,0.640002 0.21333,0.106667 0.74667,-0.320001 3.52001,-2.773342 6.50668,-4.693348 3.09335,-2.026673 6.29336,-2.986676 3.20001,-1.06667 6.82668,-1.06667 8.32003,0 12.69338,4.480014 4.48001,4.480014 4.48001,11.626703 v 39.786791 q 0,1.70667 -1.6,1.70667 h -5.97336 q -0.74666,0 -1.06667,-0.32 -0.32,-0.42667 -0.32,-1.06667 V 71.306442 q 0,-5.226683 -2.66667,-8.106692 -2.66668,-2.986676 -8.42669,-2.986676 -3.09335,0 -5.86669,1.06667 -2.66667,0.960003 -5.44002,2.880009 -2.77334,1.813339 -6.18668,4.693348 v 40.320129 q 0,1.6 -1.60001,1.6 h -5.86668 z"
         id="path764" />
    </g>
    <g
       aria-label="Miriam Libre"
       id="text2150343"
       style="font-size:106.667px;line-height:1.25;font-family:'Miriam Libre';-inkscape-font-specification:'Miriam Libre, Normal';letter-spacing:0px;word-spacing:0px;fill:#008080">
      <path
         d="m 63.770374,340.3347 q -0.640002,0 -1.280004,-0.42667 -0.533335,-0.32 -0.746669,-0.96 l -20.480064,-59.30685 -7.040022,57.49351 q -0.106667,0.85334 -0.746669,1.38667 -0.533335,0.42667 -1.386671,0.42667 h -5.013349 q -0.853336,0 -1.386671,-0.53334 -0.426668,-0.64 -0.320001,-1.38667 l 9.280029,-71.04022 q 0.106667,-0.53333 0.426668,-0.85334 0.426668,-0.32 0.853336,-0.32 h 7.46669 q 0.640002,0 1.280004,0.42667 0.640002,0.32 0.746669,0.96 l 21.013399,60.90686 21.226733,-61.33352 q 0.320001,-0.96001 1.280004,-0.96001 h 7.360023 q 0.853336,0 1.386671,0.53334 0.640002,0.42667 0.746669,1.28 l 9.173361,70.40022 v 0.21334 q 0,0.64 -0.53333,1.17333 -0.42667,0.53334 -1.17334,0.53334 h -5.12002 q -0.853333,0 -1.493335,-0.42667 -0.533335,-0.53333 -0.640002,-1.38667 l -7.040022,-57.28018 -20.480064,59.09352 q -0.213334,0.64 -0.853336,0.96 -0.533335,0.42667 -1.173337,0.42667 z"
         id="path832" />
      <path
         d="m 132.99704,270.25448 q -0.64,0 -1.06667,-0.42667 -0.42667,-0.42667 -0.42667,-1.06667 v -9.28003 q 0,-0.64 0.42667,-1.06667 0.42667,-0.42666 1.06667,-0.42666 h 5.12002 q 0.64,0 1.06667,0.42666 0.42667,0.42667 0.42667,1.06667 v 9.28003 q 0,0.64 -0.42667,1.06667 -0.42667,0.42667 -1.06667,0.42667 z m 2.24001,68.69355 q -1.60001,0 -2.77334,-1.06667 -1.06667,-1.17334 -1.06667,-2.77334 v -48.64016 h -11.09337 q -0.64,0 -1.06667,-0.42666 -0.42667,-0.42667 -0.42667,-1.06667 v -4.90669 q 0,-0.64 0.42667,-1.06667 0.42667,-0.42666 1.06667,-0.42666 h 15.57338 q 1.60001,0 2.66668,1.17333 1.17333,1.06667 1.17333,2.66668 v 48.64015 h 10.9867 q 0.64001,0 1.06667,0.42667 0.42667,0.42667 0.42667,1.06667 v 4.90668 q 0,0.64 -0.42667,1.06667 -0.42666,0.42667 -1.06667,0.42667 z"
         id="path834" />
      <path
         d="m 162.7571,338.94803 q -0.64,0 -1.06667,-0.42667 -0.42667,-0.42667 -0.42667,-1.06667 v -4.90668 q 0,-0.64 0.42667,-1.06667 0.42667,-0.42667 1.06667,-0.42667 h 8.85336 v -44.90681 h -8.85336 q -0.64,0 -1.06667,-0.42666 -0.42667,-0.42667 -0.42667,-1.06667 v -4.58669 q 0,-0.64 0.42667,-1.06667 0.42667,-0.42666 1.06667,-0.42666 h 13.33338 q 1.6,0 2.66667,1.17333 1.17334,1.06667 1.17334,2.66668 v 5.33335 l 6.18669,-4.80002 q 3.84001,-2.98667 6.18668,-3.94668 2.45334,-1.06667 5.12002,-1.06667 h 3.20001 q 0.74667,0 1.06667,0.42667 0.42667,0.42667 0.42667,1.06667 v 5.22669 q 0,0.64 -0.42667,1.06667 -0.42667,0.42666 -1.06667,0.42666 h -2.34668 q -2.66667,0 -5.01335,1.17334 -2.34667,1.06667 -7.04002,4.80002 l -6.29335,5.01334 v 33.92011 h 12.37337 q 0.64,0 1.06667,0.42667 0.42667,0.42667 0.42667,1.06667 v 4.90668 q 0,0.64 -0.42667,1.06667 -0.42667,0.42667 -1.06667,0.42667 z"
         id="path836" />
      <path
         d="m 225.69041,270.25448 q -0.64,0 -1.06667,-0.42667 -0.42667,-0.42667 -0.42667,-1.06667 v -9.28003 q 0,-0.64 0.42667,-1.06667 0.42667,-0.42666 1.06667,-0.42666 h 5.12002 q 0.64,0 1.06667,0.42666 0.42666,0.42667 0.42666,1.06667 v 9.28003 q 0,0.64 -0.42666,1.06667 -0.42667,0.42667 -1.06667,0.42667 z m 2.24001,68.69355 q -1.60001,0 -2.77335,-1.06667 -1.06667,-1.17334 -1.06667,-2.77334 v -48.64016 h -11.09336 q -0.64001,0 -1.06667,-0.42666 -0.42667,-0.42667 -0.42667,-1.06667 v -4.90669 q 0,-0.64 0.42667,-1.06667 0.42666,-0.42666 1.06667,-0.42666 h 15.57338 q 1.6,0 2.66667,1.17333 1.17334,1.06667 1.17334,2.66668 v 48.64015 h 10.9867 q 0.64,0 1.06667,0.42667 0.42667,0.42667 0.42667,1.06667 v 4.90668 q 0,0.64 -0.42667,1.06667 -0.42667,0.42667 -1.06667,0.42667 z"
         id="path838" />
      <path
         d="m 273.1571,340.3347 q -8.21336,0 -13.44004,-4.58668 -5.22669,-4.69335 -5.22669,-12.26671 0,-7.04002 4.69335,-11.6267 4.80002,-4.58668 13.33338,-5.76002 l 13.86671,-1.92 q 3.09334,-0.42667 4.48001,-2.02668 1.38667,-1.70667 1.38667,-4.80001 v -0.85334 q 0,-5.12001 -4.05335,-8.21336 -3.94667,-3.20001 -9.92003,-3.20001 -4.69334,0 -8.21336,1.92001 -3.41334,1.81334 -5.44001,5.12002 -0.85334,1.38667 -2.13334,1.38667 -0.64,0 -1.38667,-0.53334 l -2.88001,-1.92 q -0.96001,-0.85334 -0.96001,-1.81334 0,-0.42667 0.32001,-1.06667 3.09334,-5.12002 8.42669,-8.00003 5.44002,-2.98667 12.48004,-2.98667 6.40002,0 11.41337,2.45334 5.01335,2.34667 7.68002,6.72002 2.77334,4.37334 2.77334,10.13336 v 40.96013 q 0,0.64 -0.42667,1.06667 -0.42666,0.42667 -1.06667,0.42667 h -4.48001 q -0.64,0 -1.06667,-0.42667 -0.42667,-0.42667 -0.42667,-1.06667 v -7.36002 q -3.30667,4.80001 -8.53336,7.57335 -5.12001,2.66668 -11.20003,2.66668 z m 0.85333,-7.46669 q 5.22669,0 9.49337,-2.77334 4.26668,-2.77334 6.61335,-6.93336 2.45334,-4.26668 2.45334,-8.32002 v -4.37335 q -2.56001,0.32 -16.42672,2.24001 l -2.98667,0.42666 q -10.6667,1.60001 -10.6667,10.0267 0,4.37335 3.20001,7.04002 3.20001,2.66668 8.32002,2.66668 z"
         id="path840" />
      <path
         d="m 319.98385,338.94803 q -0.64,0 -1.06667,-0.42667 -0.42667,-0.42667 -0.42667,-1.06667 v -57.38685 q 0,-0.64 0.42667,-1.06667 0.42667,-0.42666 1.06667,-0.42666 h 5.33335 q 0.64,0 1.06667,0.42666 0.42667,0.42667 0.42667,1.06667 v 5.76002 q 2.56001,-4.26668 6.72002,-6.40002 4.26668,-2.24 9.38669,-2.24 6.72003,0 11.62671,3.20001 5.01335,3.09334 7.14669,8.53336 2.24,-5.65336 6.93335,-8.64003 4.69335,-2.98668 10.6667,-2.98668 9.0667,0 14.61338,5.54669 5.65335,5.54668 5.65335,14.61338 v 40.00012 q 0,0.64 -0.42667,1.06667 -0.42666,0.42667 -1.06667,0.42667 h -5.33335 q -0.64,0 -1.06667,-0.42667 -0.42666,-0.42667 -0.42666,-1.06667 v -38.40012 q 0,-6.82669 -3.62668,-10.3467 -3.52001,-3.62668 -9.60003,-3.62668 -6.61336,0 -10.77337,4.69335 -4.05335,4.69335 -4.05335,12.90671 v 34.77344 q 0,0.64 -0.42666,1.06667 -0.42667,0.42667 -1.06667,0.42667 h -5.33335 q -0.64001,0 -1.06667,-0.42667 -0.42667,-0.42667 -0.42667,-1.06667 V 298.9479 q 0,-6.82668 -3.62668,-10.3467 -3.52001,-3.62667 -9.60003,-3.62667 -6.61335,0 -10.77337,4.69334 -4.05334,4.69335 -4.05334,12.90671 v 34.88011 q 0,0.64 -0.42667,1.06667 -0.42667,0.42667 -1.06667,0.42667 z"
         id="path842" />
      <path
         d="m 449.79735,338.94803 q -1.6,0 -2.77334,-1.06667 -1.06667,-1.17334 -1.06667,-2.77334 V 266.3078 q 0,-0.64 0.42667,-1.06667 0.42667,-0.42667 1.06667,-0.42667 h 5.76002 q 0.64,0 1.06667,0.42667 0.42666,0.42667 0.42666,1.06667 v 64.42687 h 26.98675 q 0.64001,0 1.06667,0.42667 0.42667,0.42667 0.42667,1.06667 v 5.22668 q 0,0.64 -0.42667,1.06667 -0.42666,0.42667 -1.06667,0.42667 z"
         id="path844" />
      <path
         d="m 502.17057,270.25448 q -0.64,0 -1.06667,-0.42667 -0.42666,-0.42667 -0.42666,-1.06667 v -9.28003 q 0,-0.64 0.42666,-1.06667 0.42667,-0.42666 1.06667,-0.42666 h 5.12002 q 0.64,0 1.06667,0.42666 0.42667,0.42667 0.42667,1.06667 v 9.28003 q 0,0.64 -0.42667,1.06667 -0.42667,0.42667 -1.06667,0.42667 z m 2.24001,68.69355 q -1.6,0 -2.77334,-1.06667 -1.06667,-1.17334 -1.06667,-2.77334 V 286.46786 H 489.4772 q -0.64,0 -1.06667,-0.42666 -0.42667,-0.42667 -0.42667,-1.06667 v -4.90669 q 0,-0.64 0.42667,-1.06667 0.42667,-0.42666 1.06667,-0.42666 h 15.57338 q 1.60001,0 2.66668,1.17333 1.17333,1.06667 1.17333,2.66668 v 48.64015 h 10.98671 q 0.64,0 1.06667,0.42667 0.42666,0.42667 0.42666,1.06667 v 4.90668 q 0,0.64 -0.42666,1.06667 -0.42667,0.42667 -1.06667,0.42667 z"
         id="path846" />
      <path
         d="m 558.81069,340.3347 q -4.69334,0 -8.96002,-1.81334 -4.16002,-1.92001 -7.25336,-5.22668 v 4.16001 q 0,0.64 -0.42667,1.06667 -0.42667,0.42667 -1.06667,0.42667 h -4.90668 q -0.64,0 -1.06667,-0.42667 -0.42667,-0.42667 -0.42667,-1.06667 v -77.97358 q 0,-0.64 0.42667,-1.06667 0.42667,-0.42666 1.06667,-0.42666 h 5.33335 q 0.64,0 1.06667,0.42666 0.42667,0.42667 0.42667,1.06667 v 25.17342 q 2.98667,-3.52002 7.04002,-5.44002 4.16001,-2.02667 8.74669,-2.02667 6.08002,0 11.20004,2.98667 5.12001,2.98668 8.10669,8.10669 2.98668,5.12002 2.98668,11.20004 v 18.56006 q 0,6.08002 -2.98668,11.20003 -2.98668,5.12002 -8.10669,8.10669 -5.12002,2.98668 -11.20004,2.98668 z m -0.85333,-7.89336 q 4.05334,0 7.46669,-1.92 3.41334,-2.02668 5.33335,-5.44002 2.02667,-3.41335 2.02667,-7.46669 v -17.70672 q 0,-4.05335 -2.02667,-7.46669 -1.92001,-3.41335 -5.33335,-5.33335 -3.41335,-2.02668 -7.46669,-2.02668 -4.05335,0 -7.57336,2.02668 -3.41334,1.92 -5.44002,5.33335 -1.92,3.41334 -1.92,7.46669 v 17.70672 q 0,4.05334 1.92,7.46669 2.02668,3.41334 5.44002,5.44002 3.52001,1.92 7.57336,1.92 z"
         id="path848" />
      <path
         d="m 593.26383,338.94803 q -0.64,0 -1.06667,-0.42667 -0.42667,-0.42667 -0.42667,-1.06667 v -4.90668 q 0,-0.64 0.42667,-1.06667 0.42667,-0.42667 1.06667,-0.42667 h 8.85336 v -44.90681 h -8.85336 q -0.64,0 -1.06667,-0.42666 -0.42667,-0.42667 -0.42667,-1.06667 v -4.58669 q 0,-0.64 0.42667,-1.06667 0.42667,-0.42666 1.06667,-0.42666 h 13.33338 q 1.6,0 2.66667,1.17333 1.17334,1.06667 1.17334,2.66668 v 5.33335 l 6.18668,-4.80002 q 3.84002,-2.98667 6.18669,-3.94668 2.45334,-1.06667 5.12002,-1.06667 h 3.20001 q 0.74667,0 1.06667,0.42667 0.42666,0.42667 0.42666,1.06667 v 5.22669 q 0,0.64 -0.42666,1.06667 -0.42667,0.42666 -1.06667,0.42666 h -2.34668 q -2.66667,0 -5.01335,1.17334 -2.34667,1.06667 -7.04002,4.80002 l -6.29335,5.01334 v 33.92011 h 12.37337 q 0.64,0 1.06667,0.42667 0.42667,0.42667 0.42667,1.06667 v 4.90668 q 0,0.64 -0.42667,1.06667 -0.42667,0.42667 -1.06667,0.42667 z"
         id="path850" />
      <path
         d="m 664.3038,338.94803 q -6.29336,0 -11.62671,-3.09334 -5.33335,-3.09335 -8.42669,-8.4267 -3.09334,-5.44001 -3.09334,-11.73337 v -15.25338 q 0,-6.29335 3.09334,-11.6267 3.09334,-5.44002 8.42669,-8.53336 5.33335,-3.09334 11.62671,-3.09334 6.29335,0 11.6267,3.09334 5.33335,3.09334 8.42669,8.53336 3.09335,5.33335 3.09335,11.6267 v 7.25336 q 0,1.6 -1.17334,2.77334 -1.06667,1.06667 -2.66668,1.06667 h -34.13344 v 4.69335 q 0,4.05334 1.92001,7.46669 2.02667,3.41334 5.44002,5.44001 3.41334,1.92001 7.46669,1.92001 h 15.46671 q 0.64,0 1.06667,0.42667 0.42667,0.42667 0.42667,1.06667 v 4.90668 q 0,0.64 -0.42667,1.06667 -0.42667,0.42667 -1.06667,0.42667 z m 14.82671,-35.09344 v -3.94668 q 0,-4.05335 -2.02667,-7.46669 -1.92001,-3.41335 -5.33335,-5.33335 -3.41335,-2.02668 -7.46669,-2.02668 -4.05335,0 -7.46669,2.02668 -3.41335,1.92 -5.44002,5.33335 -1.92001,3.41334 -1.92001,7.46669 v 3.94668 z"
         id="path852" />
    </g>
    <g
       aria-label="AaBbCcDdEeRrQq"
       id="text1728"
       style="font-size:137.86px;line-height:1.25;font-family:'Libre Franklin';-inkscape-font-specification:'Libre Franklin, Normal';letter-spacing:0px;word-spacing:0px;fill:#004040;stroke-width:0.999999">
      <path
         d="m 53.27091,232.57083 q -0.82716,0 -1.24074,-0.55144 -0.27572,-0.6893 0,-1.79218 l 35.70574,-98.01846 q 0.41358,-0.96502 0.96502,-1.3786 0.55144,-0.55144 1.79218,-0.55144 h 10.75308 q 2.48148,0 3.17078,2.0679 l 35.29216,97.8806 q 0.27572,0.82716 -0.13786,1.65432 -0.27572,0.6893 -1.24074,0.6893 h -9.78806 q -1.65432,0 -2.20576,-1.3786 l -9.51234,-26.74484 q -0.27572,-0.55144 -0.55144,-0.82716 -0.27572,-0.27572 -1.10288,-0.27572 H 75.05279 q -1.24074,0 -1.65432,1.10288 l -9.78806,26.8827 q -0.13786,0.55144 -0.6893,0.96502 -0.41358,0.27572 -1.3786,0.27572 h -8.2716 z m 58.31478,-39.70368 q 1.65432,0 1.10288,-1.79218 l -16.5432,-45.35594 q -0.55144,-1.24074 -1.10288,-1.24074 -0.41358,0 -0.82716,1.24074 l -16.81892,45.63166 q -0.6893,1.51646 0.82716,1.51646 z"
         id="path785" />
      <path
         d="m 198.57525,223.74779 q -5.10082,4.96296 -11.16666,7.5823 -5.92798,2.61934 -13.37242,2.61934 -10.75308,0 -16.95678,-5.5144 -6.06584,-5.5144 -6.06584,-14.4753 0,-7.30658 4.1358,-12.54526 4.1358,-5.37654 12.26954,-8.40946 8.13374,-3.17078 19.9897,-3.86008 l 10.75308,-0.82716 q 0.82716,-0.13786 1.51646,-0.55144 0.6893,-0.41358 0.6893,-1.51646 v -3.72222 q 0,-7.44444 -4.68724,-11.7181 -4.54938,-4.41152 -12.4074,-4.41152 -6.06584,0 -11.0288,2.7572 -4.8251,2.7572 -8.68518,8.2716 -0.55144,0.6893 -0.96502,0.96502 -0.27572,0.13786 -1.10288,-0.13786 l -7.44444,-2.48148 q -0.41358,-0.27572 -0.6893,-0.6893 -0.13786,-0.41358 0.41358,-1.51646 4.1358,-7.16872 11.58024,-11.30452 7.5823,-4.1358 18.47324,-4.1358 9.23662,0 15.30246,2.89506 6.2037,2.7572 9.23662,8.13374 3.17078,5.23868 3.17078,12.54526 v 48.80244 q 0,1.24074 -0.41358,1.65432 -0.41358,0.41358 -1.3786,0.41358 h -7.03086 q -0.96502,0 -1.3786,-0.55144 -0.41358,-0.6893 -0.55144,-1.65432 l -0.13786,-6.34156 q -0.41358,-1.93004 -2.0679,-0.27572 z m 1.79218,-26.1934 q 0,-2.34362 -1.93004,-2.20576 l -9.09876,0.82716 q -6.34156,0.27572 -11.30452,1.65432 -4.96296,1.24074 -8.40946,3.30864 -3.4465,2.0679 -5.23868,4.96296 -1.79218,2.7572 -1.79218,6.47942 0,6.06584 4.1358,9.51234 4.27366,3.30864 11.44238,3.30864 4.41152,0 8.40946,-1.51646 4.1358,-1.65432 7.16872,-4.1358 3.17078,-2.61934 4.8251,-5.37654 1.79218,-2.7572 1.79218,-5.37654 v -11.44238 z"
         id="path787" />
      <path
         d="m 236.48653,232.57083 q -0.82716,0 -1.24074,-0.41358 -0.41358,-0.41358 -0.41358,-1.24074 v -98.70776 q 0,-0.96502 0.41358,-1.3786 0.55144,-0.55144 1.3786,-0.55144 h 31.84566 q 18.33538,0 28.2613,6.75514 10.06378,6.75514 10.06378,19.71398 0,8.2716 -4.41152,14.06172 -4.27366,5.65226 -13.64814,8.9609 -0.55144,0.13786 -0.55144,0.55144 0,0.41358 0.55144,0.55144 9.92592,2.48148 15.1646,8.54732 5.37654,5.92798 5.37654,15.8539 0,13.786 -10.3395,20.54114 -10.3395,6.75514 -29.50204,6.75514 h -32.94854 z m 32.25924,-9.6502 q 13.51028,0 20.12756,-4.27366 6.61728,-4.41152 6.61728,-13.786 0,-6.75514 -3.30864,-10.89094 -3.30864,-4.27366 -8.9609,-6.2037 -5.65226,-1.93004 -12.95884,-1.93004 h -20.26542 q -1.93004,0 -1.93004,1.65432 v 33.49998 q 0,1.93004 1.24074,1.93004 z m 1.51646,-47.01026 q 4.1358,0 8.2716,-0.82716 4.1358,-0.82716 7.44444,-2.7572 3.4465,-2.0679 5.37654,-5.37654 2.0679,-3.4465 2.0679,-8.68518 0,-9.37448 -6.893,-13.786 -6.75514,-4.54938 -18.05966,-4.54938 h -18.6111 q -1.79218,0 -1.79218,1.65432 v 32.53496 q 0,1.79218 1.24074,1.79218 z"
         id="path789" />
      <path
         d="m 330.64484,232.57083 q -1.24074,0 -1.79218,-0.55144 -0.41358,-0.55144 -0.41358,-1.65432 v -98.15632 q 0,-1.93004 1.65432,-1.93004 h 8.54732 q 1.3786,0 1.3786,1.93004 v 33.7757 q 0,1.51646 0.55144,1.65432 0.55144,0 1.51646,-0.82716 1.24074,-1.24074 3.99794,-3.30864 2.89506,-2.0679 7.30658,-3.72222 4.54938,-1.65432 10.75308,-1.65432 10.06378,0 16.5432,4.96296 6.47942,4.96296 9.6502,13.51028 3.30864,8.40946 3.30864,19.02468 0,17.64608 -8.2716,27.98558 -8.2716,10.3395 -23.16048,10.3395 -6.34156,0 -10.89094,-1.93004 -4.41152,-1.93004 -7.30658,-4.54938 -2.89506,-2.61934 -4.27366,-4.41152 -0.55144,-0.6893 -0.96502,-0.55144 -0.41358,0.13786 -0.55144,0.96502 l -0.6893,6.893 q -0.27572,2.20576 -2.48148,2.20576 z m 9.37448,-24.67694 q 0,4.96296 2.7572,9.09876 2.89506,3.99794 7.44444,6.34156 4.54938,2.34362 9.51234,2.34362 6.2037,0 11.16666,-3.03292 4.96296,-3.17078 7.85802,-9.78806 2.89506,-6.61728 2.89506,-16.95678 0,-14.06172 -5.37654,-21.64402 -5.37654,-7.72016 -15.57818,-7.72016 -6.47942,0 -11.85596,3.03292 -5.23868,2.89506 -8.82304,7.16872 z"
         id="path791" />
      <path
         d="m 452.51295,128.90011 q 6.893,0 13.23456,2.34362 6.47942,2.20576 11.58024,6.06584 5.10082,3.86008 8.40946,8.9609 3.30864,5.10082 4.1358,10.89094 0.27572,1.24074 0,1.65432 -0.13786,0.41358 -0.96502,0.41358 l -10.3395,0.82716 q -0.6893,0.13786 -0.96502,-0.27572 -0.27572,-0.41358 -0.41358,-1.10288 -1.93004,-8.82304 -8.40946,-14.19958 -6.34156,-5.5144 -15.8539,-5.5144 -14.33744,0 -22.0576,10.61522 -7.72016,10.61522 -7.72016,31.98352 0,20.679 7.5823,31.29422 7.5823,10.61522 22.88476,10.61522 9.78806,0 16.26748,-4.68724 6.61728,-4.68724 10.61522,-15.02674 0.41358,-0.82716 1.65432,-0.55144 l 8.13374,1.93004 q 0.41358,0.13786 0.6893,0.55144 0.27572,0.41358 0,1.3786 -1.10288,3.99794 -3.4465,7.85802 -2.20576,3.86008 -5.5144,7.30658 -3.30864,3.30864 -7.72016,6.06584 -4.41152,2.61934 -9.78806,4.1358 -5.23868,1.51646 -11.44238,1.51646 -13.64814,0 -23.57406,-6.34156 -9.78806,-6.34156 -15.02674,-18.19752 -5.10082,-11.85596 -5.10082,-28.12344 0,-16.26748 5.10082,-27.98558 5.23868,-11.85596 14.88888,-18.05966 9.78806,-6.34156 23.16048,-6.34156 z"
         id="path793" />
      <path
         d="m 538.81315,158.12643 q 7.16872,0 12.54526,2.34362 5.5144,2.20576 9.37448,6.2037 3.99794,3.86008 6.61728,8.54732 0.82716,1.65432 -0.6893,2.0679 l -7.5823,1.79218 q -0.96502,0.41358 -1.79218,-0.82716 -2.7572,-3.99794 -5.5144,-6.47942 -2.61934,-2.48148 -5.65226,-3.72222 -3.03292,-1.3786 -6.61728,-1.3786 -7.03087,0 -12.40741,3.58436 -5.23868,3.4465 -8.13374,10.06378 -2.89506,6.61728 -2.89506,15.71604 0,9.23662 2.89506,15.8539 3.03292,6.61728 8.2716,10.06378 5.37654,3.4465 12.54527,3.4465 6.61728,0 11.44238,-3.30864 4.8251,-3.30864 8.82304,-9.6502 0.41358,-0.6893 0.6893,-0.6893 0.41358,-0.13786 1.10288,0.13786 l 5.92798,2.20576 q 0.96502,0.41358 0.55144,1.79218 -2.0679,3.58436 -4.8251,6.893 -2.7572,3.30864 -6.47942,5.79012 -3.58436,2.48148 -8.13374,3.99794 -4.54938,1.3786 -10.06378,1.3786 -10.20165,0 -18.05967,-4.68724 -7.72016,-4.8251 -12.13168,-13.23456 -4.41152,-8.54732 -4.41152,-19.71398 0,-11.30452 4.41152,-19.85184 4.54938,-8.54732 12.26954,-13.37242 7.85802,-4.96296 17.92181,-4.96296 z"
         id="path795" />
      <path
         d="m 588.02914,130.27871 q 0.96502,0 3.99794,0 3.03292,0 6.61728,0.13786 3.58436,0 6.61728,0 3.03292,0 4.27366,0 19.16254,0.27572 30.88064,6.06584 11.85596,5.79012 17.2325,16.81892 5.5144,11.0288 5.5144,27.29628 0,17.2325 -5.92798,28.81274 -5.92798,11.58024 -18.19752,17.37036 -12.26954,5.79012 -30.88064,5.79012 h -20.26542 q -1.93004,0 -1.93004,-2.20576 v -98.15632 q 0,-0.96502 0.41358,-1.3786 0.55144,-0.55144 1.65432,-0.55144 z m 12.54526,10.06378 q -1.3786,0 -1.3786,1.93004 v 78.85592 q 0,1.51646 1.65432,1.51646 h 5.23868 q 15.30246,0 24.8148,-3.99794 9.51234,-4.1358 13.92386,-13.23456 4.54938,-9.09876 4.54938,-24.1255 0,-15.71604 -4.68724,-24.53908 -4.54938,-8.9609 -14.06172,-12.68312 -9.37448,-3.72222 -23.84978,-3.72222 h -6.2037 z"
         id="path797" />
      <path
         d="m 734.71193,232.57083 q -0.96502,0 -1.51646,-0.41358 -0.41358,-0.55144 -0.41358,-1.51646 v -5.79012 q 0,-1.10288 -0.55144,-1.24074 -0.41358,-0.13786 -1.24074,0.6893 -1.51646,1.3786 -4.41152,3.72222 -2.7572,2.34362 -7.03086,4.1358 -4.27366,1.79218 -10.20164,1.79218 -8.68518,0 -15.57818,-4.1358 -6.893,-4.1358 -11.0288,-12.26954 -3.99794,-8.2716 -3.99794,-20.40328 0,-11.7181 3.99794,-20.40328 4.1358,-8.82304 11.44238,-13.64814 7.44444,-4.96296 16.81892,-4.96296 6.75514,0 11.30452,2.20576 4.54938,2.20576 7.99588,5.10082 1.24074,0.96502 1.65432,0.82716 0.55144,-0.27572 0.55144,-1.79218 v -32.3971 q 0,-1.79218 1.51646,-1.79218 h 8.40946 q 1.51646,0 1.51646,1.79218 v 98.29418 q 0,1.24074 -0.41358,1.79218 -0.41358,0.41358 -1.79218,0.41358 h -7.03086 z m -2.34362,-56.93618 q -4.27366,-4.27366 -8.68518,-6.61728 -4.41152,-2.34362 -9.92592,-2.34362 -6.61728,0 -11.99382,3.4465 -5.23868,3.30864 -8.2716,10.06378 -2.89506,6.75514 -2.89506,16.5432 0,10.06378 3.03292,16.5432 3.03292,6.34156 8.13374,9.37448 5.10082,2.89506 11.16666,2.89506 5.65226,0 9.92592,-2.61934 4.41152,-2.61934 6.893,-6.47942 2.61934,-3.86008 2.61934,-7.5823 v -33.22426 z"
         id="path799" />
      <path
         d="m 768.07391,132.20875 q 0,-1.93004 1.65432,-1.93004 h 61.89914 q 1.3786,0 1.3786,1.51646 v 7.03086 q 0,1.65432 -1.79218,1.65432 h -48.11314 q -1.79218,0 -1.79218,1.65432 v 32.25924 q 0,1.51646 1.51646,1.51646 h 35.70574 q 1.51646,0 1.51646,1.51646 v 7.30658 q 0,0.55144 -0.27572,0.96502 -0.27572,0.27572 -1.24074,0.27572 h -35.70574 q -1.51646,0 -1.51646,1.51646 v 33.49998 q 0,1.3786 1.3786,1.3786 h 50.59462 q 1.51646,0 1.51646,1.3786 v 7.30658 q 0,0.6893 -0.41358,1.10288 -0.27572,0.41358 -1.10288,0.41358 h -63.27774 q -1.93004,0 -1.93004,-1.93004 v -98.43204 z"
         id="path801" />
      <path
         d="m 855.85602,200.58731 q 0,6.75514 3.17078,12.4074 3.30864,5.5144 8.68518,8.82304 5.5144,3.30864 12.26954,3.30864 6.893,0 12.26954,-2.7572 5.37654,-2.89506 9.23662,-8.68518 0.55144,-0.55144 0.82716,-0.55144 0.41358,-0.13786 1.10288,0.13786 l 5.79012,2.89506 q 1.24074,0.6893 0.27572,1.93004 -3.72222,5.5144 -8.2716,9.09876 -4.41152,3.4465 -9.92592,5.10082 -5.5144,1.65432 -12.4074,1.65432 -10.20164,0 -18.05966,-4.68724 -7.85802,-4.68724 -12.4074,-13.0967 -4.54938,-8.40946 -4.54938,-19.43826 0,-11.99382 4.54938,-20.54114 4.68724,-8.68518 12.54526,-13.37242 7.99588,-4.68724 17.78394,-4.68724 10.06378,0 17.50822,4.41152 7.44444,4.41152 11.58024,12.82098 4.1358,8.40946 4.1358,20.26542 0,0.96502 -0.27572,1.93004 -0.13786,0.96502 -1.79218,0.96502 h -52.80038 q -0.55144,0 -0.96502,0.6893 -0.27572,0.55144 -0.27572,1.3786 z m 42.18516,-9.6502 q 1.51646,0 1.93004,-0.27572 0.41358,-0.41358 0.41358,-1.65432 0,-5.92798 -2.61934,-11.0288 -2.48148,-5.23868 -7.30658,-8.40946 -4.68724,-3.17078 -11.44238,-3.17078 -7.44444,0 -12.54526,3.58436 -5.10082,3.4465 -7.72016,9.09876 -2.61934,5.65226 -2.61934,11.85596 z"
         id="path803" />
      <path
         d="m 1004.0554,229.95149 q 0.4136,0.96502 -0.1378,1.79218 -0.4136,0.82716 -1.3786,0.82716 h -10.06382 q -1.51646,0 -2.20576,-1.65432 l -17.78394,-43.4259 q -0.6893,-1.51646 -3.30864,-1.51646 H 945.8785 q -0.96502,0 -1.3786,0.41358 -0.27572,0.41358 -0.27572,1.10288 v 42.87446 q 0,2.20576 -2.34362,2.20576 h -8.9609 q -1.10288,0 -1.51646,-0.41358 -0.41358,-0.55144 -0.41358,-1.3786 v -98.5699 q 0,-1.93004 1.65432,-1.93004 h 38.46294 q 16.26748,0 25.22838,6.75514 9.09874,6.61728 9.09874,19.71398 0,7.85802 -3.0329,13.37242 -3.03292,5.37654 -7.72016,8.68518 -4.54938,3.17078 -9.37448,4.68724 -1.10288,0.13786 -0.55144,1.3786 l 19.30038,45.08022 z m -36.8086,-53.62754 q 12.13168,0 18.19752,-4.41152 6.2037,-4.41152 6.2037,-13.92386 0,-9.23662 -5.5144,-13.64814 -5.37654,-4.41152 -15.71604,-4.41152 h -24.26336 q -1.93004,0 -1.93004,1.51646 v 33.0864 q 0,1.79218 1.24074,1.79218 h 21.78188 z"
         id="path805" />
      <path
         d="m 1026.1129,232.57083 q -0.965,0 -1.5165,-0.41358 -0.4135,-0.55144 -0.4135,-1.3786 v -69.48144 q 0,-1.79218 1.5164,-1.79218 h 7.9959 q 1.5165,0 1.5165,1.51646 v 8.9609 q 0,0.82716 0.4135,0.96502 0.4136,0.13786 1.1029,-0.55144 3.5844,-4.27366 7.0309,-6.893 3.5843,-2.7572 7.1687,-3.99794 3.5844,-1.3786 7.1687,-1.3786 4.8251,0 4.8251,1.79218 v 8.2716 q 0,1.3786 -1.2407,1.10288 -1.2408,-0.13786 -2.8951,-0.27572 -1.5164,-0.13786 -3.3086,-0.13786 -3.0329,0 -6.4794,1.3786 -3.4465,1.24074 -6.4795,3.58436 -2.895,2.34362 -4.8251,5.23868 -1.93,2.89506 -1.93,5.79012 v 45.63166 q 0,2.0679 -2.0679,2.0679 h -7.5823 z"
         id="path807" />
      <path
         d="m 1075.3288,181.70049 q 0,-16.95678 5.2387,-28.67488 5.3766,-11.85596 15.1646,-17.9218 9.7881,-6.2037 23.2984,-6.2037 13.5102,0 23.2983,6.2037 9.9259,6.06584 15.1646,17.9218 5.2387,11.7181 5.2387,28.67488 0,16.95678 -5.1008,27.98558 -4.963,10.89094 -14.1996,17.09464 -0.5515,0.55144 -0.5515,1.24074 0,1.65432 2.4815,4.1358 2.4815,2.48148 6.4794,4.54938 4.1358,2.0679 8.5474,2.7572 0.965,0.13786 1.1028,0.55144 0.2758,0.41358 0.2758,0.6893 v 6.47942 q 0,1.51646 -0.8272,1.93004 -0.8272,0.55144 -2.8951,0.55144 -6.0658,0 -12.8209,-3.72222 -6.7552,-3.58436 -13.2346,-12.54526 -0.6893,-0.82716 -2.0679,-0.55144 -2.6193,0.55144 -5.3765,0.82716 -2.7572,0.27572 -5.5144,0.27572 -13.3725,0 -23.1605,-5.92798 -9.7881,-5.92798 -15.1646,-17.64608 -5.3766,-11.7181 -5.3766,-28.67488 z m 13.786,0.27572 q 0,21.50616 7.5823,31.7078 7.5823,10.20164 22.3334,10.20164 14.8888,0 22.3333,-10.20164 7.5823,-10.20164 7.5823,-31.84566 0,-21.50616 -7.4445,-32.12138 -7.4444,-10.75308 -22.4711,-10.75308 -14.8889,0 -22.4712,10.75308 -7.4445,10.61522 -7.4445,32.25924 z"
         id="path809" />
      <path
         d="m 1241.7257,159.50503 q 1.1029,0 1.5165,0.55144 0.5514,0.41358 0.5514,1.79218 v 91.6769 q 0,1.79218 -1.6543,1.79218 h -8.4095 q -1.5164,0 -1.5164,-1.79218 v -25.36624 q 0,-1.65432 -0.4136,-1.93004 -0.4136,-0.27572 -1.6543,0.82716 -3.5844,2.7572 -8.8231,4.8251 -5.2386,2.0679 -11.5802,2.0679 -9.6502,0 -16.6811,-4.68724 -7.0308,-4.68724 -10.8909,-13.23456 -3.7222,-8.54732 -3.7222,-20.26542 0,-11.30452 3.7222,-19.71398 3.7222,-8.54732 10.7531,-13.23456 7.1687,-4.68724 17.0946,-4.68724 7.0309,0 11.4424,1.79218 4.4115,1.79218 7.0309,4.1358 2.7572,2.20576 4.2736,3.86008 1.2408,1.3786 1.5165,-0.41358 l 0.965,-5.79012 q 0.2757,-1.24074 0.6893,-1.65432 0.5514,-0.55144 1.7922,-0.55144 z m -9.5123,24.67694 q 0,-4.68724 -2.6194,-8.68518 -2.4814,-4.1358 -6.893,-6.61728 -4.2736,-2.61934 -9.9259,-2.61934 -6.2037,0 -11.3045,3.17078 -5.1008,3.17078 -8.1337,9.78806 -3.033,6.47942 -3.033,16.40534 0,9.6502 2.8951,16.40534 2.8951,6.61728 7.9959,10.06378 5.1008,3.4465 11.7181,3.4465 5.5144,0 10.4773,-2.34362 5.1009,-2.34362 8.8231,-6.47942 z"
         id="path811" />
    </g>
    <g
       aria-label="AaBbCcDdEeRrQq"
       id="text14905"
       style="font-size:137.86px;line-height:1.25;font-family:'Miriam Libre';-inkscape-font-specification:'Miriam Libre, Normal';letter-spacing:0px;word-spacing:0px;fill:#004040;stroke-width:0.999999">
      <path
         d="m 52.71947,459.40204 q -1.24074,0 -1.93004,-0.82716 -0.55144,-0.96502 -0.13786,-2.20576 l 29.91562,-90.9876 q 0.27572,-0.82716 0.96502,-1.24074 0.82716,-0.55144 1.65432,-0.55144 h 9.09876 q 0.82716,0 1.51646,0.55144 0.82716,0.41358 1.10288,1.24074 l 29.91562,90.9876 q 0.13786,0.27572 0.13786,0.96502 0,0.82716 -0.6893,1.51646 -0.55144,0.55144 -1.51646,0.55144 h -6.75514 q -0.82716,0 -1.65432,-0.41358 -0.6893,-0.55144 -0.96502,-1.3786 l -7.72016,-23.98764 h -35.8436 l -7.72016,23.98764 q -0.13786,0.82716 -0.96502,1.3786 -0.82716,0.41358 -1.65432,0.41358 z m 49.76746,-35.8436 -14.75102,-45.63166 -14.75102,45.63166 z"
         id="path873" />
      <path
         d="m 163.28296,461.19422 q -10.61522,0 -17.37036,-5.92798 -6.75514,-6.06584 -6.75514,-15.8539 0,-9.09876 6.06584,-15.02674 6.2037,-5.92798 17.2325,-7.44444 l 17.9218,-2.48148 q 3.99794,-0.55144 5.79012,-2.61934 1.79218,-2.20576 1.79218,-6.2037 v -1.10288 q 0,-6.61728 -5.23868,-10.61522 -5.10082,-4.1358 -12.82098,-4.1358 -6.06584,0 -10.61522,2.48148 -4.41152,2.34362 -7.03086,6.61728 -1.10288,1.79218 -2.7572,1.79218 -0.82716,0 -1.79218,-0.6893 l -3.72222,-2.48148 q -1.24074,-1.10288 -1.24074,-2.34362 0,-0.55144 0.41358,-1.3786 3.99794,-6.61728 10.89094,-10.3395 7.03086,-3.86008 16.12962,-3.86008 8.2716,0 14.75102,3.17078 6.47942,3.03292 9.92592,8.68518 3.58436,5.65226 3.58436,13.0967 V 457.472 q 0,0.82716 -0.55144,1.3786 -0.55144,0.55144 -1.3786,0.55144 h -5.79012 q -0.82716,0 -1.3786,-0.55144 -0.55144,-0.55144 -0.55144,-1.3786 v -9.51234 q -4.27366,6.2037 -11.0288,9.78806 -6.61728,3.4465 -14.4753,3.4465 z m 1.10288,-9.6502 q 6.75514,0 12.26954,-3.58436 5.5144,-3.58436 8.54732,-8.9609 3.17078,-5.5144 3.17078,-10.75308 v -5.65226 q -3.30864,0.41358 -21.23044,2.89506 l -3.86008,0.55144 q -13.786,2.0679 -13.786,12.95884 0,5.65226 4.1358,9.09876 4.1358,3.4465 10.75308,3.4465 z"
         id="path875" />
      <path
         d="m 226.83634,459.40204 q -2.0679,0 -3.58436,-1.3786 -1.3786,-1.51646 -1.3786,-3.58436 V 368.5523 q 0,-2.0679 1.3786,-3.4465 1.51646,-1.51646 3.58436,-1.51646 h 23.84978 q 7.03086,0 12.82098,3.17078 5.79012,3.03292 8.9609,8.68518 3.30864,5.5144 3.30864,12.4074 0,5.79012 -2.48148,10.75308 -2.34362,4.96296 -6.893,8.54732 7.30658,3.03292 11.44238,9.51234 4.27366,6.47942 4.27366,14.61316 0,7.85802 -3.72222,14.33744 -3.72222,6.34156 -10.20164,10.06378 -6.34156,3.72222 -14.06172,3.72222 z m 22.0576,-54.86828 q 6.47942,0 11.0288,-4.68724 4.68724,-4.8251 4.68724,-11.30452 0,-6.2037 -4.27366,-10.47736 -4.27366,-4.27366 -10.75308,-4.27366 h -16.68106 v 30.74278 z m 4.54938,44.52878 q 7.44444,0 12.26954,-4.96296 4.96296,-4.96296 4.96296,-12.26954 0,-7.30658 -4.96296,-12.13168 -4.8251,-4.8251 -12.26954,-4.8251 h -20.54114 v 34.18928 z"
         id="path877" />
      <path
         d="m 331.19629,461.19422 q -6.06584,0 -11.58024,-2.34362 -5.37654,-2.48148 -9.37448,-6.75514 v 5.37654 q 0,0.82716 -0.55144,1.3786 -0.55144,0.55144 -1.3786,0.55144 h -6.34156 q -0.82716,0 -1.3786,-0.55144 -0.55144,-0.55144 -0.55144,-1.3786 V 356.69634 q 0,-0.82716 0.55144,-1.3786 0.55144,-0.55144 1.3786,-0.55144 h 6.893 q 0.82716,0 1.3786,0.55144 0.55144,0.55144 0.55144,1.3786 v 32.53496 q 3.86008,-4.54938 9.09876,-7.03086 5.37654,-2.61934 11.30452,-2.61934 7.85802,0 14.4753,3.86008 6.61728,3.86008 10.47736,10.47736 3.86008,6.61728 3.86008,14.4753 v 23.98764 q 0,7.85802 -3.86008,14.4753 -3.86008,6.61728 -10.47736,10.47736 -6.61728,3.86008 -14.4753,3.86008 z m -1.10288,-10.20164 q 5.23868,0 9.6502,-2.48148 4.41152,-2.61934 6.893,-7.03086 2.61934,-4.41152 2.61934,-9.6502 v -22.88476 q 0,-5.23868 -2.61934,-9.6502 -2.48148,-4.41152 -6.893,-6.893 -4.41152,-2.61934 -9.6502,-2.61934 -5.23868,0 -9.78806,2.61934 -4.41152,2.48148 -7.03086,6.893 -2.48148,4.41152 -2.48148,9.6502 v 22.88476 q 0,5.23868 2.48148,9.6502 2.61934,4.41152 7.03086,7.03086 4.54938,2.48148 9.78806,2.48148 z"
         id="path879" />
      <path
         d="m 411.56842,461.19422 q -8.9609,0 -16.5432,-4.54938 -7.5823,-4.54938 -11.99382,-12.26954 -4.41152,-7.72016 -4.41152,-16.81892 v -32.25924 q 0,-9.09876 4.41152,-16.81892 4.41152,-7.72016 11.99382,-12.26954 7.5823,-4.54938 16.5432,-4.54938 7.30658,0 13.64814,2.61934 6.34156,2.48148 11.16666,7.30658 0.6893,0.55144 0.6893,1.65432 0,0.96502 -0.6893,1.79218 -2.89506,3.30864 -3.72222,4.1358 -0.96502,0.6893 -1.93004,0.6893 -1.10288,0 -2.0679,-0.96502 -6.893,-6.61728 -16.95678,-6.61728 -5.92798,0 -10.89094,3.17078 -4.96296,3.17078 -7.85802,8.54732 -2.89506,5.23868 -2.89506,11.30452 v 32.25924 q 0,6.06584 2.89506,11.44238 2.89506,5.23868 7.85802,8.40946 4.96296,3.17078 10.89094,3.17078 10.06378,0 16.95678,-6.61728 0.96502,-0.96502 2.0679,-0.96502 0.96502,0 1.93004,0.6893 0.82716,0.82716 3.72222,4.1358 0.6893,0.6893 0.6893,1.79218 0,0.96502 -0.6893,1.65432 -4.8251,4.8251 -11.16666,7.44444 -6.34156,2.48148 -13.64814,2.48148 z"
         id="path881" />
      <path
         d="m 482.42826,461.19422 q -8.13374,0 -15.02674,-3.99794 -6.893,-3.99794 -10.89094,-10.89094 -3.99794,-7.03086 -3.99794,-15.1646 v -21.50616 q 0,-8.13374 3.99794,-15.02674 3.99794,-7.03086 10.89094,-11.0288 6.893,-3.99794 15.02674,-3.99794 5.92798,0 11.16666,2.20576 5.37654,2.20576 9.37448,6.06584 0.82716,0.82716 0.82716,1.93004 0,0.96502 -0.82716,2.0679 -1.3786,1.51646 -3.17078,3.17078 -0.96502,0.82716 -2.0679,0.82716 -1.24074,0 -2.20576,-0.96502 -5.5144,-5.10082 -13.0967,-5.10082 -5.23868,0 -9.6502,2.61934 -4.41152,2.48148 -7.03086,6.893 -2.48148,4.41152 -2.48148,9.6502 v 22.88476 q 0,5.23868 2.48148,9.6502 2.61934,4.41152 7.03086,7.03086 4.41152,2.48148 9.6502,2.48148 7.5823,0 13.0967,-5.10082 0.96502,-0.96502 2.20576,-0.96502 1.10288,0 2.0679,0.82716 1.65432,1.3786 3.17078,3.17078 0.82716,0.82716 0.82716,2.0679 0,1.10288 -0.82716,1.93004 -3.99794,3.86008 -9.37448,6.06584 -5.23868,2.20576 -11.16666,2.20576 z"
         id="path883" />
      <path
         d="m 528.74903,459.40204 q -2.0679,0 -3.58436,-1.3786 -1.3786,-1.51646 -1.3786,-3.58436 V 368.5523 q 0,-2.0679 1.3786,-3.4465 1.51646,-1.51646 3.58436,-1.51646 h 24.53908 q 9.78806,0 18.05966,4.96296 8.2716,4.8251 13.0967,13.23456 4.8251,8.2716 4.8251,18.19752 V 423.007 q 0,9.92592 -4.8251,18.33538 -4.8251,8.2716 -13.0967,13.23456 -8.2716,4.8251 -18.05966,4.8251 z m 24.53908,-10.61522 q 6.75514,0 12.4074,-3.30864 5.65226,-3.30864 8.9609,-8.9609 3.30864,-5.79012 3.30864,-12.54526 V 398.8815 q 0,-6.75514 -3.30864,-12.4074 -3.30864,-5.65226 -8.9609,-8.9609 -5.65226,-3.30864 -12.4074,-3.30864 h -18.19752 v 74.58226 z"
         id="path885" />
      <path
         d="m 636.004,461.19422 q -7.85802,0 -14.4753,-3.86008 -6.61728,-3.86008 -10.47736,-10.47736 -3.86008,-6.61728 -3.86008,-14.4753 v -23.98764 q 0,-7.85802 3.86008,-14.4753 3.86008,-6.61728 10.47736,-10.47736 6.75514,-3.86008 14.61316,-3.86008 5.65226,0 10.89094,2.0679 5.37654,2.0679 9.37448,5.79012 v -30.74278 q 0,-0.82716 0.55144,-1.3786 0.55144,-0.55144 1.3786,-0.55144 h 6.893 q 0.82716,0 1.3786,0.55144 0.55144,0.55144 0.55144,1.3786 V 457.472 q 0,0.82716 -0.55144,1.3786 -0.55144,0.55144 -1.3786,0.55144 h -6.34156 q -0.82716,0 -1.3786,-0.55144 -0.55144,-0.55144 -0.55144,-1.3786 v -6.06584 q -3.86008,4.68724 -9.37448,7.30658 -5.37654,2.48148 -11.58024,2.48148 z m 1.10288,-10.20164 q 5.23868,0 9.6502,-2.48148 4.54938,-2.61934 7.03086,-7.03086 2.61934,-4.41152 2.61934,-9.6502 v -22.88476 q 0,-5.23868 -2.61934,-9.6502 -2.48148,-4.41152 -7.03086,-6.893 -4.41152,-2.61934 -9.6502,-2.61934 -5.23868,0 -9.6502,2.61934 -4.41152,2.48148 -7.03086,6.893 -2.48148,4.41152 -2.48148,9.6502 v 22.88476 q 0,5.23868 2.48148,9.6502 2.61934,4.41152 7.03086,7.03086 4.41152,2.48148 9.6502,2.48148 z"
         id="path887" />
      <path
         d="m 696.93788,459.40204 q -2.0679,0 -3.58436,-1.3786 -1.3786,-1.51646 -1.3786,-3.58436 V 368.5523 q 0,-2.0679 1.3786,-3.4465 1.51646,-1.51646 3.58436,-1.51646 h 45.35594 q 0.82716,0 1.3786,0.55144 0.55144,0.55144 0.55144,1.3786 v 6.75514 q 0,0.82716 -0.55144,1.3786 -0.55144,0.55144 -1.3786,0.55144 h -39.01438 v 29.50204 h 29.77776 q 0.82716,0 1.3786,0.55144 0.55144,0.55144 0.55144,1.3786 v 6.47942 q 0,0.82716 -0.55144,1.3786 -0.55144,0.55144 -1.3786,0.55144 h -29.77776 v 34.74072 h 39.01438 q 0.82716,0 1.3786,0.55144 0.55144,0.55144 0.55144,1.3786 v 6.75514 q 0,0.82716 -0.55144,1.3786 -0.55144,0.55144 -1.3786,0.55144 z"
         id="path889" />
      <path
         d="m 789.02796,459.40204 q -8.13374,0 -15.02674,-3.99794 -6.893,-3.99794 -10.89094,-10.89094 -3.99794,-7.03086 -3.99794,-15.1646 v -19.71398 q 0,-8.13374 3.99794,-15.02674 3.99794,-7.03086 10.89094,-11.0288 6.893,-3.99794 15.02674,-3.99794 8.13374,0 15.02674,3.99794 6.893,3.99794 10.89094,11.0288 3.99794,6.893 3.99794,15.02674 v 9.37448 q 0,2.0679 -1.51646,3.58436 -1.3786,1.3786 -3.4465,1.3786 h -44.1152 v 6.06584 q 0,5.23868 2.48148,9.6502 2.61934,4.41152 7.03086,7.03086 4.41152,2.48148 9.6502,2.48148 h 19.9897 q 0.82716,0 1.3786,0.55144 0.55144,0.55144 0.55144,1.3786 v 6.34156 q 0,0.82716 -0.55144,1.3786 -0.55144,0.55144 -1.3786,0.55144 z M 808.1905,414.0461 v -5.10082 q 0,-5.23868 -2.61934,-9.6502 -2.48148,-4.41152 -6.893,-6.893 -4.41152,-2.61934 -9.6502,-2.61934 -5.23868,0 -9.6502,2.61934 -4.41152,2.48148 -7.03086,6.893 -2.48148,4.41152 -2.48148,9.6502 v 5.10082 z"
         id="path891" />
      <path
         d="m 841.27678,459.40204 q -0.82716,0 -1.3786,-0.55144 -0.55144,-0.55144 -0.55144,-1.3786 v -88.9197 q 0,-2.0679 1.3786,-3.4465 1.51646,-1.51646 3.58436,-1.51646 h 23.98764 q 7.72016,0 14.06172,3.72222 6.47942,3.72222 10.20164,10.20164 3.72222,6.34156 3.72222,13.92386 0,10.06378 -6.34156,17.64608 -6.34156,7.5823 -15.99176,9.51234 l 22.88476,36.94648 q 0.41358,0.55144 0.41358,1.3786 0,1.10288 -0.82716,1.79218 -0.6893,0.6893 -1.79218,0.6893 h -7.03086 q -1.3786,0 -2.0679,-1.24074 l -24.1255,-39.01438 H 850.65126 V 457.472 q 0,0.82716 -0.55144,1.3786 -0.55144,0.55144 -1.3786,0.55144 z m 26.1934,-50.87034 q 7.44444,0 12.26954,-4.8251 4.96296,-4.8251 4.96296,-12.13168 0,-7.5823 -4.96296,-12.4074 -4.8251,-4.96296 -12.26954,-4.96296 h -16.81892 v 34.32714 z"
         id="path893" />
      <path
         d="m 914.61785,459.40204 q -0.82716,0 -1.3786,-0.55144 -0.55144,-0.55144 -0.55144,-1.3786 v -6.34156 q 0,-0.82716 0.55144,-1.3786 0.55144,-0.55144 1.3786,-0.55144 h 11.44238 v -58.03906 h -11.44238 q -0.82716,0 -1.3786,-0.55144 -0.55144,-0.55144 -0.55144,-1.3786 v -5.92798 q 0,-0.82716 0.55144,-1.3786 0.55144,-0.55144 1.3786,-0.55144 h 17.2325 q 2.0679,0 3.4465,1.51646 1.51646,1.3786 1.51646,3.4465 v 6.893 l 7.99588,-6.2037 q 4.96296,-3.86008 7.99588,-5.10082 3.17078,-1.3786 6.61728,-1.3786 h 4.1358 q 0.96502,0 1.3786,0.55144 0.55144,0.55144 0.55144,1.3786 v 6.75514 q 0,0.82716 -0.55144,1.3786 -0.55144,0.55144 -1.3786,0.55144 h -3.03292 q -3.4465,0 -6.47942,1.51646 -3.03292,1.3786 -9.09876,6.2037 l -8.13374,6.47942 v 43.83948 h 15.99176 q 0.82716,0 1.3786,0.55144 0.55144,0.55144 0.55144,1.3786 v 6.34156 q 0,0.82716 -0.55144,1.3786 -0.55144,0.55144 -1.3786,0.55144 z"
         id="path895" />
      <path
         d="m 1061.163,486.00902 q -5.6523,0 -10.2017,-2.34362 -4.4115,-2.34362 -10.7531,-7.16872 l -3.1707,-2.48148 -5.6523,-4.27366 q -6.4794,-5.10082 -9.9259,-6.893 -3.3087,-1.65432 -8.4095,-1.65432 -9.0987,0 -16.95677,-4.54938 -7.72016,-4.54938 -12.26954,-12.26954 -4.54938,-7.72016 -4.54938,-16.81892 V 395.435 q 0,-9.09876 4.54938,-16.81892 4.54938,-7.72016 12.26954,-12.26954 7.85807,-4.54938 16.95677,-4.54938 9.0988,0 16.8189,4.54938 7.8581,4.54938 12.4074,12.26954 4.5494,7.72016 4.5494,16.81892 v 32.12138 q 0,8.82304 -4.2736,16.40534 -4.2737,7.44444 -11.4424,11.99382 l 10.3395,8.2716 3.1708,2.61934 q 5.6522,4.68724 9.5123,6.893 3.8601,2.34362 8.1337,2.34362 h 1.7922 q 0.8272,0 1.3786,0.55144 0.5515,0.55144 0.5515,1.3786 v 6.06584 q 0,0.82716 -0.5515,1.3786 -0.4136,0.55144 -1.3786,0.55144 z M 1013.0498,450.579 q 6.0659,0 11.1667,-3.17078 5.2387,-3.17078 8.2716,-8.40946 3.0329,-5.37654 3.0329,-11.44238 V 395.435 q 0,-6.06584 -3.0329,-11.30452 -3.0329,-5.37654 -8.2716,-8.54732 -5.1008,-3.17078 -11.1667,-3.17078 -6.0658,0 -11.3045,3.17078 -5.10083,3.17078 -8.13375,8.54732 -3.03292,5.23868 -3.03292,11.30452 v 32.12138 q 0,6.06584 3.03292,11.44238 3.03292,5.23868 8.13375,8.40946 5.2387,3.17078 11.3045,3.17078 z"
         id="path897" />
      <path
         d="m 1117.8234,486.00902 q -0.8272,0 -1.3786,-0.55144 -0.5514,-0.55144 -0.5514,-1.3786 v -32.53496 q -3.8601,4.54938 -9.2367,7.16872 -5.2386,2.48148 -11.1666,2.48148 -7.858,0 -14.4753,-3.86008 -6.6173,-3.86008 -10.4774,-10.47736 -3.8601,-6.61728 -3.8601,-14.4753 v -23.98764 q 0,-7.85802 3.8601,-14.4753 3.8601,-6.61728 10.4774,-10.47736 6.6173,-3.86008 14.4753,-3.86008 6.0658,0 11.4424,2.48148 5.5144,2.34362 9.5123,6.61728 v -5.37654 q 0,-0.82716 0.5514,-1.3786 0.5515,-0.55144 1.3786,-0.55144 h 6.3416 q 0.8272,0 1.3786,0.55144 0.5514,0.55144 0.5514,1.3786 v 100.77566 q 0,0.82716 -0.5514,1.3786 -0.5514,0.55144 -1.3786,0.55144 z m -21.2304,-35.01644 q 5.2386,0 9.6502,-2.48148 4.5493,-2.61934 7.0308,-7.03086 2.6194,-4.41152 2.6194,-9.6502 v -22.88476 q 0,-5.23868 -2.6194,-9.6502 -2.4815,-4.41152 -7.0308,-6.893 -4.4116,-2.61934 -9.6502,-2.61934 -5.2387,0 -9.6502,2.61934 -4.4116,2.48148 -7.0309,6.893 -2.4815,4.41152 -2.4815,9.6502 v 22.88476 q 0,5.23868 2.4815,9.6502 2.6193,4.41152 7.0309,7.03086 4.4115,2.48148 9.6502,2.48148 z"
         id="path899" />
    </g>
  </g>
</svg>
