<?xml version="1.0" encoding="UTF-8" standalone="no"?>
<!-- Created with Inkscape (http://www.inkscape.org/) -->

<svg
   inkscape:version="1.1 (c68e22c387, 2021-05-23)"
   sodipodi:docname="fonts-glyph.svg"
   id="SVGRoot"
   version="1.1"
   viewBox="0 0 1500 500"
   height="500"
   width="1500"
   xmlns:inkscape="http://www.inkscape.org/namespaces/inkscape"
   xmlns:sodipodi="http://sodipodi.sourceforge.net/DTD/sodipodi-0.dtd"
   xmlns="http://www.w3.org/2000/svg"
   xmlns:svg="http://www.w3.org/2000/svg">
  <sodipodi:namedview
     id="namedview32418"
     pagecolor="#505050"
     bordercolor="#eeeeee"
     borderopacity="1"
     inkscape:pageshadow="0"
     inkscape:pageopacity="0"
     inkscape:pagecheckerboard="0"
     inkscape:document-units="px"
     showgrid="false"
     inkscape:zoom="1.6508586"
     inkscape:cx="1134.2583"
     inkscape:cy="390.40291"
     inkscape:current-layer="layer1"
     inkscape:snap-bbox="true"
     inkscape:bbox-paths="true"
     inkscape:object-paths="true"
     inkscape:snap-bbox-midpoints="true"
     inkscape:snap-bbox-edge-midpoints="true"
     inkscape:window-width="1920"
     inkscape:window-height="989"
     inkscape:window-x="-9"
     inkscape:window-y="-9"
     inkscape:window-maximized="1" />
  <defs
     id="defs32413">
    <filter
       style="color-interpolation-filters:sRGB"
       inkscape:label="Greyscale"
       id="filter439502"
       x="-0.014759365"
       y="-0.011013929"
       width="1.0273222"
       height="1.0239658">
      <feColorMatrix
         values="0.21 0.72 0.072 0 0 0.21 0.72 0.072 0 0 0.21 0.72 0.072 0 0 0 0 0 1 0 "
         id="feColorMatrix439500" />
    </filter>
    <filter
       style="color-interpolation-filters:sRGB"
       inkscape:label="Greyscale"
       id="filter439506"
       x="-0.012198776"
       y="-0.0133698"
       width="1.0250034"
       height="1.0260875">
      <feColorMatrix
         values="0.21 0.72 0.072 0 0 0.21 0.72 0.072 0 0 0.21 0.72 0.072 0 0 0 0 0 1 0 "
         id="feColorMatrix439504" />
    </filter>
    <filter
       style="color-interpolation-filters:sRGB"
       inkscape:label="Greyscale"
       id="filter439510"
       x="-0.0097815869"
       y="-0.016557066"
       width="1.0227838"
       height="1.0289789">
      <feColorMatrix
         values="0.21 0.72 0.072 0 0 0.21 0.72 0.072 0 0 0.21 0.72 0.072 0 0 0 0 0 1 0 "
         id="feColorMatrix439508" />
    </filter>
    <filter
       style="color-interpolation-filters:sRGB"
       inkscape:label="Greyscale"
       id="filter439514"
       x="-0.0097927544"
       y="-0.012482116"
       width="1.0228409"
       height="1.0290717">
      <feColorMatrix
         values="0.21 0.72 0.072 0 0 0.21 0.72 0.072 0 0 0.21 0.72 0.072 0 0 0 0 0 1 0 "
         id="feColorMatrix439512" />
    </filter>
    <filter
       style="color-interpolation-filters:sRGB"
       inkscape:label="Greyscale"
       id="filter439518"
       x="-0.012221048"
       y="-0.012739026"
       width="1.0250626"
       height="1.0261874">
      <feColorMatrix
         values="0.21 0.72 0.072 0 0 0.21 0.72 0.072 0 0 0.21 0.72 0.072 0 0 0 0 0 1 0 "
         id="feColorMatrix439516" />
    </filter>
    <filter
       style="color-interpolation-filters:sRGB"
       inkscape:label="Greyscale"
       id="filter439522"
       x="-0.01483388"
       y="-0.012948699"
       width="1.0274705"
       height="1.024031">
      <feColorMatrix
         values="0.21 0.72 0.072 0 0 0.21 0.72 0.072 0 0 0.21 0.72 0.072 0 0 0 0 0 1 0 "
         id="feColorMatrix439520" />
    </filter>
    <filter
       style="color-interpolation-filters:sRGB"
       inkscape:label="Greyscale"
       id="filter439526"
       x="-0.014561634"
       y="-0.012651609"
       width="1.0290953"
       height="1.0230787">
      <feColorMatrix
         values="0.21 0.72 0.072 0 0 0.21 0.72 0.072 0 0 0.21 0.72 0.072 0 0 0 0 0 1 0 "
         id="feColorMatrix439524" />
    </filter>
    <filter
       style="color-interpolation-filters:sRGB"
       inkscape:label="Greyscale"
       id="filter439530"
       x="-0.012623959"
       y="-0.012938922"
       width="1.0274804"
       height="1.0239927">
      <feColorMatrix
         values="0.21 0.72 0.072 0 0 0.21 0.72 0.072 0 0 0.21 0.72 0.072 0 0 0 0 0 1 0 "
         id="feColorMatrix439528" />
    </filter>
    <filter
       style="color-interpolation-filters:sRGB"
       inkscape:label="Greyscale"
       id="filter439534"
       x="-0.012860469"
       y="-0.012725824"
       width="1.0251007"
       height="1.0261182">
      <feColorMatrix
         values="0.21 0.72 0.072 0 0 0.21 0.72 0.072 0 0 0.21 0.72 0.072 0 0 0 0 0 1 0 "
         id="feColorMatrix439532" />
    </filter>
    <filter
       style="color-interpolation-filters:sRGB"
       inkscape:label="Greyscale"
       id="filter439538"
       x="-0.012994008"
       y="-0.012420811"
       width="1.0228411"
       height="1.0289242">
      <feColorMatrix
         values="0.21 0.72 0.072 0 0 0.21 0.72 0.072 0 0 0.21 0.72 0.072 0 0 0 0 0 1 0 "
         id="feColorMatrix439536" />
    </filter>
    <filter
       style="color-interpolation-filters:sRGB"
       inkscape:label="Greyscale"
       id="filter439542"
       x="-0.012992011"
       y="-0.016474618"
       width="1.022725"
       height="1.0288349">
      <feColorMatrix
         values="0.21 0.72 0.072 0 0 0.21 0.72 0.072 0 0 0.21 0.72 0.072 0 0 0 0 0 1 0 "
         id="feColorMatrix439540" />
    </filter>
    <filter
       style="color-interpolation-filters:sRGB"
       inkscape:label="Greyscale"
       id="filter439546"
       x="-0.012777513"
       y="-0.013337689"
       width="1.0248979"
       height="1.0260091">
      <feColorMatrix
         values="0.21 0.72 0.072 0 0 0.21 0.72 0.072 0 0 0.21 0.72 0.072 0 0 0 0 0 1 0 "
         id="feColorMatrix439544" />
    </filter>
    <filter
       style="color-interpolation-filters:sRGB"
       inkscape:label="Greyscale"
       id="filter439550"
       x="-0.012523829"
       y="-0.010999327"
       width="1.0271902"
       height="1.023912">
      <feColorMatrix
         values="0.21 0.72 0.072 0 0 0.21 0.72 0.072 0 0 0.21 0.72 0.072 0 0 0 0 0 1 0 "
         id="feColorMatrix439548" />
    </filter>
    <filter
       style="color-interpolation-filters:sRGB"
       inkscape:label="Greyscale"
       id="filter439554"
       x="-0.014368828"
       y="-0.01043784"
       width="1.0288149"
       height="1.0230671">
      <feColorMatrix
         values="0.21 0.72 0.072 0 0 0.21 0.72 0.072 0 0 0.21 0.72 0.072 0 0 0 0 0 1 0 "
         id="feColorMatrix439552" />
    </filter>
    <filter
       style="color-interpolation-filters:sRGB"
       inkscape:label="Greyscale"
       id="filter503175"
       x="-0.0018665642"
       y="-0.013065955"
       width="1.0037332"
       height="1.0261319">
      <feColorMatrix
         values="0.618044 0.72381 -0.110563 -0.322094 0 0.618044 0.72381 -0.110563 -0.322094 0 0.618044 0.72381 -0.110563 -0.322094 0 0 0 0 1 0 "
         id="feColorMatrix503173" />
    </filter>
    <filter
       style="color-interpolation-filters:sRGB"
       inkscape:label="Greyscale"
       id="filter504073"
       x="-0.014368799"
       y="-0.010437819"
       width="1.0288149"
       height="1.0230671">
      <feColorMatrix
         values="0.618044 0.72381 -0.110563 -0.12 0 0.618044 0.72381 -0.110563 -0.12 0 0.618044 0.72381 -0.110563 -0.12 0 0 0 0 1 0 "
         id="feColorMatrix504071" />
    </filter>
    <filter
       style="color-interpolation-filters:sRGB"
       inkscape:label="Greyscale"
       id="filter504077"
       x="-0.012523803"
       y="-0.010999305"
       width="1.0271901"
       height="1.023912">
      <feColorMatrix
         values="0.618044 0.72381 -0.110563 -0.12 0 0.618044 0.72381 -0.110563 -0.12 0 0.618044 0.72381 -0.110563 -0.12 0 0 0 0 1 0 "
         id="feColorMatrix504075" />
    </filter>
    <filter
       style="color-interpolation-filters:sRGB"
       inkscape:label="Greyscale"
       id="filter504081"
       x="-0.012777488"
       y="-0.013337663"
       width="1.0248978"
       height="1.0260091">
      <feColorMatrix
         values="0.618044 0.72381 -0.110563 -0.12 0 0.618044 0.72381 -0.110563 -0.12 0 0.618044 0.72381 -0.110563 -0.12 0 0 0 0 1 0 "
         id="feColorMatrix504079" />
    </filter>
    <filter
       style="color-interpolation-filters:sRGB"
       inkscape:label="Greyscale"
       id="filter504085"
       x="-0.012991986"
       y="-0.016474584"
       width="1.022725"
       height="1.0288349">
      <feColorMatrix
         values="0.618044 0.72381 -0.110563 -0.12 0 0.618044 0.72381 -0.110563 -0.12 0 0.618044 0.72381 -0.110563 -0.12 0 0 0 0 1 0 "
         id="feColorMatrix504083" />
    </filter>
    <filter
       style="color-interpolation-filters:sRGB"
       inkscape:label="Greyscale"
       id="filter504089"
       x="-0.012993982"
       y="-0.012420786"
       width="1.022841"
       height="1.0289241">
      <feColorMatrix
         values="0.618044 0.72381 -0.110563 -0.12 0 0.618044 0.72381 -0.110563 -0.12 0 0.618044 0.72381 -0.110563 -0.12 0 0 0 0 1 0 "
         id="feColorMatrix504087" />
    </filter>
    <filter
       style="color-interpolation-filters:sRGB"
       inkscape:label="Greyscale"
       id="filter504093"
       x="-0.012860442"
       y="-0.012725798"
       width="1.0251006"
       height="1.026118">
      <feColorMatrix
         values="0.618044 0.72381 -0.110563 -0.12 0 0.618044 0.72381 -0.110563 -0.12 0 0.618044 0.72381 -0.110563 -0.12 0 0 0 0 1 0 "
         id="feColorMatrix504091" />
    </filter>
    <filter
       style="color-interpolation-filters:sRGB"
       inkscape:label="Greyscale"
       id="filter504097"
       x="-0.012623934"
       y="-0.012938895"
       width="1.0274802"
       height="1.0239927">
      <feColorMatrix
         values="0.618044 0.72381 -0.110563 -0.12 0 0.618044 0.72381 -0.110563 -0.12 0 0.618044 0.72381 -0.110563 -0.12 0 0 0 0 1 0 "
         id="feColorMatrix504095" />
    </filter>
    <filter
       style="color-interpolation-filters:sRGB"
       inkscape:label="Greyscale"
       id="filter504101"
       x="-0.014561605"
       y="-0.012651581"
       width="1.0290952"
       height="1.0230787">
      <feColorMatrix
         values="0.618044 0.72381 -0.110563 -0.12 0 0.618044 0.72381 -0.110563 -0.12 0 0.618044 0.72381 -0.110563 -0.12 0 0 0 0 1 0 "
         id="feColorMatrix504099" />
    </filter>
    <filter
       style="color-interpolation-filters:sRGB"
       inkscape:label="Greyscale"
       id="filter504105"
       x="-0.014833851"
       y="-0.012948672"
       width="1.0274704"
       height="1.024031">
      <feColorMatrix
         values="0.618044 0.72381 -0.110563 -0.12 0 0.618044 0.72381 -0.110563 -0.12 0 0.618044 0.72381 -0.110563 -0.12 0 0 0 0 1 0 "
         id="feColorMatrix504103" />
    </filter>
    <filter
       style="color-interpolation-filters:sRGB"
       inkscape:label="Greyscale"
       id="filter504109"
       x="-0.012221023"
       y="-0.012739001"
       width="1.0250626"
       height="1.0261873">
      <feColorMatrix
         values="0.618044 0.72381 -0.110563 -0.12 0 0.618044 0.72381 -0.110563 -0.12 0 0.618044 0.72381 -0.110563 -0.12 0 0 0 0 1 0 "
         id="feColorMatrix504107" />
    </filter>
    <filter
       style="color-interpolation-filters:sRGB"
       inkscape:label="Greyscale"
       id="filter504113"
       x="-0.0097927349"
       y="-0.012482092"
       width="1.0228407"
       height="1.0290716">
      <feColorMatrix
         values="0.618044 0.72381 -0.110563 -0.12 0 0.618044 0.72381 -0.110563 -0.12 0 0.618044 0.72381 -0.110563 -0.12 0 0 0 0 1 0 "
         id="feColorMatrix504111" />
    </filter>
    <filter
       style="color-interpolation-filters:sRGB"
       inkscape:label="Greyscale"
       id="filter504117"
       x="-0.0097815385"
       y="-0.016557053"
       width="1.0227836"
       height="1.0289789">
      <feColorMatrix
         values="0.618044 0.72381 -0.110563 -0.12 0 0.618044 0.72381 -0.110563 -0.12 0 0.618044 0.72381 -0.110563 -0.12 0 0 0 0 1 0 "
         id="feColorMatrix504115" />
    </filter>
    <filter
       style="color-interpolation-filters:sRGB"
       inkscape:label="Greyscale"
       id="filter504121"
       x="-0.012198751"
       y="-0.013369773"
       width="1.0250033"
       height="1.0260874">
      <feColorMatrix
         values="0.618044 0.72381 -0.110563 -0.12 0 0.618044 0.72381 -0.110563 -0.12 0 0.618044 0.72381 -0.110563 -0.12 0 0 0 0 1 0 "
         id="feColorMatrix504119" />
    </filter>
    <filter
       style="color-interpolation-filters:sRGB"
       inkscape:label="Greyscale"
       id="filter504125"
       x="-0.014759335"
       y="-0.011013906"
       width="1.0273222"
       height="1.0239657">
      <feColorMatrix
         values="0.618044 0.72381 -0.110563 -0.12 0 0.618044 0.72381 -0.110563 -0.12 0 0.618044 0.72381 -0.110563 -0.12 0 0 0 0 1 0 "
         id="feColorMatrix504123" />
    </filter>
    <filter
       style="color-interpolation-filters:sRGB"
       inkscape:label="Greyscale"
       id="filter504245"
       x="-0.0018665642"
       y="-0.013065955"
       width="1.0037332"
       height="1.0261319">
      <feColorMatrix
         values="0.618044 0.72381 -0.110563 -0.12 0 0.618044 0.72381 -0.110563 -0.12 0 0.618044 0.72381 -0.110563 -0.12 0 0 0 0 1 0 "
         id="feColorMatrix504243" />
    </filter>
    <filter
       style="color-interpolation-filters:sRGB"
       inkscape:label="Greyscale"
       id="filter504249"
       x="-0.01766916"
       y="-0.01766916"
       width="1.0353383"
       height="1.0353383">
      <feColorMatrix
         values="0.618044 0.72381 -0.110563 -0.12 0 0.618044 0.72381 -0.110563 -0.12 0 0.618044 0.72381 -0.110563 -0.12 0 0 0 0 1 0 "
         id="feColorMatrix504247" />
    </filter>
    <filter
       style="color-interpolation-filters:sRGB"
       inkscape:label="Greyscale"
       id="filter504253"
       x="-0.01766916"
       y="-0.01766916"
       width="1.0353383"
       height="1.0353383">
      <feColorMatrix
         values="0.618044 0.72381 -0.110563 -0.12 0 0.618044 0.72381 -0.110563 -0.12 0 0.618044 0.72381 -0.110563 -0.12 0 0 0 0 1 0 "
         id="feColorMatrix504251" />
    </filter>
    <filter
       style="color-interpolation-filters:sRGB"
       inkscape:label="Greyscale"
       id="filter504257"
       x="-0.01766916"
       y="-0.01766916"
       width="1.0353383"
       height="1.0353383">
      <feColorMatrix
         values="0.618044 0.72381 -0.110563 -0.12 0 0.618044 0.72381 -0.110563 -0.12 0 0.618044 0.72381 -0.110563 -0.12 0 0 0 0 1 0 "
         id="feColorMatrix504255" />
    </filter>
    <filter
       style="color-interpolation-filters:sRGB"
       inkscape:label="Greyscale"
       id="filter504261"
       x="-0.01766916"
       y="-0.01766916"
       width="1.0353383"
       height="1.0353383">
      <feColorMatrix
         values="0.618044 0.72381 -0.110563 -0.12 0 0.618044 0.72381 -0.110563 -0.12 0 0.618044 0.72381 -0.110563 -0.12 0 0 0 0 1 0 "
         id="feColorMatrix504259" />
    </filter>
    <filter
       style="color-interpolation-filters:sRGB"
       inkscape:label="Greyscale"
       id="filter504265"
       x="-0.01766916"
       y="-0.01766916"
       width="1.0353383"
       height="1.0353383">
      <feColorMatrix
         values="0.618044 0.72381 -0.110563 -0.12 0 0.618044 0.72381 -0.110563 -0.12 0 0.618044 0.72381 -0.110563 -0.12 0 0 0 0 1 0 "
         id="feColorMatrix504263" />
    </filter>
    <filter
       style="color-interpolation-filters:sRGB"
       inkscape:label="Greyscale"
       id="filter504269"
       x="-0.01766916"
       y="-0.01766916"
       width="1.0353383"
       height="1.0353383">
      <feColorMatrix
         values="0.618044 0.72381 -0.110563 -0.12 0 0.618044 0.72381 -0.110563 -0.12 0 0.618044 0.72381 -0.110563 -0.12 0 0 0 0 1 0 "
         id="feColorMatrix504267" />
    </filter>
    <filter
       style="color-interpolation-filters:sRGB"
       inkscape:label="Greyscale"
       id="filter504273"
       x="-0.01766916"
       y="-0.01766916"
       width="1.0353383"
       height="1.0353383">
      <feColorMatrix
         values="0.618044 0.72381 -0.110563 -0.12 0 0.618044 0.72381 -0.110563 -0.12 0 0.618044 0.72381 -0.110563 -0.12 0 0 0 0 1 0 "
         id="feColorMatrix504271" />
    </filter>
    <rect
       x="301.8735"
       y="54.922695"
       width="315.38217"
       height="392.1662"
       id="rect142869" />
    <rect
       x="580.67041"
       y="168.2337"
       width="148.4621"
       height="227.98207"
       id="rect128629" />
    <rect
       x="580.67041"
       y="168.2337"
       width="148.4621"
       height="227.98207"
       id="rect625543" />
    <rect
       x="580.67041"
       y="168.2337"
       width="148.4621"
       height="227.98207"
       id="rect625549" />
    <rect
       x="580.67041"
       y="168.2337"
       width="148.4621"
       height="227.98207"
       id="rect630971" />
    <rect
       x="580.67041"
       y="168.2337"
       width="148.4621"
       height="227.98207"
       id="rect637555" />
    <rect
       x="580.67041"
       y="168.2337"
       width="148.4621"
       height="227.98207"
       id="rect642415" />
    <rect
       x="580.67041"
       y="168.2337"
       width="148.4621"
       height="227.98207"
       id="rect647017" />
    <rect
       x="580.67041"
       y="168.2337"
       width="148.4621"
       height="227.98207"
       id="rect651637" />
    <rect
       x="580.67041"
       y="168.2337"
       width="148.4621"
       height="227.98207"
       id="rect656769" />
    <rect
       x="580.67041"
       y="168.2337"
       width="148.4621"
       height="227.98207"
       id="rect662965" />
    <rect
       x="580.67041"
       y="168.2337"
       width="148.4621"
       height="227.98207"
       id="rect669437" />
    <rect
       x="580.67041"
       y="168.2337"
       width="148.4621"
       height="227.98207"
       id="rect678811" />
    <rect
       x="580.67041"
       y="168.2337"
       width="148.4621"
       height="227.98207"
       id="rect689501" />
    <rect
       x="580.67041"
       y="168.2337"
       width="148.4621"
       height="227.98207"
       id="rect697375" />
    <rect
       x="580.67041"
       y="168.2337"
       width="148.4621"
       height="227.98207"
       id="rect704877" />
    <rect
       x="580.67041"
       y="168.2337"
       width="148.4621"
       height="227.98207"
       id="rect710993" />
    <rect
       x="580.67041"
       y="168.2337"
       width="148.4621"
       height="227.98207"
       id="rect745823" />
    <rect
       x="580.67041"
       y="168.2337"
       width="148.4621"
       height="227.98207"
       id="rect751192" />
    <rect
       x="580.67041"
       y="168.2337"
       width="148.4621"
       height="227.98207"
       id="rect757148" />
    <rect
       x="580.67041"
       y="168.2337"
       width="148.4621"
       height="227.98207"
       id="rect760568" />
    <rect
       x="580.67041"
       y="168.2337"
       width="148.4621"
       height="227.98207"
       id="rect764806" />
    <rect
       x="580.67041"
       y="168.2337"
       width="148.4621"
       height="227.98207"
       id="rect768602" />
    <rect
       x="580.67041"
       y="168.2337"
       width="148.4621"
       height="227.98207"
       id="rect770588" />
    <rect
       x="580.67041"
       y="168.2337"
       width="148.4621"
       height="227.98207"
       id="rect774595" />
    <rect
       x="580.67041"
       y="168.2337"
       width="148.4621"
       height="227.98207"
       id="rect783037" />
    <rect
       x="580.67041"
       y="168.2337"
       width="148.4621"
       height="227.98207"
       id="rect788527" />
    <rect
       x="580.67041"
       y="168.2337"
       width="148.4621"
       height="227.98207"
       id="rect799827" />
    <rect
       x="580.67041"
       y="168.2337"
       width="148.4621"
       height="227.98207"
       id="rect805629" />
    <rect
       x="580.67041"
       y="168.2337"
       width="148.4621"
       height="227.98207"
       id="rect811239" />
    <rect
       x="580.67041"
       y="168.2337"
       width="148.4621"
       height="227.98207"
       id="rect69704" />
    <rect
       x="580.67041"
       y="168.2337"
       width="148.4621"
       height="227.98207"
       id="rect69706" />
    <rect
       x="580.67041"
       y="168.2337"
       width="148.4621"
       height="227.98207"
       id="rect69708" />
    <rect
       x="580.67041"
       y="168.2337"
       width="148.4621"
       height="227.98207"
       id="rect69710" />
    <rect
       x="580.67041"
       y="168.2337"
       width="148.4621"
       height="227.98207"
       id="rect69712" />
    <rect
       x="580.67041"
       y="168.2337"
       width="148.4621"
       height="227.98207"
       id="rect69714" />
    <rect
       x="580.67041"
       y="168.2337"
       width="148.4621"
       height="227.98207"
       id="rect69716" />
    <rect
       x="580.67041"
       y="168.2337"
       width="148.4621"
       height="227.98207"
       id="rect69718" />
    <rect
       x="580.67041"
       y="168.2337"
       width="148.4621"
       height="227.98207"
       id="rect69720" />
    <rect
       x="580.67041"
       y="168.2337"
       width="148.4621"
       height="227.98207"
       id="rect69722" />
    <rect
       x="580.67041"
       y="168.2337"
       width="148.4621"
       height="227.98207"
       id="rect69724" />
    <rect
       x="580.67041"
       y="168.2337"
       width="148.4621"
       height="227.98207"
       id="rect69726" />
    <rect
       x="580.67041"
       y="168.2337"
       width="148.4621"
       height="227.98207"
       id="rect69728" />
    <rect
       x="580.67041"
       y="168.2337"
       width="148.4621"
       height="227.98207"
       id="rect69730" />
    <rect
       x="580.67041"
       y="168.2337"
       width="148.4621"
       height="227.98207"
       id="rect69732" />
    <rect
       x="580.67041"
       y="168.2337"
       width="148.4621"
       height="227.98207"
       id="rect69734" />
    <rect
       x="580.67041"
       y="168.2337"
       width="148.4621"
       height="227.98207"
       id="rect69736" />
    <rect
       x="580.67041"
       y="168.2337"
       width="148.4621"
       height="227.98207"
       id="rect69738" />
    <rect
       x="580.67041"
       y="168.2337"
       width="148.4621"
       height="227.98207"
       id="rect69740" />
    <rect
       x="580.67041"
       y="168.2337"
       width="148.4621"
       height="227.98207"
       id="rect69742" />
    <rect
       x="580.67041"
       y="168.2337"
       width="148.4621"
       height="227.98207"
       id="rect69744" />
    <rect
       x="580.67041"
       y="168.2337"
       width="148.4621"
       height="227.98207"
       id="rect69746" />
    <rect
       x="580.67041"
       y="168.2337"
       width="148.4621"
       height="227.98207"
       id="rect69748" />
    <rect
       x="580.67041"
       y="168.2337"
       width="148.4621"
       height="227.98207"
       id="rect69750" />
    <rect
       x="580.67041"
       y="168.2337"
       width="148.4621"
       height="227.98207"
       id="rect69752" />
    <rect
       x="580.67041"
       y="168.2337"
       width="148.4621"
       height="227.98207"
       id="rect69754" />
    <rect
       x="580.67041"
       y="168.2337"
       width="148.4621"
       height="227.98207"
       id="rect69756" />
    <rect
       x="580.67041"
       y="168.2337"
       width="148.4621"
       height="227.98207"
       id="rect69758" />
    <rect
       x="580.67041"
       y="168.2337"
       width="148.4621"
       height="227.98207"
       id="rect70246" />
    <rect
       x="580.67041"
       y="168.2337"
       width="148.4621"
       height="227.98207"
       id="rect92519" />
    <rect
       x="580.67041"
       y="168.2337"
       width="148.4621"
       height="227.98207"
       id="rect92521" />
    <rect
       x="580.67041"
       y="168.2337"
       width="148.4621"
       height="227.98207"
       id="rect139275" />
    <rect
       x="580.67041"
       y="168.2337"
       width="148.4621"
       height="227.98207"
       id="rect139277" />
    <rect
       x="580.67041"
       y="168.2337"
       width="148.4621"
       height="227.98207"
       id="rect161517" />
    <rect
       x="580.67041"
       y="168.2337"
       width="148.4621"
       height="227.98207"
       id="rect161519" />
    <rect
       x="580.67041"
       y="168.2337"
       width="148.4621"
       height="227.98207"
       id="rect564459" />
    <rect
       x="580.67041"
       y="168.2337"
       width="148.4621"
       height="227.98207"
       id="rect564461" />
    <rect
       x="580.67041"
       y="168.2337"
       width="148.4621"
       height="227.98207"
       id="rect665715" />
    <rect
       x="580.67041"
       y="168.2337"
       width="148.4621"
       height="227.98207"
       id="rect665717" />
  </defs>
  <g
     inkscape:label="Vrstva 1"
     inkscape:groupmode="layer"
     id="layer1">
    <g
       id="g400843"
       transform="translate(417.90701,-49.780313)"
       sodipodi:insensitive="true">
      <rect
         style="fill:#8080ff;fill-opacity:1;fill-rule:evenodd;stroke-width:0.258267"
         id="rect45522"
         width="6.3157067"
         height="20.832041"
         x="-1062.1268"
         y="486.24539"
         inkscape:export-xdpi="96.534714"
         inkscape:export-ydpi="96.534714"
         transform="scale(-1,1)"
         inkscape:export-filename="C:\Users\dansa\Documents\Krita-Malba\ellipse45540.png" />
      <rect
         style="fill:#fe8081;fill-opacity:1;fill-rule:evenodd;stroke-width:0.258267"
         id="rect45524"
         width="6.3157067"
         height="20.832041"
         x="-1055.8112"
         y="486.24539"
         inkscape:export-xdpi="96.534714"
         inkscape:export-ydpi="96.534714"
         transform="scale(-1,1)"
         inkscape:export-filename="C:\Users\dansa\Documents\Krita-Malba\ellipse45540.png" />
      <rect
         style="fill:#ffd42a;fill-rule:evenodd;stroke-width:0.258267"
         id="rect45526"
         width="6.3157067"
         height="20.832041"
         x="-1049.4954"
         y="486.24539"
         inkscape:export-xdpi="96.534714"
         inkscape:export-ydpi="96.534714"
         transform="scale(-1,1)"
         inkscape:export-filename="C:\Users\dansa\Documents\Krita-Malba\ellipse45540.png" />
      <path
         id="path45528"
         style="fill:#ffb380;fill-rule:evenodd;stroke-width:0.258267"
         d="m 1062.1269,507.07744 h -18.9471 l 8.7686,13.97104 h 1.41 z"
         sodipodi:nodetypes="ccccc"
         inkscape:export-xdpi="96.534714"
         inkscape:export-ydpi="96.534714"
         inkscape:export-filename="C:\Users\dansa\Documents\Krita-Malba\ellipse45540.png" />
      <path
         id="path45530"
         style="fill:#f4e3d7;fill-rule:evenodd;stroke-width:0.258267"
         d="m 1062.1269,507.07744 h -6.3156 l -3.3174,14.09288 0.8645,-0.12184 z"
         sodipodi:nodetypes="ccccc"
         inkscape:export-xdpi="96.534714"
         inkscape:export-ydpi="96.534714"
         inkscape:export-filename="C:\Users\dansa\Documents\Krita-Malba\ellipse45540.png" />
      <path
         id="path45532"
         style="fill:#d38d5f;fill-rule:evenodd;stroke-width:0.258267"
         d="m 1043.1799,507.07744 h 6.3157 l 3.3173,14.09288 -0.8644,-0.12184 z"
         sodipodi:nodetypes="ccccc"
         inkscape:export-xdpi="96.534714"
         inkscape:export-ydpi="96.534714"
         inkscape:export-filename="C:\Users\dansa\Documents\Krita-Malba\ellipse45540.png" />
      <path
         id="path45534"
         style="fill:#333333;fill-rule:evenodd;stroke-width:0.258267"
         d="m 1056.4724,516.12331 -7.7017,-0.1075 3.5196,5.53665 0.7035,-0.0131 z"
         sodipodi:nodetypes="ccccc"
         inkscape:export-xdpi="96.534714"
         inkscape:export-ydpi="96.534714"
         inkscape:export-filename="C:\Users\dansa\Documents\Krita-Malba\ellipse45540.png" />
      <ellipse
         style="fill:#8080ff;fill-opacity:1;fill-rule:evenodd;stroke-width:0.258267"
         id="ellipse45536"
         cx="-1052.6215"
         cy="525.61383"
         rx="9.5167303"
         ry="1.9033457"
         inkscape:export-xdpi="96.534714"
         inkscape:export-ydpi="96.534714"
         transform="scale(-1,1)"
         inkscape:export-filename="C:\Users\dansa\Documents\Krita-Malba\ellipse45540.png" />
      <ellipse
         style="fill:#f4e3d7;fill-opacity:1;fill-rule:evenodd;stroke:#000000;stroke-width:0.258267"
         id="ellipse45538"
         cx="-1052.6215"
         cy="486.1275"
         rx="9.5167303"
         ry="1.9033457"
         inkscape:export-xdpi="96.534714"
         inkscape:export-ydpi="96.534714"
         transform="scale(-1,1)"
         inkscape:export-filename="C:\Users\dansa\Documents\Krita-Malba\ellipse45540.png" />
      <ellipse
         style="fill:#333333;fill-opacity:1;fill-rule:evenodd;stroke:#000000;stroke-width:0.258263"
         id="ellipse45540"
         cx="-1052.6215"
         cy="486.12732"
         rx="3.7002831"
         ry="0.74005651"
         inkscape:export-xdpi="96.534714"
         inkscape:export-ydpi="96.534714"
         transform="scale(-1,1)"
         inkscape:export-filename="C:\Users\dansa\Documents\Krita-Malba\ellipse45540.png" />
    </g>
    <path
       d="m 696.44311,290.74557 q -30.18509,11.65039 -51.36761,22.77121 -20.65295,11.12082 -33.36246,22.24165 -12.70952,11.12082 -18.53471,22.24164 -5.29563,11.12082 -5.29563,22.77121 0,17.47558 11.65039,28.5964 11.65038,11.12082 30.71465,11.12082 13.76864,0 25.41902,-6.88432 12.17995,-6.88431 21.18252,-18.5347 9.00257,-12.17995 14.2982,-28.06684 5.29563,-16.41645 5.29563,-34.42159 z m 0,-22.77121 v -21.71208 q 0,-64.60668 -55.07455,-64.60668 -9.00257,0 -15.35732,1.58868 -6.35476,1.58869 -10.59126,5.29563 -4.23651,3.70695 -7.94345,10.59126 -3.17738,6.88432 -6.35475,16.94602 -5.8252,15.35733 -11.65039,20.65296 -5.29563,4.76606 -15.88689,4.76606 -26.47815,0 -26.47815,-26.47815 0,-25.41902 27.00771,-39.18766 27.00772,-14.2982 76.78664,-14.2982 52.9563,0 75.19794,19.06427 22.24165,18.5347 22.24165,63.54756 v 118.62211 q 0,60.37018 23.83033,60.37018 7.41388,0 14.2982,-1.58869 6.88432,-2.11825 11.65039,-10.0617 l 7.41388,12.70951 q -6.35476,12.17995 -23.30077,20.65296 -16.94602,7.94345 -35.48072,7.94345 -23.30077,0 -34.95116,-14.82777 -11.12082,-14.82776 -11.12082,-41.83547 h -2.64782 q -13.76863,25.94858 -38.12853,41.30591 -24.3599,14.82776 -54.01543,14.82776 -33.36246,0 -52.42673,-16.94601 -19.06427,-16.94602 -19.06427,-45.54242 0,-12.70951 4.2365,-24.3599 4.76607,-11.65038 14.82777,-22.24164 10.06169,-10.59126 26.47815,-20.65296 16.41645,-10.59126 40.24678,-21.18252 z"
       id="path51174"
       style="font-size:529.563px;line-height:1.25;font-family:'Libre Baskerville';-inkscape-font-specification:'Libre Baskerville, Normal';letter-spacing:0px;word-spacing:0px;fill:#003f3f;fill-opacity:0.995981;stroke-width:0.999998" />
    <path
       d="m 1983.5376,412.70888 q -18.4316,41.27075 -57.2983,41.27075 -25.2433,0 -25.2433,-18.83228 0,-10.01717 6.8117,-14.82542 7.2124,-4.40755 26.0447,-7.61305 8.4144,-1.20206 14.4247,-3.60618 6.0103,-2.00343 10.8185,-5.60962 4.8083,-3.2055 8.4144,-8.41442 4.0069,-5.20893 7.6131,-12.82199 l 14.024,-28.04808 -76.9318,-167.08644 q -5.2089,-11.21923 -9.2158,-17.63023 -3.6062,-6.81167 -8.0138,-10.41785 -4.0069,-4.00687 -9.2158,-5.20893 -5.2089,-1.60274 -13.2227,-2.40413 v -14.02404 h 106.1821 v 14.02404 q -26.846,0 -26.846,13.22267 0,5.20894 3.2055,16.42817 3.2055,11.21924 8.0137,22.83915 l 44.0756,106.58272 h 2.0034 l 36.4625,-90.15455 q 5.2089,-13.22267 8.4145,-21.6371 3.6061,-8.41442 5.2088,-13.62335 2.0035,-5.60962 2.4042,-9.2158 0.8014,-3.60618 0.8014,-6.81168 0,-10.41786 -6.0104,-14.02404 -5.6096,-3.60619 -22.0378,-3.60619 v -14.02404 h 88.1512 v 14.02404 q -7.6131,0 -12.822,2.00344 -5.209,2.00343 -10.8185,9.2158 -5.2089,6.81167 -12.0206,20.03434 -6.411,13.22267 -16.0276,35.66114 z"
       id="path40202"
       style="font-size:387.376px;line-height:1.25;font-family:'Libre Baskerville';-inkscape-font-specification:'Libre Baskerville, Normal';letter-spacing:0px;word-spacing:0px;fill:#004040;fill-opacity:0.65098;stroke-width:0.999999" />
    <path
       style="fill:none;stroke:#008080;stroke-width:3;stroke-linecap:butt;stroke-linejoin:miter;stroke-miterlimit:4;stroke-dasharray:none;stroke-opacity:1"
       d="M 42.658142,160.0322 H 1423.4434"
       id="path21446" />
    <path
       d="M 344.1999,299.74814 H 202.80659 q -9.00258,21.71208 -15.35733,38.6581 -6.35476,16.41645 -10.59126,28.5964 -3.70694,12.17995 -5.29563,20.65296 -1.58869,8.47301 -1.58869,13.76864 0,14.82776 9.53213,20.65295 9.53214,5.29563 31.77378,5.29563 v 20.1234 H 82.59579 v -20.1234 q 12.17995,-1.58869 20.65295,-4.2365 9.00257,-2.64782 15.35733,-7.41388 6.88432,-4.76607 11.65039,-12.17995 5.29563,-7.94345 10.06169,-19.06427 L 278.00453,39.732715 h 22.77121 l 120.2108,298.673525 q 12.17995,29.65553 21.18252,47.66067 9.00257,17.47558 17.47558,26.47815 8.473,9.00257 18.00514,11.65038 10.06169,2.64782 23.83033,2.64782 v 20.65296 H 328.84258 v -20.65296 q 28.06684,0 38.6581,-5.29563 10.59125,-5.29563 10.59125,-17.47558 0,-5.29563 -0.52956,-9.53213 -0.52956,-4.76607 -2.11825,-10.0617 -1.05913,-5.29563 -3.70694,-11.65039 -2.11825,-6.88431 -5.82519,-15.88689 z M 213.39785,273.26999 H 334.13821 L 275.35672,117.04891 Z"
       id="path51197"
       style="font-size:529.563px;line-height:1.25;font-family:'Libre Baskerville';-inkscape-font-specification:'Libre Baskerville, Normal';letter-spacing:0px;word-spacing:0px;fill:#ff6600;fill-opacity:1;stroke-width:0.999998" />
    <path
       style="fill:none;stroke:#008080;stroke-width:3;stroke-linecap:butt;stroke-linejoin:miter;stroke-miterlimit:4;stroke-dasharray:none;stroke-opacity:1"
       d="M 42.658142,447.29185 H 1423.4434"
       id="path31387" />
    <text
       xml:space="preserve"
       style="font-size:58.8517px;line-height:1.25;font-family:sans-serif;letter-spacing:0px;word-spacing:0px;fill:#ff6600;stroke-width:1"
       x="27.756039"
       y="410.69952"
       id="text35768"><tspan
         sodipodi:role="line"
         id="tspan35766"
         x="27.756039"
         y="410.69952"
         style="fill:#ff6600;stroke-width:1">1</tspan></text>
    <text
       xml:space="preserve"
       style="font-size:58.8517px;line-height:1.25;font-family:sans-serif;letter-spacing:0px;word-spacing:0px;fill:#00ff00;stroke-width:1"
       x="137.00798"
       y="223.76579"
       id="text35776"><tspan
         sodipodi:role="line"
         x="137.00798"
         y="223.76579"
         id="tspan35774"
         style="fill:#00ff00;stroke-width:1">2</tspan></text>
    <text
       xml:space="preserve"
       style="font-size:58.8517px;line-height:1.25;font-family:sans-serif;letter-spacing:0px;word-spacing:0px;fill:#008080;stroke-width:1"
       x="347.90207"
       y="103.25316"
       id="text35780"><tspan
         sodipodi:role="line"
         x="347.90207"
         y="103.25316"
         id="tspan35778"
         style="fill:#008080;stroke-width:1">3</tspan></text>
    <text
       xml:space="preserve"
       style="font-size:58.8517px;line-height:1.25;font-family:sans-serif;letter-spacing:0px;word-spacing:0px;fill:#008080;stroke-width:1"
       x="1690.0807"
       y="266.32095"
       id="text40638"><tspan
         sodipodi:role="line"
         x="1690.0807"
         y="266.32095"
         id="tspan40636"
         style="fill:#008080;stroke-width:1">6</tspan></text>
    <text
       xml:space="preserve"
       style="font-style:normal;font-variant:normal;font-weight:normal;font-stretch:normal;font-size:529.563px;line-height:1.25;font-family:'Libre Baskerville';-inkscape-font-specification:'Libre Baskerville, Normal';font-variant-ligatures:normal;font-variant-caps:normal;font-variant-numeric:normal;font-variant-east-asian:normal;letter-spacing:0px;word-spacing:0px;fill:#003f3f;fill-opacity:0.65098;stroke-width:0.999998"
       x="1712.3389"
       y="461.49622"
       id="text51170"><tspan
         sodipodi:role="line"
         id="tspan51168"
         x="1712.3389"
         y="461.49622"
         style="font-style:normal;font-variant:normal;font-weight:normal;font-stretch:normal;font-size:529.563px;font-family:'Libre Baskerville';-inkscape-font-specification:'Libre Baskerville, Normal';font-variant-ligatures:normal;font-variant-caps:normal;font-variant-numeric:normal;font-variant-east-asian:normal;fill:#003f3f;fill-opacity:0.65098;stroke-width:0.999998">Aa</tspan></text>
    <g
       aria-label="M"
       id="text51170-9"
       style="font-size:529.563px;line-height:1.25;font-family:'Libre Baskerville';-inkscape-font-specification:'Libre Baskerville, Normal';letter-spacing:0px;word-spacing:0px;fill:#003f3f;fill-opacity:0.998891;stroke-width:0.999998">
      <path
         d="M 1115.1763,351.20444 1252.8626,38.232715 h 118.6222 v 20.123393 q -16.9461,0.529563 -27.5373,4.236504 -10.0617,3.706941 -15.8869,12.709512 -5.2956,8.473008 -7.4139,23.830334 -1.5887,15.357332 -1.5887,39.187662 v 207.58869 q 0,26.47815 2.1183,41.83548 2.1182,15.35732 7.9434,23.83033 6.3548,8.47301 17.4756,11.12082 11.6504,2.64782 30.1851,3.17738 v 20.1234 H 1205.202 v -20.1234 q 18.5347,-0.52956 29.6555,-3.17738 11.6504,-3.17737 18.0051,-11.12082 6.3548,-7.94344 8.4731,-22.24164 2.1182,-14.82777 2.1182,-39.71723 V 103.89853 h -5.2956 l -154.6324,347.39332 h -11.6504 L 939.89092,103.89853 h -2.11825 v 242.01028 q 0,26.47815 2.11825,41.83548 2.11825,15.35732 7.94345,23.83033 6.35475,8.47301 17.47557,11.12082 11.65039,2.64782 30.18509,3.17738 v 20.1234 H 847.74696 v -20.1234 q 18.53471,-0.52956 29.65553,-3.17738 11.65038,-3.17737 18.00514,-11.12082 6.35476,-7.94344 8.47301,-22.24164 2.11825,-14.82777 2.11825,-39.71723 V 134.61318 q 0,-22.24165 -2.11825,-36.539847 -1.58869,-14.827764 -7.41388,-23.300772 -5.29563,-8.473008 -15.88689,-11.650386 -10.59126,-3.706941 -27.53728,-4.766067 V 38.232715 H 979.60814 L 1113.058,351.20444 Z"
         id="path193941" />
    </g>
    <path
       id="path51480"
       style="font-size:529.563px;line-height:1.25;font-family:'Libre Baskerville';-inkscape-font-specification:'Libre Baskerville, Normal';letter-spacing:0px;word-spacing:0px;fill:#003f3f;fill-opacity:1;stroke-width:0.999998"
       d="M 278.00364,39.732422 140.31809,384.47852 117.6345,447.49609 h 35.67968 l 18.24805,-59.83984 c 1.05913,-5.64867 2.82363,-12.53433 5.29492,-20.6543 2.82433,-8.11997 6.35529,-17.6514 10.5918,-28.5957 4.2365,-11.29735 9.3557,-24.18348 15.35742,-38.6582 h 141.39258 l 21.71289,57.19336 c 2.47129,6.00172 4.414,11.29718 5.82617,15.88671 1.76521,4.23652 3.00094,8.11998 3.70703,11.6504 1.05913,3.53042 1.76415,6.88316 2.11719,10.06054 l 16.0332,52.95703 h 77.51563 C 459.33419,423.36084 445.77442,393.06391 442.16965,386.06641 436.16794,374.06298 429.10603,358.1766 420.98606,338.40625 L 300.77512,39.732422 Z m -2.64649,77.316408 58.78125,156.2207 H 213.39817 Z" />
    <path
       style="font-size:529.563px;line-height:1.25;font-family:'Libre Baskerville';-inkscape-font-specification:'Libre Baskerville, Normal';letter-spacing:0px;word-spacing:0px;fill:#00ff00;fill-opacity:1;stroke-width:0.999998"
       d="m 275.35715,117.04883 58.78125,156.2207 H 213.39817 Z"
       id="path53496" />
    <path
       id="path53946"
       style="font-size:529.563px;line-height:1.25;font-family:'Libre Baskerville';-inkscape-font-specification:'Libre Baskerville, Normal';letter-spacing:0px;word-spacing:0px;fill:#008080;fill-opacity:1;stroke-width:0.999998"
       d="m 278.00364,39.732422 -30.87891,77.316408 h 28.23242 56.53711 L 300.77512,39.732422 Z" />
    <rect
       style="fill:#000080;fill-rule:evenodd;stroke-width:0.999997"
       id="rect193841"
       width="61.780224"
       height="407.76349"
       x="1264.8353"
       y="38.232712" />
    <path
       style="fill:none;stroke:#ff6600;stroke-width:3;stroke-linecap:butt;stroke-linejoin:miter;stroke-miterlimit:4;stroke-dasharray:none;stroke-opacity:1"
       d="M 42.658142,39.732715 H 1423.4434"
       id="path31385" />
    <path
       id="path54445"
       style="font-size:529.563px;line-height:1.25;font-family:'Libre Baskerville';-inkscape-font-specification:'Libre Baskerville, Normal';letter-spacing:0px;word-spacing:0px;fill:#ff00ff;fill-opacity:0.995981;stroke-width:0.999998"
       d="m 613.26145,164.09375 c -15.58385,2.32056 -28.6863,6.19858 -39.14648,11.73633 -18.00514,9.17909 -27.00782,22.24148 -27.00782,39.1875 0,17.6521 8.82447,26.47851 26.47657,26.47851 7.06084,0 12.35629,-1.58825 15.88671,-4.76562 3.88346,-3.53042 7.76693,-10.41412 11.65039,-20.65235 2.11825,-6.7078 4.23722,-12.35771 6.35547,-16.94726 1.83079,-3.40004 3.76061,-6.21171 5.78516,-8.44922 z"
       sodipodi:nodetypes="ccssccccc" />
    <text
       xml:space="preserve"
       style="font-size:58.8517px;line-height:1.25;font-family:sans-serif;letter-spacing:0px;word-spacing:0px;fill:#ff00ff;stroke-width:1"
       x="483.08896"
       y="243.61447"
       id="text54671"><tspan
         sodipodi:role="line"
         x="483.08896"
         y="243.61447"
         id="tspan54669"
         style="fill:#ff00ff;stroke-width:1">4</tspan></text>
    <path
       style="font-size:529.563px;line-height:1.25;font-family:'Libre Baskerville';-inkscape-font-specification:'Libre Baskerville, Normal';letter-spacing:0px;word-spacing:0px;fill:#00ff00;fill-opacity:0.995981;stroke-width:0.999998"
       d="m 696.44311,290.74557 q -30.18509,11.65039 -51.36761,22.77121 -20.65295,11.12082 -33.36246,22.24165 -12.70952,11.12082 -18.53471,22.24164 -5.29563,11.12082 -5.29563,22.77121 0,17.47558 11.65039,28.5964 11.65038,11.12082 30.71465,11.12082 13.76864,0 25.41902,-6.88432 12.17995,-6.88431 21.18252,-18.5347 9.00257,-12.17995 14.2982,-28.06684 5.29563,-16.41645 5.29563,-34.42159 z"
       id="path54709" />
    <path
       style="fill:#800080;stroke:none;stroke-width:1px;stroke-linecap:butt;stroke-linejoin:miter;stroke-opacity:1"
       d="m 213.39785,273.26999 -10.59126,26.47815 141.39236,-9e-5 -10.06074,-26.47806 H 213.39785"
       id="path173789" />
    <text
       xml:space="preserve"
       style="font-size:58.8517px;line-height:1.25;font-family:sans-serif;letter-spacing:0px;word-spacing:0px;fill:#800080;fill-opacity:1;stroke-width:1"
       x="258.89413"
       y="361.89478"
       id="text173972"><tspan
         sodipodi:role="line"
         x="258.89413"
         y="361.89478"
         id="tspan173970"
         style="fill:#800080;fill-opacity:1;stroke-width:1">5</tspan></text>
    <text
       xml:space="preserve"
       style="font-size:58.8517px;line-height:1.25;font-family:sans-serif;letter-spacing:0px;word-spacing:0px;fill:#000080;fill-opacity:1;stroke-width:1"
       x="1343.0729"
       y="289.22983"
       id="text193964"><tspan
         sodipodi:role="line"
         x="1343.0729"
         y="289.22983"
         id="tspan193962"
         style="fill:#000080;fill-opacity:1;stroke-width:1">7</tspan></text>
    <path
       id="rect199213"
       style="fill:#0000ff;fill-rule:evenodd"
       d="m 906.45181,364.45734 v 61.36099 h -41.28256 c 27.48468,-11.257 30.18649,-14.17903 41.28256,-61.36099 z"
       sodipodi:nodetypes="cccc" />
    <path
       id="path199489"
       style="fill:#0000ff;fill-rule:evenodd"
       d="m 938.07967,364.45734 v 61.36099 h 41.28256 c -27.48468,-11.257 -30.18649,-14.17903 -41.28256,-61.36099 z"
       sodipodi:nodetypes="cccc" />
    <text
       xml:space="preserve"
       style="font-size:58.8517px;line-height:1.25;font-family:sans-serif;letter-spacing:0px;word-spacing:0px;fill:#0000ff;fill-opacity:1;stroke-width:1"
       x="949.65448"
       y="364.45734"
       id="text199684"><tspan
         sodipodi:role="line"
         x="949.65448"
         y="364.45734"
         id="tspan199682"
         style="fill:#0000ff;fill-opacity:1;stroke-width:1">6</tspan></text>
  </g>
</svg>
