<?xml version="1.0" encoding="UTF-8" standalone="no"?>
<!-- Created with Inkscape (http://www.inkscape.org/) -->

<svg
   width="1500"
   height="350"
   viewBox="0 0 396.87499 92.604169"
   version="1.1"
   id="svg5"
   inkscape:version="1.1 (c68e22c387, 2021-05-23)"
   sodipodi:docname="ink-cestyefekty.svg"
   xmlns:inkscape="http://www.inkscape.org/namespaces/inkscape"
   xmlns:sodipodi="http://sodipodi.sourceforge.net/DTD/sodipodi-0.dtd"
   xmlns="http://www.w3.org/2000/svg"
   xmlns:svg="http://www.w3.org/2000/svg">
  <sodipodi:namedview
     id="namedview7"
     pagecolor="#ffffff"
     bordercolor="#999999"
     borderopacity="1"
     inkscape:pageshadow="0"
     inkscape:pageopacity="0"
     inkscape:pagecheckerboard="0"
     inkscape:document-units="mm"
     showgrid="false"
     width="1500mm"
     showguides="false"
     units="px"
     inkscape:zoom="0.42523233"
     inkscape:cx="1351.0262"
     inkscape:cy="135.2202"
     inkscape:window-width="1920"
     inkscape:window-height="989"
     inkscape:window-x="-9"
     inkscape:window-y="-9"
     inkscape:window-maximized="1"
     inkscape:current-layer="layer1"
     inkscape:guide-bbox="true"
     inkscape:snap-bbox="true"
     inkscape:bbox-paths="true"
     inkscape:bbox-nodes="true"
     inkscape:snap-bbox-edge-midpoints="true"
     inkscape:snap-bbox-midpoints="true"
     inkscape:snap-global="true">
    <sodipodi:guide
       position="66.342764,164.37291"
       orientation="0,-1"
       id="guide20599" />
    <sodipodi:guide
       position="66.342762,164.37291"
       orientation="0,-1"
       id="guide20601" />
    <sodipodi:guide
       position="66.342762,164.37291"
       orientation="0,-1"
       id="guide20603" />
  </sodipodi:namedview>
  <defs
     id="defs2">
    <inkscape:path-effect
       effect="curvestitching"
       id="path-effect112645"
       is_visible="true"
       lpeversion="1"
       count="42"
       startpoint_edge_variation="0;1"
       startpoint_spacing_variation="0;1"
       endpoint_edge_variation="0;1"
       endpoint_spacing_variation="0;1"
       strokepath="M 0,0 H 1"
       prop_scale="1"
       scale_y_rel="false" />
    <inkscape:path-effect
       effect="show_handles"
       id="path-effect107240"
       is_visible="true"
       lpeversion="1"
       nodes="true"
       handles="true"
       original_path="true"
       show_center_node="false"
       original_d="false"
       scale_nodes_and_handles="10" />
    <inkscape:path-effect
       effect="dashed_stroke"
       id="path-effect100767"
       is_visible="true"
       lpeversion="1"
       numberdashes="3"
       holefactor="0"
       splitsegments="true"
       halfextreme="true"
       unifysegment="false"
       message="Add &lt;b&gt;&quot;Fill Between Many LPE&quot;&lt;/b&gt; to add fill." />
    <inkscape:path-effect
       effect="knot"
       id="path-effect100605"
       is_visible="true"
       lpeversion="1"
       switcher_size="15"
       interruption_width="3"
       prop_to_stroke_width="true"
       add_stroke_width="inkscape_1.0_and_up"
       both="false"
       inverse_width="false"
       add_other_stroke_width="inkscape_1.0_and_up"
       crossing_points_vector="" />
    <inkscape:path-effect
       effect="knot"
       id="path-effect100338"
       is_visible="false"
       lpeversion="1"
       switcher_size="15"
       interruption_width="3"
       prop_to_stroke_width="true"
       add_stroke_width="inkscape_1.0_and_up"
       both="false"
       inverse_width="false"
       add_other_stroke_width="inkscape_1.0_and_up"
       crossing_points_vector="" />
    <inkscape:path-effect
       effect="rough_hatches"
       id="path-effect96392"
       is_visible="true"
       lpeversion="1"
       direction="178.27571,40.440155 , 7.1543536,-0.72419056"
       dist_rdm="75;1"
       growth="0"
       do_bend="true"
       bender="178.27571,45.440155 , 5,0"
       bottom_edge_variation="5.702186;1"
       top_edge_variation="5.702186;1"
       bottom_tgt_variation="0;1"
       top_tgt_variation="0;1"
       scale_bf="1"
       scale_bb="1"
       scale_tf="1"
       scale_tb="1"
       top_smth_variation="0;1"
       bottom_smth_variation="0;1"
       fat_output="true"
       stroke_width_top="1"
       stroke_width_bottom="1"
       front_thickness="1"
       back_thickness="0.25" />
    <inkscape:path-effect
       effect="bend_path"
       id="path-effect95971"
       is_visible="true"
       lpeversion="1"
       bendpath="m 151.89739,45.440155 h 52.75664"
       prop_scale="1"
       scale_y_rel="false"
       vertical="false"
       hide_knot="false" />
    <inkscape:path-effect
       effect="bounding_box"
       id="path-effect92147"
       is_visible="false"
       lpeversion="1"
       linkedpath=""
       visualbounds="false" />
    <inkscape:path-effect
       effect="perspective-envelope"
       up_left_point="86.050946,16.03"
       up_right_point="121.72238,27.454128"
       down_left_point="86.050946,73.951085"
       down_right_point="138.80759,73.951085"
       id="path-effect91471"
       is_visible="true"
       lpeversion="1"
       deform_type="perspective"
       horizontal_mirror="false"
       vertical_mirror="false"
       overflow_perspective="false" />
    <inkscape:path-effect
       effect="pts2ellipse"
       id="path-effect1501"
       is_visible="true"
       lpeversion="1"
       method="auto"
       gen_arc="false"
       arc_other="false"
       slice_arc="false"
       gen_isometric_frame="false"
       draw_axes="false"
       gen_perspective_frame="false"
       draw_perspective_axes="false"
       rot_axes="0"
       draw_ori_path="false" />
    <clipPath
       clipPathUnits="userSpaceOnUse"
       id="clipPath2842">
      <path
         d="M 0,0 H 14033 V 9917 H 0 Z"
         clip-rule="evenodd"
         id="path2840" />
    </clipPath>
    <clipPath
       clipPathUnits="userSpaceOnUse"
       id="clipPath2856">
      <path
         d="M 0,0 H 14033 V 9917 H 0 Z"
         clip-rule="evenodd"
         id="path2854" />
    </clipPath>
    <clipPath
       clipPathUnits="userSpaceOnUse"
       id="clipPath2862">
      <path
         d="M 0,0 H 14025.471 V 9917 H 0 Z"
         clip-rule="evenodd"
         id="path2860" />
    </clipPath>
    <clipPath
       clipPathUnits="userSpaceOnUse"
       id="clipPath2876">
      <path
         d="M 0,0 H 14033 V 9917 H 0 Z"
         clip-rule="evenodd"
         id="path2874" />
    </clipPath>
    <clipPath
       clipPathUnits="userSpaceOnUse"
       id="clipPath2902">
      <path
         d="M 0,0 H 14033 V 9917 H 0 Z"
         clip-rule="evenodd"
         id="path2900" />
    </clipPath>
    <clipPath
       clipPathUnits="userSpaceOnUse"
       id="clipPath2908">
      <path
         d="m 4184.8878,2965.9909 h 1416.7143 c 0,-782.4297 -634.2846,-1416.7143 -1416.7143,-1416.7143 V 2965.9909 L 7352.7765,1549.2767 h 302.3559 v 1416.7142 c 0,-488.2499 -103.0298,-971.0046 -302.3559,-1416.7142 h 302.3559 v 1416.7142 h -302.3559 c 0,-491.7959 -114.5021,-976.8379 -334.4386,-1416.7142 h 334.4386 v 1416.7142 h -334.4386 c 0,-497.3701 -130.9209,-985.9779 -379.6041,-1416.7142 h 379.6041 V 2965.9909 H 6638.7338 V 1549.2767 h -442.5035 v 1416.7142 h 442.5035 c 0,-507.4539 -157.3248,-1002.4272 -450.3094,-1416.7573 l -586.8223,0.022 -1416.7143,0.021 V 2965.9909 L 7655.1324,1549.2767 4184.8878,2965.9909 7352.7765,1549.2767 H 7018.3379 L 4184.8878,2965.9909 7018.3379,1549.2767 h -379.6041 -442.5035 v 1416.7142 h 442.5035 c 0,-507.4539 -157.3248,-1002.4272 -450.3094,-1416.7573 v 1416.7573 h -586.8223 c 0,-782.4297 -634.2846,-1416.7143 -1416.7143,-1416.7143 l 1416.7143,-0.021 V 2965.9914 H 4184.8878 L 6638.7338,1549.2767 4184.8878,2965.9909 6196.2303,1549.2767 4184.8878,2965.9909 5601.6021,1549.2551 Z"
         clip-rule="evenodd"
         id="path2906" />
    </clipPath>
    <clipPath
       clipPathUnits="userSpaceOnUse"
       id="clipPath2928">
      <path
         d="M 0,0 H 14033 V 9917 H 0 Z"
         clip-rule="evenodd"
         id="path2926" />
    </clipPath>
    <clipPath
       clipPathUnits="userSpaceOnUse"
       id="clipPath2948">
      <path
         d="M 0,0 H 14033 V 9917 H 0 Z"
         clip-rule="evenodd"
         id="path2946" />
    </clipPath>
    <clipPath
       clipPathUnits="userSpaceOnUse"
       id="clipPath2954">
      <path
         d="m 5601.6021,2965.9909 h 586.8223 c 0,-531.3709 -211.0863,-1040.9783 -586.8223,-1416.7143 z"
         clip-rule="evenodd"
         id="path2952" />
    </clipPath>
    <clipPath
       clipPathUnits="userSpaceOnUse"
       id="clipPath2974">
      <path
         d="M 0,0 H 14033 V 9917 H 0 Z"
         clip-rule="evenodd"
         id="path2972" />
    </clipPath>
    <clipPath
       clipPathUnits="userSpaceOnUse"
       id="clipPath2994">
      <path
         d="M 0,0 H 14033 V 9917 H 0 Z"
         clip-rule="evenodd"
         id="path2992" />
    </clipPath>
    <clipPath
       clipPathUnits="userSpaceOnUse"
       id="clipPath3000">
      <path
         d="M 7018.3379,2965.9909 H 6638.7338 V 1549.2767 c 248.6832,430.7363 379.6041,919.3441 379.6041,1416.7142"
         clip-rule="evenodd"
         id="path2998" />
    </clipPath>
    <clipPath
       clipPathUnits="userSpaceOnUse"
       id="clipPath3020">
      <path
         d="M 0,0 H 14033 V 9917 H 0 Z"
         clip-rule="evenodd"
         id="path3018" />
    </clipPath>
    <clipPath
       clipPathUnits="userSpaceOnUse"
       id="clipPath3040">
      <path
         d="M 0,0 H 14033 V 9917 H 0 Z"
         clip-rule="evenodd"
         id="path3038" />
    </clipPath>
    <clipPath
       clipPathUnits="userSpaceOnUse"
       id="clipPath3046">
      <path
         d="M 7352.7765,2965.9909 H 7018.3379 V 1549.2767 c 219.9365,439.8763 334.4386,924.9183 334.4386,1416.7142"
         clip-rule="evenodd"
         id="path3044" />
    </clipPath>
    <clipPath
       clipPathUnits="userSpaceOnUse"
       id="clipPath3066">
      <path
         d="M 0,0 H 14033 V 9917 H 0 Z"
         clip-rule="evenodd"
         id="path3064" />
    </clipPath>
    <clipPath
       clipPathUnits="userSpaceOnUse"
       id="clipPath3086">
      <path
         d="M 0,0 H 14033 V 9917 H 0 Z"
         clip-rule="evenodd"
         id="path3084" />
    </clipPath>
    <clipPath
       clipPathUnits="userSpaceOnUse"
       id="clipPath3092">
      <path
         d="M 7655.1324,2965.9909 H 7352.7765 V 1549.2767 c 199.3261,445.7096 302.3559,928.4643 302.3559,1416.7142"
         clip-rule="evenodd"
         id="path3090" />
    </clipPath>
    <clipPath
       clipPathUnits="userSpaceOnUse"
       id="clipPath3112">
      <path
         d="M 0,0 H 14033 V 9917 H 0 Z"
         clip-rule="evenodd"
         id="path3110" />
    </clipPath>
    <clipPath
       clipPathUnits="userSpaceOnUse"
       id="clipPath3132">
      <path
         d="M 0,0 H 14033 V 9917 H 0 Z"
         clip-rule="evenodd"
         id="path3130" />
    </clipPath>
    <clipPath
       clipPathUnits="userSpaceOnUse"
       id="clipPath3138">
      <path
         d="M 6188.4244,2965.9909 V 1549.2336 l -586.8223,0.022 v 0.021 c 375.736,375.736 586.8223,885.3434 586.8223,1416.7143"
         clip-rule="evenodd"
         id="path3136" />
    </clipPath>
    <clipPath
       clipPathUnits="userSpaceOnUse"
       id="clipPath3158">
      <path
         d="M 0,0 H 14033 V 9917 H 0 Z"
         clip-rule="evenodd"
         id="path3156" />
    </clipPath>
    <rect
       x="580.67041"
       y="168.2337"
       width="148.4621"
       height="227.98207"
       id="rect625543" />
    <rect
       x="580.67041"
       y="168.2337"
       width="148.4621"
       height="227.98207"
       id="rect70246" />
    <rect
       x="580.67041"
       y="168.2337"
       width="148.4621"
       height="227.98207"
       id="rect139275" />
    <rect
       x="580.67041"
       y="168.2337"
       width="148.4621"
       height="227.98207"
       id="rect139277" />
    <rect
       x="580.67041"
       y="168.2337"
       width="148.4621"
       height="227.98207"
       id="rect333285" />
    <rect
       x="580.67041"
       y="168.2337"
       width="148.4621"
       height="227.98207"
       id="rect333287" />
    <rect
       x="580.67041"
       y="168.2337"
       width="148.4621"
       height="227.98207"
       id="rect339294" />
    <rect
       x="580.67041"
       y="168.2337"
       width="148.4621"
       height="227.98207"
       id="rect340252" />
    <rect
       x="580.67041"
       y="168.2337"
       width="148.4621"
       height="227.98207"
       id="rect341296" />
    <inkscape:path-effect
       effect="fill_between_many"
       method="originald"
       linkedpaths="#path46382,0,1|#path46380,0,1"
       id="path-effect46464"
       is_visible="true"
       lpeversion="0"
       join="true"
       close="true"
       autoreverse="true"
       applied="false" />
  </defs>
  <g
     inkscape:label="Layer 1"
     inkscape:groupmode="layer"
     id="layer1">
    <g
       aria-label="a"
       id="text91448"
       style="font-size:103.99px;line-height:1.25;letter-spacing:0px;word-spacing:0px;fill:#008080;stroke-width:0.264583"
       inkscape:path-effect="#path-effect91471"
       transform="translate(-18.855417,-12.515152)">
      <path
         d="m 108.1402,73.951085 c -6.1598,0 -11.579638,-2.294729 -15.838004,-6.824667 -4.186116,-4.500592 -6.25125,-10.1499 -6.25125,-16.492586 0,-3.987679 1.028362,-7.101052 2.979153,-9.409852 1.855249,-2.148777 4.467552,-3.480268 7.764162,-4.070903 3.123814,-0.547886 6.854769,-0.300314 11.157919,0.677521 l 5.45811,1.240282 -0.77576,-3.082006 c -0.48108,-1.911275 -1.39606,-3.548941 -2.74962,-4.955817 -1.32402,-1.411474 -3.07027,-2.420848 -5.29279,-3.050276 -1.17224,-0.331983 -2.21118,-0.495837 -3.11561,-0.487852 -0.92365,-0.01512 -1.766884,0.108928 -2.529319,0.376324 L 98.675747,33.015813 89.129679,30.693 88.638537,20.266527 c 2.358972,-0.313942 4.805659,-0.366171 7.341443,-0.174731 2.427702,0.18328 5.07873,0.744586 7.95314,1.665145 4.76481,1.525977 8.60535,3.633044 11.74513,6.402628 3.15654,2.769444 5.41251,6.14668 6.83242,10.358267 l 6.34047,18.806362 0.74712,2.216003 c 0.26722,0.723805 0.55551,1.440304 0.86492,2.148717 l 4.27448,1.185968 3.60161,9.801674 -14.40149,-0.142765 c -0.65262,-1.24251 -1.31948,-2.555434 -1.99905,-3.934882 -0.66933,-1.358647 -1.24138,-2.692162 -1.71748,-3.99878 -0.85385,2.635992 -2.19125,4.855381 -4.0477,6.605288 -1.94046,1.80426 -4.60988,2.745664 -8.03335,2.745664 z m 1.56578,-14.363483 c 1.9252,0.175905 3.60156,-0.185919 5.02336,-1.057222 1.36112,-0.876262 2.24771,-2.065722 2.68516,-3.551222 l -2.09301,-8.315272 -5.82302,-1.048209 c -2.7341,-0.49217 -4.76308,-0.172911 -6.05647,1.008502 -1.31988,1.239668 -1.8596,2.974973 -1.56637,5.225915 0.28452,2.18405 1.12298,4.000865 2.51306,5.396445 1.4245,1.365678 3.2126,2.148758 5.31729,2.341063 z"
         style="font-family:'Roboto Slab';-inkscape-font-specification:'Roboto Slab, @wght=700';font-variation-settings:'wght' 700"
         id="path91450"
         inkscape:original-d="m 103.87345,73.951085 q -8.174994,0 -12.998749,-4.366768 -4.823755,-4.417544 -4.823755,-11.983222 0,-5.17919 2.7927,-9.08897 2.843477,-3.90978 8.327324,-6.14394 5.53462,-2.23416 13.60807,-2.23416 h 7.26102 v -4.06211 q 0,-3.960556 -2.33572,-6.397822 -2.28493,-2.488042 -6.90558,-2.488042 -2.38649,0 -4.26522,0.609317 -1.87872,0.55854 -3.45279,1.624843 l -1.167856,7.261021 H 89.249857 L 89.046752,22.413073 q 4.315991,-2.437266 9.342851,-3.960557 5.026857,-1.523291 11.221577,-1.523291 10.76459,0 17.01008,5.026861 6.2455,4.976084 6.2455,14.268159 v 22.646259 q 0,1.11708 0,2.23416 0.0508,1.066304 0.2031,2.081831 l 5.73773,0.812422 v 8.885864 h -18.38104 q -0.55854,-1.421738 -1.11708,-3.046582 -0.55854,-1.624844 -0.81243,-3.249688 -2.64037,3.351241 -6.24549,5.382295 -3.55434,1.980279 -8.3781,1.980279 z m 3.96056,-10.967696 q 3.09736,0 5.89006,-1.370961 2.7927,-1.421739 4.31599,-3.706675 v -8.682759 h -7.3118 q -4.87453,0 -7.41335,2.23416 -2.48804,2.23416 -2.48804,5.382295 0,2.945029 1.82795,4.569873 1.87872,1.574067 5.17919,1.574067 z" />
    </g>
    <rect
       style="fill:#008080;fill-opacity:0.85;fill-rule:evenodd;stroke-width:0.264583"
       id="rect228474"
       width="59.236"
       height="96.611389"
       x="640.79681"
       y="9.0922318" />
    <rect
       style="fill:#008080;fill-opacity:1;fill-rule:evenodd;stroke-width:0.264583"
       id="rect228470"
       width="96.609978"
       height="96.611397"
       x="545.43115"
       y="9.0922318" />
    <g
       id="g228488"
       style="fill:none;stroke:#ff7f2a;stroke-width:0.314071"
       transform="matrix(0.06707608,0,0,0.06771477,133.20201,-95.475752)">
      <g
         id="g228486"
         clip-path="url(#clipPath2902)"
         style="fill:none;stroke:#ff7f2a;stroke-width:0.314071">
        <g
           id="g228484"
           clip-path="url(#clipPath2908)"
           style="fill:none;stroke:#ff7f2a;stroke-width:0.314071">
          <g
             id="g228476"
             transform="matrix(4.7223809,0,0,4.7223809,5920.0101,2257.6123)"
             style="fill:none;stroke:#ff7f2a;stroke-width:0.314071" />
          <g
             id="g228478"
             transform="matrix(4.7223809,0,0,4.7223809,5920.0101,2257.6123)"
             style="fill:none;stroke:#ff7f2a;stroke-width:0.314071" />
          <g
             id="g228482"
             transform="matrix(4.7223809,0,0,4.7223809,5920.0101,2257.6123)"
             style="fill:none;stroke:#ff7f2a;stroke-width:0.314071">
            <path
               d="M 0,0 Z"
               style="fill:none;stroke:#ff7f2a;stroke-width:0.314071;stroke-linecap:square;stroke-linejoin:bevel;stroke-miterlimit:10;stroke-dasharray:none;stroke-opacity:1"
               id="path228480" />
          </g>
        </g>
      </g>
    </g>
    <g
       id="g228518"
       style="fill:none;stroke:#ff7f2a;stroke-width:0.314071"
       transform="matrix(0.06707608,0,0,0.06771477,133.20201,-95.475752)">
      <g
         id="g228516"
         clip-path="url(#clipPath2948)"
         style="fill:none;stroke:#ff7f2a;stroke-width:0.314071">
        <g
           id="g228514"
           clip-path="url(#clipPath2954)"
           style="fill:none;stroke:#ff7f2a;stroke-width:0.314071">
          <g
             id="g228506"
             transform="matrix(4.7223809,0,0,4.7223809,5920.0101,2257.6123)"
             style="fill:none;stroke:#ff7f2a;stroke-width:0.314071" />
          <g
             id="g228508"
             transform="matrix(4.7223809,0,0,4.7223809,5920.0101,2257.6123)"
             style="fill:none;stroke:#ff7f2a;stroke-width:0.314071" />
          <g
             id="g228512"
             transform="matrix(4.7223809,0,0,4.7223809,5920.0101,2257.6123)"
             style="fill:none;stroke:#ff7f2a;stroke-width:0.314071">
            <path
               d="M 0,0 Z"
               style="fill:none;stroke:#ff7f2a;stroke-width:0.314071;stroke-linecap:square;stroke-linejoin:bevel;stroke-miterlimit:10;stroke-dasharray:none;stroke-opacity:1"
               id="path228510" />
          </g>
        </g>
      </g>
    </g>
    <g
       id="g228548"
       style="fill:none;stroke:#ff7f2a;stroke-width:0.314071"
       transform="matrix(0.06707608,0,0,0.06771477,133.20201,-95.475752)">
      <g
         id="g228546"
         clip-path="url(#clipPath3132)"
         style="fill:none;stroke:#ff7f2a;stroke-width:0.314071">
        <g
           id="g228544"
           clip-path="url(#clipPath3138)"
           style="fill:none;stroke:#ff7f2a;stroke-width:0.314071">
          <g
             id="g228536"
             transform="matrix(4.7223809,0,0,4.7223809,5920.0101,2257.6123)"
             style="fill:none;stroke:#ff7f2a;stroke-width:0.314071" />
          <g
             id="g228538"
             transform="matrix(4.7223809,0,0,4.7223809,5920.0101,2257.6123)"
             style="fill:none;stroke:#ff7f2a;stroke-width:0.314071" />
          <g
             id="g228542"
             transform="matrix(4.7223809,0,0,4.7223809,5920.0101,2257.6123)"
             style="fill:none;stroke:#ff7f2a;stroke-width:0.314071">
            <path
               d="M 0,0 Z"
               style="fill:none;stroke:#ff7f2a;stroke-width:0.314071;stroke-linecap:square;stroke-linejoin:bevel;stroke-miterlimit:10;stroke-dasharray:none;stroke-opacity:1"
               id="path228540" />
          </g>
        </g>
      </g>
    </g>
    <rect
       style="fill:#d38151;fill-opacity:1;fill-rule:evenodd;stroke-width:0.264583"
       id="rect193678"
       width="364"
       height="257"
       x="-21.946156"
       y="667.61426"
       rx="1.2257133"
       ry="0.48952344" />
    <rect
       style="fill:#f4cfb7;fill-opacity:1;fill-rule:evenodd;stroke-width:0.264583"
       id="rect193319"
       width="337"
       height="250"
       x="-8.4461555"
       y="671.11426"
       rx="1.134795"
       ry="0.47619015" />
    <rect
       style="fill:#ffd42a;fill-opacity:1;fill-rule:evenodd;stroke-width:0.264583"
       id="rect193317"
       width="297"
       height="210"
       x="11.553844"
       y="691.11426"
       rx="1.0001012"
       ry="0.39999971" />
    <rect
       style="fill:#ffd42a;fill-opacity:1;fill-rule:evenodd;stroke-width:0.264583"
       id="rect193680"
       width="100"
       height="100"
       x="-179.63057"
       y="667.61426" />
    <text
       xml:space="preserve"
       style="font-style:normal;font-variant:normal;font-weight:500;font-stretch:normal;font-size:25.6101px;line-height:1.25;font-family:Montserrat;-inkscape-font-specification:'Montserrat, Medium';font-variant-ligatures:normal;font-variant-caps:normal;font-variant-numeric:normal;font-variant-east-asian:normal;letter-spacing:0px;word-spacing:0px;stroke-width:0.264583"
       x="-147.21187"
       y="726.57782"
       id="text197976"><tspan
         sodipodi:role="line"
         id="tspan197974"
         style="font-style:normal;font-variant:normal;font-weight:500;font-stretch:normal;font-size:25.6101px;font-family:Montserrat;-inkscape-font-specification:'Montserrat, Medium';font-variant-ligatures:normal;font-variant-caps:normal;font-variant-numeric:normal;font-variant-east-asian:normal;stroke-width:0.264583"
         x="-147.21187"
         y="726.57782">A4</tspan></text>
    <rect
       style="fill:#f4cfb7;fill-opacity:1;fill-rule:evenodd;stroke-width:0.264583"
       id="rect197978"
       width="100"
       height="100"
       x="-179.63057"
       y="767.61426" />
    <text
       xml:space="preserve"
       style="font-style:normal;font-variant:normal;font-weight:500;font-stretch:normal;font-size:25.6101px;line-height:1.25;font-family:Montserrat;-inkscape-font-specification:'Montserrat, Medium';font-variant-ligatures:normal;font-variant-caps:normal;font-variant-numeric:normal;font-variant-east-asian:normal;letter-spacing:0px;word-spacing:0px;stroke-width:0.264583"
       x="-147.21187"
       y="826.57782"
       id="text197982"><tspan
         sodipodi:role="line"
         id="tspan197980"
         style="font-style:normal;font-variant:normal;font-weight:500;font-stretch:normal;font-size:25.6101px;font-family:Montserrat;-inkscape-font-specification:'Montserrat, Medium';font-variant-ligatures:normal;font-variant-caps:normal;font-variant-numeric:normal;font-variant-east-asian:normal;stroke-width:0.264583"
         x="-147.21187"
         y="826.57782">A4+</tspan></text>
    <rect
       style="fill:#d38151;fill-opacity:1;fill-rule:evenodd;stroke-width:0.264583"
       id="rect229254"
       width="100"
       height="100"
       x="-179.63057"
       y="867.61426" />
    <text
       xml:space="preserve"
       style="font-style:normal;font-variant:normal;font-weight:500;font-stretch:normal;font-size:25.6101px;line-height:1.25;font-family:Montserrat;-inkscape-font-specification:'Montserrat, Medium';font-variant-ligatures:normal;font-variant-caps:normal;font-variant-numeric:normal;font-variant-east-asian:normal;letter-spacing:0px;word-spacing:0px;stroke-width:0.264583"
       x="-147.21187"
       y="926.57782"
       id="text229258"><tspan
         sodipodi:role="line"
         id="tspan229256"
         style="font-style:normal;font-variant:normal;font-weight:500;font-stretch:normal;font-size:25.6101px;font-family:Montserrat;-inkscape-font-specification:'Montserrat, Medium';font-variant-ligatures:normal;font-variant-caps:normal;font-variant-numeric:normal;font-variant-east-asian:normal;stroke-width:0.264583"
         x="-147.21187"
         y="926.57782">B4</tspan></text>
    <rect
       style="fill:#f4e3d7;fill-opacity:1;fill-rule:evenodd;stroke-width:0.264583"
       id="rect234930"
       width="100"
       height="100"
       x="-179.63057"
       y="967.61426" />
    <text
       xml:space="preserve"
       style="font-style:normal;font-variant:normal;font-weight:500;font-stretch:normal;font-size:25.6101px;line-height:1.25;font-family:Montserrat;-inkscape-font-specification:'Montserrat, Medium';font-variant-ligatures:normal;font-variant-caps:normal;font-variant-numeric:normal;font-variant-east-asian:normal;letter-spacing:0px;word-spacing:0px;stroke-width:0.264583"
       x="-147.21187"
       y="1026.5779"
       id="text234934"><tspan
         sodipodi:role="line"
         id="tspan234932"
         style="font-style:normal;font-variant:normal;font-weight:500;font-stretch:normal;font-size:25.6101px;font-family:Montserrat;-inkscape-font-specification:'Montserrat, Medium';font-variant-ligatures:normal;font-variant-caps:normal;font-variant-numeric:normal;font-variant-east-asian:normal;stroke-width:0.264583"
         x="-147.21187"
         y="1026.5779">C4</tspan></text>
    <rect
       style="fill:#f4e3d7;fill-opacity:1;fill-rule:evenodd;stroke-width:0.264583"
       id="rect255476"
       width="324"
       height="229"
       x="-1.9461555"
       y="924.61426"
       rx="1.0910195"
       ry="0.43619016" />
    <g
       id="g383"
       transform="matrix(0.26458333,0,0,0.26458333,843.66113,352.52475)">
      <g
         id="g385" />
    </g>
    <g
       id="g2828"
       style="stroke-width:0.303426"
       transform="matrix(0.06942977,0,0,0.07008984,235.53168,-74.686813)">
      <g
         id="g2830"
         style="stroke-width:0.303426" />
    </g>
    <g
       id="g2832"
       style="stroke-width:0.303426"
       transform="matrix(0.06942977,0,0,0.07008984,235.53168,-74.686813)">
      <g
         id="g2834"
         style="stroke-width:0.303426" />
    </g>
    <g
       id="g2836"
       style="stroke-width:0.303426"
       transform="matrix(0.06942977,0,0,0.07008984,235.53168,-74.686813)">
      <g
         id="g2838"
         clip-path="url(#clipPath2842)"
         style="stroke-width:0.303426">
        <g
           id="g2844"
           style="stroke-width:0.303426" />
        <g
           id="g2846"
           style="stroke-width:0.303426" />
        <g
           id="g2848"
           style="stroke-width:0.303426" />
      </g>
    </g>
    <g
       id="g2850"
       style="stroke-width:0.303426"
       transform="matrix(0.06942977,0,0,0.07008984,235.53168,-74.686813)">
      <g
         id="g2852"
         clip-path="url(#clipPath2856)"
         style="stroke-width:0.303426">
        <g
           id="g2858"
           clip-path="url(#clipPath2862)"
           style="stroke-width:0.303426">
          <g
             id="g2864"
             style="stroke-width:0.303426" />
        </g>
      </g>
    </g>
    <g
       id="g2866"
       style="stroke-width:0.303426"
       transform="matrix(0.06942977,0,0,0.07008984,235.53168,-74.686813)">
      <g
         id="g2868"
         style="stroke-width:0.303426" />
    </g>
    <g
       id="g2918"
       style="stroke-width:0.303426"
       transform="matrix(0.06942977,0,0,0.07008984,235.53168,-74.686813)">
      <g
         id="g2920"
         transform="matrix(4.7223809,0,0,4.7223809,5920.0101,2257.6123)"
         style="stroke-width:0.303426" />
    </g>
    <g
       id="g2964"
       style="stroke-width:0.303426"
       transform="matrix(0.06942977,0,0,0.07008984,235.53168,-74.686813)">
      <g
         id="g2966"
         transform="matrix(4.7223809,0,0,4.7223809,5920.0101,2257.6123)"
         style="stroke-width:0.303426" />
    </g>
    <g
       id="g2988"
       style="stroke-width:0.303426"
       transform="matrix(0.06942977,0,0,0.07008984,235.53168,-74.686813)">
      <g
         id="g2990"
         clip-path="url(#clipPath2994)"
         style="stroke-width:0.303426">
        <g
           id="g2996"
           clip-path="url(#clipPath3000)"
           style="stroke-width:0.303426">
          <g
             id="g3002"
             transform="matrix(4.7223809,0,0,4.7223809,5920.0101,2257.6123)"
             style="stroke-width:0.303426" />
          <g
             id="g3004"
             transform="matrix(4.7223809,0,0,4.7223809,5920.0101,2257.6123)"
             style="stroke-width:0.303426" />
          <g
             id="g3006"
             transform="matrix(4.7223809,0,0,4.7223809,5920.0101,2257.6123)"
             style="stroke-width:0.303426">
            <path
               d="M 0,0 Z"
               style="fill:none;stroke:#000000;stroke-width:0.303426;stroke-linecap:square;stroke-linejoin:bevel;stroke-miterlimit:10;stroke-dasharray:none;stroke-opacity:1"
               id="path3008" />
          </g>
        </g>
      </g>
    </g>
    <g
       id="g3010"
       style="stroke-width:0.303426"
       transform="matrix(0.06942977,0,0,0.07008984,235.53168,-74.686813)">
      <g
         id="g3012"
         transform="matrix(4.7223809,0,0,4.7223809,5920.0101,2257.6123)"
         style="stroke-width:0.303426" />
    </g>
    <g
       id="g3034"
       style="stroke-width:0.303426"
       transform="matrix(0.06942977,0,0,0.07008984,235.53168,-74.686813)">
      <g
         id="g3036"
         clip-path="url(#clipPath3040)"
         style="stroke-width:0.303426">
        <g
           id="g3042"
           clip-path="url(#clipPath3046)"
           style="stroke-width:0.303426">
          <g
             id="g3048"
             transform="matrix(4.7223809,0,0,4.7223809,5920.0101,2257.6123)"
             style="stroke-width:0.303426" />
          <g
             id="g3050"
             transform="matrix(4.7223809,0,0,4.7223809,5920.0101,2257.6123)"
             style="stroke-width:0.303426" />
          <g
             id="g3052"
             transform="matrix(4.7223809,0,0,4.7223809,5920.0101,2257.6123)"
             style="stroke-width:0.303426">
            <path
               d="M 0,0 Z"
               style="fill:none;stroke:#000000;stroke-width:0.303426;stroke-linecap:square;stroke-linejoin:bevel;stroke-miterlimit:10;stroke-dasharray:none;stroke-opacity:1"
               id="path3054" />
          </g>
        </g>
      </g>
    </g>
    <g
       id="g3056"
       style="stroke-width:0.303426"
       transform="matrix(0.06942977,0,0,0.07008984,235.53168,-74.686813)">
      <g
         id="g3058"
         transform="matrix(4.7223809,0,0,4.7223809,5920.0101,2257.6123)"
         style="stroke-width:0.303426" />
    </g>
    <g
       id="g3080"
       style="stroke-width:0.303426"
       transform="matrix(0.06942977,0,0,0.07008984,235.53168,-74.686813)">
      <g
         id="g3082"
         clip-path="url(#clipPath3086)"
         style="stroke-width:0.303426">
        <g
           id="g3088"
           clip-path="url(#clipPath3092)"
           style="stroke-width:0.303426">
          <g
             id="g3094"
             transform="matrix(4.7223809,0,0,4.7223809,5920.0101,2257.6123)"
             style="stroke-width:0.303426" />
          <g
             id="g3096"
             transform="matrix(4.7223809,0,0,4.7223809,5920.0101,2257.6123)"
             style="stroke-width:0.303426" />
          <g
             id="g3098"
             transform="matrix(4.7223809,0,0,4.7223809,5920.0101,2257.6123)"
             style="stroke-width:0.303426">
            <path
               d="M 0,0 Z"
               style="fill:none;stroke:#000000;stroke-width:0.303426;stroke-linecap:square;stroke-linejoin:bevel;stroke-miterlimit:10;stroke-dasharray:none;stroke-opacity:1"
               id="path3100" />
          </g>
        </g>
      </g>
    </g>
    <g
       id="g3102"
       style="stroke-width:0.303426"
       transform="matrix(0.06942977,0,0,0.07008984,235.53168,-74.686813)">
      <g
         id="g3104"
         transform="matrix(4.7223809,0,0,4.7223809,5920.0101,2257.6123)"
         style="stroke-width:0.303426" />
    </g>
    <g
       id="g3148"
       style="stroke-width:0.303426"
       transform="matrix(0.06942977,0,0,0.07008984,235.53168,-74.686813)">
      <g
         id="g3150"
         transform="matrix(4.7223809,0,0,4.7223809,5920.0101,2257.6123)"
         style="stroke-width:0.303426" />
    </g>
    <g
       id="g3308"
       style="stroke-width:0.303426"
       transform="matrix(0.06942977,0,0,0.07008984,235.53168,-74.686813)">
      <g
         id="g3310"
         style="stroke-width:0.303426" />
    </g>
    <g
       id="g4948"
       style="fill:none;stroke:#ff7f2a;stroke-width:0.303426"
       transform="matrix(0.06942977,0,0,0.07008984,182.13528,280.97197)">
      <g
         id="g4946"
         style="fill:none;stroke:#ff7f2a;stroke-width:0.303426" />
    </g>
    <g
       id="g4952"
       style="fill:none;stroke:#ff7f2a;stroke-width:0.303426"
       transform="matrix(0.06942977,0,0,0.07008984,182.13528,280.97197)">
      <g
         id="g4950"
         style="fill:none;stroke:#ff7f2a;stroke-width:0.303426" />
    </g>
    <g
       id="g4962"
       style="fill:none;stroke:#ff7f2a;stroke-width:0.303426"
       transform="matrix(0.06942977,0,0,0.07008984,182.13528,280.97197)">
      <g
         id="g4960"
         clip-path="url(#clipPath2842)"
         style="fill:none;stroke:#ff7f2a;stroke-width:0.303426">
        <g
           id="g4954"
           style="fill:none;stroke:#ff7f2a;stroke-width:0.303426" />
        <g
           id="g4956"
           style="fill:none;stroke:#ff7f2a;stroke-width:0.303426" />
        <g
           id="g4958"
           style="fill:none;stroke:#ff7f2a;stroke-width:0.303426" />
      </g>
    </g>
    <g
       id="g4970"
       style="fill:none;stroke:#ff7f2a;stroke-width:0.303426"
       transform="matrix(0.06942977,0,0,0.07008984,182.13528,280.97197)">
      <g
         id="g4968"
         clip-path="url(#clipPath2856)"
         style="fill:none;stroke:#ff7f2a;stroke-width:0.303426">
        <g
           id="g4966"
           clip-path="url(#clipPath2862)"
           style="fill:none;stroke:#ff7f2a;stroke-width:0.303426">
          <g
             id="g4964"
             style="fill:none;stroke:#ff7f2a;stroke-width:0.303426" />
        </g>
      </g>
    </g>
    <g
       id="g4974"
       style="fill:none;stroke:#ff7f2a;stroke-width:0.303426"
       transform="matrix(0.06942977,0,0,0.07008984,182.13528,280.97197)">
      <g
         id="g4972"
         style="fill:none;stroke:#ff7f2a;stroke-width:0.303426" />
    </g>
    <g
       id="g5014"
       style="fill:none;stroke:#ff7f2a;stroke-width:0.303426"
       transform="matrix(0.06942977,0,0,0.07008984,182.13528,280.97197)">
      <g
         id="g5012"
         transform="matrix(4.7223809,0,0,4.7223809,5920.0101,2257.6123)"
         style="fill:none;stroke:#ff7f2a;stroke-width:0.303426" />
    </g>
    <g
       id="g5048"
       style="fill:none;stroke:#ff7f2a;stroke-width:0.303426"
       transform="matrix(0.06942977,0,0,0.07008984,182.13528,280.97197)">
      <g
         id="g5046"
         transform="matrix(4.7223809,0,0,4.7223809,5920.0101,2257.6123)"
         style="fill:none;stroke:#ff7f2a;stroke-width:0.303426" />
    </g>
    <g
       id="g5078"
       style="fill:none;stroke:#ff7f2a;stroke-width:0.303426"
       transform="matrix(0.06942977,0,0,0.07008984,182.13528,280.97197)">
      <g
         id="g5076"
         clip-path="url(#clipPath2994)"
         style="fill:none;stroke:#ff7f2a;stroke-width:0.303426">
        <g
           id="g5074"
           clip-path="url(#clipPath3000)"
           style="fill:none;stroke:#ff7f2a;stroke-width:0.303426">
          <g
             id="g5066"
             transform="matrix(4.7223809,0,0,4.7223809,5920.0101,2257.6123)"
             style="fill:none;stroke:#ff7f2a;stroke-width:0.303426" />
          <g
             id="g5068"
             transform="matrix(4.7223809,0,0,4.7223809,5920.0101,2257.6123)"
             style="fill:none;stroke:#ff7f2a;stroke-width:0.303426" />
          <g
             id="g5072"
             transform="matrix(4.7223809,0,0,4.7223809,5920.0101,2257.6123)"
             style="fill:none;stroke:#ff7f2a;stroke-width:0.303426">
            <path
               d="M 0,0 Z"
               style="fill:none;stroke:#ff7f2a;stroke-width:0.303426;stroke-linecap:square;stroke-linejoin:bevel;stroke-miterlimit:10;stroke-dasharray:none;stroke-opacity:1"
               id="path5070" />
          </g>
        </g>
      </g>
    </g>
    <g
       id="g5082"
       style="fill:none;stroke:#ff7f2a;stroke-width:0.303426"
       transform="matrix(0.06942977,0,0,0.07008984,182.13528,280.97197)">
      <g
         id="g5080"
         transform="matrix(4.7223809,0,0,4.7223809,5920.0101,2257.6123)"
         style="fill:none;stroke:#ff7f2a;stroke-width:0.303426" />
    </g>
    <g
       id="g5112"
       style="fill:none;stroke:#ff7f2a;stroke-width:0.303426"
       transform="matrix(0.06942977,0,0,0.07008984,182.13528,280.97197)">
      <g
         id="g5110"
         clip-path="url(#clipPath3040)"
         style="fill:none;stroke:#ff7f2a;stroke-width:0.303426">
        <g
           id="g5108"
           clip-path="url(#clipPath3046)"
           style="fill:none;stroke:#ff7f2a;stroke-width:0.303426">
          <g
             id="g5100"
             transform="matrix(4.7223809,0,0,4.7223809,5920.0101,2257.6123)"
             style="fill:none;stroke:#ff7f2a;stroke-width:0.303426" />
          <g
             id="g5102"
             transform="matrix(4.7223809,0,0,4.7223809,5920.0101,2257.6123)"
             style="fill:none;stroke:#ff7f2a;stroke-width:0.303426" />
          <g
             id="g5106"
             transform="matrix(4.7223809,0,0,4.7223809,5920.0101,2257.6123)"
             style="fill:none;stroke:#ff7f2a;stroke-width:0.303426">
            <path
               d="M 0,0 Z"
               style="fill:none;stroke:#ff7f2a;stroke-width:0.303426;stroke-linecap:square;stroke-linejoin:bevel;stroke-miterlimit:10;stroke-dasharray:none;stroke-opacity:1"
               id="path5104" />
          </g>
        </g>
      </g>
    </g>
    <g
       id="g5116"
       style="fill:none;stroke:#ff7f2a;stroke-width:0.303426"
       transform="matrix(0.06942977,0,0,0.07008984,182.13528,280.97197)">
      <g
         id="g5114"
         transform="matrix(4.7223809,0,0,4.7223809,5920.0101,2257.6123)"
         style="fill:none;stroke:#ff7f2a;stroke-width:0.303426" />
    </g>
    <g
       id="g5146"
       style="fill:none;stroke:#ff7f2a;stroke-width:0.303426"
       transform="matrix(0.06942977,0,0,0.07008984,182.13528,280.97197)">
      <g
         id="g5144"
         clip-path="url(#clipPath3086)"
         style="fill:none;stroke:#ff7f2a;stroke-width:0.303426">
        <g
           id="g5142"
           clip-path="url(#clipPath3092)"
           style="fill:none;stroke:#ff7f2a;stroke-width:0.303426">
          <g
             id="g5134"
             transform="matrix(4.7223809,0,0,4.7223809,5920.0101,2257.6123)"
             style="fill:none;stroke:#ff7f2a;stroke-width:0.303426" />
          <g
             id="g5136"
             transform="matrix(4.7223809,0,0,4.7223809,5920.0101,2257.6123)"
             style="fill:none;stroke:#ff7f2a;stroke-width:0.303426" />
          <g
             id="g5140"
             transform="matrix(4.7223809,0,0,4.7223809,5920.0101,2257.6123)"
             style="fill:none;stroke:#ff7f2a;stroke-width:0.303426">
            <path
               d="M 0,0 Z"
               style="fill:none;stroke:#ff7f2a;stroke-width:0.303426;stroke-linecap:square;stroke-linejoin:bevel;stroke-miterlimit:10;stroke-dasharray:none;stroke-opacity:1"
               id="path5138" />
          </g>
        </g>
      </g>
    </g>
    <g
       id="g5150"
       style="fill:none;stroke:#ff7f2a;stroke-width:0.303426"
       transform="matrix(0.06942977,0,0,0.07008984,182.13528,280.97197)">
      <g
         id="g5148"
         transform="matrix(4.7223809,0,0,4.7223809,5920.0101,2257.6123)"
         style="fill:none;stroke:#ff7f2a;stroke-width:0.303426" />
    </g>
    <g
       id="g5184"
       style="fill:none;stroke:#ff7f2a;stroke-width:0.303426"
       transform="matrix(0.06942977,0,0,0.07008984,182.13528,280.97197)">
      <g
         id="g5182"
         transform="matrix(4.7223809,0,0,4.7223809,5920.0101,2257.6123)"
         style="fill:none;stroke:#ff7f2a;stroke-width:0.303426" />
    </g>
    <g
       id="g5186"
       style="font-variation-settings:normal;fill:none;fill-opacity:1;stroke:#ffd42a;stroke-width:10.469;stroke-linecap:round;stroke-linejoin:round;stroke-miterlimit:4;stroke-dasharray:none;stroke-dashoffset:0;stroke-opacity:1;stop-color:#000000"
       transform="matrix(0.06707608,0,0,0.06771477,-273.0234,-95.474312)" />
    <g
       id="g5188"
       transform="matrix(0.3167588,0,0,0.31977494,124.06767,57.399386)"
       style="font-variation-settings:normal;fill:none;fill-opacity:1;stroke:#ffd42a;stroke-width:2.21689;stroke-linecap:round;stroke-linejoin:round;stroke-miterlimit:4;stroke-dasharray:none;stroke-dashoffset:0;stroke-opacity:1;stop-color:#000000" />
    <g
       id="g5236"
       transform="matrix(0.3167588,0,0,0.31977494,124.06767,57.399386)"
       style="font-variation-settings:normal;fill:none;fill-opacity:1;stroke:#ffd42a;stroke-width:2.21689;stroke-linecap:round;stroke-linejoin:round;stroke-miterlimit:4;stroke-dasharray:none;stroke-dashoffset:0;stroke-opacity:1;stop-color:#000000" />
    <g
       id="g5340"
       style="fill:none;stroke:#ff7f2a;stroke-width:0.303426"
       transform="matrix(0.06942977,0,0,0.07008984,182.13528,280.97197)">
      <g
         id="g5338"
         style="fill:none;stroke:#ff7f2a;stroke-width:0.303426" />
    </g>
    <g
       id="g5621"
       style="fill:none;stroke:#ff7f2a;stroke-width:0.314071"
       transform="matrix(0.06707608,0,0,0.06771477,133.20201,-95.475752)">
      <g
         id="g5619"
         clip-path="url(#clipPath2902)"
         style="fill:none;stroke:#ff7f2a;stroke-width:0.314071">
        <g
           id="g5617"
           clip-path="url(#clipPath2908)"
           style="fill:none;stroke:#ff7f2a;stroke-width:0.314071">
          <g
             id="g5609"
             transform="matrix(4.7223809,0,0,4.7223809,5920.0101,2257.6123)"
             style="fill:none;stroke:#ff7f2a;stroke-width:0.314071" />
          <g
             id="g5611"
             transform="matrix(4.7223809,0,0,4.7223809,5920.0101,2257.6123)"
             style="fill:none;stroke:#ff7f2a;stroke-width:0.314071" />
          <g
             id="g5615"
             transform="matrix(4.7223809,0,0,4.7223809,5920.0101,2257.6123)"
             style="fill:none;stroke:#ff7f2a;stroke-width:0.314071">
            <path
               d="M 0,0 Z"
               style="fill:none;stroke:#ff7f2a;stroke-width:0.314071;stroke-linecap:square;stroke-linejoin:bevel;stroke-miterlimit:10;stroke-dasharray:none;stroke-opacity:1"
               id="path5613" />
          </g>
        </g>
      </g>
    </g>
    <g
       id="g5651"
       style="fill:none;stroke:#ff7f2a;stroke-width:0.314071"
       transform="matrix(0.06707608,0,0,0.06771477,133.20201,-95.475752)">
      <g
         id="g5649"
         clip-path="url(#clipPath2948)"
         style="fill:none;stroke:#ff7f2a;stroke-width:0.314071">
        <g
           id="g5647"
           clip-path="url(#clipPath2954)"
           style="fill:none;stroke:#ff7f2a;stroke-width:0.314071">
          <g
             id="g5639"
             transform="matrix(4.7223809,0,0,4.7223809,5920.0101,2257.6123)"
             style="fill:none;stroke:#ff7f2a;stroke-width:0.314071" />
          <g
             id="g5641"
             transform="matrix(4.7223809,0,0,4.7223809,5920.0101,2257.6123)"
             style="fill:none;stroke:#ff7f2a;stroke-width:0.314071" />
          <g
             id="g5645"
             transform="matrix(4.7223809,0,0,4.7223809,5920.0101,2257.6123)"
             style="fill:none;stroke:#ff7f2a;stroke-width:0.314071">
            <path
               d="M 0,0 Z"
               style="fill:none;stroke:#ff7f2a;stroke-width:0.314071;stroke-linecap:square;stroke-linejoin:bevel;stroke-miterlimit:10;stroke-dasharray:none;stroke-opacity:1"
               id="path5643" />
          </g>
        </g>
      </g>
    </g>
    <g
       id="g5697"
       style="fill:none;stroke:#ff7f2a;stroke-width:0.314071"
       transform="matrix(0.06707608,0,0,0.06771477,133.20201,-95.475752)">
      <g
         id="g5695"
         clip-path="url(#clipPath3132)"
         style="fill:none;stroke:#ff7f2a;stroke-width:0.314071">
        <g
           id="g5693"
           clip-path="url(#clipPath3138)"
           style="fill:none;stroke:#ff7f2a;stroke-width:0.314071">
          <g
             id="g5685"
             transform="matrix(4.7223809,0,0,4.7223809,5920.0101,2257.6123)"
             style="fill:none;stroke:#ff7f2a;stroke-width:0.314071" />
          <g
             id="g5687"
             transform="matrix(4.7223809,0,0,4.7223809,5920.0101,2257.6123)"
             style="fill:none;stroke:#ff7f2a;stroke-width:0.314071" />
          <g
             id="g5691"
             transform="matrix(4.7223809,0,0,4.7223809,5920.0101,2257.6123)"
             style="fill:none;stroke:#ff7f2a;stroke-width:0.314071">
            <path
               d="M 0,0 Z"
               style="fill:none;stroke:#ff7f2a;stroke-width:0.314071;stroke-linecap:square;stroke-linejoin:bevel;stroke-miterlimit:10;stroke-dasharray:none;stroke-opacity:1"
               id="path5689" />
          </g>
        </g>
      </g>
    </g>
    <g
       id="g5699"
       style="fill:none;stroke:#ff7f2a;stroke-width:0.314071"
       transform="matrix(0.06707608,0,0,0.06771477,-74.617555,-95.475752)" />
    <g
       id="g5701"
       transform="matrix(0.3167588,0,0,0.31977494,322.47352,57.397946)"
       style="fill:none;stroke:#ff7f2a;stroke-width:0.314071" />
    <text
       xml:space="preserve"
       style="font-style:normal;font-variant:normal;font-weight:normal;font-stretch:normal;font-size:13.8205px;line-height:1.25;font-family:'Fira Sans';-inkscape-font-specification:'Fira Sans, Normal';font-variant-ligatures:normal;font-variant-position:normal;font-variant-caps:normal;font-variant-numeric:normal;font-variant-alternates:normal;font-variant-east-asian:normal;font-feature-settings:normal;font-variation-settings:normal;text-indent:0;text-align:start;text-decoration-line:none;text-decoration-style:solid;text-decoration-color:#000000;letter-spacing:0px;word-spacing:0px;text-transform:none;writing-mode:lr-tb;direction:ltr;text-orientation:mixed;dominant-baseline:auto;baseline-shift:baseline;text-anchor:start;white-space:normal;shape-padding:0;shape-margin:0;inline-size:0;opacity:1;vector-effect:none;fill:#008080;fill-opacity:1;stroke-width:0.264583;stroke-linecap:butt;stroke-linejoin:miter;stroke-miterlimit:4;stroke-dasharray:none;stroke-dashoffset:0;stroke-opacity:1;-inkscape-stroke:none;stop-color:#000000;stop-opacity:1"
       x="257.43604"
       y="49.991062"
       id="text115351"
       transform="translate(229.96713,73.099935)"><tspan
         sodipodi:role="line"
         id="tspan115349"
         style="font-style:normal;font-variant:normal;font-weight:normal;font-stretch:normal;font-size:13.8205px;line-height:1.25;font-family:'Fira Sans';-inkscape-font-specification:'Fira Sans, Normal';font-variant-ligatures:normal;font-variant-position:normal;font-variant-caps:normal;font-variant-numeric:normal;font-variant-alternates:normal;font-variant-east-asian:normal;font-feature-settings:normal;font-variation-settings:normal;text-indent:0;text-align:start;text-decoration-line:none;text-decoration-style:solid;text-decoration-color:#000000;letter-spacing:0px;word-spacing:0px;text-transform:none;writing-mode:lr-tb;direction:ltr;text-orientation:mixed;dominant-baseline:auto;baseline-shift:baseline;text-anchor:start;white-space:normal;shape-padding:0;shape-margin:0;inline-size:0;vector-effect:none;fill:#008080;fill-opacity:1;stroke-width:0.264583;stroke-linecap:butt;stroke-linejoin:miter;stroke-miterlimit:4;stroke-dasharray:none;stroke-dashoffset:0;stroke-opacity:1;-inkscape-stroke:none;stop-color:#000000;stop-opacity:1"
         x="257.43604"
         y="49.991062">Φ</tspan></text>
    <text
       xml:space="preserve"
       style="font-size:8.59018px;line-height:1.25;font-family:sans-serif;letter-spacing:0px;word-spacing:0px;fill:#008080;stroke-width:0.264583"
       x="72.041206"
       y="79.857422"
       id="text10645"><tspan
         sodipodi:role="line"
         id="tspan10643"
         style="fill:#008080;stroke-width:0.264583"
         x="72.041206"
         y="79.857422">Perspective</tspan></text>
    <text
       xml:space="preserve"
       style="font-size:8.59018px;line-height:1.25;font-family:sans-serif;letter-spacing:0px;word-spacing:0px;fill:#008080;stroke-width:0.264583"
       x="183.11156"
       y="79.857422"
       id="text15359"><tspan
         sodipodi:role="line"
         id="tspan15357"
         style="fill:#008080;stroke-width:0.264583"
         x="183.11156"
         y="79.857422">Dashed Stroke</tspan></text>
    <text
       xml:space="preserve"
       style="font-size:8.59018px;line-height:1.25;font-family:sans-serif;letter-spacing:0px;word-spacing:0px;fill:#008080;stroke-width:0.264583"
       x="255.19308"
       y="79.857422"
       id="text21533"><tspan
         sodipodi:role="line"
         id="tspan21531"
         style="fill:#008080;stroke-width:0.264583"
         x="255.19308"
         y="79.857422">Show Handles</tspan></text>
    <text
       xml:space="preserve"
       style="font-size:8.59018px;line-height:1.25;font-family:sans-serif;letter-spacing:0px;word-spacing:0px;fill:#008080;stroke-width:0.264583"
       x="320.3779"
       y="79.857422"
       id="text26235"><tspan
         sodipodi:role="line"
         id="tspan26233"
         style="fill:#008080;stroke-width:0.264583"
         x="320.3779"
         y="79.857422">Stitch Subpaths</tspan></text>
    <g
       aria-label="a"
       id="text83880"
       style="font-size:103.99px;line-height:1.25;letter-spacing:0px;word-spacing:0px;fill:#008080;stroke-width:0.264583">
      <path
         d="m 21.397763,62.522213 q -8.174995,0 -12.9987495,-4.366767 -4.8237548,-4.417544 -4.8237548,-11.983222 0,-5.17919 2.7927002,-9.08897 2.8434765,-3.90978 8.3273241,-6.14394 5.534624,-2.23416 13.608066,-2.23416 h 7.26102 v -4.06211 q 0,-3.960556 -2.335712,-6.397822 -2.284937,-2.488042 -6.905586,-2.488042 -2.386489,0 -4.265215,0.609317 -1.878726,0.55854 -3.452793,1.624843 l -1.167856,7.261021 H 6.7741698 L 6.5710643,10.984202 q 4.3159907,-2.4372658 9.3428517,-3.9605568 5.02686,-1.523291 11.221577,-1.523291 10.764589,0 17.010082,5.0268598 6.245493,4.976084 6.245493,14.268159 v 22.64626 q 0,1.11708 0,2.23416 0.05078,1.066303 0.203106,2.081831 l 5.737729,0.812422 V 61.45591 H 37.950859 q -0.55854,-1.421739 -1.11708,-3.046582 -0.55854,-1.624844 -0.812422,-3.249688 -2.640371,3.35124 -6.245493,5.382295 -3.554346,1.980278 -8.378101,1.980278 z M 25.35832,51.554518 q 3.097358,0 5.890058,-1.370962 2.7927,-1.421738 4.315991,-3.706674 v -8.682759 h -7.311796 q -4.874531,0 -7.41335,2.23416 -2.488042,2.23416 -2.488042,5.382295 0,2.945029 1.827949,4.569873 1.878726,1.574067 5.17919,1.574067 z"
         style="font-family:'Roboto Slab';-inkscape-font-specification:'Roboto Slab, @wght=700';font-variation-settings:'wght' 700"
         id="path112624" />
    </g>
    <g
       aria-label="a"
       id="text91574"
       style="font-size:103.99px;line-height:1.25;letter-spacing:0px;word-spacing:0px;fill:#008080;stroke-width:0.264583"
       transform="translate(-6.5444123,14.55623)">
      <path
         d="m -46.165245,73.588986 q -8.174995,0 -12.99875,-4.366768 -4.823755,-4.417543 -4.823755,-11.983222 0,-5.179189 2.7927,-9.08897 2.843477,-3.90978 8.327324,-6.14394 5.534624,-2.23416 13.608066,-2.23416 h 7.261021 v -4.062109 q 0,-3.960557 -2.335713,-6.397822 -2.284937,-2.488042 -6.905586,-2.488042 -2.386489,0 -4.265215,0.609316 -1.878725,0.55854 -3.452793,1.624844 l -1.167856,7.26102 h -10.663037 l -0.203105,-14.268159 q 4.315991,-2.437265 9.342851,-3.960556 5.02686,-1.523291 11.221577,-1.523291 10.764589,0 17.010083,5.02686 6.245493,4.976084 6.245493,14.268159 v 22.646259 q 0,1.11708 0,2.23416 0.05078,1.066304 0.203105,2.081831 l 5.737729,0.812422 v 8.885864 H -29.61215 q -0.55854,-1.421738 -1.11708,-3.046582 -0.55854,-1.624843 -0.812422,-3.249687 -2.640371,3.35124 -6.245493,5.382295 -3.554346,1.980278 -8.3781,1.980278 z m 3.960556,-10.967695 q 3.097358,0 5.890059,-1.370962 2.7927,-1.421738 4.315991,-3.706675 v -8.682758 h -7.311797 q -4.874531,0 -7.41335,2.23416 -2.488041,2.23416 -2.488041,5.382294 0,2.94503 1.827949,4.569873 1.878725,1.574068 5.179189,1.574068 z"
         style="font-family:'Roboto Slab';-inkscape-font-specification:'Roboto Slab, @wght=700';font-variation-settings:'wght' 700"
         id="path91576" />
    </g>
    <g
       aria-label="a"
       id="text92124"
       style="font-size:103.99px;line-height:1.25;letter-spacing:0px;word-spacing:0px;fill:#008080;stroke-width:0.264583"
       transform="translate(-23.736905,-12.515152)"
       inkscape:path-effect="#path-effect96392">
      <path
         d="m 204.65403,67.774318 c 0,0 0.0265,-2.912612 -1.00181,-3.058273 -1.3988,-0.198134 -1.15272,8.038096 -1.85148,8.038096 -0.53784,0 -0.87851,-2.342824 -1.11848,-4.685649 -0.23995,-2.342575 -0.37925,-4.685649 -0.37925,-4.685649 0,0 0.0879,2.591799 0.30037,5.183107 0.21247,2.591553 0.54949,5.183107 1.21297,5.183107 1.70387,0 1.48856,-8.093009 1.87607,-8.038096 0.77045,0.109178 0.96161,2.063357 0.96161,2.063357 z M 198.7132,42.885322 c 0,0 -0.33025,-3.341121 -0.92169,-6.941957 -0.59405,-3.616743 -1.44116,-7.442683 -2.22809,-8.493535 -0.96546,-1.289273 0.4777,10.320187 1.35631,22.457682 0.87402,12.074197 1.07388,24.486537 1.14588,24.486537 -0.11646,0 -0.32325,-12.499417 -1.58469,-25.092883 -1.26144,-12.593466 -3.59188,-25.28098 -4.08362,-25.657174 -0.70803,-0.541673 1.12164,12.012876 2.07286,24.702843 0.95122,12.689967 1.00239,25.515352 0.73983,25.515352 -0.45102,0 -0.86691,-14.006139 -2.5426,-28.083449 -1.67569,-14.077309 -4.62338,-28.225788 -5.28741,-28.510466 -0.86899,-0.372552 1.22607,12.806387 2.361,26.078463 1.13492,13.272077 1.29429,26.637291 0.91738,26.637291 -0.56537,0 -1.18228,-13.012657 -2.77641,-26.04276 -1.59412,-13.030104 -4.16824,-26.077654 -4.47627,-26.14744 -0.5048,-0.114362 1.7803,13.420728 3.05948,26.984409 1.27918,13.56368 1.54764,27.155952 1.54552,27.155952 -0.19057,0 -0.54611,-13.219956 -2.05099,-26.457583 -1.50487,-13.237627 -4.16196,-26.492927 -4.6499,-26.563614 -0.68153,-0.09873 -0.47485,2.840855 -0.15756,5.798413 0.31729,2.957558 0.74453,5.933086 0.72153,5.906239 -0.24433,-0.285261 -0.78403,-3.193971 -1.41439,-6.015814 -0.63194,-2.828974 -1.36168,-5.592474 -1.81686,-5.622971 -0.64597,-0.04328 -0.51176,2.437644 -0.33755,4.903788 0.17422,2.466144 0.3889,4.917505 0.0556,4.815096 -1.06199,-0.326346 -2.50729,-8.97867 -3.56706,-8.953026 -0.71752,0.01736 -0.66139,2.328692 -0.45596,4.635682 0.20543,2.306989 0.56028,4.609638 0.57087,4.609636 -0.17786,3.9e-5 -0.77252,-3.330853 -1.44073,-6.658178 -0.66821,-3.327324 -1.40983,-6.65108 -1.60894,-6.636768 -0.38499,0.02767 -0.13657,2.330905 0.20651,4.624868 0.34308,2.293963 0.78109,4.578656 0.90448,4.569247 -0.12548,0.0096 -1.71695,-8.924479 -2.64732,-8.821767 -0.64974,0.07173 -0.53035,2.430137 -0.28627,4.771685 0.24408,2.341549 0.61333,4.666239 0.59709,4.670536 -0.39385,0.104225 -1.72733,-7.560084 -2.21726,-7.476802 -0.42766,0.0727 -0.19963,2.494935 0.12927,4.887871 0.3289,2.392935 0.75954,4.756567 0.87753,4.712054 -0.06,0.02263 -0.51886,-2.716201 -1.06882,-5.448365 -0.54997,-2.732163 -1.19082,-5.457657 -1.42993,-5.408343 -0.42049,0.08672 -0.16667,2.585649 0.18939,5.045652 0.35606,2.460004 0.81554,4.881083 0.95491,4.812106 -0.0707,0.03497 -1.54086,-8.508312 -2.19024,-8.347919 -0.50492,0.124714 -0.22409,3.067793 0.0814,6.251248 0.30803,3.210365 0.63294,6.580378 0.42412,7.69351 -0.31311,1.669046 -0.97207,-1.165631 -1.69738,-4.351658 -0.72776,-3.196802 -1.54404,-6.777283 -1.90207,-6.653727 -0.53571,0.184876 -0.0922,4.343077 0.3082,8.455058 0.40044,4.111982 0.76011,8.177745 0.46791,8.177745 -0.48067,0 -1.24257,-4.183292 -2.09443,-8.322247 -0.85187,-4.138955 -1.7914,-8.233574 -2.20152,-8.056227 -0.58533,0.253111 -0.23329,4.087339 0.2143,7.858289 0.44758,3.77095 0.99355,7.478622 1.13966,7.478622 -0.0423,0 -0.61686,-4.326012 -1.4055,-8.598399 -0.78863,-4.272387 -1.78849,-8.49115 -2.2271,-8.276651 -0.61184,0.299221 -0.29854,3.919638 0.0536,7.465251 0.35209,3.545612 0.74611,7.01642 0.59789,7.01642 -0.33668,0 -1.02189,-3.788041 -1.70421,-7.111688 -0.68854,-3.353978 -1.33727,-6.152566 -1.32676,-4.32532 0.0345,6.006053 0.61274,10.373283 0.71862,10.373283 -0.27004,0 -0.2617,0.986219 -0.2617,0.986219 0,0 -0.12446,0.0087 0.39786,0.0087 0.44961,0 0.31991,-2.619071 0.0356,-5.225267 -0.28426,-2.606196 -0.72267,-5.199517 -0.72253,-5.148016 -0.003,-1.088648 0.5744,1.760008 1.21272,4.898044 0.63725,3.132738 1.32094,6.538964 1.78325,6.538964 0.65078,0 0.50314,-3.58377 0.15134,-7.185864 -0.35179,-3.602093 -0.90856,-7.222511 -0.75846,-7.295807 0.3236,-0.158018 1.24685,4.060745 2.01972,8.319012 0.77287,4.258267 1.39326,8.556038 1.56124,8.556038 0.35645,0 0.0599,-3.80869 -0.38536,-7.630149 -0.44528,-3.821459 -1.03993,-7.655687 -0.92166,-7.706762 0.2937,-0.126838 1.15711,3.967781 1.99397,8.094109 0.83686,4.126328 1.64555,8.284365 2.25185,8.284365 0.79477,0 0.68836,-4.147522 0.29295,-8.300384 -0.39541,-4.152861 -1.08011,-8.311062 -1.01816,-8.332419 0.23982,-0.08268 1.01356,3.688487 1.74129,6.970411 0.72379,3.264107 1.43222,6.092425 1.82448,4.034974 0.99586,-5.223365 -0.51142,-13.932755 -0.46279,-13.944758 0.40937,-0.101037 1.86063,8.498177 2.1647,8.347919 0.327,-0.161593 0.11603,-2.632547 -0.22877,-5.059846 -0.34479,-2.427298 -0.82216,-4.810941 -0.88537,-4.797912 0.11827,-0.02438 0.69177,2.723499 1.23378,5.460619 0.54201,2.737121 1.05289,5.463486 1.23174,5.396089 0.35705,-0.134542 0.17676,-2.539584 -0.14222,-4.908459 -0.31898,-2.368876 -0.77563,-4.701586 -0.8352,-4.691466 0.24646,-0.04187 1.5591,7.644781 2.19438,7.476802 0.99695,-0.26361 -0.59721,-9.407425 -0.28192,-9.442221 0.68452,-0.07555 2.24659,8.850258 2.62032,8.821767 0.37303,-0.02844 0.19002,-2.330945 -0.14634,-4.624353 -0.33635,-2.293409 -0.82579,-4.577719 -0.93651,-4.569762 0.0752,-0.0054 0.74372,3.318365 1.4013,6.64347 0.65759,3.325104 1.30418,6.651543 1.60768,6.651475 0.49195,-1.09e-4 0.39451,-2.308811 0.19558,-4.618799 -0.19892,-2.309989 -0.49936,-4.621264 -0.2822,-4.626518 0.80964,-0.01959 2.21528,8.54566 3.53967,8.953026 0.8617,0.265046 0.90784,-2.170468 0.73708,-4.668001 -0.1708,-2.498131 -0.5626,-5.060076 -0.42544,-5.050884 0.32792,0.02198 0.97095,2.696961 1.5886,5.483808 0.61592,2.77906 1.21306,5.693343 1.60704,6.154978 0.62838,0.736274 0.47304,-2.204479 0.14492,-5.319062 -0.32825,-3.115891 -0.8383,-6.409537 -0.67307,-6.38559 0.35873,0.05199 2.91338,13.30729 4.37878,26.549592 1.46541,13.242301 1.84366,26.471605 2.15987,26.471605 0.50467,0 0.53131,-13.532836 -0.69968,-27.066799 -1.23098,-13.533963 -3.71978,-27.069053 -3.73966,-27.073562 0.17674,0.04007 2.64961,13.087618 4.20552,26.125151 1.55591,13.037533 2.19646,26.065049 2.88746,26.065049 0.87947,0 1.01734,-13.24805 -0.0637,-26.461545 -1.08104,-13.213494 -3.37536,-26.392433 -3.05337,-26.254209 0.52669,0.226096 3.3715,14.374575 5.00744,28.46653 1.63595,14.091954 2.07274,28.127385 2.6494,28.127385 0.76512,0 1.01118,-12.604748 0.12144,-25.184396 -0.88974,-12.579649 -2.91139,-25.134197 -2.78047,-25.0338 0.34672,0.265876 2.58101,12.953391 3.8095,25.574436 1.2285,12.621045 1.46142,25.175622 1.70352,25.175622 0.43056,0 0.53194,-11.988094 -0.26402,-23.850168 -0.79595,-11.862074 -2.47045,-23.598129 -2.09452,-23.094051 0.62391,0.836577 1.4274,4.418091 2.02358,7.836985 0.59379,3.405162 0.97196,6.603591 0.97196,6.603591 z m -15.04093,-2.751297 c 0,0 0.65423,6.638046 1.03206,13.258203 0.37789,6.621291 0.48079,13.226959 0.45947,13.164471 -0.2322,-0.680544 -0.61747,-7.901178 -1.36176,-14.951676 -0.74428,-7.050498 -1.83352,-13.93086 -2.28313,-13.93086 -0.63807,0 -0.007,7.581821 0.35312,15.235539 0.35999,7.653718 0.44213,15.379334 0.13316,15.666924 -0.4923,0.458232 -0.94315,-6.519453 -1.71287,-13.611696 -0.76971,-7.092242 -1.86861,-14.299043 -2.4008,-14.299043 -0.72065,0 -0.2391,7.263689 0.10069,14.525808 0.33978,7.26212 0.53794,14.522671 0.54837,14.516397 -0.17507,0.105377 -0.46399,-7.531394 -1.12069,-15.193642 -0.65669,-7.662249 -1.68358,-15.349975 -1.88503,-15.346509 -0.38952,0.0067 0.33476,7.640576 0.82896,15.257969 0.4942,7.617392 0.75987,15.218304 0.88321,15.159085 -0.0627,0.03011 -0.30421,-7.776047 -1.02363,-15.584073 -0.71942,-7.808026 -1.91694,-15.617921 -2.38918,-15.595287 -0.65959,0.03161 -0.0277,7.882927 0.38657,15.727525 0.41422,7.844597 0.61139,15.682477 0.59458,15.687221 -0.20389,0.05753 -0.51472,-7.935285 -1.23136,-15.936434 -0.71665,-8.001149 -1.83993,-16.010635 -2.08961,-15.98645 -0.43589,0.04222 0.36702,8.280119 0.89366,16.501798 0.52664,8.22168 0.77864,16.427142 0.90305,16.404496 -0.0633,0.01152 -0.28182,-8.040846 -0.94484,-16.088299 -0.66302,-8.047453 -1.77002,-16.089997 -2.01467,-16.058848 -0.43022,0.05477 0.31015,7.922888 0.81609,15.772992 0.50594,7.850104 0.77919,15.682198 0.92909,15.664935 -0.038,0.0044 -0.26198,-8.05599 -0.95939,-16.103902 -0.6974,-8.047913 -1.867,-16.08337 -2.19977,-16.029176 -0.51749,0.08428 0.27416,8.60434 0.66143,17.10328 0.38726,8.498939 0.37235,16.976755 0.0145,16.97654 -0.54631,-3.29e-4 -0.9738,-7.918302 -1.74226,-15.810346 -0.76846,-7.892045 -1.87535,-15.758161 -2.24307,-15.654778 -0.55022,0.154692 0.17057,8.851069 0.49478,17.4985 0.3242,8.64743 0.25699,17.245913 -0.0356,17.204817 -0.48131,-0.0676 -0.79646,-7.659167 -1.4497,-15.187204 -0.65323,-7.528036 -1.63861,-14.992545 -2.06079,-14.806032 -0.60253,0.266193 -0.25554,6.838715 0.0186,13.355095 0.27417,6.51638 0.47992,12.976618 0.62689,13.018242 -0.0426,-0.01206 -0.21464,-7.257257 -0.81109,-14.436901 -0.59645,-7.179643 -1.61143,-14.293737 -2.06151,-14.043604 -0.62785,0.34893 -0.16077,7.841227 0.0889,15.228657 0.2497,7.38743 0.29139,14.669991 0.14201,14.59945 -0.33931,-0.160232 -0.62014,-6.686846 -1.14583,-13.11693 -0.52569,-6.430085 -1.28857,-12.76364 -1.57266,-12.537756 -0.45926,0.365172 -0.17518,6.019481 0.0471,11.591706 0.22233,5.572224 0.38834,11.062365 0.44222,11.0992 -0.13793,-0.09429 -0.35967,-5.974742 -0.83959,-11.744686 -0.47992,-5.769945 -1.21001,-11.429382 -1.53739,-11.081645 -0.48743,0.517743 -0.34683,5.08713 -0.18457,9.49507 0.1627,4.419631 0.34335,8.712888 0.3676,8.736825 -0.1719,-0.169709 -0.4574,-5.091981 -0.98387,-9.674947 -0.52632,-4.581706 -1.27206,-8.827886 -1.83,-7.639108 -0.70636,1.505027 -0.82777,5.181006 -0.78435,8.526086 0.0435,3.353226 0.25601,6.457083 0.40464,6.858597 -0.11607,-0.313561 -0.77343,-9.034673 -0.77343,-9.034673 0,0 0.41865,8.943713 0.8173,10.029589 0.41623,1.133774 0.46734,-2.390738 0.40106,-6.367632 -0.0658,-3.946526 -0.25872,-8.414915 0.0257,-9.017051 0.45695,-0.967309 1.1176,3.218278 1.62285,7.70987 0.50562,4.49483 0.83629,9.305379 1.13803,9.604185 0.50402,0.499108 0.57897,-4.049725 0.41449,-8.712927 -0.16472,-4.669859 -0.58415,-9.474058 -0.54173,-9.518968 0.21403,-0.226606 0.85774,5.389123 1.3165,11.10693 0.45877,5.717808 0.72539,11.537694 0.99063,11.719401 0.45665,0.312832 0.56043,-5.363026 0.34465,-11.115526 -0.21578,-5.7525 -0.75669,-11.581643 -0.76458,-11.57538 0.16771,-0.133026 0.84369,6.170633 1.34717,12.562554 0.50348,6.391921 0.82755,12.872106 1.29281,13.092132 0.65492,0.309718 0.89028,-7.104572 0.65544,-14.61766 -0.23485,-7.513089 -0.94916,-15.124974 -0.7951,-15.210447 0.33213,-0.184269 1.25906,6.911929 1.83147,14.066158 0.57241,7.15423 0.78515,14.366491 0.95398,14.414347 0.35822,0.101544 0.42419,-6.464933 0.16378,-13.070225 -0.26041,-6.605291 -0.85035,-13.249397 -0.7286,-13.303112 0.30235,-0.133393 1.19979,7.32228 1.82844,14.832619 0.62864,7.51034 0.98342,15.075345 1.59027,15.160617 0.79548,0.111776 1.14128,-8.555118 0.83913,-17.254424 -0.30215,-8.699305 -1.25574,-17.431023 -1.19212,-17.448893 0.24627,-0.06918 1.26524,7.796901 2.00837,15.680375 0.74313,7.883474 1.20873,15.784344 1.88069,15.784748 0.86041,5.18e-4 1.15137,-8.517409 0.78716,-17.036479 -0.36421,-8.519071 -1.38372,-17.039284 -1.35881,-17.04334 0.20973,-0.03414 1.29209,8.008532 1.96413,16.055037 0.67204,8.046505 0.93338,16.096844 1.09671,16.078041 0.35131,-0.04044 0.35048,-7.904039 -0.13373,-15.755468 -0.4842,-7.851429 -1.45059,-15.690689 -1.51526,-15.682459 0.12098,-0.0154 1.14129,8.038534 1.77909,16.087742 0.63781,8.049208 0.89358,16.093693 1.08205,16.059405 0.37624,-0.06845 0.39696,-8.297961 -0.1064,-16.508892 -0.50336,-8.21093 -1.52892,-16.40328 -1.58961,-16.397402 0.12557,-0.01216 1.16307,8.01492 1.85478,16.021861 0.69171,8.00694 1.03962,15.993741 1.36851,15.901023 0.51611,-0.145504 0.58951,-7.995356 0.1984,-15.81075 -0.39111,-7.815394 -1.24343,-15.596329 -1.08343,-15.603997 0.34739,-0.01665 1.46123,7.823025 2.15653,15.644442 0.69531,7.821418 0.97386,15.624581 1.16088,15.534919 0.37334,-0.17899 0.37505,-7.784217 -0.0961,-15.344215 -0.47115,-7.559998 -1.411,-15.074766 -1.523,-15.072839 0.0761,-0.0013 1.02048,7.723635 1.65365,15.403953 0.63316,7.680318 0.95934,15.31601 1.25862,15.136198 0.4851,-0.291464 0.552,-7.552015 0.23458,-14.739701 -0.31743,-7.187685 -1.01287,-14.302504 -0.79477,-14.302504 0.40655,0 1.42635,7.263681 2.17445,14.384364 0.74811,7.120683 1.23754,14.098367 1.85381,13.526375 0.80012,-0.742633 0.9787,-8.468249 0.64277,-16.008206 -0.33593,-7.539958 -1.17,-14.894257 -1.03449,-14.894257 0.32398,0 1.30628,6.674343 2.02743,13.621831 0.72115,6.947489 1.15964,14.168123 1.52909,15.260705 0.585,1.730072 0.52538,-5.163192 0.0113,-12.425816 -0.51527,-7.279807 -1.53743,-14.991774 -1.53743,-14.991774 z m -0.17093,9.088969 c 0,0 0.54061,2.172901 0.43227,4.620035 -0.0961,2.171481 -0.62265,0.681421 -1.12266,-0.581979 -0.59372,-1.500179 -1.59001,-3.484033 -1.94433,-3.484033 -0.54279,0 0.10421,2.112852 0.43032,4.213169 0.32611,2.100317 0.33697,4.1881 0.39655,4.137961 -0.12979,0.109224 -0.16718,-2.01734 -0.81056,-4.17121 -0.64338,-2.15387 -1.90551,-4.335046 -2.50123,-4.335046 -0.78417,0 -0.084,2.456073 0.10761,4.934439 0.19165,2.478366 -0.13664,4.979025 -0.40676,5.068195 -0.464,0.153173 -0.4185,-2.748263 -1.32028,-5.6645 -0.90177,-2.916237 -2.76034,-5.847275 -3.36665,-5.75331 -0.78075,0.121001 0.46877,3.397003 0.79025,6.642613 0.32147,3.24561 -0.26465,6.460827 -0.30902,6.460258 -0.2324,-0.003 0.21832,-3.285698 -0.4477,-6.553174 -0.66603,-3.267475 -2.4382,-6.519708 -2.58699,-6.46172 -0.30581,0.119188 1.0489,3.16138 1.52267,6.173851 0.47377,3.012471 0.0851,5.995221 0.0872,5.995523 -0.18292,-0.02653 0.0627,-2.706918 -0.43259,-5.362623 -0.49526,-2.655705 -1.71738,-5.286725 -1.84376,-5.214509 -0.2777,0.158681 1.04023,3.716418 1.1324,7.237882 0.0922,3.521464 -1.0151,7.006653 -0.97079,7.020237 -0.12715,-0.03898 0.96231,-3.677904 0.6435,-7.262928 -0.31881,-3.585024 -2.0043,-7.116144 -2.20281,-6.939506 -0.29539,0.262843 0.28427,2.42302 0.52581,4.385568 0.24588,1.997896 0.15905,3.904207 0.0473,3.836057 -0.28793,-0.175663 -0.4617,-0.928239 -0.67927,-1.456518 -0.22526,-0.546933 -0.47614,-0.855197 -0.85013,-0.235509 -1.10035,1.823245 -0.72457,2.897455 -0.72457,2.897455 0,0 0.56628,-1.577165 0.77975,-1.902539 0.28975,-0.441655 0.45867,-0.160909 0.65047,0.315798 0.18705,0.464894 0.38786,1.122742 0.79002,1.376229 0.60965,0.384261 1.07011,-1.705969 0.90601,-3.850273 -0.16493,-2.155229 -1.01664,-4.397304 -1.04716,-4.371352 0.11246,-0.0956 1.5262,3.417998 1.64994,6.974003 0.12375,3.556005 -1.07445,7.154414 -0.8369,7.22843 0.40626,0.126576 2.01333,-3.4739 2.09374,-7.088047 0.0804,-3.614146 -1.37657,-7.241964 -1.50616,-7.170071 0.0263,-0.01457 1.03467,2.607504 1.38431,5.244327 0.34965,2.636822 0.0324,5.288391 0.33627,5.332805 0.48749,0.07124 1.30679,-2.993105 0.97223,-6.064261 -0.33456,-3.071156 -1.82746,-6.149121 -1.9427,-6.105113 0.045,-0.01719 1.57449,3.23424 2.0625,6.491114 0.48802,3.256874 -0.0692,6.519192 0.28834,6.52378 0.54543,0.007 1.55826,-3.244265 1.39657,-6.509506 -0.16168,-3.265241 -1.50746,-6.544459 -1.18932,-6.593365 0.494,-0.07594 2.14068,2.876431 2.8832,5.798829 0.74252,2.922399 0.60024,5.814822 1.20379,5.618981 0.85881,-0.27867 1.48266,-2.741676 1.40977,-5.1962 -0.0723,-2.435698 -0.86666,-4.806435 -0.58504,-4.806435 0.47008,0 1.57239,2.234297 2.09773,4.414728 0.52534,2.18043 0.49974,4.306994 0.7671,4.091529 0.50615,-0.407914 0.75709,-2.429524 0.52094,-4.456686 -0.23229,-1.994076 -0.94924,-3.894444 -0.90901,-3.894444 0.22869,0 1.13214,2.221032 1.64019,3.8398 0.38957,1.241265 0.94337,3.012773 1.21315,0.226212 0.27734,-2.864515 -0.25579,-4.780405 -0.36973,-5.147919 -0.19401,-0.625768 -0.25586,-0.467032 -0.25586,-0.467032 z"
         style="font-family:'Roboto Slab';-inkscape-font-specification:'Roboto Slab, @wght=700';font-variation-settings:'wght' 700"
         id="path92126"
         inkscape:original-d="m 169.71989,73.951085 q -8.17499,0 -12.99875,-4.366768 -4.82375,-4.417544 -4.82375,-11.983222 0,-5.17919 2.7927,-9.08897 2.84348,-3.90978 8.32732,-6.14394 5.53463,-2.23416 13.60807,-2.23416 h 7.26102 v -4.06211 q 0,-3.960556 -2.33571,-6.397822 -2.28494,-2.488042 -6.90559,-2.488042 -2.38649,0 -4.26521,0.609317 -1.87873,0.55854 -3.4528,1.624843 l -1.16785,7.261021 H 155.0963 l -0.2031,-14.268159 q 4.31599,-2.437266 9.34285,-3.960557 5.02686,-1.523291 11.22157,-1.523291 10.76459,0 17.01009,5.026861 6.24549,4.976084 6.24549,14.268159 v 22.646259 q 0,1.11708 0,2.23416 0.0508,1.066304 0.2031,2.081831 l 5.73773,0.812422 v 8.885864 h -18.38104 q -0.55854,-1.421738 -1.11708,-3.046582 -0.55854,-1.624844 -0.81242,-3.249688 -2.64037,3.351241 -6.2455,5.382295 -3.55434,1.980279 -8.3781,1.980279 z m 3.96056,-10.967696 q 3.09736,0 5.89006,-1.370961 2.7927,-1.421739 4.31599,-3.706675 v -8.682759 h -7.3118 q -4.87453,0 -7.41335,2.23416 -2.48804,2.23416 -2.48804,5.382295 0,2.945029 1.82795,4.569873 1.87873,1.574067 5.17919,1.574067 z" />
    </g>
    <text
       xml:space="preserve"
       style="font-size:8.59018px;line-height:1.25;font-family:sans-serif;letter-spacing:0px;word-spacing:0px;fill:#008080;stroke-width:0.264583"
       x="134.98517"
       y="79.857422"
       id="text96495"><tspan
         sodipodi:role="line"
         id="tspan96493"
         style="fill:#008080;stroke-width:0.264583"
         x="134.98517"
         y="79.857422">Hatches</tspan></text>
    <g
       aria-label="a"
       id="text99999"
       style="font-size:103.99px;line-height:1.25;letter-spacing:0px;word-spacing:0px;fill:#008080;stroke:#008080;stroke-width:0.264583"
       inkscape:path-effect="#path-effect100767"
       transform="translate(-32.203577,-1.0862858)">
      <path
         d="m 240.86486,62.496272 c -0.35698,0.01729 -0.7195,0.02594 -1.08756,0.02594 -0.59802,0 -1.1826,-0.01753 -1.75372,-0.05258 m -3.47541,-0.464447 c -1.18703,-0.254007 -2.30223,-0.601606 -3.34561,-1.042797 m -3.05871,-1.706203 c -0.47551,-0.340318 -0.93061,-0.707232 -1.3653,-1.100742 -0.41429,-0.379402 -0.80189,-0.776221 -1.16281,-1.190455 m -1.87161,-2.744779 c -0.50213,-0.965364 -0.89857,-1.999699 -1.18934,-3.103003 m -0.53887,-3.281434 c -0.0408,-0.541217 -0.0611,-1.095734 -0.0611,-1.663551 0,-0.408486 0.013,-0.81105 0.0391,-1.207692 m 0.33042,-2.392204 c 0.17183,-0.797961 0.40359,-1.568681 0.69528,-2.312161 m 1.06548,-2.166473 c 0.20588,-0.343597 0.42669,-0.68041 0.66243,-1.01044 0.25592,-0.351895 0.52789,-0.693609 0.8159,-1.025143 m 1.87407,-1.828537 c 0.65392,-0.543836 1.3636,-1.052289 2.12903,-1.52536 m 2.30727,-1.240723 c 0.38921,-0.181802 0.78956,-0.356528 1.20106,-0.524177 0.52606,-0.212355 1.06933,-0.409572 1.62979,-0.591651 m 3.35579,-0.868884 c 1.09056,-0.217912 2.23344,-0.389789 3.42863,-0.51563 m 3.45992,-0.231323 c 0.56787,-0.01778 1.14585,-0.02667 1.73393,-0.02667 h 0.90763 m 1.81525,0 h 1.81526 m 1.81525,0 h 0.90763 V 28.19739 m 0,-1.015527 v -1.015528 m 0,-1.015527 v -0.507764 c 0,-0.297388 -0.01,-0.588334 -0.0296,-0.872839 m -0.25953,-1.725617 C 253.515,21.462258 253.3246,20.912962 253.08355,20.3967 m -0.90578,-1.489752 c -0.17661,-0.229214 -0.36647,-0.449789 -0.56958,-0.661726 -0.2135,-0.232482 -0.4423,-0.448671 -0.6864,-0.648568 m -1.60662,-0.98543 c -0.54879,-0.24598 -1.14746,-0.438825 -1.79602,-0.578535 m -1.87209,-0.248086 c -0.30623,-0.01828 -0.62105,-0.02742 -0.94445,-0.02742 -0.18246,0 -0.36269,0.0027 -0.54069,0.008 m -1.07922,0.06775 c -0.36772,0.03579 -0.72487,0.08426 -1.07145,0.145416 m -1.05551,0.23423 c -0.17589,0.04757 -0.34867,0.09888 -0.51835,0.153908 -0.15369,0.04569 -0.30584,0.09393 -0.45647,0.144716 m -0.89535,0.339499 c -0.29534,0.124927 -0.5843,0.26051 -0.86685,0.406747 m -0.83247,0.473141 c -0.1355,0.08423 -0.26938,0.171138 -0.40165,0.26074 l -0.14598,0.907628 m -0.29197,1.815255 -0.29196,1.815255 m -0.29197,1.815255 -0.14598,0.907628 h -1.33288 m -2.66576,0 h -2.66576 m -2.66576,0 h -1.33288 l -0.0254,-1.78352 m -0.0508,-3.56704 -0.0508,-3.567039 m -0.0508,-3.56704 -0.0254,-1.78352 c 0.36806,-0.207844 0.73999,-0.410703 1.1158,-0.608578 m 2.28226,-1.1187164 c 0.76569,-0.3485922 1.54624,-0.6780863 2.34164,-0.9884823 m 2.39151,-0.8609268 c 0.40038,-0.1324531 0.80426,-0.2604042 1.21164,-0.3838533 0.44918,-0.1361147 0.90535,-0.2631075 1.36852,-0.3809783 m 2.77988,-0.5839041 c 0.91468,-0.153728 1.8537,-0.2757153 2.81705,-0.3659621 m 2.83565,-0.1719777 c 0.46826,-0.013646 0.94176,-0.020469 1.42048,-0.020469 0.77063,0 1.52389,0.019322 2.25978,0.057966 m 4.48909,0.5141699 c 1.54921,0.2843395 3.00315,0.6746621 4.3618,1.1709676 m 4.05914,1.9729049 c 0.64304,0.4040074 1.25646,0.8409581 1.84027,1.3108511 0.53458,0.425924 1.03484,0.875564 1.50078,1.34892 m 2.43238,3.209233 c 0.65265,1.144795 1.16714,2.385062 1.54347,3.720802 m 0.69132,3.972087 c 0.0517,0.654511 0.0775,1.326884 0.0775,2.017117 v 2.830782 m 0,5.661565 v 5.661565 m 0,5.661565 v 2.830783 0.27927 m 0,0.55854 v 0.55854 m 0,0.55854 v 0.27927 c 0.004,0.08732 0.009,0.174388 0.014,0.261199 m 0.0376,0.52179 c 0.0147,0.174622 0.0316,0.348185 0.0506,0.52069 m 0.0639,0.519218 c 0.0118,0.08658 0.0242,0.172896 0.0371,0.258934 l 0.71722,0.101553 m 1.43443,0.203105 1.43443,0.203106 m 1.43443,0.203105 0.71722,0.101553 v 1.110733 m 0,2.221466 v 2.221466 m 0,2.221466 v 1.110733 h -2.29763 m -4.59526,0 h -4.59527 m -4.59526,0 h -2.29763 c -0.049,-0.124834 -0.0981,-0.250842 -0.14713,-0.378025 m -0.28736,-0.758689 c -0.093,-0.249737 -0.1859,-0.503693 -0.27884,-0.761866 m -0.271,-0.764692 c -0.0443,-0.126814 -0.0885,-0.254584 -0.13275,-0.38331 -0.0456,-0.13262 -0.0897,-0.26524 -0.1322,-0.39786 m -0.23916,-0.803613 c -0.0744,-0.271074 -0.14242,-0.542149 -0.20409,-0.813223 m -0.16744,-0.82155 c -0.0248,-0.137814 -0.048,-0.275628 -0.0695,-0.413442 -0.21526,0.273216 -0.43533,0.539851 -0.66021,0.799906 m -1.4292,1.502586 c -0.50262,0.479837 -1.02558,0.931842 -1.56887,1.356015 m -1.69645,1.192524 c -0.29184,0.184036 -0.58876,0.361124 -0.89076,0.531264 -0.31575,0.175916 -0.63901,0.340111 -0.96978,0.492586 m -2.03585,0.762754 c -0.68033,0.200987 -1.38745,0.360181 -2.12136,0.477583 m -2.16355,0.221414 c -0.35698,0.01729 -0.7195,0.02594 -1.08756,0.02594 m 3.27013,-10.985738 c 0.22471,0.01203 0.45485,0.01804 0.69042,0.01804 0.25565,0 0.50975,-0.007 0.76229,-0.02101 m 1.51487,-0.171256 c 0.50135,-0.08628 0.99626,-0.201606 1.48471,-0.345969 m 1.43475,-0.51543 c 0.23269,-0.09881 0.46384,-0.204578 0.69344,-0.317292 0.2165,-0.110219 0.42728,-0.224329 0.63234,-0.34233 m 1.20376,-0.785689 c 0.39293,-0.290796 0.75899,-0.599871 1.09816,-0.927224 m 0.96131,-1.068188 c 0.14738,-0.189487 0.28753,-0.383901 0.42042,-0.583243 v -1.085345 m 0,-2.17069 v -2.170689 m 0,-2.17069 v -1.085345 h -0.91397 m -1.82795,0 h -1.82795 m -1.82795,0 h -0.91397 c -0.33803,0 -0.66763,0.0081 -0.98881,0.02417 m -1.9651,0.217528 c -0.68531,0.12264 -1.32182,0.291951 -1.90954,0.507932 m -1.76497,0.883885 c -0.278,0.184573 -0.53964,0.384787 -0.78493,0.600642 -0.19372,0.173951 -0.37612,0.352057 -0.54722,0.534319 m -0.93238,1.209938 c -0.27173,0.440236 -0.48854,0.900646 -0.65045,1.381228 m -0.32002,1.492951 c -0.0253,0.249971 -0.038,0.50459 -0.038,0.763859 0,0.216878 0.007,0.428387 0.0223,0.634526 m 0.19843,1.252817 c 0.10843,0.424419 0.25681,0.819985 0.44514,1.186698 m 0.71375,1.046596 c 0.13894,0.157325 0.28838,0.307071 0.44832,0.449236 0.17567,0.147185 0.36067,0.284047 0.55499,0.410588 m 1.23233,0.618471 c 0.4134,0.155405 0.85682,0.277576 1.33026,0.366512 m 1.37119,0.160453 c 0.22471,0.01203 0.45485,0.01804 0.69042,0.01804"
         style="font-family:'Roboto Slab';-inkscape-font-specification:'Roboto Slab, @wght=700';font-variation-settings:'wght' 700;stroke:#008080"
         id="path100317"
         inkscape:original-d="m 239.7773,62.522213 q -8.175,0 -12.99875,-4.366767 -4.82376,-4.417544 -4.82376,-11.983222 0,-5.17919 2.7927,-9.08897 2.84348,-3.90978 8.32733,-6.14394 5.53462,-2.23416 13.60806,-2.23416 h 7.26102 v -4.06211 q 0,-3.960556 -2.33571,-6.397822 -2.28494,-2.488042 -6.90558,-2.488042 -2.38649,0 -4.26522,0.609317 -1.87873,0.55854 -3.45279,1.624843 l -1.16786,7.261021 H 225.1537 l -0.2031,-14.268159 q 4.31599,-2.4372658 9.34285,-3.9605568 5.02686,-1.523291 11.22158,-1.523291 10.76459,0 17.01008,5.0268598 6.24549,4.976084 6.24549,14.268159 v 22.64626 q 0,1.11708 0,2.23416 0.0508,1.066303 0.20311,2.081831 l 5.73773,0.812422 v 8.885864 h -18.38105 q -0.55854,-1.421739 -1.11708,-3.046582 -0.55854,-1.624844 -0.81242,-3.249688 -2.64037,3.35124 -6.24549,5.382295 -3.55435,1.980278 -8.3781,1.980278 z m 3.96055,-10.967695 q 3.09736,0 5.89006,-1.370962 2.7927,-1.421738 4.31599,-3.706674 v -8.682759 h -7.31179 q -4.87453,0 -7.41335,2.23416 -2.48804,2.23416 -2.48804,5.382295 0,2.945029 1.82794,4.569873 1.87873,1.574067 5.17919,1.574067 z" />
    </g>
    <g
       aria-label="a"
       id="text107217"
       style="font-size:103.99px;line-height:1.25;letter-spacing:0px;word-spacing:0px;fill:none;stroke:#008080;stroke-width:0.352778;stroke-linecap:butt;stroke-miterlimit:4;stroke-dasharray:none"
       inkscape:path-effect="#path-effect107240"
       transform="translate(-33.347393,-0.76196848)">
      <path
         d="m 312.16772,62.522213 q -8.17499,0 -12.99875,-4.366767 -4.82375,-4.417544 -4.82375,-11.983222 0,-5.17919 2.7927,-9.08897 2.84348,-3.90978 8.32732,-6.14394 5.53463,-2.23416 13.60807,-2.23416 h 7.26102 v -4.06211 q 0,-3.960556 -2.33571,-6.397822 -2.28494,-2.488042 -6.90559,-2.488042 -2.38649,0 -4.26521,0.609317 -1.87873,0.55854 -3.4528,1.624843 l -1.16785,7.261021 h -10.66304 l -0.2031,-14.268159 q 4.31599,-2.4372658 9.34285,-3.9605568 5.02686,-1.523291 11.22157,-1.523291 10.76459,0 17.01009,5.0268598 6.24549,4.976084 6.24549,14.268159 v 22.64626 q 0,1.11708 0,2.23416 0.0508,1.066303 0.2031,2.081831 l 5.73773,0.812422 v 8.885864 h -18.38104 q -0.55854,-1.421739 -1.11708,-3.046582 -0.55854,-1.624844 -0.81242,-3.249688 -2.64037,3.35124 -6.2455,5.382295 -3.55434,1.980278 -8.3781,1.980278 z m 3.96056,-10.967695 q 3.09736,0 5.89006,-1.370962 2.7927,-1.421738 4.31599,-3.706674 v -8.682759 h -7.3118 q -4.87453,0 -7.41335,2.23416 -2.48804,2.23416 -2.48804,5.382295 0,2.945029 1.82795,4.569873 1.87873,1.574067 5.17919,1.574067 z m -5.72445,9.203805 h 3.52778 v 3.52778 h -3.52778 z m -2.45138,1.76389 a 1.234723,1.234723 0 0 1 -1.23472,1.234723 1.234723,1.234723 0 0 1 -1.23473,-1.234723 1.234723,1.234723 0 0 1 1.23473,-1.234723 1.234723,1.234723 0 0 1 1.23472,1.234723 z m 4.21527,0 h -4.21527 m -4.33292,-1.455589 a 1.234723,1.234723 0 0 1 -1.23472,1.234723 1.234723,1.234723 0 0 1 -1.23472,-1.234723 1.234723,1.234723 0 0 1 1.23472,-1.234723 1.234723,1.234723 0 0 1 1.23472,1.234723 z m -4.45056,-2.911178 2.30048,2.082534 m -4.06437,-3.846424 h 3.52778 v 3.52778 h -3.52778 z m -0.21722,-1.181139 a 1.234723,1.234723 0 0 1 -1.23472,1.234723 1.234723,1.234723 0 0 1 -1.23473,-1.234723 1.234723,1.234723 0 0 1 1.23473,-1.234723 1.234723,1.234723 0 0 1 1.23472,1.234723 z m 1.98111,2.945029 -2.30525,-2.11113 m -1.28378,-4.828307 a 1.234723,1.234723 0 0 1 -1.23472,1.234723 1.234723,1.234723 0 0 1 -1.23472,-1.234723 1.234723,1.234723 0 0 1 1.23472,-1.234723 1.234723,1.234723 0 0 1 1.23472,1.234723 z m -1.23472,-5.043785 v 3.809062 m -1.76389,-5.572952 h 3.52778 v 3.52778 h -3.52778 z m 2.99861,-1.688903 a 1.234723,1.234723 0 0 1 -1.23472,1.234723 1.234723,1.234723 0 0 1 -1.23472,-1.234723 1.234723,1.234723 0 0 1 1.23472,-1.234723 1.234723,1.234723 0 0 1 1.23472,1.234723 z m -1.23472,3.452793 v -2.21807 m 2.16562,-4.26438 a 1.234723,1.234723 0 0 1 -1.23472,1.234723 1.234723,1.234723 0 0 1 -1.23472,-1.234723 1.234723,1.234723 0 0 1 1.23472,-1.234723 1.234723,1.234723 0 0 1 1.23472,1.234723 z m 0.62708,-2.60652 -1.14413,1.601785 m -0.61976,-3.365675 h 3.52778 v 3.52778 h -3.52778 z m 4.89427,-0.84263 a 1.234723,1.234723 0 0 1 -1.23473,1.234723 1.234723,1.234723 0 0 1 -1.23472,-1.234723 1.234723,1.234723 0 0 1 1.23472,-1.234723 1.234723,1.234723 0 0 1 1.23473,1.234723 z m -3.13038,2.60652 1.16942,-1.607955 m 4.73673,-3.046545 a 1.234723,1.234723 0 0 1 -1.23472,1.234723 1.234723,1.234723 0 0 1 -1.23473,-1.234723 1.234723,1.234723 0 0 1 1.23473,-1.234723 1.234723,1.234723 0 0 1 1.23472,1.234723 z m 2.42117,-1.48944 -2.51243,1.023582 m 0.74854,-2.787472 h 3.52778 v 3.52778 h -3.52778 z m 6.68837,0.27445 a 1.234723,1.234723 0 0 1 -1.23473,1.234723 1.234723,1.234723 0 0 1 -1.23472,-1.234723 1.234723,1.234723 0 0 1 1.23472,-1.234723 1.234723,1.234723 0 0 1 1.23473,1.234723 z m -4.92448,1.48944 2.5448,-1.027256 m 6.9157,-1.206904 a 1.234723,1.234723 0 0 1 -1.23472,1.234723 1.234723,1.234723 0 0 1 -1.23473,-1.234723 1.234723,1.234723 0 0 1 1.23473,-1.234723 1.234723,1.234723 0 0 1 1.23472,1.234723 z m 4.14757,0 -4.14757,0 m 2.38368,-1.76389 h 3.52778 v 3.52778 h -3.52778 z m 9.02491,-0.730627 2.49452,2.494517 -2.49452,2.494517 -2.49452,-2.494517 z m -1.76389,-3.331483 h 3.52778 v 3.52778 h -3.52778 z m 2.99861,-0.876481 a 1.234723,1.234723 0 0 1 -1.23472,1.234723 1.234723,1.234723 0 0 1 -1.23472,-1.234723 1.234723,1.234723 0 0 1 1.23472,-1.234723 1.234723,1.234723 0 0 1 1.23472,1.234723 z m -1.23472,2.640371 v -1.405648 m 0.45615,-3.36733 a 1.234723,1.234723 0 0 1 -1.23472,1.234723 1.234723,1.234723 0 0 1 -1.23472,-1.234723 1.234723,1.234723 0 0 1 1.23472,-1.234723 1.234723,1.234723 0 0 1 1.23472,1.234723 z m -2.79186,-1.624844 0.70283,0.733388 m -2.46672,-2.497278 h 3.52778 v 3.52778 h -3.52778 z m 1.47532,0.105195 a 1.234723,1.234723 0 0 1 -1.23472,1.234723 1.234723,1.234723 0 0 1 -1.23473,-1.234723 1.234723,1.234723 0 0 1 1.23473,-1.234723 1.234723,1.234723 0 0 1 1.23472,1.234723 z m 0.28857,1.658695 -0.68812,-0.749285 m -1.90231,-1.738757 a 1.234723,1.234723 0 0 1 -1.23473,1.234723 1.234723,1.234723 0 0 1 -1.23472,-1.234723 1.234723,1.234723 0 0 1 1.23472,-1.234723 1.234723,1.234723 0 0 1 1.23473,1.234723 z m -4.31516,0 h 1.84571 m -3.6096,-1.76389 h 3.52778 v 3.52778 h -3.52778 z m 1.40762,1.76389 a 1.234723,1.234723 0 0 1 -1.23472,1.234723 1.234723,1.234723 0 0 1 -1.23473,-1.234723 1.234723,1.234723 0 0 1 1.23473,-1.234723 1.234723,1.234723 0 0 1 1.23472,1.234723 z m 0.35627,0 -0.35627,0 m -1.42174,0.203106 a 1.234723,1.234723 0 0 1 -1.23472,1.234723 1.234723,1.234723 0 0 1 -1.23472,-1.234723 1.234723,1.234723 0 0 1 1.23472,-1.234723 1.234723,1.234723 0 0 1 1.23472,1.234723 z m -2.4872,0.406211 0.078,-0.02529 m -1.84187,-1.738598 h 3.52778 v 3.52778 h -3.52778 z m 1.74613,2.13625 a 1.234723,1.234723 0 0 1 -1.23473,1.234723 1.234723,1.234723 0 0 1 -1.23472,-1.234723 1.234723,1.234723 0 0 1 1.23472,-1.234723 1.234723,1.234723 0 0 1 1.23473,1.234723 z m 0.0178,-0.37236 -0.069,0.0205 m -1.09974,0.893473 a 1.234723,1.234723 0 0 1 -1.23472,1.234723 1.234723,1.234723 0 0 1 -1.23472,-1.234723 1.234723,1.234723 0 0 1 1.23472,-1.234723 1.234723,1.234723 0 0 1 1.23472,1.234723 z m -2.2841,0.710869 0.0271,-0.01838 m -0.0271,-2.476139 2.49452,2.494517 -2.49452,2.494517 -2.49452,-2.494517 z m -1.16785,7.261021 2.49452,2.494517 -2.49452,2.494517 -2.49452,-2.494517 z m -10.66304,0 2.49452,2.494517 -2.49452,2.494517 -2.49452,-2.494517 z m -0.2031,-14.2681591 2.49452,2.4945171 -2.49452,2.494517 -2.49452,-2.494517 z m 4.11205,0.8696732 a 1.234723,1.234723 0 0 1 -1.23472,1.2347229 1.234723,1.234723 0 0 1 -1.23473,-1.2347229 1.234723,1.234723 0 0 1 1.23473,-1.2347229 1.234723,1.234723 0 0 1 1.23472,1.2347229 z m -4.11205,1.6248439 1.80219,-1.0177062 m 5.42414,-1.9273233 a 1.234723,1.234723 0 0 1 -1.23472,1.234723 1.234723,1.234723 0 0 1 -1.23472,-1.234723 1.234723,1.234723 0 0 1 1.23472,-1.2347229 1.234723,1.234723 0 0 1 1.23472,1.2347229 z m 2.11652,-1.0155273 -2.16958,0.6574485 m 0.40569,-2.4213384 h 3.52778 v 3.5277798 h -3.52778 z m 6.34985,0.7483626 a 1.234723,1.234723 0 0 1 -1.23472,1.2347229 1.234723,1.234723 0 0 1 -1.23472,-1.2347229 1.234723,1.234723 0 0 1 1.23472,-1.234723 1.234723,1.234723 0 0 1 1.23472,1.234723 z m -4.58596,1.0155273 2.16958,-0.6574485 m 6.15691,-0.8658425 a 1.234723,1.234723 0 0 1 -1.23473,1.234723 1.234723,1.234723 0 0 1 -1.23472,-1.234723 1.234723,1.234723 0 0 1 1.23472,-1.234723 1.234723,1.234723 0 0 1 1.23473,1.234723 z m 2.89508,0 h -2.89508 m 1.13119,-1.7638899 h 3.52778 v 3.5277798 h -3.52778 z m 10.17501,1.7638899 a 1.234723,1.234723 0 0 1 -1.23473,1.234723 1.234723,1.234723 0 0 1 -1.23472,-1.234723 1.234723,1.234723 0 0 1 1.23472,-1.234723 1.234723,1.234723 0 0 1 1.23473,1.234723 z m -8.41112,0 h 5.94167 m 8.13948,1.6756199 a 1.234723,1.234723 0 0 1 -1.23473,1.234723 1.234723,1.234723 0 0 1 -1.23472,-1.234723 1.234723,1.234723 0 0 1 1.23472,-1.2347229 1.234723,1.234723 0 0 1 1.23473,1.2347229 z m 2.92894,3.3512399 -3.2018,-2.5770575 m 1.43791,0.8131676 h 3.52778 v 3.5277799 h -3.52778 z m 7.16227,5.0812789 a 1.234723,1.234723 0 0 1 -1.23472,1.234723 1.234723,1.234723 0 0 1 -1.23472,-1.234723 1.234723,1.234723 0 0 1 1.23472,-1.234723 1.234723,1.234723 0 0 1 1.23472,1.234723 z m -5.39838,-3.317389 3.19797,2.54798 m 4.28224,5.525462 a 1.234723,1.234723 0 0 1 -1.23472,1.234723 1.234723,1.234723 0 0 1 -1.23472,-1.234723 1.234723,1.234723 0 0 1 1.23472,-1.234723 1.234723,1.234723 0 0 1 1.23472,1.234723 z m -1.23472,6.194717 v -4.959994 m -1.76389,3.196104 h 3.52778 v 3.52778 h -3.52778 z m 0,22.64626 h 3.52778 v 3.52778 h -3.52778 z m 0,2.23416 h 3.52778 v 3.52778 h -3.52778 z m 3.03248,2.474759 a 1.234723,1.234723 0 0 1 -1.23472,1.234723 1.234723,1.234723 0 0 1 -1.23473,-1.234723 1.234723,1.234723 0 0 1 1.23473,-1.234723 1.234723,1.234723 0 0 1 1.23472,1.234723 z m -1.26859,-0.710869 0.0339,0.710869 m 1.30242,0.693943 a 1.234723,1.234723 0 0 1 -1.23472,1.234723 1.234723,1.234723 0 0 1 -1.23473,-1.234723 1.234723,1.234723 0 0 1 1.23473,-1.234723 1.234723,1.234723 0 0 1 1.23472,1.234723 z m -1.13319,0.677019 -0.10153,-0.677019 m 0.10153,-1.817498 2.49452,2.494517 -2.49452,2.494517 -2.49452,-2.494517 z m 5.73773,0.812422 2.49452,2.494517 -2.49452,2.494517 -2.49452,-2.494517 z m 0,8.885864 2.49452,2.494517 -2.49452,2.494517 -2.49452,-2.494517 z m -18.38104,0 2.49452,2.494517 -2.49452,2.494517 -2.49452,-2.494517 z m 0.86236,1.546691 a 1.234723,1.234723 0 0 1 -1.23472,1.234723 1.234723,1.234723 0 0 1 -1.23472,-1.234723 1.234723,1.234723 0 0 1 1.23472,-1.234723 1.234723,1.234723 0 0 1 1.23472,1.234723 z m -0.86236,0.947826 -0.37236,-0.947826 m 0.86236,-1.015527 a 1.234723,1.234723 0 0 1 -1.23472,1.234723 1.234723,1.234723 0 0 1 -1.23472,-1.234723 1.234723,1.234723 0 0 1 1.23472,-1.234723 1.234723,1.234723 0 0 1 1.23472,1.234723 z m -1.60708,-1.083229 0.37236,1.083229 m -2.13625,-2.847119 h 3.52778 v 3.52778 h -3.52778 z m 2.62625,0.680661 a 1.234723,1.234723 0 0 1 -1.23472,1.234723 1.234723,1.234723 0 0 1 -1.23472,-1.234723 1.234723,1.234723 0 0 1 1.23472,-1.234723 1.234723,1.234723 0 0 1 1.23472,1.234723 z m -0.86236,1.083229 -0.37236,-1.083229 m 0.96392,-1.08323 a 1.234723,1.234723 0 0 1 -1.23473,1.234723 1.234723,1.234723 0 0 1 -1.23472,-1.234723 1.234723,1.234723 0 0 1 1.23472,-1.234723 1.234723,1.234723 0 0 1 1.23473,1.234723 z m -1.40398,-1.083229 0.16925,1.083229 m -0.16925,-3.577746 2.49452,2.494517 -2.49452,2.494517 -2.49452,-2.494517 z M 326.2658,57.3938 a 1.234723,1.234723 0 0 1 -1.23473,1.234723 1.234723,1.234723 0 0 1 -1.23472,-1.234723 1.234723,1.234723 0 0 1 1.23472,-1.234723 1.234723,1.234723 0 0 1 1.23473,1.234723 z m 0.52552,-2.23416 -0.99611,1.264295 m -1.61125,2.763963 a 1.234723,1.234723 0 0 1 -1.23472,1.234723 1.234723,1.234723 0 0 1 -1.23472,-1.234723 1.234723,1.234723 0 0 1 1.23472,-1.234723 1.234723,1.234723 0 0 1 1.23472,1.234723 z m -3.63814,1.354037 1.32767,-0.747982 m -3.09156,-1.015908 h 3.52778 v 3.52778 h -3.52778 z m 0.62905,3.084075 a 1.234723,1.234723 0 0 1 -1.23472,1.234723 1.234723,1.234723 0 0 1 -1.23472,-1.234723 1.234723,1.234723 0 0 1 1.23472,-1.234723 1.234723,1.234723 0 0 1 1.23472,1.234723 z m 1.13484,-1.320185 -1.29095,0.719242 m -2.63659,1.261036 a 1.234723,1.234723 0 0 1 -1.23472,1.234723 1.234723,1.234723 0 0 1 -1.23472,-1.234723 1.234723,1.234723 0 0 1 1.23472,-1.234723 1.234723,1.234723 0 0 1 1.23472,1.234723 z m -4.45056,0 h 1.98112 m 0.21555,-12.731585 h 3.52778 v 3.52778 h -3.52778 z m 5.06352,1.76389 a 1.234723,1.234723 0 0 1 -1.23472,1.234723 1.234723,1.234723 0 0 1 -1.23473,-1.234723 1.234723,1.234723 0 0 1 1.23473,-1.234723 1.234723,1.234723 0 0 1 1.23472,1.234723 z m -3.29963,0 h 0.83018 m 4.4328,-0.456987 a 1.234723,1.234723 0 0 1 -1.23472,1.234723 1.234723,1.234723 0 0 1 -1.23472,-1.234723 1.234723,1.234723 0 0 1 1.23472,-1.234723 1.234723,1.234723 0 0 1 1.23472,1.234723 z m 0.62708,-0.913975 -0.75343,0.369865 m -1.01046,-2.133755 h 3.52778 v 3.52778 h -3.52778 z m 4.86041,0.816065 a 1.234723,1.234723 0 0 1 -1.23472,1.234723 1.234723,1.234723 0 0 1 -1.23472,-1.234723 1.234723,1.234723 0 0 1 1.23472,-1.234723 1.234723,1.234723 0 0 1 1.23472,1.234723 z m -3.09652,0.947825 0.76146,-0.387653 m 3.77373,-1.79573 a 1.234723,1.234723 0 0 1 -1.23473,1.234723 1.234723,1.234723 0 0 1 -1.23472,-1.234723 1.234723,1.234723 0 0 1 1.23472,-1.234723 1.234723,1.234723 0 0 1 1.23473,1.234723 z m -0.2192,-1.523291 -0.33063,0.495939 m 0.33063,-2.990456 2.49452,2.494517 -2.49452,2.494517 -2.49452,-2.494517 z m 0,-8.682759 2.49452,2.494517 -2.49452,2.494517 -2.49452,-2.494517 z m -9.07569,0.730627 h 3.52778 v 3.52778 h -3.52778 z m -0.25107,1.76389 a 1.234723,1.234723 0 0 1 -1.23473,1.234723 1.234723,1.234723 0 0 1 -1.23472,-1.234723 1.234723,1.234723 0 0 1 1.23472,-1.234723 1.234723,1.234723 0 0 1 1.23473,1.234723 z m 2.01496,0 h -2.01496 m -2.47112,0.74472 a 1.234723,1.234723 0 0 1 -1.23472,1.234723 1.234723,1.234723 0 0 1 -1.23473,-1.234723 1.234723,1.234723 0 0 1 1.23473,-1.234723 1.234723,1.234723 0 0 1 1.23472,1.234723 z m -2.92727,1.48944 0.76562,-0.673748 m -2.52951,-1.090142 h 3.52778 v 3.52778 h -3.52778 z m 1.33992,3.25333 a 1.234723,1.234723 0 0 1 -1.23472,1.234723 1.234723,1.234723 0 0 1 -1.23473,-1.234723 1.234723,1.234723 0 0 1 1.23473,-1.234723 1.234723,1.234723 0 0 1 1.23472,1.234723 z m 0.42397,-1.48944 -0.74,0.66449 m -0.51332,2.619048 a 1.234723,1.234723 0 0 1 -1.23472,1.234723 1.234723,1.234723 0 0 1 -1.23472,-1.234723 1.234723,1.234723 0 0 1 1.23472,-1.234723 1.234723,1.234723 0 0 1 1.23472,1.234723 z m -1.23472,2.098757 v -0.864034 m -1.76389,-0.899856 h 3.52778 v 3.52778 h -3.52778 z m 2.99861,3.727243 a 1.234723,1.234723 0 0 1 -1.23472,1.234723 1.234723,1.234723 0 0 1 -1.23472,-1.234723 1.234723,1.234723 0 0 1 1.23472,-1.234723 1.234723,1.234723 0 0 1 1.23472,1.234723 z m -1.23472,-1.963353 v 0.72863 m 1.84404,2.758014 a 1.234723,1.234723 0 0 1 -1.23472,1.234723 1.234723,1.234723 0 0 1 -1.23473,-1.234723 1.234723,1.234723 0 0 1 1.23473,-1.234723 1.234723,1.234723 0 0 1 1.23472,1.234723 z m -0.0161,1.083229 -0.29579,-0.262924 m -1.4681,-1.500966 h 3.52778 v 3.52778 h -3.52778 z m 4.2511,2.813268 a 1.234723,1.234723 0 0 1 -1.23472,1.234723 1.234723,1.234723 0 0 1 -1.23473,-1.234723 1.234723,1.234723 0 0 1 1.23473,-1.234723 1.234723,1.234723 0 0 1 1.23472,1.234723 z m -2.48721,-1.049378 0.30605,0.256416 m 3.90756,1.317651 a 1.234723,1.234723 0 0 1 -1.23473,1.234723 1.234723,1.234723 0 0 1 -1.23472,-1.234723 1.234723,1.234723 0 0 1 1.23472,-1.234723 1.234723,1.234723 0 0 1 1.23473,1.234723 z m 0.96558,0 -0.96558,0"
         style="font-family:'Roboto Slab';-inkscape-font-specification:'Roboto Slab, @wght=700';font-variation-settings:'wght' 700;fill:none;stroke:#008080;stroke-width:0.352778;stroke-linecap:butt;stroke-miterlimit:4;stroke-dasharray:none"
         id="path107219"
         inkscape:original-d="m 312.16772,62.522213 q -8.17499,0 -12.99875,-4.366767 -4.82375,-4.417544 -4.82375,-11.983222 0,-5.17919 2.7927,-9.08897 2.84348,-3.90978 8.32732,-6.14394 5.53463,-2.23416 13.60807,-2.23416 h 7.26102 v -4.06211 q 0,-3.960556 -2.33571,-6.397822 -2.28494,-2.488042 -6.90559,-2.488042 -2.38649,0 -4.26521,0.609317 -1.87873,0.55854 -3.4528,1.624843 l -1.16785,7.261021 h -10.66304 l -0.2031,-14.268159 q 4.31599,-2.4372658 9.34285,-3.9605568 5.02686,-1.523291 11.22157,-1.523291 10.76459,0 17.01009,5.0268598 6.24549,4.976084 6.24549,14.268159 v 22.64626 q 0,1.11708 0,2.23416 0.0508,1.066303 0.2031,2.081831 l 5.73773,0.812422 v 8.885864 h -18.38104 q -0.55854,-1.421739 -1.11708,-3.046582 -0.55854,-1.624844 -0.81242,-3.249688 -2.64037,3.35124 -6.2455,5.382295 -3.55434,1.980278 -8.3781,1.980278 z m 3.96056,-10.967695 q 3.09736,0 5.89006,-1.370962 2.7927,-1.421738 4.31599,-3.706674 v -8.682759 h -7.3118 q -4.87453,0 -7.41335,2.23416 -2.48804,2.23416 -2.48804,5.382295 0,2.945029 1.82795,4.569873 1.87873,1.574067 5.17919,1.574067 z" />
    </g>
    <g
       aria-label="a"
       id="text112277"
       style="font-size:103.99px;line-height:1.25;letter-spacing:0px;word-spacing:0px;fill:#008080;stroke:#008080;stroke-width:0.264583"
       inkscape:path-effect="#path-effect112645"
       transform="translate(-14.027572,-1.0862858)">
      <path
         d="m 358.41162,62.522213 3.96056,-10.967695 M 351.94146,61.66111 363.65013,51.492308 m -17.46886,7.31053 18.73477,-7.495193 m -22.69205,2.452944 23.93475,-2.757113 m -25.52527,-3.531053 26.73359,3.110327 m -25.96966,-9.544103 27.13058,9.005894 m -23.82514,-14.534489 24.92344,13.873079 m -19.6587,-17.655826 20.68215,16.885523 m -14.55076,-19.018481 15.47862,18.140371 m -9.0161,-18.964565 9.82763,17.979732 m -3.30813,-18.044731 3.49724,16.82387 m 0,-19.84152 v 18.561282 m -1.40954,-24.815859 1.40954,23.535622 m -6.66658,-26.970353 6.66658,25.690115 m -13.14804,-25.431267 13.14804,24.15103 M 355.25229,20.27079 372.57823,39.127836 m -19.59647,-13.875475 19.59647,12.595237 m -26.11136,-12.595237 24.8846,12.541762 M 343.73343,21.4167 370.07123,37.794123 M 343.6407,14.902468 368.79099,37.794123 M 345.88234,9.7766842 367.51075,37.794123 M 351.91935,7.3408693 366.23052,37.794123 M 358.25457,5.8795469 364.94959,37.796525 M 364.75745,5.5046202 363.65882,37.860363 M 371.27809,6.1589462 362.37414,38.025447 M 377.43264,8.1783393 361.12025,38.311073 m 21.54836,-26.394767 -22.74676,26.820233 m 26.12718,-21.3699 -27.24539,21.954504 m 28.57509,-15.584537 -29.58782,16.348128 m 29.61402,-9.832033 -30.48055,10.77271 m 30.48055,-4.257818 -31.17854,5.327734 m 31.17854,1.187157 -31.68482,-0.01847 m 31.69094,6.533211 -31.9823,-5.296227 m 36.67827,7.893654 -36.73324,-6.618734 M 393.34576,57.833842 355.54665,47.050479 M 390.45294,61.45591 355.95116,48.262691 M 383.93805,61.45591 356.60087,49.346875 M 377.42315,61.45591 357.51163,50.228066 m 16.0878,7.408884 -14.98822,-6.783702 m 11.69639,7.186931 -10.49011,-6.777399 m 4.98981,10.188779 -3.72133,-9.964991 m -2.67435,11.035645 3.96056,-10.967695"
         style="font-family:'Roboto Slab';-inkscape-font-specification:'Roboto Slab, @wght=700';font-variation-settings:'wght' 700;stroke:#008080"
         id="path112279"
         inkscape:original-d="m 358.41162,62.522213 q -8.17499,0 -12.99875,-4.366767 -4.82375,-4.417544 -4.82375,-11.983222 0,-5.17919 2.7927,-9.08897 2.84347,-3.90978 8.32732,-6.14394 5.53462,-2.23416 13.60807,-2.23416 h 7.26102 v -4.06211 q 0,-3.960556 -2.33572,-6.397822 -2.28493,-2.488042 -6.90558,-2.488042 -2.38649,0 -4.26522,0.609317 -1.87872,0.55854 -3.45279,1.624843 l -1.16786,7.261021 h -10.66303 l -0.20311,-14.268159 q 4.31599,-2.4372658 9.34285,-3.9605568 5.02686,-1.523291 11.22158,-1.523291 10.76459,0 17.01008,5.0268598 6.2455,4.976084 6.2455,14.268159 v 22.64626 q 0,1.11708 0,2.23416 0.0508,1.066303 0.2031,2.081831 l 5.73773,0.812422 v 8.885864 h -18.38104 q -0.55854,-1.421739 -1.11708,-3.046582 -0.55854,-1.624844 -0.81243,-3.249688 -2.64037,3.35124 -6.24549,5.382295 -3.55434,1.980278 -8.3781,1.980278 z m 3.96056,-10.967695 q 3.09736,0 5.89006,-1.370962 2.7927,-1.421738 4.31599,-3.706674 v -8.682759 h -7.3118 q -4.87453,0 -7.41335,2.23416 -2.48804,2.23416 -2.48804,5.382295 0,2.945029 1.82795,4.569873 1.87872,1.574067 5.17919,1.574067 z" />
    </g>
  </g>
</svg>
