<?xml version="1.0" encoding="UTF-8" standalone="no"?>
<svg
   width="2700"
   height="300"
   viewBox="0 0 714.37501 79.375"
   version="1.1"
   id="svg5"
   inkscape:version="1.1 (c68e22c387, 2021-05-23)"
   sodipodi:docname="akad5.svg"
   xmlns:inkscape="http://www.inkscape.org/namespaces/inkscape"
   xmlns:sodipodi="http://sodipodi.sourceforge.net/DTD/sodipodi-0.dtd"
   xmlns:xlink="http://www.w3.org/1999/xlink"
   xmlns="http://www.w3.org/2000/svg"
   xmlns:svg="http://www.w3.org/2000/svg">
  <sodipodi:namedview
     id="namedview7"
     pagecolor="#ffffff"
     bordercolor="#666666"
     borderopacity="1.0"
     objecttolerance="10.0"
     gridtolerance="10.0"
     guidetolerance="10.0"
     inkscape:pageshadow="2"
     inkscape:pageopacity="0.0"
     inkscape:pagecheckerboard="0"
     inkscape:document-units="mm"
     showgrid="false"
     inkscape:zoom="0.51232523"
     inkscape:cx="1445.3709"
     inkscape:cy="-12.687253"
     inkscape:window-width="2048"
     inkscape:window-height="1129"
     inkscape:window-x="-8"
     inkscape:window-y="-8"
     inkscape:window-maximized="1"
     inkscape:current-layer="layer1"
     inkscape:snap-bbox="true"
     showguides="true"
     inkscape:guide-bbox="true"
     inkscape:bbox-paths="true"
     inkscape:bbox-nodes="true"
     inkscape:snap-bbox-edge-midpoints="true"
     units="px"
     inkscape:snap-global="true">
    <sodipodi:guide
       position="-77.098702,308.10074"
       orientation="1,0"
       id="guide11861" />
    <sodipodi:guide
       position="1919.781,-1493.9154"
       orientation="0,-1"
       id="guide123897" />
    <sodipodi:guide
       position="2527.3659,-1567.1661"
       orientation="0,-1"
       id="guide123899" />
  </sodipodi:namedview>
  <defs
     id="defs2">
    <linearGradient
       inkscape:collect="always"
       id="linearGradient67488">
      <stop
         style="stop-color:#ff6600;stop-opacity:1"
         offset="0"
         id="stop67484" />
      <stop
         style="stop-color:#800000;stop-opacity:0;"
         offset="1"
         id="stop67486" />
    </linearGradient>
    <linearGradient
       inkscape:collect="always"
       id="linearGradient79814">
      <stop
         style="stop-color:#2f7499;stop-opacity:1;"
         offset="0"
         id="stop79810" />
      <stop
         style="stop-color:#2f7499;stop-opacity:0;"
         offset="1"
         id="stop79812" />
    </linearGradient>
    <linearGradient
       id="linearGradient27426"
       inkscape:swatch="gradient">
      <stop
         style="stop-color:#ffffff;stop-opacity:1;"
         offset="0"
         id="stop27422" />
      <stop
         style="stop-color:#ffffff;stop-opacity:0;"
         offset="1"
         id="stop27424" />
    </linearGradient>
    <filter
       style="color-interpolation-filters:sRGB"
       inkscape:label="Feather"
       id="filter14496"
       x="-0.11277526"
       y="-0.69693726"
       width="1.2255505"
       height="2.3938746">
      <feGaussianBlur
         stdDeviation="6.8343602"
         result="blur"
         id="feGaussianBlur14488" />
      <feComposite
         in="SourceGraphic"
         in2="blur"
         operator="atop"
         result="composite1"
         id="feComposite14490" />
      <feComposite
         in2="composite1"
         operator="in"
         result="composite2"
         id="feComposite14492" />
      <feComposite
         in2="composite2"
         operator="in"
         result="composite3"
         id="feComposite14494" />
    </filter>
    <filter
       style="color-interpolation-filters:sRGB"
       inkscape:label="Blur"
       id="filter15967"
       x="-0.15664497"
       y="-0.9221496"
       width="1.3132899"
       height="2.8442993">
      <feGaussianBlur
         stdDeviation="1.08809 0.841231"
         result="blur"
         id="feGaussianBlur15965" />
    </filter>
    <filter
       style="color-interpolation-filters:sRGB"
       inkscape:label="Feather"
       id="filter53613"
       x="-0.11277526"
       y="-0.69693726"
       width="1.2255505"
       height="2.3938746">
      <feGaussianBlur
         stdDeviation="6.83436"
         result="blur"
         id="feGaussianBlur53605" />
      <feComposite
         in="SourceGraphic"
         in2="blur"
         operator="atop"
         result="composite1"
         id="feComposite53607" />
      <feComposite
         in2="composite1"
         operator="in"
         result="composite2"
         id="feComposite53609" />
      <feComposite
         in2="composite2"
         operator="in"
         result="composite3"
         id="feComposite53611" />
    </filter>
    <filter
       style="color-interpolation-filters:sRGB"
       inkscape:label="Feather"
       id="filter26488"
       x="-0.11174112"
       y="-0.69054639"
       width="1.2234823"
       height="2.3810928">
      <feGaussianBlur
         stdDeviation="6.7716894"
         result="blur"
         id="feGaussianBlur26480" />
      <feComposite
         in="SourceGraphic"
         in2="blur"
         operator="atop"
         result="composite1"
         id="feComposite26482" />
      <feComposite
         in2="composite1"
         operator="in"
         result="composite2"
         id="feComposite26484" />
      <feComposite
         in2="composite2"
         operator="in"
         result="composite3"
         id="feComposite26486" />
    </filter>
    <filter
       style="color-interpolation-filters:sRGB"
       inkscape:label="Blur"
       id="filter9637"
       x="-0.020407148"
       y="-0.053000052"
       width="1.0408143"
       height="1.1060001">
      <feGaussianBlur
         stdDeviation="2.0075 1.76063"
         result="blur"
         id="feGaussianBlur9635" />
    </filter>
    <linearGradient
       inkscape:collect="always"
       xlink:href="#linearGradient79814"
       id="linearGradient79816"
       x1="65.007896"
       y1="48.552563"
       x2="376.98538"
       y2="48.552563"
       gradientUnits="userSpaceOnUse"
       gradientTransform="matrix(1,0,0,1.0197199,0,0.03070412)" />
    <linearGradient
       inkscape:collect="always"
       xlink:href="#linearGradient79814"
       id="linearGradient11094"
       gradientUnits="userSpaceOnUse"
       x1="376.98538"
       y1="98.137283"
       x2="376.98538"
       y2="48.552563"
       gradientTransform="matrix(0.99999997,0,0,1.0197199,0,0.03070412)" />
    <linearGradient
       inkscape:collect="always"
       xlink:href="#linearGradient67488"
       id="linearGradient67490"
       x1="679.34332"
       y1="54.811256"
       x2="329.39456"
       y2="54.811256"
       gradientUnits="userSpaceOnUse"
       gradientTransform="matrix(1.364292,0,0,0.86764556,-263.81498,-0.27901974)" />
  </defs>
  <g
     inkscape:label="Layer 1"
     inkscape:groupmode="layer"
     id="layer1">
    <path
       id="rect63270"
       style="fill:url(#linearGradient79816);fill-opacity:1;stroke-width:3.00096;paint-order:stroke fill markers;stop-color:#000000"
       d="M -0.90423363,-1.5570109 V 80.201618 H 423.05541 V -1.5570109 Z"
       sodipodi:nodetypes="ccccc" />
    <rect
       style="fill:none;fill-rule:evenodd"
       id="rect120773"
       width="405.31482"
       height="405.31482"
       x="8352.8516"
       y="10525.058"
       transform="matrix(0.26458333,0,0,0.26458333,-1978.0104,-2769.3006)"
       inkscape:export-xdpi="200"
       inkscape:export-ydpi="200" />
    <rect
       style="fill:none;fill-rule:evenodd;stroke:none;stroke-width:0.264584"
       id="rect45548"
       width="190.84897"
       height="74.617218"
       x="-0.90423363"
       y="2.4195561"
       inkscape:export-xdpi="118.90417"
       inkscape:export-ydpi="118.90417" />
    <path
       id="rect65141"
       style="fill:#3b8dbb;fill-opacity:1;stroke-width:5.79545;paint-order:stroke fill markers;stop-color:#000000"
       d="M 301.34375 71.041016 A 7.7174428 6.9846235 0 0 0 295.46875 77.761719 A 7.7174428 6.9846235 0 0 0 296.68164 81.511719 L 275.39453 145.27734 L 281.95703 199.69727 L 270.5957 199.69727 L 270.5957 299.23242 L 335.77734 299.23242 L 335.77734 199.69727 L 324.41602 199.69727 L 330.97852 145.27734 L 309.69141 81.511719 A 7.7174428 6.9846235 0 0 0 310.9043 77.761719 A 7.7174428 6.9846235 0 0 0 305.02734 71.041016 L 305.02734 147.28125 A 6.9675105 6.9675105 0 0 1 310.1543 154 A 6.9675105 6.9675105 0 0 1 303.18555 160.9668 A 6.9675105 6.9675105 0 0 1 296.21875 154 A 6.9675105 6.9675105 0 0 1 301.34375 147.28516 L 301.34375 71.041016 z M 391.13086 100.14453 C 381.67974 99.846393 357.25391 155.43819 357.25391 171.76562 C 357.25391 183.27263 362.11435 193.45198 369.57031 199.69727 L 363.66016 199.69727 C 359.3307 199.69727 355.8457 241.51086 355.8457 293.44922 C 355.8457 296.71779 355.85977 299.94452 355.88672 303.125 L 420.98438 303.125 C 421.01132 299.94452 421.02539 296.71779 421.02539 293.44922 C 421.02539 241.51086 417.54042 199.69727 413.21094 199.69727 L 407.67969 199.69727 C 420.9123 190.71682 425.54866 173.70433 413.10156 156.8418 C 401.46232 141.41623 397.64557 125.79169 394.39453 105.19727 C 393.82252 101.73841 392.67741 100.19332 391.13086 100.14453 z M 222.05078 107.90039 L 188.48828 135.90039 L 188.48828 303.125 L 255.80078 303.125 L 255.80078 135.90039 L 222.05078 107.90039 z M 141.4707 143.85742 C 133.81028 143.58412 114.01172 194.54567 114.01172 209.51367 C 114.01172 220.49299 118.27645 230.16096 124.74219 235.80859 L 119.06445 235.80859 C 115.63304 235.80859 112.87109 238.57054 112.87109 242.00195 C 112.87109 245.22955 115.31503 247.86429 118.46094 248.16602 L 116.08398 280.20703 C 114.03405 285.23085 112.87109 291.00098 112.87109 297.14844 C 112.87109 299.18855 113.01157 301.1812 113.25781 303.125 L 165.31445 303.125 C 165.56069 301.1812 165.70117 299.18855 165.70117 297.14844 C 165.70117 291.00263 164.53719 285.23381 162.48828 280.21094 L 160.09375 247.94336 C 162.66417 247.18954 164.53125 244.82263 164.53125 242.00195 C 164.53125 238.57054 161.76931 235.80859 158.33789 235.80859 L 153.94336 235.80859 C 165.38226 227.78086 169.6575 211.73601 159.2793 195.83398 C 151.88208 184.74578 148.38746 173.53436 145.95117 160.11328 A 21.613633 34.971593 22.602152 0 0 143.99023 177.67578 A 21.613633 34.971593 22.602152 0 1 145.02148 154.61523 C 144.72264 152.70913 144.43505 150.76125 144.1543 148.75781 A 21.613633 34.971593 15 0 0 139.41797 160.63672 A 21.613633 34.971593 15 0 0 138.60742 184.12305 A 21.613633 34.971593 15 0 1 137.74805 155.46289 A 21.613633 34.971593 15 0 1 142.23828 144.08398 C 141.99828 143.94112 141.74274 143.8671 141.4707 143.85742 z M 78.726562 172.12891 C 74.799315 171.87663 64.648438 218.91654 64.648438 232.73242 C 64.648438 242.46995 66.669064 251.08462 69.767578 256.36914 L 67.310547 256.36914 C 65.988615 256.36914 64.862848 275.55604 64.355469 303.125 L 90.857422 303.125 C 90.349487 275.55604 89.222332 256.36914 87.900391 256.36914 L 85.601562 256.36914 C 91.101459 248.77074 93.028179 234.3756 87.855469 220.10547 C 83.018985 207.05275 81.43294 193.83078 80.082031 176.4043 C 79.844344 173.4775 79.369203 172.17019 78.726562 172.12891 z "
       transform="scale(0.26458333)" />
    <path
       id="path11073"
       style="fill:url(#linearGradient11094);fill-opacity:1;stroke-width:3.00096;paint-order:stroke fill markers;stop-color:#000000"
       d="M -0.90423363,-1.5570109 V 80.201618 H 724.12473 V -1.5570109 Z"
       sodipodi:nodetypes="ccccc" />
    <rect
       style="fill:url(#linearGradient67490);fill-opacity:1;stroke-width:0.470876;-inkscape-stroke:none;paint-order:stroke fill markers;stop-color:#000000"
       id="rect67280"
       width="564.43427"
       height="82.309746"
       x="159.69046"
       y="-2.1081252" />
  </g>
</svg>
