<?xml version="1.0" encoding="UTF-8" standalone="no"?>
<svg
   width="2700"
   height="300"
   viewBox="0 0 714.37501 79.375"
   version="1.1"
   id="svg5"
   inkscape:version="1.1 (c68e22c387, 2021-05-23)"
   sodipodi:docname="akad5.svg"
   xmlns:inkscape="http://www.inkscape.org/namespaces/inkscape"
   xmlns:sodipodi="http://sodipodi.sourceforge.net/DTD/sodipodi-0.dtd"
   xmlns:xlink="http://www.w3.org/1999/xlink"
   xmlns="http://www.w3.org/2000/svg"
   xmlns:svg="http://www.w3.org/2000/svg">
  <sodipodi:namedview
     id="namedview7"
     pagecolor="#ffffff"
     bordercolor="#666666"
     borderopacity="1.0"
     objecttolerance="10.0"
     gridtolerance="10.0"
     guidetolerance="10.0"
     inkscape:pageshadow="2"
     inkscape:pageopacity="0.0"
     inkscape:pagecheckerboard="0"
     inkscape:document-units="mm"
     showgrid="false"
     inkscape:zoom="0.50202585"
     inkscape:cx="1291.7662"
     inkscape:cy="109.55611"
     inkscape:window-width="1920"
     inkscape:window-height="1046"
     inkscape:window-x="-11"
     inkscape:window-y="-11"
     inkscape:window-maximized="1"
     inkscape:current-layer="layer1"
     inkscape:snap-bbox="true"
     showguides="true"
     inkscape:guide-bbox="true"
     inkscape:bbox-paths="true"
     inkscape:bbox-nodes="true"
     inkscape:snap-bbox-edge-midpoints="true"
     units="px"
     inkscape:snap-global="false">
    <sodipodi:guide
       position="-77.098702,308.10074"
       orientation="1,0"
       id="guide11861" />
    <sodipodi:guide
       position="1919.781,-1493.9154"
       orientation="0,-1"
       id="guide123897" />
    <sodipodi:guide
       position="2527.3659,-1567.1661"
       orientation="0,-1"
       id="guide123899" />
  </sodipodi:namedview>
  <defs
     id="defs2">
    <linearGradient
       inkscape:collect="always"
       id="linearGradient67488">
      <stop
         style="stop-color:#ff6600;stop-opacity:1"
         offset="0"
         id="stop67484" />
      <stop
         style="stop-color:#800000;stop-opacity:0;"
         offset="1"
         id="stop67486" />
    </linearGradient>
    <linearGradient
       inkscape:collect="always"
       id="linearGradient79814">
      <stop
         style="stop-color:#2f7499;stop-opacity:1;"
         offset="0"
         id="stop79810" />
      <stop
         style="stop-color:#2f7499;stop-opacity:0;"
         offset="1"
         id="stop79812" />
    </linearGradient>
    <linearGradient
       id="linearGradient27426"
       inkscape:swatch="gradient">
      <stop
         style="stop-color:#ffffff;stop-opacity:1;"
         offset="0"
         id="stop27422" />
      <stop
         style="stop-color:#ffffff;stop-opacity:0;"
         offset="1"
         id="stop27424" />
    </linearGradient>
    <filter
       style="color-interpolation-filters:sRGB"
       inkscape:label="Feather"
       id="filter14496"
       x="-0.11277526"
       y="-0.69693726"
       width="1.2255505"
       height="2.3938746">
      <feGaussianBlur
         stdDeviation="6.8343602"
         result="blur"
         id="feGaussianBlur14488" />
      <feComposite
         in="SourceGraphic"
         in2="blur"
         operator="atop"
         result="composite1"
         id="feComposite14490" />
      <feComposite
         in2="composite1"
         operator="in"
         result="composite2"
         id="feComposite14492" />
      <feComposite
         in2="composite2"
         operator="in"
         result="composite3"
         id="feComposite14494" />
    </filter>
    <filter
       style="color-interpolation-filters:sRGB"
       inkscape:label="Blur"
       id="filter15967"
       x="-0.15664497"
       y="-0.9221496"
       width="1.3132899"
       height="2.8442993">
      <feGaussianBlur
         stdDeviation="1.08809 0.841231"
         result="blur"
         id="feGaussianBlur15965" />
    </filter>
    <filter
       style="color-interpolation-filters:sRGB"
       inkscape:label="Feather"
       id="filter53613"
       x="-0.11277526"
       y="-0.69693726"
       width="1.2255505"
       height="2.3938746">
      <feGaussianBlur
         stdDeviation="6.83436"
         result="blur"
         id="feGaussianBlur53605" />
      <feComposite
         in="SourceGraphic"
         in2="blur"
         operator="atop"
         result="composite1"
         id="feComposite53607" />
      <feComposite
         in2="composite1"
         operator="in"
         result="composite2"
         id="feComposite53609" />
      <feComposite
         in2="composite2"
         operator="in"
         result="composite3"
         id="feComposite53611" />
    </filter>
    <filter
       style="color-interpolation-filters:sRGB"
       inkscape:label="Feather"
       id="filter26488"
       x="-0.11174112"
       y="-0.69054639"
       width="1.2234823"
       height="2.3810928">
      <feGaussianBlur
         stdDeviation="6.7716894"
         result="blur"
         id="feGaussianBlur26480" />
      <feComposite
         in="SourceGraphic"
         in2="blur"
         operator="atop"
         result="composite1"
         id="feComposite26482" />
      <feComposite
         in2="composite1"
         operator="in"
         result="composite2"
         id="feComposite26484" />
      <feComposite
         in2="composite2"
         operator="in"
         result="composite3"
         id="feComposite26486" />
    </filter>
    <filter
       style="color-interpolation-filters:sRGB"
       inkscape:label="Blur"
       id="filter9637"
       x="-0.020407148"
       y="-0.053000052"
       width="1.0408143"
       height="1.1060001">
      <feGaussianBlur
         stdDeviation="2.0075 1.76063"
         result="blur"
         id="feGaussianBlur9635" />
    </filter>
    <linearGradient
       inkscape:collect="always"
       xlink:href="#linearGradient79814"
       id="linearGradient79816"
       x1="65.007896"
       y1="48.552563"
       x2="376.98538"
       y2="48.552563"
       gradientUnits="userSpaceOnUse"
       gradientTransform="matrix(1,0,0,1.0197199,0,0.03070412)" />
    <linearGradient
       inkscape:collect="always"
       xlink:href="#linearGradient79814"
       id="linearGradient11094"
       gradientUnits="userSpaceOnUse"
       x1="376.98538"
       y1="98.137283"
       x2="376.98538"
       y2="48.552563"
       gradientTransform="matrix(0.99999997,0,0,1.0197199,0,0.03070412)" />
    <linearGradient
       inkscape:collect="always"
       xlink:href="#linearGradient67488"
       id="linearGradient67490"
       x1="679.34332"
       y1="54.811256"
       x2="329.39456"
       y2="54.811256"
       gradientUnits="userSpaceOnUse"
       gradientTransform="matrix(1.3643312,0,0,1,-263.82716,0)" />
  </defs>
  <g
     inkscape:label="Layer 1"
     inkscape:groupmode="layer"
     id="layer1">
    <path
       id="rect63270"
       style="fill:url(#linearGradient79816);fill-opacity:1;stroke-width:3.00096;paint-order:stroke fill markers;stop-color:#000000"
       d="M -0.90423363,-1.5570109 V 80.201618 H 423.05541 V -1.5570109 Z"
       sodipodi:nodetypes="ccccc" />
    <rect
       style="fill:none;fill-rule:evenodd"
       id="rect120773"
       width="405.31482"
       height="405.31482"
       x="8352.8516"
       y="10525.058"
       transform="matrix(0.26458333,0,0,0.26458333,-1978.0104,-2769.3006)"
       inkscape:export-xdpi="200"
       inkscape:export-ydpi="200" />
    <rect
       style="fill:none;fill-rule:evenodd;stroke:none;stroke-width:0.264584"
       id="rect45548"
       width="190.84897"
       height="74.617218"
       x="-0.90423363"
       y="2.4195561"
       inkscape:export-xdpi="118.90417"
       inkscape:export-ydpi="118.90417" />
    <rect
       style="fill:#3b8dbb;fill-opacity:1;stroke-width:1.53338;paint-order:stroke fill markers;stop-color:#000000"
       id="rect65141"
       width="17.24577"
       height="26.335455"
       x="71.595108"
       y="52.836697" />
    <path
       id="rect65279"
       style="fill:#3b8dbb;fill-opacity:1;stroke-width:6.4732;paint-order:stroke fill markers;stop-color:#000000"
       d="m 301.34375,71.041016 a 7.7174431,6.9846238 0 0 0 -5.875,6.720703 7.7174431,6.9846238 0 0 0 1.21289,3.75 L 275.39453,145.27734 282.25,202.125 h 20.93555 20.9375 l 6.85547,-56.84766 -21.28711,-63.765621 a 7.7174431,6.9846238 0 0 0 1.21289,-3.75 7.7174431,6.9846238 0 0 0 -5.87696,-6.720703 V 147.28125 A 6.9675108,6.9675108 0 0 1 310.1543,154 a 6.9675108,6.9675108 0 0 1 -6.96875,6.9668 6.9675108,6.9675108 0 0 1 -6.9668,-6.9668 6.9675108,6.9675108 0 0 1 5.125,-6.71484 z"
       transform="scale(0.26458333)" />
    <path
       id="rect67850"
       style="fill:#3b8dbb;fill-opacity:1;stroke-width:4.05736;paint-order:stroke fill markers;stop-color:#000000"
       d="m 388.43555,199.69727 -24.85352,3.93164 -7.09375,95.60351 h 31.94727 31.94726 l -7.09375,-95.60351 z"
       transform="scale(0.26458333)" />
    <path
       id="path67874"
       style="fill:#3b8dbb;fill-opacity:1;stroke-width:1.88058;paint-order:stroke fill markers;stop-color:#000000"
       d="m 102.3448,54.548236 c -4.319558,-2e-6 -7.821251,-4.075094 -7.821251,-9.101972 0,-5.026878 8.750481,-24.120679 9.826701,-17.612905 0.86017,5.448942 1.8699,9.583039 4.94945,13.664387 4.69218,6.356666 0.20993,12.794039 -6.9549,13.05049 z"
       sodipodi:nodetypes="csccc" />
    <path
       id="rect68172"
       style="fill:#3b8dbb;fill-opacity:1;stroke-width:4.48241;paint-order:stroke fill markers;stop-color:#000000"
       d="m 96.218383,52.836697 h 13.110377 c 1.14551,0 2.0677,11.063075 2.0677,24.805099 0,13.742025 -0.92219,24.805104 -2.0677,24.805104 H 96.218383 c -1.145503,0 -2.067695,-11.063079 -2.067695,-24.805104 0,-13.742024 0.922192,-24.805099 2.067695,-24.805099 z" />
    <path
       id="rect67850-1"
       style="fill:#3b8dbb;fill-opacity:1;stroke-width:0.870113;paint-order:stroke fill markers;stop-color:#000000"
       d="m 36.852732,62.390803 -5.329911,0.843151 -1.521276,20.50246 h 6.851187 6.851187 l -1.521276,-20.50246 z" />
    <path
       id="path67874-3"
       style="fill:#3b8dbb;fill-opacity:1;stroke-width:1.62106;paint-order:stroke fill markers;stop-color:#000000"
       d="m 37.43075,38.062113 c -2.026821,-0.07231 -7.265014,13.411665 -7.265014,17.37195 0,4.608333 2.838211,8.34398 6.339347,8.343982 5.807318,-0.235101 9.440508,-6.136315 5.637349,-11.963713 -1.957181,-2.933754 -2.881727,-5.900019 -3.526328,-9.451013 a 5.7186071,9.2529007 22.602152 0 0 -0.51854,4.646762 5.7186071,9.2529007 22.602152 0 1 0.272675,-6.101439 c -0.07907,-0.504323 -0.155249,-1.019681 -0.229531,-1.549758 a 5.7186071,9.2529007 15 0 0 -1.252792,3.142657 5.7186071,9.2529007 15 0 0 -0.214871,6.21453 5.7186071,9.2529007 15 0 1 -0.227438,-7.583343 5.7186071,9.2529007 15 0 1 1.188286,-3.0103 c -0.0635,-0.0378 -0.131166,-0.05775 -0.203143,-0.06031 z" />
    <rect
       style="fill:#3b8dbb;fill-opacity:1;stroke-width:1.02571;paint-order:stroke fill markers;stop-color:#000000"
       id="rect68172-0"
       width="13.668536"
       height="3.2776"
       x="29.863619"
       y="62.390907"
       ry="1.6388" />
    <rect
       style="fill:#3b8dbb;fill-opacity:1;stroke-width:2.4766;paint-order:stroke fill markers;stop-color:#000000"
       id="rect70565-1"
       width="13.978231"
       height="18.684805"
       x="29.863619"
       y="69.278122"
       ry="9.3424025" />
    <path
       id="path891"
       style="fill:#3b8dbb;fill-opacity:1;stroke-width:2.9718;paint-order:stroke fill markers;stop-color:#000000"
       d="M 49.87096,80.208025 V 35.956979 l 8.879808,-7.408333 8.929958,7.408333 v 44.251046 z"
       sodipodi:nodetypes="cccccc" />
    <path
       id="path11073"
       style="fill:url(#linearGradient11094);fill-opacity:1;stroke-width:3.00096;paint-order:stroke fill markers;stop-color:#000000"
       d="M -0.90423363,-1.5570109 V 80.201618 H 724.12473 V -1.5570109 Z"
       sodipodi:nodetypes="ccccc" />
    <path
       id="path11417"
       style="fill:#3b8dbb;fill-opacity:1;stroke-width:0.636559;paint-order:stroke fill markers;stop-color:#000000"
       d="m 20.533254,67.830655 -2.73247,0.88023 -0.779908,21.404066 h 3.512378 3.512377 L 23.265723,68.710885 Z" />
    <path
       id="path11419"
       style="fill:#3b8dbb;fill-opacity:1;stroke-width:1.11513;paint-order:stroke fill markers;stop-color:#000000"
       d="m 20.355086,69.279025 c -1.794917,-2e-6 -3.249984,-3.448241 -3.249984,-7.701858 0,-4.253616 3.636109,-20.410305 4.083314,-14.903592 0.357428,4.610756 0.777004,8.108924 2.056657,11.562457 1.949753,5.378849 0.08723,10.82599 -2.889987,11.042993 z"
       sodipodi:nodetypes="csccc" />
    <path
       id="path11421"
       style="fill:#3b8dbb;fill-opacity:1;stroke-width:2.65793;paint-order:stroke fill markers;stop-color:#000000"
       d="m 17.80936,67.830764 h 5.447788 c 0.475997,0 0.859197,9.361292 0.859197,20.989444 0,11.628132 -0.3832,20.989432 -0.859197,20.989432 H 17.80936 c -0.475993,0 -0.859194,-9.3613 -0.859194,-20.989432 0,-11.628152 0.383201,-20.989444 0.859194,-20.989444 z" />
    <rect
       style="fill:url(#linearGradient67490);fill-opacity:1;stroke-width:0.505524;-inkscape-stroke:none;paint-order:stroke fill markers;stop-color:#000000"
       id="rect67280"
       width="564.4505"
       height="94.865631"
       x="159.69046"
       y="-2.1081252" />
  </g>
</svg>
