<?xml version="1.0" encoding="UTF-8" standalone="no"?>
<!-- Created with Inkscape (http://www.inkscape.org/) -->

<svg
   width="1080"
   height="540"
   viewBox="0 0 1080 540"
   version="1.1"
   id="SVGRoot"
   sodipodi:docname="barvateplota.svg"
   inkscape:version="1.1 (c68e22c387, 2021-05-23)"
   xmlns:inkscape="http://www.inkscape.org/namespaces/inkscape"
   xmlns:sodipodi="http://sodipodi.sourceforge.net/DTD/sodipodi-0.dtd"
   xmlns:xlink="http://www.w3.org/1999/xlink"
   xmlns="http://www.w3.org/2000/svg"
   xmlns:svg="http://www.w3.org/2000/svg">
  <sodipodi:namedview
     id="namedview32418"
     pagecolor="#505050"
     bordercolor="#eeeeee"
     borderopacity="1"
     inkscape:pageshadow="0"
     inkscape:pageopacity="0"
     inkscape:pagecheckerboard="0"
     inkscape:document-units="px"
     showgrid="false"
     inkscape:zoom="0.79748526"
     inkscape:cx="795.62599"
     inkscape:cy="571.17043"
     inkscape:current-layer="layer1"
     inkscape:snap-bbox="true"
     inkscape:bbox-paths="true" />
  <defs
     id="defs32413">
    <linearGradient
       inkscape:collect="always"
       xlink:href="#linearGradient110219"
       id="linearGradient107580"
       gradientUnits="userSpaceOnUse"
       gradientTransform="matrix(1.0621846,0,0,1.0621846,17.216396,-32.766059)"
       x1="24.550251"
       y1="110.99898"
       x2="794.72461"
       y2="110.99899" />
    <linearGradient
       inkscape:collect="always"
       id="linearGradient110219">
      <stop
         style="stop-color:#bd0000;stop-opacity:1"
         offset="0"
         id="stop110201" />
      <stop
         style="stop-color:#ff0000;stop-opacity:1"
         offset="0.04056332"
         id="stop110203" />
      <stop
         style="stop-color:#ff7c00;stop-opacity:1"
         offset="0.15683115"
         id="stop110205" />
      <stop
         style="stop-color:#fff1e7;stop-opacity:1"
         offset="0.44207838"
         id="stop110207" />
      <stop
         style="stop-color:#d8e0ff;stop-opacity:1"
         offset="0.86994922"
         id="stop110213" />
      <stop
         style="stop-color:#d1dcff;stop-opacity:1"
         offset="0.91904104"
         id="stop110215" />
      <stop
         style="stop-color:#ccd8ff;stop-opacity:1"
         offset="1"
         id="stop110217" />
    </linearGradient>
  </defs>
  <g
     inkscape:label="Vrstva 1"
     inkscape:groupmode="layer"
     id="layer1">
    <rect
       style="fill:#8080ff;fill-opacity:1;fill-rule:evenodd;stroke-width:0.258267"
       id="rect45522"
       width="6.3157067"
       height="20.832041"
       x="-1062.1268"
       y="486.24539"
       inkscape:export-xdpi="96.534714"
       inkscape:export-ydpi="96.534714"
       transform="scale(-1,1)"
       inkscape:export-filename="C:\Users\dansa\Documents\Krita-Malba\ellipse45540.png" />
    <rect
       style="fill:#fe8081;fill-opacity:1;fill-rule:evenodd;stroke-width:0.258267"
       id="rect45524"
       width="6.3157067"
       height="20.832041"
       x="-1055.8112"
       y="486.24539"
       inkscape:export-xdpi="96.534714"
       inkscape:export-ydpi="96.534714"
       transform="scale(-1,1)"
       inkscape:export-filename="C:\Users\dansa\Documents\Krita-Malba\ellipse45540.png" />
    <rect
       style="fill:#ffd42a;fill-rule:evenodd;stroke-width:0.258267"
       id="rect45526"
       width="6.3157067"
       height="20.832041"
       x="-1049.4954"
       y="486.24539"
       inkscape:export-xdpi="96.534714"
       inkscape:export-ydpi="96.534714"
       transform="scale(-1,1)"
       inkscape:export-filename="C:\Users\dansa\Documents\Krita-Malba\ellipse45540.png" />
    <path
       id="path45528"
       style="fill:#ffb380;fill-rule:evenodd;stroke-width:0.258267"
       d="m 1062.1269,507.07744 h -18.9471 l 8.7686,13.97104 h 1.41 z"
       sodipodi:nodetypes="ccccc"
       inkscape:export-xdpi="96.534714"
       inkscape:export-ydpi="96.534714"
       inkscape:export-filename="C:\Users\dansa\Documents\Krita-Malba\ellipse45540.png" />
    <path
       id="path45530"
       style="fill:#f4e3d7;fill-rule:evenodd;stroke-width:0.258267"
       d="m 1062.1269,507.07744 h -6.3156 l -3.3174,14.09288 0.8645,-0.12184 z"
       sodipodi:nodetypes="ccccc"
       inkscape:export-xdpi="96.534714"
       inkscape:export-ydpi="96.534714"
       inkscape:export-filename="C:\Users\dansa\Documents\Krita-Malba\ellipse45540.png" />
    <path
       id="path45532"
       style="fill:#d38d5f;fill-rule:evenodd;stroke-width:0.258267"
       d="m 1043.1799,507.07744 h 6.3157 l 3.3173,14.09288 -0.8644,-0.12184 z"
       sodipodi:nodetypes="ccccc"
       inkscape:export-xdpi="96.534714"
       inkscape:export-ydpi="96.534714"
       inkscape:export-filename="C:\Users\dansa\Documents\Krita-Malba\ellipse45540.png" />
    <path
       id="path45534"
       style="fill:#333333;fill-rule:evenodd;stroke-width:0.258267"
       d="m 1056.4724,516.12331 -7.7017,-0.1075 3.5196,5.53665 0.7035,-0.0131 z"
       sodipodi:nodetypes="ccccc"
       inkscape:export-xdpi="96.534714"
       inkscape:export-ydpi="96.534714"
       inkscape:export-filename="C:\Users\dansa\Documents\Krita-Malba\ellipse45540.png" />
    <ellipse
       style="fill:#8080ff;fill-opacity:1;fill-rule:evenodd;stroke-width:0.258267"
       id="ellipse45536"
       cx="-1052.6215"
       cy="525.61383"
       rx="9.5167303"
       ry="1.9033457"
       inkscape:export-xdpi="96.534714"
       inkscape:export-ydpi="96.534714"
       transform="scale(-1,1)"
       inkscape:export-filename="C:\Users\dansa\Documents\Krita-Malba\ellipse45540.png" />
    <ellipse
       style="fill:#f4e3d7;fill-opacity:1;fill-rule:evenodd;stroke-width:0.258267"
       id="ellipse45538"
       cx="-1052.6215"
       cy="486.1275"
       rx="9.5167303"
       ry="1.9033457"
       inkscape:export-xdpi="96.534714"
       inkscape:export-ydpi="96.534714"
       transform="scale(-1,1)"
       inkscape:export-filename="C:\Users\dansa\Documents\Krita-Malba\ellipse45540.png" />
    <ellipse
       style="fill:#333333;fill-opacity:1;fill-rule:evenodd;stroke-width:0.258263"
       id="ellipse45540"
       cx="-1052.6215"
       cy="486.12732"
       rx="3.7002831"
       ry="0.74005651"
       inkscape:export-xdpi="96.534714"
       inkscape:export-ydpi="96.534714"
       transform="scale(-1,1)"
       inkscape:export-filename="C:\Users\dansa\Documents\Krita-Malba\ellipse45540.png" />
    <rect
       style="fill:#1c1c36;stroke-width:4.08326;fill-opacity:1"
       id="rect230"
       width="117.52482"
       height="117.52482"
       x="38.686855"
       y="397.7536" />
    <rect
       style="fill:#660000;fill-opacity:1;stroke-width:4.08326"
       id="rect232"
       width="117.52482"
       height="117.52482"
       x="156.21169"
       y="397.7536" />
    <rect
       style="fill:#cc0000;stroke-width:4.08326;fill-opacity:1"
       id="rect314"
       width="117.52482"
       height="117.52482"
       x="273.73648"
       y="397.7536" />
    <rect
       style="fill:#ff0000;stroke-width:4.08326;fill-opacity:1"
       id="rect316"
       width="117.52482"
       height="117.52482"
       x="391.26132"
       y="397.7536" />
    <rect
       style="fill:#ffcc33;stroke-width:4.08326;fill-opacity:1"
       id="rect318"
       width="117.52482"
       height="117.52482"
       x="508.78613"
       y="397.7536" />
    <rect
       style="fill:#ffff99;stroke-width:4.08326;fill-opacity:1"
       id="rect320"
       width="117.52482"
       height="117.52482"
       x="626.31091"
       y="397.7536" />
    <rect
       style="fill:#ffffff;stroke-width:4.08326;fill-opacity:1"
       id="rect322"
       width="117.52482"
       height="117.52482"
       x="743.83575"
       y="397.7536" />
    <text
       xml:space="preserve"
       style="font-style:normal;font-variant:normal;font-weight:normal;font-stretch:normal;font-size:16.995px;line-height:1.25;font-family:'Libre Franklin';-inkscape-font-specification:'Libre Franklin, Normal';font-variant-ligatures:normal;font-variant-caps:normal;font-variant-numeric:normal;font-variant-east-asian:normal;fill:#000000;fill-opacity:1;stroke:none;stroke-width:1.06218"
       x="182.11678"
       y="503.01486"
       id="text13435"><tspan
         sodipodi:role="line"
         id="tspan13433"
         x="182.11678"
         y="503.01486"
         style="stroke-width:1.06218">~500°C</tspan></text>
    <text
       xml:space="preserve"
       style="font-style:normal;font-variant:normal;font-weight:normal;font-stretch:normal;font-size:16.995px;line-height:1.25;font-family:'Libre Franklin';-inkscape-font-specification:'Libre Franklin, Normal';font-variant-ligatures:normal;font-variant-caps:normal;font-variant-numeric:normal;font-variant-east-asian:normal;fill:#000000;fill-opacity:1;stroke:none;stroke-width:1.06218"
       x="303.62759"
       y="503.01486"
       id="text20969"><tspan
         sodipodi:role="line"
         id="tspan20967"
         x="303.62759"
         y="503.01486"
         style="stroke-width:1.06218">~700°C</tspan></text>
    <text
       xml:space="preserve"
       style="font-style:normal;font-variant:normal;font-weight:normal;font-stretch:normal;font-size:16.995px;line-height:1.25;font-family:'Libre Franklin';-inkscape-font-specification:'Libre Franklin, Normal';font-variant-ligatures:normal;font-variant-caps:normal;font-variant-numeric:normal;font-variant-east-asian:normal;fill:#000000;fill-opacity:1;stroke:none;stroke-width:1.06218"
       x="425.29712"
       y="503.01486"
       id="text28101"><tspan
         sodipodi:role="line"
         id="tspan28099"
         x="425.29712"
         y="503.01486"
         style="stroke-width:1.06218">~900°C</tspan></text>
    <text
       xml:space="preserve"
       style="font-style:normal;font-variant:normal;font-weight:normal;font-stretch:normal;font-size:16.995px;line-height:1.25;font-family:'Libre Franklin';-inkscape-font-specification:'Libre Franklin, Normal';font-variant-ligatures:normal;font-variant-caps:normal;font-variant-numeric:normal;font-variant-east-asian:normal;fill:#000000;fill-opacity:1;stroke:none;stroke-width:1.06218"
       x="530.22021"
       y="503.01486"
       id="text35615"><tspan
         sodipodi:role="line"
         id="tspan35613"
         x="530.22021"
         y="503.01486"
         style="stroke-width:1.06218">~1100°C</tspan></text>
    <text
       xml:space="preserve"
       style="font-style:normal;font-variant:normal;font-weight:normal;font-stretch:normal;font-size:16.995px;line-height:1.25;font-family:'Libre Franklin';-inkscape-font-specification:'Libre Franklin, Normal';font-variant-ligatures:normal;font-variant-caps:normal;font-variant-numeric:normal;font-variant-east-asian:normal;fill:#000000;fill-opacity:1;stroke:none;stroke-width:1.06218"
       x="657.64386"
       y="503.01486"
       id="text59027"><tspan
         sodipodi:role="line"
         id="tspan59025"
         x="657.64386"
         y="503.01486"
         style="stroke-width:1.06218">~1300°C</tspan></text>
    <text
       xml:space="preserve"
       style="font-style:normal;font-variant:normal;font-weight:normal;font-stretch:normal;font-size:16.995px;line-height:1.25;font-family:'Libre Franklin';-inkscape-font-specification:'Libre Franklin, Normal';font-variant-ligatures:normal;font-variant-caps:normal;font-variant-numeric:normal;font-variant-east-asian:normal;fill:#000000;fill-opacity:1;stroke:none;stroke-width:1.06218"
       x="767.13055"
       y="503.01486"
       id="text72455"><tspan
         sodipodi:role="line"
         id="tspan72453"
         x="767.13055"
         y="503.01486"
         style="stroke-width:1.06218">~1500°C</tspan></text>
    <path
       id="rect191751"
       style="stroke-width:2.89134;fill:#d70000;fill-opacity:1"
       d="M 23.78676,109.76768 7.7025988,94.385306 23.78676,78.760654 h 15.697214 v 31.007026 z"
       sodipodi:nodetypes="cccccc" />
    <path
       id="path196634"
       style="fill:#cedaff;fill-opacity:1;stroke-width:2.89134"
       d="m 873.76409,78.760654 16.08416,15.382374 -16.08416,15.624652 H 858.06688 V 78.760654 Z"
       sodipodi:nodetypes="cccccc" />
    <rect
       style="fill:url(#linearGradient107580);fill-opacity:1;stroke-width:3.07114"
       id="rect107578"
       width="822.67377"
       height="117.5248"
       x="38.686855"
       y="34.689262" />
    <text
       xml:space="preserve"
       style="font-style:normal;font-variant:normal;font-weight:normal;font-stretch:normal;font-size:16.995px;line-height:1.25;font-family:'Libre Franklin';-inkscape-font-specification:'Libre Franklin, Normal';font-variant-ligatures:normal;font-variant-caps:normal;font-variant-numeric:normal;font-variant-east-asian:normal;fill:#000000;fill-opacity:1;stroke:none;stroke-width:1.06218"
       x="768.37524"
       y="134.82401"
       id="text143672"><tspan
         sodipodi:role="line"
         id="tspan143670"
         x="768.37524"
         y="134.82401"
         style="stroke-width:1.06218">~10000K</tspan></text>
    <text
       xml:space="preserve"
       style="font-style:normal;font-variant:normal;font-weight:normal;font-stretch:normal;font-size:16.995px;line-height:1.25;font-family:'Libre Franklin';-inkscape-font-specification:'Libre Franklin, Normal';font-variant-ligatures:normal;font-variant-caps:normal;font-variant-numeric:normal;font-variant-east-asian:normal;fill:#000000;fill-opacity:1;stroke:none;stroke-width:1.06218"
       x="449.04324"
       y="134.82401"
       id="text167000"><tspan
         sodipodi:role="line"
         id="tspan166998"
         x="449.04324"
         y="134.82401"
         style="stroke-width:1.06218">~6500K</tspan></text>
    <text
       xml:space="preserve"
       style="font-style:normal;font-variant:normal;font-weight:normal;font-stretch:normal;font-size:16.995px;line-height:1.25;font-family:'Libre Franklin';-inkscape-font-specification:'Libre Franklin, Normal';font-variant-ligatures:normal;font-variant-caps:normal;font-variant-numeric:normal;font-variant-east-asian:normal;fill:#000000;fill-opacity:1;stroke:none;stroke-width:1.06218"
       x="57.809242"
       y="134.82401"
       id="text172672"><tspan
         sodipodi:role="line"
         id="tspan172670"
         x="57.809242"
         y="134.82401"
         style="stroke-width:1.06218">~1000K</tspan></text>
    <g
       id="background-images-c6a2de72"
       transform="matrix(2,0,0,2,145.56372,-607.20321)" />
    <g
       id="graphpaper-c6a2de72"
       transform="matrix(2,0,0,2,145.56372,-607.20321)">
      <g
         id="axis-c6a2de72">
        <g
           id="g340409">
          <g
             id="g340407">
            <path
               fill="none"
               stroke="#000000"
               class="dcg-svg-tickmark"
               paint-order="fill stroke markers"
               d=""
               stroke-opacity="0.9"
               stroke-miterlimit="2"
               stroke-width="1.5"
               stroke-dasharray="none"
               id="path340405" />
          </g>
        </g>
      </g>
    </g>
    <g
       id="labels-c6a2de72"
       transform="matrix(2,0,0,2,145.56372,-607.20321)" />
    <g
       id="background-images-35409c3d"
       transform="matrix(2,0,0,2,68.407265,-47.154753)" />
    <g
       id="graphpaper-35409c3d"
       transform="matrix(2,0,0,2,68.407265,-47.154753)">
      <g
         id="axis-35409c3d">
        <g
           id="g341347">
          <g
             id="g341345">
            <path
               fill="none"
               stroke="#000000"
               class="dcg-svg-tickmark"
               paint-order="fill stroke markers"
               d=""
               stroke-opacity="0.9"
               stroke-miterlimit="2"
               stroke-width="1.5"
               stroke-dasharray="none"
               id="path341343" />
          </g>
        </g>
      </g>
    </g>
    <g
       id="labels-35409c3d"
       transform="matrix(2,0,0,2,68.407265,-47.154753)" />
    <g
       id="background-images-35409c3d-4"
       transform="matrix(2,0,0,2,113.35505,9.8173611)" />
    <g
       id="graphpaper-35409c3d-7"
       transform="matrix(2,0,0,2,113.35505,9.8173611)">
      <g
         id="axis-35409c3d-7">
        <g
           id="g342389">
          <g
             id="g342387">
            <path
               fill="none"
               stroke="#000000"
               class="dcg-svg-tickmark"
               paint-order="fill stroke markers"
               d=""
               stroke-opacity="0.9"
               stroke-miterlimit="2"
               stroke-width="1.5"
               stroke-dasharray="none"
               id="path342385" />
          </g>
        </g>
      </g>
    </g>
    <g
       id="expressions-35409c3d"
       transform="matrix(3.164989,0,0,1.9689783,45.983656,-64.510467)"
       style="stroke:#ff6600;stroke-width:0.680993;stroke-miterlimit:4;stroke-dasharray:none">
      <g
         id="sketch-35409c3d"
         style="stroke:#ff6600;stroke-width:0.680993;stroke-miterlimit:4;stroke-dasharray:none">
        <title
           id="title342393">Expression 3</title>
        <path
           fill="#c74440"
           stroke="none"
           paint-order="stroke fill markers"
           d=""
           fill-opacity="0.4"
           id="path342395"
           style="stroke:#ff6600;stroke-width:0.680993;stroke-miterlimit:4;stroke-dasharray:none" />
        <g
           id="g342399"
           style="stroke:#ff6600;stroke-width:0.680993;stroke-miterlimit:4;stroke-dasharray:none">
          <path
             fill="none"
             stroke="#c74440"
             class="dcg-svg-curve"
             paint-order="fill stroke markers"
             d="m -2.1456185,195.30474 v 0 l 0.6043825,0.15808 0.5080346,-0.11255 0.60677306,-0.42957 0.70790187,-0.90268 0.70790188,-1.32119 0.80903049,-1.99118 1.0112883,-3.13377 1.213546,-4.52561 1.820319,-7.72693 2.427092,-10.18525 1.2135464,-4.20661 0.9101584,-2.48698 0.809032,-1.62325 0.707901,-0.91348 0.606773,-0.38134 0.505645,-0.025 0.505644,0.24469 0.606772,0.64857 0.606774,1.02792 0.7079,1.65725 0.809031,2.44999 1.011289,3.77828 1.314675,5.78386 3.741766,17.01594 1.011289,3.42517 0.809032,2.04774 0.707901,1.20523 0.606773,0.55987 0.505644,0.11802 0.505644,-0.20478 0.606772,-0.67168 0.606775,-1.12662 0.7079,-1.86077 0.80903,-2.78161 1.011289,-4.29662 1.415804,-7.0366 2.62935,-13.20797 1.011288,-4.02515 0.809031,-2.44568 0.707901,-1.4619 0.505644,-0.61784 0.505645,-0.24388 0.404515,0.0804 0.505645,0.44682 0.505644,0.82725 0.606773,1.47756 0.707901,2.34655 0.910161,3.87301 1.213545,6.27043 3.236123,17.47549 0.91016,3.58535 0.707902,2.01177 0.606772,1.09829 0.505643,0.43924 0.404517,0.0283 0.404514,-0.26256 0.505645,-0.73513 0.505644,-1.17588 0.606773,-1.96096 0.809031,-3.44862 1.011288,-5.37172 1.921448,-11.70339 1.314675,-7.39858 0.910159,-4.02725 0.707902,-2.23884 0.505644,-1.03868 0.505644,-0.53274 0.404515,-0.0478 0.404516,0.29339 0.404515,0.6329 0.505645,1.25632 0.606772,2.15117 0.707902,3.29942 1.011289,5.86253 3.43838,21.24311 0.707902,2.81055 0.606772,1.59737 0.404515,0.60349 0.422207,0.2154 0.285696,-0.0993 0.404515,-0.47994 0.404515,-0.8721 0.505645,-1.62001 0.606773,-2.66038 0.809031,-4.5725 1.213546,-8.29569 1.921447,-13.17523 0.809031,-4.2257 0.606774,-2.26936 0.505642,-1.19497 0.404516,-0.46199 0.303386,-0.0475 0.303387,0.21204 0.404516,0.68473 0.505643,1.48439 0.606773,2.63965 0.707903,4.09796 1.011288,7.20091 2.224834,16.33575 0.707903,3.78763 0.606772,2.23961 0.404515,0.89589 0.404515,0.38263 0.303387,-0.0599 0.303387,-0.35926 0.404515,-0.93898 0.505644,-1.88283 0.606774,-3.20336 0.809031,-5.56232 1.516931,-12.37072 1.112417,-8.34192 0.707903,-3.99607 0.505643,-1.95747 0.404516,-0.94504 0.303387,-0.3223 0.303387,0.0188 0.303385,0.36238 0.404516,1.01105 0.505645,2.07438 0.606772,3.55529 0.80903,6.15069 2.730479,22.2019 0.606773,2.89438 0.404516,1.16771 0.303387,0.43919 0.303386,0.0511 0.303385,-0.34141 0.30339,-0.7306 0.40451,-1.55924 0.50565,-2.81808 0.7079,-5.29523 1.21354,-11.16287 1.21355,-10.64295 0.7079,-4.49902 0.50565,-2.02137 0.40451,-0.78807 0.30339,-0.0788 0.3034,0.36766 0.30337,0.80984 0.40452,1.74142 0.50564,3.14837 0.7079,5.87241 2.73048,24.66211 0.50564,2.31161 0.40452,0.92005 0.30339,0.11113 0.30339,-0.39451 0.30339,-0.89485 0.4045,-1.93799 0.50564,-3.50252 0.70792,-6.47661 2.22483,-21.96336 0.50564,-2.98792 0.40451,-1.39225 0.30339,-0.40478 0.20226,0.0454 0.30339,0.54369 0.30338,1.10407 0.40452,2.29548 0.60677,4.97197 0.91016,9.72808 1.31468,14.08308 0.60677,4.5327 0.40451,1.86064 0.30339,0.69526 0.18114,0.11417 0.22336,-0.1743 0.30339,-0.79172 0.40453,-2.01435 0.50565,-3.90336 0.70789,-7.42001 1.82033,-20.35859 0.50564,-3.47055 0.40451,-1.52281 0.29218,-0.33197 0.21346,0.17844 0.3034,0.86357 0.40452,2.22093 0.50563,4.30108 0.7079,8.08494 1.51694,18.14057 0.50564,3.95103 0.40451,1.79626 0.32233,0.45084 0.18332,-0.14706 0.20225,-0.50228 0.30339,-1.4063 0.40452,-3.00899 0.60678,-6.49891 2.1237,-25.41546 0.40451,-2.25556 0.30339,-0.71195 0.20225,0.0181 0.20227,0.4164 0.30337,1.35715 0.40452,3.08545 0.50565,5.5639 1.11242,15.42519 0.7079,8.60096 0.50564,3.97898 0.30339,1.21995 0.2282,0.28039 0.17632,-0.16837 0.20226,-0.6058 0.30337,-1.71055 0.40452,-3.64713 0.60677,-7.725 1.61807,-21.99149 0.40451,-2.96557 0.30339,-1.05238 0.20225,-0.0999 0.20227,0.39025 0.30339,1.48823 0.40451,3.54387 0.60677,7.92953 1.61806,22.92884 0.40452,2.85121 0.30339,0.81533 0.0534,0.0189 0.2499,-0.41379 0.30338,-1.59494 0.40452,-3.83697 0.60677,-8.54552 1.4158,-21.30192 0.40452,-3.25061 0.30339,-1.0004 0.20226,0.0708 0.20225,0.66662 0.3034,2.07862 0.40451,4.56628 0.60677,9.545 1.11241,17.74018 0.40453,3.82137 0.30339,1.32801 0.20225,0.0805 0.20225,-0.57568 0.30339,-2.05798 0.40451,-4.73397 0.60677,-10.04916 1.0113,-16.95566 0.40452,-4.08164 0.30338,-1.37849 0.20225,-0.0348 0.20226,0.68476 0.30339,2.32778 0.40453,5.23198 0.70789,12.75269 0.80903,13.76302 0.40451,4.01044 0.34656,1.14341 0.15909,-0.24452 0.20226,-1.00981 0.30339,-2.90154 0.4045,-6.04624 1.61806,-27.80245 0.3034,-1.7912 0.20225,-0.14419 0.20227,0.71689 0.30339,2.62798 0.4045,5.99258 1.7192,29.61442 0.20225,0.88974 0.0925,0.0984 0.10975,-0.13878 0.20225,-0.97697 0.30339,-3.12629 0.40451,-6.73535 1.41581,-26.75405 0.30338,-2.05701 0.12627,-0.19921 0.076,0.0725 0.20225,0.89458 0.30339,3.16196 0.4045,7.02288 1.31469,26.19866 0.30338,2.3597 0.14299,0.27742 0.0593,-0.0479 0.20226,-0.88077 0.30339,-3.30062 0.40451,-7.42265 1.21355,-25.39431 0.30339,-2.61103 0.14984,-0.33038 0.0525,0.0407 0.20224,0.91463 0.30339,3.51363 0.40451,7.90207 1.11242,24.38856 0.30339,2.85309 0.15343,0.37503 0.14996,-0.36004 0.20226,-1.60556 0.30338,-4.59853 0.50564,-11.6924 0.70792,-16.50784 0.30338,-4.05987 0.20225,-1.10383 0.0587,-0.0596 0.14357,0.35694 0.20226,1.69118 0.30338,4.88986 0.60677,15.04896 0.60679,13.90639 0.30339,3.52801 0.17463,0.56632 0.12875,-0.31011 0.20225,-1.71646 0.30339,-5.11398 0.60677,-15.74258 0.60677,-13.90119 0.30339,-2.99437 0.10191,-0.20897 0.10033,0.20311 0.20225,1.62542 0.30339,5.2024 0.60677,16.34758 0.50564,12.35947 0.30339,3.77159 0.14882,0.47809 0.0534,-0.0621 0.20226,-1.34823 0.30337,-5.0653 0.50566,-13.78974 0.60676,-15.75202 0.30338,-3.64931 0.11748,-0.32096 0.0848,0.16805 0.20227,1.73639 0.30339,5.7785 0.7079,20.77696 0.4045,9.09501 0.20227,2.11268 0.11319,0.32007 0.0891,-0.19914 0.20225,-1.90449 0.30339,-6.21817 1.21355,-31.14298 0.13983,-0.52288 0.0624,0.10496 0.20226,1.7608 0.30337,6.28993 1.21356,31.5454 0.0998,0.28657 0.10241,-0.3022 0.20226,-2.33039 0.30339,-7.2181 1.01128,-28.93199 0.19894,-1.20498 0.10445,0.33654 0.20226,2.51406 0.30339,7.69015 0.91016,27.61641 0.23789,1.8305 0.0654,-0.14158 0.20226,-2.18978 0.30338,-7.60007 0.91017,-28.38687 0.21966,-1.66936 0.0836,0.24689 0.20225,2.58177 0.30339,8.32649 0.80902,26.57335 0.24815,2.25916 0.0552,-0.11474 0.20226,-2.33841 0.30339,-8.35838 0.80903,-27.19566 0.22476,-1.98047 0.0786,0.24751 0.20225,2.84702 0.30339,9.216 0.7079,25.02204 0.20226,2.54531 0.0507,0.10978 0.15147,-0.97309 0.20224,-4.16346 0.40452,-15.00201 0.50566,-17.42557 0.23417,-2.42353 0.0692,0.21716 0.20225,3.05017 0.30339,10.07363 0.60678,23.22222 0.20225,3.19526 0.0691,0.22922 0.13315,-0.85048 0.20227,-4.36374 0.40451,-16.10236 0.40452,-15.19283 0.20226,-3.2744 0.0633,-0.20385 0.13902,0.98311 0.20226,4.72235 0.50564,21.37166 0.30339,10.3892 0.21847,2.52134 0.085,-0.39058 0.20225,-3.94389 0.40451,-16.70752 0.40452,-15.91662 0.23318,-3.02905 0.0702,0.28309 0.20227,3.85785 0.30338,12.24819 0.50564,20.9823 0.21017,2.61623 0.0932,-0.52751 0.20226,-4.58603 0.40452,-18.2585 0.40452,-15.16976 0.15103,-1.44586 0.0512,0.16885 0.20226,3.849 0.30339,13.01361 0.50563,21.27886 0.15842,1.67734 0.14497,-1.41831 0.20226,-6.29865 0.84045,-32.2707 0.0696,0.349 0.20226,4.76806 0.40452,19.97184 0.30339,12.60534 0.1759,2.29342 0.12748,-1.22393 0.20225,-6.52977 0.70791,-31.62478 0.0876,-0.60918 0.1147,1.04666 0.20226,6.52283 0.70789,31.99625 0.0709,0.42192 0.13134,-1.44253 0.20226,-7.29935 0.60678,-29.83158 0.1271,-1.4142 0.0752,0.50072 0.20226,5.99833 0.70789,33.20692 0.055,0.28169 0.14728,-2.00204 0.20226,-8.45978 0.50566,-27.10071 0.15892,-2.42513 0.14446,2.02536 0.20225,8.76556 0.50565,27.30453 0.13657,1.89221 0.0656,-0.44533 0.20225,-6.57719 0.60678,-32.09435 0.09,-0.87079 0.11231,1.35917 0.20228,8.5376 0.50564,28.44692 0.12105,1.64397 0.0812,-0.74927 0.20225,-7.7979 0.63528,-31.44049 0.0726,0.62964 0.20225,7.81321 0.50564,29.87113 0.11645,1.67368 0.0859,-0.91979 0.20227,-8.69471 0.50565,-29.49045 0.0824,-0.88271 0.11997,1.87098 0.20226,10.40344 0.40451,25.4698 0.129,2.24344 0.0733,-0.73705 0.20225,-8.91519 0.50565,-29.90052 0.055,-0.4349 0.14723,3.06148 0.30339,19.97008 0.30339,16.35512 0.0633,0.60098 0.13898,-2.85914 0.30338,-20.31531 0.30338,-16.36699 0.0532,-0.44622 0.14899,3.42081 0.63238,36.56685 0.0755,-0.93702 0.20224,-10.5955 0.40453,-27.3082 0.0821,-1.14694 0.12025,2.45406 0.3034,21.52572 0.32411,16.00788 0.0803,-1.15721 0.20227,-11.69447 0.4491,-27.13598 0.0566,0.59977 0.20226,10.816 0.40451,28.02411 0.053,0.54778 0.14928,-4.23887 0.55199,-35.74879 0.0547,0.61276 0.20227,11.54736 0.42969,27.82754 0.0759,-1.22201 0.20226,-13.25884 0.30339,-23.69363 0.0911,-1.81318 0.11117,2.69819 0.54783,37.28947 0.0589,-0.80199 0.20225,-13.13764 0.30339,-24.48281 0.0812,-1.56522 0.1211,3.45037 0.5118,36.53729 0.095,-2.23071 0.30339,-26.26411 0.22208,-11.49284 0.0813,1.70828 0.20225,16.01114 0.32475,22.26824 0.0797,-1.70932 0.20226,-16.42252 0.31455,-21.85582 0.09,2.25092 0.49519,37.73674 0.11158,-3.55994 0.46247,-36.42772 0.1443,6.05177 0.41899,33.93589 0.0866,-2.33967 0.46613,-37.64799 0.14064,6.18869 0.40198,33.79897 0.10367,-3.57011 0.42903,-36.41755 0.0766,2.04806 0.44646,37.9396 0.0593,-1.2758 0.20226,-19.14107 0.25222,-19.57079 0.0511,0.99021 0.20227,19.00668 0.2511,19.99077 0.0524,-1.07015 0.20227,-19.63326 0.24112,-19.28425 0.0622,1.56704 0.42475,38.42062 0.0809,-2.71563 0.39766,-37.27203 0.10799,4.91624 0.30338,33.51729 0.0591,1.55413 0.14329,-8.65629 0.31905,-31.33137 0.0855,3.3424 0.36908,36.64526 0.13656,-8.43465 0.31038,-31.55301 0.0941,4.3045 0.34536,35.68316 0.0592,-1.79378 0.37313,-38.19388 0.13252,8.7499 0.29271,31.23776 0.1118,-6.56992 0.30653,-33.41774 0.098,5.27416 0.31361,34.7135 0.0909,-4.7097 0.31417,-35.27796 0.0904,4.80136 0.30829,35.1863 0.0962,-5.58168 0.29618,-34.40598 0.10834,7.19563 0.27794,32.79203"
             stroke-linecap="round"
             stroke-linejoin="round"
             stroke-miterlimit="10"
             stroke-width="2.5"
             stroke-opacity="0.9"
             stroke-dasharray="none"
             id="path342397"
             style="stroke:#ff6600;stroke-width:0.692888;stroke-miterlimit:4;stroke-dasharray:none"
             sodipodi:nodetypes="cccccccccccccccccccccccccccccccccccccccccccccccccccccccccccccccccccccccccccccccccccccccccccccccccccccccccccccccccccccccccccccccccccccccccccccccccccccccccccccccccccccccccccccccccccccccccccccccccccccccccccccccccccccccccccccccccccccccccccccccccccccccccccccccccccccccccccccccccccccccccccccccccccccccccccccccccccccccccccccccccccccccccccccccccccccccccccccccccccccccccccccccccccccccccccccccccccccccccccccccccccccccccccccccccccccccccccccccccccccccccccccccccccccccccccccccccccccccccccccccccccccccccccccccccccccccccccccccccccccccccccccccccccccccccccccccccccccccccccccccccccccccccccccccccccccc" />
        </g>
        <g
           id="g342403"
           style="stroke:#ff6600;stroke-width:0.680993;stroke-miterlimit:4;stroke-dasharray:none" />
      </g>
    </g>
    <g
       id="labels-35409c3d-9"
       transform="matrix(2,0,0,2,113.35505,9.8173611)" />
  </g>
</svg>
